<svg width="512" height="512" viewBox="0 0 512 512" fill="none" xmlns="http://www.w3.org/2000/svg">
<g clip-path="url(#clip0)">
<path d="M417.441 378.645L331.039 353.233C320.572 350.155 313.385 340.548 313.385 329.638V290.655H198.613V329.638C198.613 340.548 191.425 350.154 180.959 353.233L94.557 378.645C73.624 384.802 59.248 404.014 59.248 425.834V487.405C59.248 500.988 70.259 511.999 83.842 511.999H428.156C441.739 511.999 452.75 500.988 452.75 487.405V425.834C452.75 404.014 438.375 384.802 417.441 378.645Z" fill="#E3AA75"/>
<path d="M417.441 378.645L331.039 353.233C329.578 352.803 328.199 352.219 326.877 351.549L255.995 364.436L185.121 351.549C183.799 352.219 182.42 352.803 180.959 353.233L94.557 378.645C73.623 384.802 59.248 404.014 59.248 425.834V487.406C59.248 500.988 70.259 511.999 83.842 511.999H428.156C441.739 511.999 452.75 500.988 452.75 487.405V425.833C452.75 404.014 438.375 384.802 417.441 378.645Z" fill="#E6646E"/>
<path d="M159.039 372.018L199.659 406.836C205.599 411.927 213.174 414.731 220.99 414.731C231.012 414.731 240.349 410.245 246.606 402.424L255.999 390.682L265.392 402.423C271.649 410.245 280.985 414.73 291.008 414.73C298.824 414.73 306.399 411.926 312.339 406.835L352.959 372.018C356.253 369.194 358.521 365.59 359.793 361.689L331.039 353.232C329.578 352.802 328.199 352.218 326.877 351.548L255.995 364.435L185.121 351.548C183.799 352.218 182.42 352.802 180.959 353.232L152.205 361.689C153.477 365.591 155.745 369.195 159.039 372.018Z" fill="#DC4655"/>
<path d="M198.613 308.949C215.836 318.149 235.368 323.447 255.999 323.447C276.63 323.447 296.162 318.149 313.385 308.949V290.655H198.613V308.949Z" fill="#D29B6E"/>
<path d="M366.671 167.685H362.572V77.507H149.426V167.684H145.327C134.008 167.684 124.832 176.86 124.832 188.179C124.832 199.498 134.008 208.674 145.327 208.674H149.84C154.039 263.689 199.908 307.049 255.999 307.049C312.09 307.049 357.959 263.689 362.158 208.674H366.671C377.99 208.674 387.166 199.498 387.166 188.179C387.166 176.861 377.991 167.685 366.671 167.685Z" fill="#F5B97D"/>
<path d="M329.781 93.903V77.507H149.426V167.684H146.497C135.776 167.684 126.007 175.397 124.939 186.064C123.71 198.332 133.311 208.673 145.328 208.673H149.841C154.04 263.688 199.909 307.048 256 307.048C261.608 307.048 267.076 306.502 272.447 305.666C221.368 297.783 182.218 253.76 182.218 200.474V143.088C182.218 124.978 196.899 110.296 215.01 110.296H313.385C322.44 110.299 329.781 102.959 329.781 93.903Z" fill="#E3AA75"/>
<path d="M255.999 364.436L189.702 327.604C185.622 325.337 180.476 326.929 178.388 331.104L168.111 351.658C166.765 354.35 167.424 357.612 169.709 359.57L210.329 394.387C217.37 400.422 228.01 399.422 233.802 392.181L255.999 364.436Z" fill="#E6646E"/>
<path d="M255.999 364.436L322.296 327.604C326.376 325.337 331.522 326.929 333.61 331.104L343.887 351.658C345.233 354.35 344.574 357.612 342.289 359.57L301.669 394.387C294.628 400.422 283.988 399.422 278.196 392.181L255.999 364.436Z" fill="#E6646E"/>
<path d="M206.811 192.991C202.28 192.991 198.613 189.32 198.613 184.793V176.595C198.613 172.068 202.28 168.397 206.811 168.397C211.342 168.397 215.009 172.068 215.009 176.595V184.793C215.009 189.321 211.343 192.991 206.811 192.991Z" fill="#5A4650"/>
<path d="M305.187 192.991C300.656 192.991 296.989 189.32 296.989 184.793V176.595C296.989 172.068 300.656 168.397 305.187 168.397C309.718 168.397 313.385 172.068 313.385 176.595V184.793C313.385 189.321 309.718 192.991 305.187 192.991Z" fill="#5A4650"/>
<path d="M215.009 159.487H198.613C194.082 159.487 190.415 155.816 190.415 151.289C190.415 146.762 194.082 143.091 198.613 143.091H215.009C219.54 143.091 223.207 146.762 223.207 151.289C223.207 155.816 219.541 159.487 215.009 159.487Z" fill="#6E5A64"/>
<path d="M313.385 159.487H296.989C292.458 159.487 288.791 155.816 288.791 151.289C288.791 146.762 292.458 143.091 296.989 143.091H313.385C317.916 143.091 321.583 146.762 321.583 151.289C321.583 155.816 317.916 159.487 313.385 159.487Z" fill="#6E5A64"/>
<path d="M223.588 221.655C221.007 221.655 219.089 224.014 219.518 226.559C222.181 242.343 237.5 254.447 255.999 254.447C274.498 254.447 289.817 242.343 292.48 226.559C292.909 224.014 290.991 221.655 288.41 221.655H223.588Z" fill="white"/>
<path d="M255.999 438.217C260.527 438.217 264.197 434.547 264.197 430.019C264.197 425.491 260.527 421.821 255.999 421.821C251.471 421.821 247.801 425.491 247.801 430.019C247.801 434.547 251.471 438.217 255.999 438.217Z" fill="#FFC350"/>
<path d="M255.999 487.407C260.527 487.407 264.197 483.737 264.197 479.209C264.197 474.681 260.527 471.011 255.999 471.011C251.471 471.011 247.801 474.681 247.801 479.209C247.801 483.737 251.471 487.407 255.999 487.407Z" fill="#FFC350"/>
<path d="M347.851 61.112H164.147C139.116 61.112 119.93 83.351 123.6 108.111L133.03 171.736L151.436 169.462C159.651 168.447 165.822 161.468 165.822 153.19V110.299C165.822 101.243 173.163 93.903 182.218 93.903H329.781C338.836 93.903 346.177 101.243 346.177 110.299V153.189C346.177 161.467 352.348 168.447 360.563 169.461L378.969 171.735L388.399 108.11C392.068 83.35 372.882 61.112 347.851 61.112Z" fill="#5A4650"/>
<path d="M366.421 5.766C364.845 0.883997 359.175 -1.486 354.695 1.013C346.155 5.779 330.279 11.923 305.186 11.923H223.206C191.513 11.923 165.82 37.615 165.82 69.309C165.82 82.892 176.831 93.903 190.414 93.903H321.581C352.389 93.903 383.195 57.727 366.421 5.766Z" fill="#64505A"/>
<path d="M133.03 438.217V511.999H108.436V462.811C108.436 449.228 119.447 438.217 133.03 438.217Z" fill="#DC4655"/>
<path d="M378.968 438.217V511.999H403.562V462.811C403.562 449.228 392.551 438.217 378.968 438.217Z" fill="#DC4655"/>
<path d="M133.03 511.999H165.822V357.684L133.03 367.329V511.999Z" fill="#FFE17D"/>
<path d="M378.968 511.999H346.176V357.684L378.968 367.329V511.999Z" fill="#FFE17D"/>
<path d="M133.03 511.999H149.426V454.613C149.426 445.558 142.085 438.217 133.03 438.217V511.999Z" fill="#FFD164"/>
<path d="M378.968 511.999H362.572V454.613C362.572 445.558 369.913 438.217 378.968 438.217V511.999Z" fill="#FFD164"/>
<path d="M214.622 40.502C214.746 52.126 225.041 61.112 236.665 61.112H347.851C353.75 61.112 359.305 62.384 364.332 64.597C371.8 49.438 374.004 29.233 366.411 5.735C364.841 0.877002 359.175 -1.488 354.718 1.002C346.183 5.77 330.301 11.925 305.186 11.925H223.206C222.694 12.226 222.114 12.566 221.602 12.867C217.169 21.006 214.619 30.317 214.619 40.238C214.62 40.325 214.621 40.413 214.622 40.502Z" fill="#6E5A64"/>
</g>
<defs>
<clipPath id="clip0">
<rect width="511.999" height="511.999" fill="white"/>
</clipPath>
</defs>
</svg>
