<svg width="512" height="512" viewBox="0 0 512 512" fill="none" xmlns="http://www.w3.org/2000/svg">
<path d="M346.838 323.551C346.838 315.323 349.65 307.818 354.307 301.933C357.101 298.403 357.101 293.342 354.307 289.812C349.65 283.927 346.838 276.423 346.838 268.195C346.838 264.259 346.976 206.452 346.976 206.452H375.742C387.838 211.868 396.387 224.926 396.387 240.229C396.387 248.966 393.575 256.935 388.918 263.184C386.124 266.934 386.124 272.308 388.918 276.056C393.575 282.305 396.387 290.275 396.387 299.013C396.387 308.057 393.382 316.289 388.432 322.634C385.192 326.787 385.192 332.622 388.432 336.776C393.383 343.122 396.387 351.354 396.387 360.399C396.387 379.87 379.871 396.386 379.871 396.386L346.839 388.128C346.839 388.128 346.839 371.612 354.794 359.111C357.521 354.826 358.034 349.705 354.794 345.794C349.841 339.82 346.838 332.068 346.838 323.551Z" fill="#FF8250"/>
<path d="M165.16 323.551C165.16 315.323 162.348 307.818 157.691 301.933C154.897 298.403 154.897 293.342 157.691 289.812C162.348 283.927 165.16 276.423 165.16 268.195C165.16 264.259 165.022 206.452 165.022 206.452H136.256C124.16 211.868 115.611 224.926 115.611 240.229C115.611 248.966 118.423 256.935 123.08 263.184C125.874 266.934 125.874 272.308 123.08 276.056C118.423 282.305 115.611 290.275 115.611 299.013C115.611 308.057 118.616 316.289 123.566 322.634C126.806 326.787 126.806 332.622 123.566 336.776C118.615 343.122 115.611 351.354 115.611 360.399C115.611 379.87 132.127 396.386 132.127 396.386L165.159 388.128C165.159 388.128 165.159 371.612 157.204 359.111C154.477 354.826 153.964 349.705 157.204 345.794C162.156 339.82 165.16 332.068 165.16 323.551Z" fill="#FF8250"/>
<path d="M255.999 0C183.026 0 123.87 59.156 123.87 132.129V194.113H388.128V132.129C388.128 59.156 328.972 0 255.999 0Z" fill="#FF8250"/>
<path d="M412.877 401.236L327.586 371.133C314.379 366.472 305.547 353.989 305.547 339.984V272.516H206.449V339.984C206.449 353.989 197.617 366.472 184.411 371.133L99.12 401.236C79.31 408.228 66.063 426.952 66.063 447.959V487.226C66.063 500.908 77.155 512 90.837 512H421.16C434.842 512 445.934 500.908 445.934 487.226V447.959C445.934 426.952 432.687 408.228 412.877 401.236Z" fill="#F7D291"/>
<path d="M412.877 401.236L346.525 377.818C343.323 425.08 304.073 462.452 255.999 462.452C207.925 462.452 168.675 425.08 165.473 377.818L99.121 401.236C79.311 408.227 66.064 426.952 66.064 447.959V487.226C66.064 500.908 77.156 512 90.838 512H421.161C434.843 512 445.935 500.908 445.935 487.226V447.959C445.934 426.952 432.687 408.227 412.877 401.236Z" fill="#E3AA75"/>
<path d="M206.451 320.103C221.649 326.687 238.408 330.322 255.999 330.322C273.59 330.322 290.349 326.686 305.547 320.103V289.032H206.45L206.451 320.103Z" fill="#F0C382"/>
<path d="M367.483 173.419C367.483 173.419 356.425 172.087 353.042 171.151C334.28 165.956 293.66 149.735 262.89 102.309C259.648 97.312 252.35 97.312 249.108 102.309C218.338 149.734 177.718 165.956 158.956 171.151C155.573 172.087 144.515 173.419 144.515 173.419C132.411 173.419 122.74 183.835 123.977 196.193C125.053 206.938 134.893 214.709 145.692 214.709H149.061C153.291 270.128 199.496 313.806 255.999 313.806C312.502 313.806 358.707 270.128 362.937 214.709H366.306C377.105 214.709 386.946 206.938 388.021 196.193C389.258 183.835 379.587 173.419 367.483 173.419Z" fill="#FFE1A0"/>
<path d="M353.042 171.151C334.3 165.96 293.745 149.768 262.987 102.457C259.697 97.396 252.306 97.388 249.016 102.449C227.77 135.133 201.855 152.957 181.677 162.573C172.643 166.877 164.753 169.546 158.957 171.151C155.574 172.087 144.516 173.419 144.516 173.419C132.412 173.419 122.742 183.834 123.978 196.192C125.053 206.938 134.893 214.71 145.693 214.71H149.062C153.292 270.129 199.497 313.807 256 313.807C261.632 313.807 267.118 313.243 272.516 312.407C225.367 305.107 188.319 267.237 182.48 219.637C181.613 212.566 181.809 205.389 182.687 198.318C183.402 192.557 185.111 186.85 188.453 182.103C191.391 177.93 195.212 174.406 199.729 171.844C217.793 161.598 238.014 145.763 256 121.365C277.545 150.591 302.297 167.529 322.709 177.294C337.269 184.26 354.413 182.888 367.484 173.418C367.483 173.419 356.423 172.088 353.042 171.151Z" fill="#F7D291"/>
<path d="M206.459 198.911C201.894 198.911 198.201 195.213 198.201 190.653V182.395C198.201 177.835 201.895 174.137 206.459 174.137C211.024 174.137 214.717 177.835 214.717 182.395V190.653C214.717 195.214 211.023 198.911 206.459 198.911Z" fill="#6E5A64"/>
<path d="M305.555 198.911C300.99 198.911 297.297 195.213 297.297 190.653V182.395C297.297 177.835 300.991 174.137 305.555 174.137C310.119 174.137 313.813 177.835 313.813 182.395V190.653C313.814 195.214 310.12 198.911 305.555 198.911Z" fill="#6E5A64"/>
<path d="M305.539 330.323L305.547 330.325V330.057L305.539 330.323Z" fill="#FFD164"/>
<path d="M206.451 330.057V330.325L206.459 330.323L206.451 330.057Z" fill="#FFD164"/>
<path d="M279.938 2.274C275.207 14.38 272.516 27.509 272.516 41.291C272.516 100.581 320.581 148.646 379.871 148.646C382.659 148.646 385.395 148.437 388.129 148.229V132.13C388.128 67.342 341.465 13.551 279.938 2.274Z" fill="#FF9664"/>
<path d="M223.35 227.785C220.75 227.785 218.818 230.161 219.25 232.725C221.932 248.625 237.364 260.817 255.999 260.817C274.634 260.817 290.065 248.625 292.748 232.725C293.18 230.161 291.248 227.785 288.648 227.785H223.35Z" fill="white"/>
<path d="M255.999 503.742C322.056 503.742 376.632 455.214 386.412 391.896L346.524 377.818C343.322 425.08 304.072 462.452 255.998 462.452C207.924 462.452 168.674 425.08 165.472 377.818L125.584 391.896C135.366 455.214 189.942 503.742 255.999 503.742Z" fill="#D29B6E"/>
<path d="M255.999 487.226C314.861 487.226 363.343 443.203 370.577 386.307L330.298 372.091C330.038 412.916 296.886 445.936 256 445.936C215.114 445.936 181.961 412.915 181.702 372.091L141.423 386.307C148.655 443.203 197.137 487.226 255.999 487.226Z" fill="#EDEBED"/>
</svg>
