<svg width="512" height="512" viewBox="0 0 512 512" fill="none" xmlns="http://www.w3.org/2000/svg">
<path d="M341.002 334.768L255.999 406.349L170.997 334.768C126.988 297.708 101.587 243.108 101.587 185.574V162.539C101.586 77.26 170.719 8.127 255.999 8.127C341.279 8.127 410.411 77.26 410.411 162.539V185.574C410.412 243.109 385.01 297.708 341.002 334.768Z" fill="#8CB4EB"/>
<path d="M416.045 379.8L330.391 354.608C320.015 351.556 312.889 342.033 312.889 331.218V292.572H199.11V331.218C199.11 342.034 191.985 351.557 181.608 354.608L95.9541 379.8C75.2021 385.904 60.951 404.949 60.951 426.581V487.619C60.951 501.084 71.8671 512 85.3321 512H426.665C440.13 512 451.046 501.084 451.046 487.619V426.581C451.047 404.949 436.796 385.904 416.045 379.8Z" fill="#E3AA75"/>
<path d="M416.045 379.8L330.391 354.608C328.943 354.182 327.576 353.603 326.265 352.939L255.997 406.349L185.737 352.939C184.426 353.603 183.059 354.182 181.611 354.608L95.9541 379.8C75.2021 385.904 60.951 404.949 60.951 426.58V487.619C60.951 501.084 71.8671 512 85.3321 512H426.665C440.13 512 451.046 501.084 451.046 487.619V426.58C451.047 404.949 436.796 385.904 416.045 379.8Z" fill="#8CB4EB"/>
<path d="M199.11 310.707C216.184 319.827 235.546 325.079 255.999 325.079C276.452 325.079 295.814 319.827 312.888 310.707V292.571H199.11V310.707Z" fill="#D29B6E"/>
<path d="M365.713 170.667H361.65V81.27H150.348V170.667H146.285C135.064 170.667 125.968 179.763 125.968 190.984C125.968 202.205 135.064 211.301 146.285 211.301H150.759C154.922 265.84 200.393 308.825 255.999 308.825C311.605 308.825 357.076 265.84 361.239 211.301H365.713C376.934 211.301 386.03 202.204 386.03 190.984C386.032 179.763 376.934 170.667 365.713 170.667Z" fill="#F5B97D"/>
<path d="M361.65 81.27H150.348V170.667H147.445C136.817 170.667 127.132 178.314 126.073 188.888C124.855 201.05 134.372 211.302 146.285 211.302H150.759C154.922 265.841 200.393 308.826 255.999 308.826C261.558 308.826 266.979 308.284 272.304 307.456C221.667 299.642 182.856 256 182.856 203.175V144.79C182.856 134.196 192.778 126.527 203.064 129.062C216.244 132.31 230.035 135.032 244.199 136.897C245.174 137.025 246.137 137.086 247.082 137.086C254.357 137.086 261.149 133.463 265.249 127.395C268.318 122.852 269.554 117.413 268.845 112.116C293.427 118.509 330.396 132.507 361.648 161.567V81.27H361.65Z" fill="#E3AA75"/>
<path d="M207.237 195.754C202.745 195.754 199.11 192.115 199.11 187.627V179.5C199.11 175.012 202.745 171.373 207.237 171.373C211.729 171.373 215.364 175.012 215.364 179.5V187.627C215.364 192.115 211.729 195.754 207.237 195.754Z" fill="#5A4650"/>
<path d="M304.761 195.754C300.269 195.754 296.634 192.115 296.634 187.627V179.5C296.634 175.012 300.269 171.373 304.761 171.373C309.253 171.373 312.888 175.012 312.888 179.5V187.627C312.888 192.115 309.253 195.754 304.761 195.754Z" fill="#5A4650"/>
<path d="M215.364 162.54H199.11C194.618 162.54 190.983 158.901 190.983 154.413C190.983 149.925 194.618 146.286 199.11 146.286H215.364C219.856 146.286 223.491 149.925 223.491 154.413C223.491 158.901 219.856 162.54 215.364 162.54Z" fill="#6E5A64"/>
<path d="M312.888 162.54H296.634C292.142 162.54 288.507 158.901 288.507 154.413C288.507 149.925 292.142 146.286 296.634 146.286H312.888C317.38 146.286 321.015 149.925 321.015 154.413C321.015 158.901 317.381 162.54 312.888 162.54Z" fill="#6E5A64"/>
<path d="M255.999 251.936C243.809 251.936 232.555 248.023 225.912 241.468C222.714 238.317 222.682 233.17 225.833 229.976C228.984 226.782 234.143 226.746 237.325 229.897C240.031 232.568 246.547 235.683 256 235.683C265.452 235.683 271.968 232.568 274.675 229.897C277.858 226.746 283.016 226.782 286.167 229.976C289.318 233.17 289.286 238.317 286.088 241.468C279.443 248.024 268.189 251.936 255.999 251.936Z" fill="#B67F5F"/>
<path d="M134.094 174.491L152.247 172.355C160.433 171.392 166.602 164.455 166.602 156.212V81.27H134.094V174.491Z" fill="#5A4650"/>
<path d="M377.904 174.491L359.751 172.355C351.565 171.392 345.396 164.455 345.396 156.212V81.27H377.904V174.491Z" fill="#5A4650"/>
<path d="M389.453 85.116C362.713 39.128 313.029 8.127 255.999 8.127C200.274 8.127 151.592 37.745 124.439 81.997V84.379C150.629 96.271 196.417 114.21 246.322 120.782C250.669 121.354 254.002 116.939 252.366 112.871L247.195 100.012C245.503 95.805 249.074 91.401 253.543 92.171C276.356 96.099 333.439 109.947 377.904 154.412L389.453 85.116Z" fill="#6E5A64"/>
<path d="M255.999 8.127C200.274 8.127 151.592 37.745 124.439 81.997V84.379C130.582 87.168 137.887 90.303 145.988 93.533C169.022 56.946 209.663 32.508 255.999 32.508C316.639 32.508 367.568 74.292 381.882 130.54L389.453 85.116C362.713 39.128 313.029 8.127 255.999 8.127Z" fill="#64505A"/>
<path d="M255.999 0C166.372 0 93.459 72.917 93.459 162.54V185.576C93.459 245.643 119.816 302.286 165.761 340.989L247.872 410.136V512H264.126V410.135L346.237 340.988V340.984C392.181 302.286 418.539 245.643 418.539 185.575V162.54C418.539 72.917 345.627 0 255.999 0ZM402.285 185.575C402.285 240.837 378.039 292.948 335.761 328.551L255.999 395.726L176.237 328.555C133.959 292.948 109.713 240.837 109.713 185.575V162.54C109.713 81.877 175.34 16.254 255.999 16.254C336.658 16.254 402.285 81.877 402.285 162.54V185.575Z" fill="#A5CDFF"/>
<path d="M255.999 406.349C247.059 406.349 239.745 413.663 239.745 422.603V438.857C239.745 447.797 247.059 455.111 255.999 455.111C264.939 455.111 272.253 447.797 272.253 438.857V422.603C272.253 413.663 264.939 406.349 255.999 406.349Z" fill="#6E5A64"/>
<path d="M128.578 439.337L75.3621 392.032C71.4711 395.904 68.3111 400.43 65.9131 405.378L117.785 451.488C122.983 456.111 125.968 462.75 125.968 469.71V512H142.222V469.71C142.221 458.111 137.253 447.039 128.578 439.337Z" fill="#A5CDFF"/>
<path d="M383.42 439.337L436.636 392.032C440.527 395.904 443.687 400.43 446.085 405.378L394.214 451.488C389.016 456.111 386.031 462.75 386.031 469.71V512H369.777V469.71C369.778 458.111 374.745 447.039 383.42 439.337Z" fill="#A5CDFF"/>
</svg>
