<svg width="512" height="512" viewBox="0 0 512 512" fill="none" xmlns="http://www.w3.org/2000/svg">
<path d="M410.723 275.498C396.386 251.34 396.386 220.731 396.386 206.968H115.613C115.613 220.731 115.613 251.34 101.276 275.498C97.056 282.609 100.377 291.743 108.396 293.758C137.01 300.948 196.505 313.806 255.999 313.806C315.493 313.806 374.988 300.947 403.602 293.758C411.622 291.743 414.944 282.609 410.723 275.498Z" fill="#A06E50"/>
<path d="M409.598 373.594L342.828 346.886C330.287 341.87 322.064 329.724 322.064 316.217V305.549H189.935V316.217C189.935 329.724 181.712 341.87 169.171 346.886L102.401 373.594C80.454 382.373 66.064 403.629 66.064 427.266V487.226C66.064 500.908 77.156 512 90.838 512H421.161C434.843 512 445.935 500.908 445.935 487.226V427.266C445.934 403.628 431.545 382.373 409.598 373.594Z" fill="#F7D291"/>
<path d="M409.598 373.594L363.819 355.282C347.134 398.616 305.213 429.42 255.999 429.42C206.785 429.42 164.866 398.616 148.18 355.282L102.401 373.594C80.454 382.373 66.063 403.629 66.063 427.266V487.226C66.063 500.908 77.155 512 90.837 512H421.16C434.842 512 445.934 500.908 445.934 487.226V427.266C445.934 403.629 431.545 382.372 409.598 373.594Z" fill="#FF8087"/>
<path d="M255.999 470.71C322.595 470.71 379.358 429.151 402.135 370.609L363.817 355.282C347.132 398.616 305.212 429.42 255.998 429.42C206.784 429.42 164.865 398.616 148.179 355.282L109.861 370.609C132.641 429.15 189.404 470.71 255.999 470.71Z" fill="#E6646E"/>
<path d="M189.935 305.548V316.216C189.935 320.598 188.991 324.8 187.393 328.698C207.757 340.205 231.163 346.838 255.999 346.838C280.835 346.838 304.241 340.205 324.605 328.698C323.007 324.799 322.063 320.597 322.063 316.216V305.548H189.935Z" fill="#F0C382"/>
<path d="M383.999 173.419H379.87V132.129H132.129V173.419H128C116.598 173.419 107.355 182.662 107.355 194.064C107.355 205.466 116.598 214.709 128 214.709H132.546C136.814 279.252 190.376 330.322 256 330.322C321.624 330.322 375.186 279.252 379.454 214.709H383.999C395.401 214.709 404.644 205.466 404.644 194.064C404.644 182.662 395.402 173.419 383.999 173.419Z" fill="#FFE1A0"/>
<path d="M173.419 206.452V189.936C173.419 167.132 191.905 148.646 214.709 148.646H313.806C322.928 148.646 330.322 141.251 330.322 132.13H132.129V173.42H129.178C118.379 173.42 108.538 181.19 107.462 191.935C106.224 204.293 115.896 214.71 128 214.71H132.546C136.814 279.253 190.376 330.323 256 330.323C263.077 330.323 269.976 329.618 276.726 328.478C218.123 318.663 173.419 267.842 173.419 206.452Z" fill="#F7D291"/>
<path d="M206.315 198.931C201.75 198.931 198.057 195.233 198.057 190.673V182.415C198.057 177.855 201.751 174.157 206.315 174.157C210.879 174.157 214.573 177.855 214.573 182.415V190.673C214.573 195.234 210.879 198.931 206.315 198.931Z" fill="#6E5A64"/>
<path d="M305.41 198.931C300.845 198.931 297.152 195.233 297.152 190.673V182.415C297.152 177.855 300.846 174.157 305.41 174.157C309.974 174.157 313.668 177.855 313.668 182.415V190.673C313.668 195.234 309.976 198.931 305.41 198.931Z" fill="#6E5A64"/>
<path d="M272.515 445.935H239.483L231.226 512H280.773L272.515 445.935Z" fill="#FFD164"/>
<path d="M221.173 235.814C217.533 235.814 214.677 239.169 215.441 242.728C219.079 259.693 235.855 272.517 256 272.517C276.145 272.517 292.921 259.693 296.559 242.728C297.322 239.169 294.467 235.814 290.827 235.814H221.173Z" fill="white"/>
<path d="M255.999 454.194C315.642 454.194 366.468 416.937 386.808 364.479L348.49 349.151C334.243 386.402 298.26 412.904 255.999 412.904C213.738 412.904 177.756 386.402 163.508 349.151L125.19 364.479C145.531 416.937 196.356 454.194 255.999 454.194Z" fill="#FFE17D"/>
<path d="M255.999 0C178.465 0 115.612 62.853 115.612 140.387V177.419L134.073 175.184C143.059 174.096 150.736 168.194 154.098 159.79L165.161 132.13H346.838L357.903 159.791C361.265 168.195 368.941 174.097 377.927 175.185L396.387 177.42V140.388C396.387 62.853 333.533 0 255.999 0Z" fill="#B67F5F"/>
<path d="M289.032 4.071C278.421 1.507 267.398 0 255.999 0C178.465 0 115.612 62.853 115.612 140.387V177.42L134.073 175.185C143.059 174.097 150.736 168.195 154.098 159.79L165.161 132.13H182.094C185.735 69.696 230.062 18.32 289.032 4.071Z" fill="#A06E50"/>
</svg>
