<svg width="512" height="512" viewBox="0 0 512 512" fill="none" xmlns="http://www.w3.org/2000/svg">
<path d="M418.625 394.184L313.805 363.355H198.194L93.3739 394.184C72.2869 400.386 57.8059 419.739 57.8059 441.719V487.226C57.8059 500.908 68.8979 512 82.5799 512H429.419C443.101 512 454.193 500.908 454.193 487.226V441.719C454.193 419.739 439.713 400.386 418.625 394.184Z" fill="#EDEBED"/>
<path d="M255.999 429.419C298.029 429.419 335.178 408.332 357.584 376.23L313.805 363.354H198.194L154.415 376.23C176.821 408.333 213.97 429.419 255.999 429.419Z" fill="#DBD9DC"/>
<path d="M123.871 385.214V512H181.677V368.212L123.871 385.214Z" fill="#FF8250"/>
<path d="M181.677 404.457V368.212L154.414 376.231C161.95 387.026 171.183 396.536 181.677 404.457Z" fill="#DC7346"/>
<path d="M388.128 385.214V512H330.322V368.212L388.128 385.214Z" fill="#FF8250"/>
<path d="M357.584 376.231L330.321 368.212V404.457C340.816 396.536 350.049 387.026 357.584 376.231Z" fill="#DC7346"/>
<path d="M363.359 107.36H148.649V156.908H363.359V107.36Z" fill="#EDEBED"/>
<path d="M367.483 198.194H363.354V156.904H148.644V198.194H144.515C133.113 198.194 123.87 207.437 123.87 218.839C123.87 230.241 133.113 239.484 144.515 239.484H148.644V264.258H363.354V239.484H367.483C378.885 239.484 388.128 230.241 388.128 218.839C388.128 207.436 378.885 198.194 367.483 198.194Z" fill="#CD916E"/>
<path d="M363.354 156.903H148.644V198.193H145.693C134.894 198.193 125.053 205.963 123.977 216.708C122.739 229.066 132.411 239.483 144.515 239.483H148.644V264.257H181.676V222.967C181.676 195.602 203.86 173.419 231.224 173.419H363.353V156.903H363.354Z" fill="#B67F5F"/>
<path d="M255.999 412.903C196.708 412.903 148.644 364.839 148.644 305.548V247.741H363.354V305.548C363.354 364.839 315.289 412.903 255.999 412.903Z" fill="#64505A"/>
<path d="M206.451 222.968C201.886 222.968 198.193 219.27 198.193 214.71V206.452C198.193 201.892 201.887 198.194 206.451 198.194C211.015 198.194 214.709 201.892 214.709 206.452V214.71C214.71 219.27 211.016 222.968 206.451 222.968Z" fill="#5A4650"/>
<path d="M305.547 222.968C300.982 222.968 297.289 219.27 297.289 214.71V206.452C297.289 201.892 300.983 198.194 305.547 198.194C310.112 198.194 313.805 201.892 313.805 206.452V214.71C313.805 219.27 310.112 222.968 305.547 222.968Z" fill="#5A4650"/>
<path d="M255.999 297.29C243.612 297.29 232.176 293.314 225.426 286.653C222.176 283.451 222.144 278.222 225.345 274.976C228.547 271.726 233.789 271.694 237.022 274.895C239.772 277.609 246.393 280.774 255.998 280.774C265.603 280.774 272.224 277.609 274.974 274.895C278.208 271.693 283.45 271.726 286.651 274.976C289.853 278.222 289.82 283.452 286.57 286.653C279.822 293.315 268.386 297.29 255.999 297.29Z" fill="#CD916E"/>
<path d="M363.226 198.194C345.323 189.425 253.275 137.37 173.419 20.823C197.018 7.684 225.36 0 255.871 0C337.965 0 404.516 55.459 404.516 123.871C404.516 151.764 393.453 178.873 374.785 199.578C374.784 199.578 367.986 200.525 363.226 198.194Z" fill="#FF9664"/>
<path d="M148.645 198.194C166.548 189.425 258.596 137.37 338.452 20.823C314.853 7.684 286.51 0 255.999 0C173.905 0 107.354 55.459 107.354 123.871C107.354 151.764 118.417 178.873 137.085 199.578C137.086 199.578 143.884 200.525 148.645 198.194Z" fill="#FF8250"/>
<path d="M181.677 305.548V247.742H148.645V305.548C148.645 364.838 196.71 412.903 256 412.903C261.632 412.903 267.118 412.339 272.516 411.503C221.088 403.541 181.677 359.207 181.677 305.548Z" fill="#5A4650"/>
<path d="M255.999 454.198C260.56 454.198 264.257 450.501 264.257 445.94C264.257 441.379 260.56 437.682 255.999 437.682C251.438 437.682 247.741 441.379 247.741 445.94C247.741 450.501 251.438 454.198 255.999 454.198Z" fill="white"/>
<path d="M255.999 495.488C260.56 495.488 264.257 491.791 264.257 487.23C264.257 482.669 260.56 478.972 255.999 478.972C251.438 478.972 247.741 482.669 247.741 487.23C247.741 491.791 251.438 495.488 255.999 495.488Z" fill="white"/>
<path d="M123.871 437.677V512H99.0969V462.452C99.0969 448.769 110.189 437.677 123.871 437.677Z" fill="#DBD9DC"/>
<path d="M123.871 512H140.387V454.194C140.387 445.072 132.992 437.678 123.871 437.678C123.871 437.678 123.871 512 123.871 512Z" fill="#DC7346"/>
<path d="M388.128 437.677V512H412.902V462.452C412.903 448.769 401.81 437.677 388.128 437.677Z" fill="#DBD9DC"/>
<path d="M388.128 512H371.612V454.194C371.612 445.072 379.007 437.678 388.128 437.678V512Z" fill="#DC7346"/>
</svg>
