<svg width="512" height="512" viewBox="0 0 512 512" fill="none" xmlns="http://www.w3.org/2000/svg">
<path d="M399.356 416.416L297.289 379.871H214.709L112.642 416.416C89.658 424.645 74.322 446.426 74.322 470.839V487.226C74.322 500.908 85.414 512 99.096 512H412.902C426.584 512 437.676 500.908 437.676 487.226V470.839C437.676 446.427 422.34 424.646 399.356 416.416Z" fill="#B67F5F"/>
<path d="M214.983 495.082L254.129 485.98C254.741 485.837 255.371 485.765 255.999 485.765C256.628 485.765 257.257 485.837 257.869 485.98L297.015 495.082C301.09 496.03 305.276 496.51 309.457 496.51C330.201 496.51 348.869 484.904 357.015 466.943C363.288 453.113 370.135 432.237 371.327 406.38L297.289 379.87H214.709L140.671 406.38C141.864 432.236 148.71 453.112 154.983 466.943C163.129 484.904 181.797 496.51 202.541 496.51C206.722 496.51 210.908 496.029 214.983 495.082Z" fill="#A06E50"/>
<path d="M354.782 388.977C354.358 382.288 349.648 376.446 342.846 374.24L342.844 374.239C323.592 368.15 303.52 365.052 283.328 365.052H228.671C208.479 365.052 188.407 368.15 169.156 374.239L169.153 374.24C162.351 376.446 157.64 382.288 157.217 388.977C155.301 419.184 162.488 443.501 170.025 460.121C176.781 475.016 194.38 482.916 211.243 478.995L250.389 469.893C254.08 469.035 257.919 469.035 261.611 469.893L300.757 478.995C317.62 482.916 335.22 475.016 341.975 460.121C349.512 443.502 356.698 419.184 354.782 388.977Z" fill="#EDEBED"/>
<path d="M283.328 365.052H228.671C212.814 365.052 197.047 367.031 181.677 370.801V388.129C181.677 424.557 215.018 454.194 256 454.194C296.982 454.194 330.323 424.557 330.323 388.129V370.801C314.951 367.031 299.184 365.052 283.328 365.052Z" fill="#DBD9DC"/>
<path d="M198.193 346.839V388.129C198.193 415.494 224.074 437.677 255.999 437.677C287.925 437.677 313.805 415.494 313.805 388.129V346.839H198.193Z" fill="#E3AA75"/>
<path d="M255.999 388.129C276.783 388.129 296.456 382.787 313.805 373.52V346.839H198.193V373.52C215.542 382.787 235.215 388.129 255.999 388.129Z" fill="#D29B6E"/>
<path d="M268.386 132.129H243.612C207.126 132.129 177.548 102.551 177.548 66.065C177.547 29.578 207.125 0 243.612 0H268.386C304.872 0 334.45 29.578 334.45 66.064C334.451 102.551 304.873 132.129 268.386 132.129Z" fill="#DBD9DC"/>
<path d="M385.791 256C402.69 235.9 412.902 209.992 412.902 181.677C412.902 117.826 361.14 66.064 297.289 66.064H214.709C150.858 66.064 99.0959 117.826 99.0959 181.677C99.0959 209.992 109.309 235.899 126.207 256H385.791Z" fill="#C9C6CA"/>
<path d="M317.935 264.258H194.063C159.857 264.258 132.128 236.529 132.128 202.323C132.128 168.117 159.857 140.388 194.063 140.388H317.934C352.14 140.388 379.869 168.117 379.869 202.323C379.87 236.529 352.141 264.258 317.935 264.258Z" fill="#B7B2B8"/>
<path d="M366.305 231.226C360.114 231.226 355.096 226.208 355.096 220.017V189.936C355.096 176.254 344.004 165.162 330.322 165.162H181.676C167.994 165.162 156.902 176.254 156.902 189.936V220.017C156.902 226.208 151.884 231.226 145.693 231.226C134.894 231.226 125.053 238.996 123.977 249.741C122.739 262.099 132.41 272.516 144.515 272.516H149.061C153.291 327.935 199.496 371.613 255.999 371.613C312.502 371.613 358.707 327.935 362.937 272.516H367.483C379.588 272.516 389.259 262.099 388.021 249.741C386.945 238.996 377.104 231.226 366.305 231.226Z" fill="#F5B97D"/>
<path d="M330.322 165.161H181.677C167.995 165.161 156.903 176.253 156.903 189.935V220.016C156.903 226.292 151.763 231.169 145.487 231.226C134.769 231.324 125.046 239.063 123.977 249.74C122.74 262.098 132.41 272.515 144.515 272.515H149.061C153.291 327.934 199.496 371.612 255.999 371.612C261.648 371.612 267.156 371.062 272.567 370.22C221.113 362.279 181.676 317.934 181.676 264.257V214.71C181.676 196.467 196.465 181.678 214.708 181.678H313.805C322.927 181.677 330.322 174.283 330.322 165.161Z" fill="#E3AA75"/>
<path d="M256.007 322.065C243.62 322.065 232.184 318.089 225.434 311.428C222.184 308.226 222.152 302.997 225.353 299.751C228.555 296.501 233.797 296.469 237.03 299.67C239.78 302.384 246.401 305.549 256.006 305.549C265.611 305.549 272.232 302.384 274.982 299.67C278.216 296.468 283.458 296.501 286.659 299.751C289.861 302.997 289.828 308.227 286.578 311.428C279.83 318.089 268.394 322.065 256.007 322.065Z" fill="#B67F5F"/>
<path d="M280.507 253.19C279.152 253.19 277.781 252.859 276.515 252.154C266.491 246.61 245.975 246.529 235.717 252.025C231.693 254.186 226.701 252.67 224.54 248.658C222.379 244.638 223.887 239.63 227.911 237.477C235.411 233.445 245.395 231.227 256 231.227C266.847 231.227 276.976 233.529 284.516 237.711C288.508 239.921 289.951 244.945 287.742 248.937C286.233 251.653 283.41 253.19 280.507 253.19Z" fill="#DBD9DC"/>
<path d="M206.451 239.492H148.645C144.08 239.492 140.387 235.794 140.387 231.234C140.387 226.674 144.081 222.976 148.645 222.976H206.451C211.016 222.976 214.709 226.674 214.709 231.234C214.709 235.794 211.015 239.492 206.451 239.492Z" fill="#DBD9DC"/>
<path d="M363.354 239.484H305.548C300.983 239.484 297.29 235.786 297.29 231.226C297.29 226.666 300.984 222.968 305.548 222.968H363.354C367.919 222.968 371.612 226.666 371.612 231.226C371.612 235.786 367.918 239.484 363.354 239.484Z" fill="#DBD9DC"/>
<path d="M309.676 280.774H301.418C285.483 280.774 272.515 267.806 272.515 251.871C272.515 235.936 285.483 222.968 301.418 222.968H309.676C325.611 222.968 338.579 235.936 338.579 251.871C338.579 267.806 325.612 280.774 309.676 280.774Z" fill="white"/>
<path d="M301.418 239.484C294.587 239.484 289.031 245.04 289.031 251.871C289.031 258.702 294.587 264.258 301.418 264.258H309.676C316.507 264.258 322.063 258.702 322.063 251.871C322.063 245.04 316.507 239.484 309.676 239.484H301.418Z" fill="#E3AA75"/>
<path d="M309.676 239.484H301.418C299.963 239.484 298.587 239.782 297.289 240.245V247.742C297.289 252.302 300.986 256 305.547 256C310.108 256 313.805 252.302 313.805 247.742V240.245C312.508 239.782 311.131 239.484 309.676 239.484Z" fill="#64505A"/>
<path d="M134.338 471.81L88.9361 432.613C85.2381 436.794 82.1461 441.458 79.7881 446.531L123.548 484.31C129 489.02 132.129 495.854 132.129 503.064V512H148.645V503.065C148.644 491.052 143.426 479.661 134.338 471.81Z" fill="#A06E50"/>
<path d="M377.66 471.81L423.062 432.613C426.76 436.794 429.852 441.458 432.21 446.531L388.45 484.31C382.998 489.02 379.869 495.854 379.869 503.064V512H363.353V503.065C363.354 491.052 368.572 479.661 377.66 471.81Z" fill="#A06E50"/>
<path d="M210.58 280.774H202.322C186.387 280.774 173.419 267.806 173.419 251.871C173.419 235.936 186.387 222.968 202.322 222.968H210.58C226.515 222.968 239.483 235.936 239.483 251.871C239.483 267.806 226.515 280.774 210.58 280.774Z" fill="white"/>
<path d="M202.322 239.484C195.491 239.484 189.935 245.04 189.935 251.871C189.935 258.702 195.491 264.258 202.322 264.258H210.58C217.411 264.258 222.967 258.702 222.967 251.871C222.967 245.04 217.411 239.484 210.58 239.484H202.322Z" fill="#E3AA75"/>
<path d="M210.58 239.484H202.322C200.867 239.484 199.491 239.782 198.193 240.245V247.742C198.193 252.302 201.89 256 206.451 256C211.012 256 214.709 252.302 214.709 247.742V240.245C213.411 239.782 212.034 239.484 210.58 239.484Z" fill="#64505A"/>
</svg>
