<svg width="512" height="512" viewBox="0 0 512 512" fill="none" xmlns="http://www.w3.org/2000/svg">
<g clip-path="url(#clip0)">
<path d="M421.292 375.466L335.138 350.127L269.967 393.574C261.509 399.213 250.49 399.213 242.032 393.574L176.861 350.127L90.7069 375.466C69.2739 381.77 54.5559 401.44 54.5559 423.78V486.82C54.5559 500.727 65.8299 512 79.7359 512H432.261C446.168 512 457.441 500.726 457.441 486.82V423.78C457.443 401.44 442.726 381.769 421.292 375.466Z" fill="#CDF5A0"/>
<path d="M348.328 276.984H163.672C135.858 276.984 113.311 299.531 113.311 327.345C113.311 382.972 158.405 428.066 214.032 428.066H297.966C353.593 428.066 398.687 382.971 398.687 327.345C398.689 299.531 376.141 276.984 348.328 276.984Z" fill="#B4F09B"/>
<path d="M346.094 302.164C364.364 302.164 371.538 325.859 356.337 335.994L269.967 393.574C261.509 399.213 250.49 399.213 242.032 393.574L155.662 335.994C140.46 325.86 147.635 302.164 165.905 302.164H346.094Z" fill="#64DCA0"/>
<path d="M176.862 350.127L242.033 393.574C250.492 399.213 261.51 399.213 269.968 393.574L335.139 350.127H335.14L332.831 349.448C322.115 346.296 314.756 336.461 314.756 325.291V285.378H197.246V325.291C197.246 336.461 189.887 346.296 179.171 349.448L176.862 350.127Z" fill="#B67F5F"/>
<path d="M197.246 304.108C214.88 313.527 234.877 318.951 256 318.951C277.123 318.951 297.12 313.527 314.754 304.108V285.377H197.246V304.108Z" fill="#A06E50"/>
<path d="M369.312 159.475H365.115V58.754L146.885 75.541V159.475H142.688C131.099 159.475 121.704 168.869 121.704 180.459C121.704 192.048 131.098 201.443 142.688 201.443H147.309C151.61 257.77 198.572 302.164 256.001 302.164C313.43 302.164 360.392 257.77 364.692 201.443H369.313C380.902 201.443 390.297 192.048 390.297 180.459C390.296 168.87 380.901 159.475 369.312 159.475Z" fill="#CD916E"/>
<path d="M331.541 75.541V67.148L146.885 75.541V159.475H143.886C132.91 159.475 122.907 167.372 121.814 178.294C120.556 190.854 130.386 201.443 142.689 201.443H147.31C151.609 257.77 198.571 302.164 256 302.164C261.741 302.164 267.34 301.605 272.84 300.75C220.543 292.679 180.459 247.607 180.459 193.05V125.902C180.459 107.36 195.49 92.328 214.033 92.328H314.754C324.025 92.328 331.541 84.812 331.541 75.541Z" fill="#B67F5F"/>
<path d="M205.639 184.656C201 184.656 197.246 180.898 197.246 176.263V167.87C197.246 163.235 201 159.477 205.639 159.477C210.278 159.477 214.032 163.235 214.032 167.87V176.263C214.033 180.898 210.279 184.656 205.639 184.656Z" fill="#5A4650"/>
<path d="M306.361 184.656C301.722 184.656 297.968 180.898 297.968 176.263V167.87C297.968 163.235 301.722 159.477 306.361 159.477C311 159.477 314.754 163.235 314.754 167.87V176.263C314.754 180.898 311 184.656 306.361 184.656Z" fill="#5A4650"/>
<path d="M197.238 151.082C193.279 151.082 189.754 148.271 189 144.234C188.139 139.681 191.139 135.295 195.697 134.439L212.484 131.291C217.115 130.422 221.435 133.443 222.279 137.996C223.14 142.549 220.14 146.935 215.582 147.791L198.795 150.939C198.27 151.037 197.746 151.082 197.238 151.082Z" fill="#64505A"/>
<path d="M314.762 151.082C314.254 151.082 313.729 151.037 313.205 150.939L296.418 147.791C291.861 146.934 288.861 142.549 289.721 137.996C290.573 133.443 294.901 130.426 299.516 131.291L316.303 134.439C320.86 135.296 323.86 139.681 323 144.234C322.246 148.27 318.722 151.082 314.762 151.082Z" fill="#64505A"/>
<path d="M222.426 0C180.706 0 146.885 33.821 146.885 75.541H323.147C361.675 75.541 393.466 46.698 398.105 9.427C398.727 4.427 394.752 0 389.714 0C389.714 0 222.426 0 222.426 0Z" fill="#5A4650"/>
<path d="M389.715 0H242.142C230.333 9.545 221.449 22.564 217.068 37.509C213.951 48.141 222.216 58.754 233.296 58.754H370.516C385.377 46.758 395.645 29.3 398.113 9.382C398.729 4.398 394.737 0 389.715 0Z" fill="#64505A"/>
<path d="M222.426 512H205.639V411.279C205.639 406.643 209.397 402.886 214.032 402.886C218.668 402.886 222.425 406.644 222.425 411.279L222.426 512Z" fill="#FFD164"/>
<path d="M306.361 512H289.574V411.279C289.574 406.643 293.332 402.886 297.967 402.886C302.603 402.886 306.36 406.644 306.36 411.279L306.361 512Z" fill="#FFD164"/>
<path d="M256 243.41C243.41 243.41 231.787 239.369 224.926 232.599C221.623 229.345 221.59 224.029 224.844 220.73C228.098 217.431 233.426 217.394 236.713 220.648C239.508 223.406 246.238 226.623 256 226.623C265.762 226.623 272.492 223.406 275.287 220.648C278.574 217.394 283.902 217.431 287.156 220.73C290.41 224.029 290.377 229.345 287.074 232.599C280.214 239.369 268.59 243.41 256 243.41Z" fill="#A06E50"/>
</g>
<defs>
<clipPath id="clip0">
<rect width="512" height="512" fill="white" transform="translate(-0.000976562)"/>
</clipPath>
</defs>
</svg>
