<svg width="512" height="512" viewBox="0 0 512 512" fill="none" xmlns="http://www.w3.org/2000/svg">
<path d="M407.138 357.955L280.738 313.367H231.259L104.859 357.955C81.7749 366.098 66.3369 387.915 66.3369 412.393V487.26C66.3369 500.923 77.4129 512 91.0769 512H420.921C434.584 512 445.661 500.924 445.661 487.26V412.393C445.661 387.915 430.222 366.098 407.138 357.955Z" fill="#FFE17D"/>
<path d="M386.08 350.527L280.739 313.367H231.259L125.918 350.527C135.891 414.544 190.246 461.804 255.999 461.804C321.752 461.804 376.107 414.544 386.08 350.527Z" fill="#FFD164"/>
<path d="M255.999 313.367H231.259L104.86 357.955C81.7759 366.098 66.3369 387.915 66.3369 412.393V487.26C66.3369 500.923 77.4129 512 91.0769 512H255.999V313.367Z" fill="#A5CDFF"/>
<path d="M231.259 313.367L125.918 350.527C135.891 414.544 190.246 461.804 255.999 461.804V313.367H231.259Z" fill="#8CB4EB"/>
<path d="M255.999 445.311C316.282 445.311 365.651 399.077 370.864 340.149C371.194 336.418 368.779 332.907 365.224 331.73C309.761 313.367 255.999 313.367 255.999 313.367C255.999 313.367 202.237 313.367 146.775 331.73C143.219 332.907 140.805 336.418 141.135 340.149C146.347 399.077 195.716 445.311 255.999 445.311Z" fill="#CDF5A0"/>
<path d="M255.999 379.339C228.672 379.339 206.52 357.187 206.52 329.86V288.627H305.478V329.86C305.478 357.187 283.326 379.339 255.999 379.339Z" fill="#E3AA75"/>
<path d="M206.52 319.415C221.693 326.071 238.397 329.86 255.999 329.86C273.601 329.86 290.305 326.071 305.478 319.415V288.627H206.52V319.415Z" fill="#D29B6E"/>
<path d="M156.762 184.196C156.825 183.262 157.041 182.373 157.041 181.423C157.041 170.656 152.817 160.938 146.058 153.594C159.486 147.4 168.103 132.551 164.441 116.127C161.767 104.133 152.08 94.351 140.101 91.607C118.493 86.657 99.3142 102.938 99.3142 123.699C99.3142 126.226 99.6022 128.685 100.144 131.047C101.618 137.464 98.2012 143.752 92.7392 147.428C81.7932 154.797 74.5742 167.225 74.5742 181.424C74.5742 193.013 79.3772 203.452 87.0832 210.929C90.8272 214.562 92.0122 219.947 91.4042 225.128C91.0042 228.535 90.9522 232.049 91.2912 235.636C93.6332 260.456 115.316 280.233 140.246 280.381C167.711 280.544 190.025 258.33 190.025 230.903C190.027 209.262 176.113 190.916 156.762 184.196Z" fill="#E6646E"/>
<path d="M355.236 184.196C355.173 183.262 354.957 182.373 354.957 181.423C354.957 170.656 359.181 160.938 365.94 153.594C352.512 147.4 343.895 132.551 347.557 116.127C350.231 104.133 359.918 94.351 371.897 91.607C393.505 86.657 412.684 102.938 412.684 123.699C412.684 126.226 412.396 128.685 411.854 131.047C410.38 137.464 413.797 143.752 419.259 147.428C430.205 154.797 437.424 167.225 437.424 181.424C437.424 193.013 432.621 203.452 424.915 210.929C421.171 214.562 419.986 219.947 420.594 225.128C420.994 228.535 421.046 232.049 420.707 235.636C418.365 260.456 396.682 280.233 371.752 280.381C344.287 280.544 321.973 258.33 321.973 230.903C321.971 209.262 335.885 190.916 355.236 184.196Z" fill="#E6646E"/>
<path d="M367.327 156.683H363.204V140.19C363.204 80.982 315.207 32.985 255.999 32.985C196.791 32.985 148.794 80.983 148.794 140.19V156.683H144.671C133.285 156.683 124.055 165.913 124.055 177.299C124.055 188.685 133.285 197.915 144.671 197.915H148.794V206.162C148.794 265.369 196.791 313.367 255.999 313.367C315.207 313.367 363.204 265.37 363.204 206.162V197.915H367.327C378.713 197.915 387.943 188.685 387.943 177.299C387.943 165.913 378.713 156.683 367.327 156.683Z" fill="#F5B97D"/>
<path d="M181.78 206.162V62.943C161.482 82.449 148.794 109.815 148.794 140.19V156.683H144.671C133.285 156.683 124.055 165.913 124.055 177.299C124.055 188.685 133.285 197.915 144.671 197.915H148.794V206.162C148.794 265.369 196.791 313.367 255.999 313.367C261.623 313.367 267.102 312.804 272.492 311.969C221.136 304.018 181.78 259.746 181.78 206.162Z" fill="#E3AA75"/>
<path d="M206.528 182.14C201.97 182.14 198.281 178.448 198.281 173.893V165.646C198.281 161.092 201.969 157.399 206.528 157.399C211.086 157.399 214.775 161.091 214.775 165.646V173.893C214.775 178.447 211.086 182.14 206.528 182.14Z" fill="#5A4650"/>
<path d="M305.486 182.14C300.928 182.14 297.24 178.448 297.24 173.893V165.646C297.24 161.092 300.928 157.399 305.486 157.399C310.044 157.399 313.733 161.091 313.733 165.646V173.893C313.733 178.447 310.044 182.14 305.486 182.14Z" fill="#5A4650"/>
<path d="M220.096 222.655C217.066 222.655 214.743 225.363 215.158 228.365C217.938 248.435 235.164 263.888 255.998 263.888C276.832 263.888 294.058 248.435 296.838 228.365C297.254 225.364 294.93 222.655 291.9 222.655H220.096Z" fill="white"/>
<path d="M198.282 148.437C195.254 148.437 192.347 146.77 190.897 143.879C188.86 139.804 190.51 134.851 194.585 132.814L211.078 124.567C215.161 122.53 220.098 124.176 222.143 128.255C224.18 132.33 222.53 137.283 218.455 139.32L201.962 147.567C200.778 148.159 199.522 148.437 198.282 148.437Z" fill="#FFE17D"/>
<path d="M313.72 148.437C316.748 148.437 319.655 146.77 321.105 143.879C323.142 139.804 321.492 134.851 317.417 132.814L300.924 124.567C296.841 122.53 291.904 124.176 289.859 128.255C287.822 132.33 289.472 137.283 293.547 139.32L310.04 147.567C311.223 148.159 312.479 148.437 313.72 148.437Z" fill="#FFE17D"/>
<path d="M255.999 226.783C271.94 226.783 284.862 213.861 284.862 197.92C284.862 181.979 271.94 169.057 255.999 169.057C240.059 169.057 227.136 181.979 227.136 197.92C227.136 213.861 240.059 226.783 255.999 226.783Z" fill="#FF8087"/>
<path d="M268.369 214.409C252.429 214.409 239.506 201.487 239.506 185.546C239.506 180.773 240.775 176.339 242.826 172.373C233.547 177.172 227.136 186.749 227.136 197.916C227.136 213.856 240.058 226.779 255.999 226.779C267.166 226.779 276.743 220.369 281.542 211.089C277.576 213.14 273.142 214.409 268.369 214.409Z" fill="#E6646E"/>
<path d="M250.02 16.634C183.488 19.766 132.301 77.078 132.301 143.684V160.791L151.916 158.349C159.554 157.398 165.287 150.907 165.287 143.21V143.2C165.287 93.254 204.362 50.409 254.299 49.496C305.175 48.565 346.71 89.528 346.71 140.192V143.211C346.71 150.908 352.443 157.399 360.081 158.35L379.696 160.792V140.192C379.697 69.891 321.055 13.289 250.02 16.634Z" fill="#E6646E"/>
<path d="M346.463 52.826C344.002 27.801 322.904 8.247 297.232 8.247C290.743 8.247 284.563 9.53 278.885 11.801C272.114 4.576 262.558 0 251.876 0C231.381 0 214.767 16.614 214.767 37.109C214.767 56.622 229.878 72.441 249.009 73.929C248.272 76.668 247.753 79.493 247.753 82.464C247.753 100.681 262.521 115.45 280.739 115.45C285.908 115.45 290.736 114.156 295.09 112.037C302.324 123.926 315.283 131.943 330.218 131.943C352.99 131.943 371.451 113.482 371.451 90.71C371.45 73.712 361.152 59.133 346.463 52.826Z" fill="#FF8087"/>
<path d="M365.223 331.73C361.767 330.586 358.318 329.514 354.888 328.508C354.894 328.963 354.956 329.404 354.956 329.86C354.956 384.513 310.651 428.818 255.998 428.818C201.345 428.818 157.04 384.513 157.04 329.86C157.04 329.403 157.102 328.963 157.108 328.508C153.678 329.514 150.229 330.586 146.773 331.73C143.218 332.907 140.803 336.418 141.133 340.149C146.345 399.076 195.715 445.311 255.998 445.311C316.281 445.311 365.65 399.076 370.863 340.149C371.193 336.418 368.779 332.907 365.223 331.73Z" fill="#B4E6A0"/>
</svg>
