<svg width="512" height="512" viewBox="0 0 512 512" fill="none" xmlns="http://www.w3.org/2000/svg">
<path d="M412.573 384.251L255.999 338.581L99.4252 384.251C74.7612 391.445 57.8052 414.054 57.8052 439.745V487.225C57.8052 500.907 68.8972 511.999 82.5792 511.999H429.418C443.1 511.999 454.192 500.907 454.192 487.225V439.745C454.193 414.054 437.237 391.446 412.573 384.251Z" fill="#E6646E"/>
<path d="M313.8 289.03H198.19V512H313.8V289.03Z" fill="#E3AA75"/>
<path d="M198.194 315.871C215.474 325.038 235.114 330.323 256 330.323C276.886 330.323 296.527 325.038 313.806 315.871V289.032H198.194V315.871Z" fill="#D29B6E"/>
<path d="M396.697 320.604L313.805 272.516V512H346.837V421.598C346.837 415.973 348.752 410.515 352.266 406.122L401.096 345.084C407.344 337.275 405.273 325.749 396.697 320.604Z" fill="#DC4655"/>
<path d="M115.302 320.604L198.194 272.516V512H165.162V421.598C165.162 415.973 163.247 410.515 159.733 406.122L110.903 345.084C104.655 337.275 106.726 325.749 115.302 320.604Z" fill="#DC4655"/>
<path d="M255.999 396.387C232.637 396.387 211.817 385.587 198.193 368.731V512H313.806V368.731C300.181 385.587 279.361 396.387 255.999 396.387Z" fill="#FFC350"/>
<path d="M255.999 396.387C232.637 396.387 211.817 385.587 198.193 368.731V412.432C214.89 423.136 234.694 429.42 255.999 429.42C277.304 429.42 297.108 423.136 313.805 412.432V368.731C300.181 385.587 279.361 396.387 255.999 396.387Z" fill="#FFD164"/>
<path d="M255.999 8.258C183.026 8.258 123.87 67.414 123.87 140.387V189.936H388.128V140.387C388.128 67.414 328.972 8.258 255.999 8.258Z" fill="#FFD164"/>
<path d="M276.644 10.029C269.901 8.968 263.04 8.258 255.999 8.258C183.026 8.258 123.87 67.414 123.87 140.387V189.936H165.16V140.387C165.16 74.455 213.505 19.962 276.644 10.029Z" fill="#FFC350"/>
<path d="M371.612 247.742H140.386C103.9 247.742 74.3223 218.164 74.3223 181.678C74.3223 145.192 103.9 115.614 140.386 115.614H371.612C408.098 115.614 437.676 145.192 437.676 181.678C437.676 218.164 408.098 247.742 371.612 247.742Z" fill="#FFE17D"/>
<path d="M371.612 264.258H140.386C103.9 264.258 74.3223 234.68 74.3223 198.194C74.3223 161.708 103.9 132.13 140.386 132.13H371.612C408.098 132.13 437.676 161.708 437.676 198.194C437.676 234.68 408.098 264.258 371.612 264.258Z" fill="#FFC350"/>
<path d="M371.612 173.419H363.354V132.129H148.644V173.419H140.386C131.265 173.419 123.87 180.813 123.87 189.935C123.87 199.056 131.265 206.451 140.386 206.451H148.644C148.644 265.741 196.709 313.806 255.999 313.806C315.289 313.806 363.354 265.741 363.354 206.451H371.612C380.733 206.451 388.128 199.056 388.128 189.935C388.128 180.814 380.733 173.419 371.612 173.419Z" fill="#F5B97D"/>
<path d="M330.322 132.129H148.645V173.419H141.271C133.044 173.419 125.418 179.041 124.097 187.161C122.414 197.508 130.356 206.451 140.387 206.451H148.645C148.645 265.741 196.71 313.806 256 313.806C261.632 313.806 267.118 313.242 272.516 312.406C221.088 304.443 181.677 260.11 181.677 206.451V198.193C181.677 170.828 203.861 148.645 231.225 148.645H313.806C322.927 148.645 330.322 141.251 330.322 132.129Z" fill="#E3AA75"/>
<path d="M289.032 8.258V43.323C289.032 52.699 285.841 61.796 279.984 69.117L262.448 91.037C259.142 95.169 252.857 95.169 249.551 91.037L232.015 69.117C226.158 61.796 222.967 52.699 222.967 43.323V8.258C222.967 3.697 226.664 0 231.225 0H280.773C285.334 0 289.032 3.697 289.032 8.258Z" fill="#FF8087"/>
<path d="M255.999 0H231.225C226.664 0 222.967 3.697 222.967 8.258V43.323C222.967 52.699 226.158 61.795 232.015 69.117L249.551 91.037C251.204 93.103 253.601 94.136 256 94.136V0H255.999Z" fill="#E6646E"/>
<path d="M206.451 198.198C201.886 198.198 198.193 194.5 198.193 189.94V181.682C198.193 177.122 201.887 173.424 206.451 173.424C211.015 173.424 214.709 177.122 214.709 181.682V189.94C214.71 194.5 211.016 198.198 206.451 198.198Z" fill="#5A4650"/>
<path d="M305.547 198.198C300.982 198.198 297.289 194.5 297.289 189.94V181.682C297.289 177.122 300.983 173.424 305.547 173.424C310.112 173.424 313.805 177.122 313.805 181.682V189.94C313.805 194.5 310.112 198.198 305.547 198.198Z" fill="#5A4650"/>
<path d="M214.71 165.165H198.194C193.629 165.165 189.936 161.467 189.936 156.907C189.936 152.347 193.63 148.649 198.194 148.649H214.71C219.275 148.649 222.968 152.347 222.968 156.907C222.968 161.467 219.274 165.165 214.71 165.165Z" fill="#6E5A64"/>
<path d="M255.999 256.004C243.612 256.004 232.176 252.028 225.426 245.367C222.176 242.165 222.144 236.936 225.345 233.69C228.547 230.44 233.789 230.408 237.022 233.609C239.772 236.323 246.393 239.488 255.998 239.488C265.603 239.488 272.224 236.323 274.974 233.609C278.208 230.407 283.45 230.44 286.651 233.69C289.853 236.936 289.82 242.166 286.57 245.367C279.822 252.028 268.386 256.004 255.999 256.004Z" fill="#B67F5F"/>
<path d="M313.805 165.165H297.289C292.724 165.165 289.031 161.467 289.031 156.907C289.031 152.347 292.725 148.649 297.289 148.649H313.805C318.37 148.649 322.063 152.347 322.063 156.907C322.063 161.467 318.37 165.165 313.805 165.165Z" fill="#6E5A64"/>
<path d="M132.129 175.742L149.804 174.499C158.455 173.891 165.162 166.696 165.162 158.023V132.128H140.388C137.589 132.128 134.837 132.322 132.13 132.66V175.742H132.129Z" fill="#5A4650"/>
<path d="M362.196 174.499L379.871 175.742V132.661C377.164 132.323 374.412 132.129 371.613 132.129H346.839V158.024C346.838 166.696 353.545 173.891 362.196 174.499Z" fill="#5A4650"/>
</svg>
