<svg width="512" height="512" viewBox="0 0 512 512" fill="none" xmlns="http://www.w3.org/2000/svg">
<path d="M255.999 0C178.465 0 115.612 62.853 115.612 140.387V203.699C115.612 314.495 184.412 371.133 184.412 371.133H396.386V140.387C396.386 62.853 333.533 0 255.999 0Z" fill="#FFD164"/>
<path d="M115.612 140.387V203.699C115.612 314.495 184.412 371.133 184.412 371.133H255.999V0C178.465 0 115.612 62.853 115.612 140.387Z" fill="#FFC350"/>
<path d="M412.877 401.236L327.586 371.133C314.379 366.472 305.547 353.989 305.547 339.984V289.032H206.449V339.984C206.449 353.989 197.617 366.472 184.411 371.133L99.12 401.236C79.31 408.228 66.063 426.952 66.063 447.959V487.226C66.063 500.908 77.155 512 90.837 512H421.16C434.842 512 445.934 500.908 445.934 487.226V447.959C445.934 426.952 432.687 408.228 412.877 401.236Z" fill="#F7D291"/>
<path d="M412.877 401.236L341.9 376.185C329.686 411.934 295.885 437.677 255.999 437.677C216.113 437.677 182.313 411.933 170.099 376.185L99.121 401.236C79.311 408.227 66.064 426.952 66.064 447.959V487.226C66.064 500.908 77.156 512 90.838 512H421.161C434.843 512 445.935 500.908 445.935 487.226V447.959C445.934 426.952 432.687 408.227 412.877 401.236Z" fill="#A5CDFF"/>
<path d="M255.999 470.71C310.271 470.71 356.275 435.752 373.022 387.17L341.9 376.186C329.686 411.935 295.885 437.678 255.999 437.678C216.113 437.678 182.313 411.934 170.099 376.186L138.977 387.17C155.723 435.752 201.727 470.71 255.999 470.71Z" fill="#EDEBED"/>
<path d="M125.967 454.552L79.1989 414.467C75.4129 418.586 72.4059 423.338 70.1929 428.496L115.224 467.093C120.716 471.803 123.869 478.658 123.869 485.903V512H140.385V485.903C140.386 473.831 135.128 462.403 125.967 454.552Z" fill="#8CB4EB"/>
<path d="M206.451 319.758C219.887 325.741 234.542 329.453 250.033 330.182C252.031 330.276 254.022 330.323 256 330.323C273.619 330.323 290.359 326.568 305.548 319.908V289.032H206.451V319.758Z" fill="#F0C382"/>
<path d="M366.305 173.419C355.553 173.419 346.837 164.703 346.837 153.951V140.386C346.837 117.582 328.351 99.096 305.547 99.096H206.45C183.646 99.096 165.16 117.582 165.16 140.386V153.951C165.16 164.703 156.444 173.419 145.692 173.419C134.893 173.419 125.052 181.189 123.976 191.934C122.738 204.292 132.41 214.709 144.514 214.709H149.06C153.29 270.128 199.495 313.806 255.998 313.806C312.501 313.806 358.706 270.128 362.936 214.709H367.482C379.587 214.709 389.258 204.292 388.02 191.934C386.945 181.189 377.104 173.419 366.305 173.419Z" fill="#FFE1A0"/>
<path d="M206.463 127.408C214.556 126.252 222.832 128.498 229.018 133.841C269.929 169.176 322.903 189.935 379.87 189.935C382.332 189.935 384.91 189.869 387.575 189.767C385.454 180.103 376.205 173.311 366.065 173.42C355.402 173.534 346.837 164.615 346.837 153.951V140.386C346.837 117.582 328.351 99.096 305.547 99.096H206.45C197.122 99.096 188.588 102.279 181.676 107.496V107.541C171.702 115.078 165.16 126.922 165.16 140.386V154.795C165.16 165.504 156.178 173.313 145.47 173.419C134.759 173.525 125.046 181.261 123.977 191.933C122.74 204.291 132.41 214.708 144.515 214.708H149.061C153.291 270.127 199.496 313.805 255.999 313.805C261.648 313.805 267.156 313.255 272.567 312.413C221.113 304.472 181.676 260.127 181.676 206.45V155.985C181.676 141.62 192.24 129.44 206.463 127.408Z" fill="#F7D291"/>
<path d="M206.451 198.194C201.886 198.194 198.193 194.496 198.193 189.936V181.678C198.193 177.118 201.887 173.42 206.451 173.42C211.015 173.42 214.709 177.118 214.709 181.678V189.936C214.709 194.496 211.015 198.194 206.451 198.194Z" fill="#6E5A64"/>
<path d="M305.547 198.194C300.982 198.194 297.289 194.496 297.289 189.936V181.678C297.289 177.118 300.983 173.42 305.547 173.42C310.112 173.42 313.805 177.118 313.805 181.678V189.936C313.805 194.496 310.112 198.194 305.547 198.194Z" fill="#6E5A64"/>
<path d="M255.999 256C243.612 256 232.176 252.024 225.426 245.363C222.176 242.161 222.144 236.932 225.345 233.686C228.547 230.436 233.789 230.404 237.022 233.605C239.772 236.319 246.393 239.484 255.998 239.484C265.603 239.484 272.224 236.319 274.974 233.605C278.208 230.403 283.45 230.436 286.651 233.686C289.853 236.932 289.82 242.162 286.57 245.363C279.822 252.024 268.386 256 255.999 256Z" fill="#E3AA75"/>
<path d="M386.031 454.552L432.799 414.466C436.585 418.585 439.592 423.337 441.805 428.495L396.774 467.092C391.282 471.802 388.129 478.657 388.129 485.902V512H371.613V485.903C371.612 473.831 376.87 462.403 386.031 454.552Z" fill="#8CB4EB"/>
<path d="M189.934 165.165C186.474 165.165 183.257 162.975 182.103 159.516C180.659 155.189 182.998 150.512 187.321 149.068L212.095 140.81C216.458 139.354 221.095 141.705 222.539 146.032C223.983 150.359 221.644 155.036 217.321 156.48L192.547 164.738C191.676 165.028 190.797 165.165 189.934 165.165Z" fill="#E3AA75"/>
<path d="M255.999 0C226.132 0 198.496 9.397 175.74 25.297C203.769 111.271 284.541 173.419 379.87 173.419C385.434 173.419 390.929 173.14 396.386 172.724V140.386C396.386 62.853 333.533 0 255.999 0Z" fill="#FFE17D"/>
<path d="M305.547 313.806V346.838C305.547 419.757 363.353 445.935 363.353 511.999H396.385V313.806H305.547Z" fill="#FFD164"/>
</svg>
