<svg width="512" height="512" viewBox="0 0 512 512" fill="none" xmlns="http://www.w3.org/2000/svg">
<path d="M347.336 15.751C322.144 5.895 290.473 0 256.001 0C221.529 0 189.858 5.895 164.666 15.751C155.057 19.511 148.646 28.642 148.646 38.96V82.581H363.356V38.96C363.356 28.642 356.946 19.51 347.336 15.751Z" fill="#6E5A64"/>
<path d="M256.001 198.19C338.098 198.19 404.651 164.916 404.651 123.87C404.651 82.8242 338.098 49.55 256.001 49.55C173.904 49.55 107.351 82.8242 107.351 123.87C107.351 164.916 173.904 198.19 256.001 198.19Z" fill="#64505A"/>
<path d="M148.646 218.839C148.646 225.68 143.1 231.226 136.259 231.226C129.418 231.226 123.872 225.68 123.872 218.839C123.872 206.452 136.259 198.194 136.259 198.194C136.259 198.194 148.646 206.452 148.646 218.839Z" fill="#FFD164"/>
<path d="M388.13 218.839C388.13 225.68 382.584 231.226 375.743 231.226C368.902 231.226 363.356 225.68 363.356 218.839C363.356 206.452 375.743 198.194 375.743 198.194C375.743 198.194 388.13 206.452 388.13 218.839Z" fill="#FFD164"/>
<path d="M418.627 377.668L331.591 352.069C321.047 348.968 313.807 339.291 313.807 328.301V289.032H198.195V328.301C198.195 339.291 190.955 348.968 180.411 352.069L93.375 377.668C72.288 383.87 57.807 403.223 57.807 425.203V487.226C57.807 500.908 68.899 512 82.581 512H429.42C443.102 512 454.194 500.908 454.194 487.226V425.203C454.195 403.223 439.714 383.87 418.627 377.668Z" fill="#E3AA75"/>
<path d="M198.195 307.461C215.544 316.728 235.219 322.065 256.001 322.065C276.783 322.065 296.458 316.728 313.807 307.461V289.033H198.195V307.461Z" fill="#D29B6E"/>
<path d="M367.485 165.161H363.356C354.235 165.161 346.84 157.766 346.84 148.645V115.613C346.84 97.37 306.17 82.581 256.001 82.581C205.832 82.581 165.162 97.37 165.162 115.613V148.645C165.162 157.766 157.767 165.161 148.646 165.161H144.517C133.115 165.161 123.872 174.404 123.872 185.806C123.872 197.208 133.115 206.451 144.517 206.451H149.063C153.293 261.87 199.498 305.548 256.001 305.548C312.504 305.548 358.709 261.87 362.939 206.451H367.485C378.887 206.451 388.13 197.208 388.13 185.806C388.13 174.404 378.887 165.161 367.485 165.161Z" fill="#F5B97D"/>
<path d="M256.001 82.581C207.869 82.581 168.587 96.203 165.467 113.419C165.269 113.998 165.163 114.71 165.163 115.614V148.646C165.163 157.768 157.768 165.162 148.647 165.162H145.697C134.898 165.162 125.057 172.932 123.98 183.677C122.742 196.035 132.413 206.452 144.518 206.452H149.064C153.294 261.871 199.499 305.549 256.002 305.549C261.651 305.549 267.159 304.999 272.57 304.157C221.116 296.216 181.679 251.871 181.679 198.194V150.273C181.679 125.391 200.097 104.404 224.76 101.108C234.497 99.807 245.018 99.096 256.002 99.096C306.171 99.096 346.841 113.885 346.841 132.128V115.612C346.84 97.369 306.17 82.581 256.001 82.581Z" fill="#E3AA75"/>
<path d="M206.453 189.935C201.888 189.935 198.195 186.237 198.195 181.677V173.419C198.195 168.859 201.889 165.161 206.453 165.161C211.017 165.161 214.711 168.859 214.711 173.419V181.677C214.711 186.238 211.017 189.935 206.453 189.935Z" fill="#5A4650"/>
<path d="M305.549 189.935C300.984 189.935 297.291 186.237 297.291 181.677V173.419C297.291 168.859 300.985 165.161 305.549 165.161C310.114 165.161 313.807 168.859 313.807 173.419V181.677C313.807 186.238 310.114 189.935 305.549 189.935Z" fill="#5A4650"/>
<path d="M256.001 247.742C243.614 247.742 232.178 243.766 225.428 237.105C222.178 233.903 222.146 228.674 225.347 225.428C228.549 222.178 233.791 222.146 237.024 225.347C239.774 228.061 246.395 231.226 256 231.226C265.605 231.226 272.226 228.061 274.976 225.347C278.21 222.145 283.452 222.178 286.653 225.428C289.855 228.674 289.822 233.904 286.572 237.105C279.824 243.766 268.388 247.742 256.001 247.742Z" fill="#B67F5F"/>
<path d="M214.711 156.903H198.195C193.63 156.903 189.937 153.205 189.937 148.645C189.937 144.085 193.631 140.387 198.195 140.387H214.711C219.276 140.387 222.969 144.085 222.969 148.645C222.969 153.205 219.275 156.903 214.711 156.903Z" fill="#6E5A64"/>
<path d="M313.807 156.903H297.291C292.726 156.903 289.033 153.205 289.033 148.645C289.033 144.085 292.727 140.387 297.291 140.387H313.807C318.372 140.387 322.065 144.085 322.065 148.645C322.065 153.205 318.372 156.903 313.807 156.903Z" fill="#6E5A64"/>
<path d="M267.716 278.087L266.26 272.265C265.084 267.559 260.856 264.258 256.005 264.258H255.995C251.145 264.258 246.917 267.559 245.74 272.265L244.284 278.087C242.998 283.232 239.319 287.446 234.395 289.416L214.709 297.29L238.481 321.062C248.156 330.737 263.842 330.737 273.517 321.062L297.289 297.29L277.603 289.416C272.681 287.446 269.003 283.232 267.716 278.087Z" fill="#64505A"/>
<path d="M418.627 377.668L387.902 368.631C373.438 385.785 324.661 440.765 268.297 472.492C260.66 476.791 251.341 476.791 243.704 472.492C187.34 440.765 138.563 385.785 124.099 368.631L93.374 377.668C72.287 383.87 57.806 403.223 57.806 425.203V487.226C57.806 500.908 68.898 512 82.58 512H429.419C443.101 512 454.193 500.908 454.193 487.226V425.203C454.195 403.223 439.714 383.87 418.627 377.668Z" fill="#6E5A64"/>
</svg>
