<svg width="512" height="512" viewBox="0 0 512 512" fill="none" xmlns="http://www.w3.org/2000/svg">
<g clip-path="url(#clip0)">
<path d="M255.999 0C196.709 0 148.644 18.486 148.644 41.29V82.58H363.354V41.29C363.354 18.486 315.289 0 255.999 0Z" fill="#FFE17D"/>
<path d="M255.999 264.26C351.776 264.26 429.419 216.193 429.419 156.9C429.419 97.6067 351.776 49.54 255.999 49.54C160.222 49.54 82.579 97.6067 82.579 156.9C82.579 216.193 160.222 264.26 255.999 264.26Z" fill="#FFD164"/>
<path d="M408.365 352.59C403.476 339.595 396.386 316.087 396.386 289.033C396.386 251.872 396.386 156.904 396.386 156.904C396.386 115.857 333.533 82.581 255.999 82.581C178.465 82.581 115.612 115.856 115.612 156.904C115.612 156.904 115.612 251.872 115.612 289.033C115.612 316.088 108.522 339.596 103.633 352.59C101.015 359.548 103.265 367.31 109.223 371.757C118.821 378.92 135.338 389.565 159.177 399.242C221.071 424.367 290.929 424.367 352.822 399.242C376.661 389.565 393.178 378.92 402.776 371.757C408.734 367.31 410.984 359.547 408.365 352.59Z" fill="#B67F5F"/>
<path d="M412.877 417.752L327.586 387.649C314.379 382.988 305.547 370.505 305.547 356.5V305.548H206.45V356.5C206.45 370.505 197.618 382.988 184.412 387.649L99.121 417.752C79.311 424.744 66.064 443.468 66.064 464.475V487.225C66.064 500.907 77.156 511.999 90.838 511.999H421.161C434.843 511.999 445.935 500.907 445.935 487.225V464.475C445.934 443.468 432.687 424.744 412.877 417.752Z" fill="#F7D291"/>
<path d="M206.451 336.274C219.887 342.257 234.542 345.969 250.033 346.698C252.031 346.792 254.022 346.839 256 346.839C273.619 346.839 290.359 343.084 305.548 336.424V305.549H206.451V336.274Z" fill="#F0C382"/>
<path d="M330.322 156.903H317.226C315.036 156.903 312.935 156.033 311.387 154.484L280.974 124.071C277.853 120.95 272.516 123.16 272.516 127.575V148.645C272.516 153.206 268.819 156.903 264.258 156.903H181.677C163.434 156.903 148.645 171.692 148.645 189.935V219.935C148.645 277.741 193.068 327.481 250.81 330.2C312.46 333.103 363.355 283.979 363.355 222.968V189.936C363.354 171.692 348.565 156.903 330.322 156.903Z" fill="#FFE1A0"/>
<path d="M330.322 156.903H317.227C315.037 156.903 312.936 156.033 311.387 154.484L280.974 124.071C277.853 120.95 272.515 123.16 272.515 127.575V148.646C272.515 153.207 268.818 156.904 264.257 156.904H181.676C163.433 156.904 148.644 171.693 148.644 189.936V219.659C148.644 268.14 179.468 312.479 226.013 326.043C242.169 330.751 257.819 331.294 272.533 329.018C220.405 320.809 181.677 273.903 181.677 219.936V206.453C181.677 188.21 196.466 173.421 214.709 173.421H313.806C322.927 173.419 330.322 166.025 330.322 156.903Z" fill="#F7D291"/>
<path d="M206.451 222.968C201.886 222.968 198.193 219.27 198.193 214.71V206.452C198.193 201.892 201.887 198.194 206.451 198.194C211.015 198.194 214.709 201.892 214.709 206.452V214.71C214.709 219.27 211.015 222.968 206.451 222.968Z" fill="#6E5A64"/>
<path d="M305.547 222.968C300.982 222.968 297.289 219.27 297.289 214.71V206.452C297.289 201.892 300.983 198.194 305.547 198.194C310.112 198.194 313.805 201.892 313.805 206.452V214.71C313.805 219.27 310.112 222.968 305.547 222.968Z" fill="#6E5A64"/>
<path d="M255.999 280.774C243.612 280.774 232.176 276.798 225.426 270.137C222.176 266.935 222.144 261.706 225.345 258.46C228.546 255.214 233.789 255.178 237.022 258.379C239.772 261.093 246.393 264.258 255.998 264.258C265.603 264.258 272.224 261.093 274.974 258.379C278.208 255.177 283.45 255.214 286.651 258.46C289.853 261.706 289.82 266.936 286.57 270.137C279.822 276.798 268.386 280.774 255.999 280.774Z" fill="#E3AA75"/>
<path d="M198.184 190.968C194.386 190.968 190.966 188.335 190.128 184.476C189.152 180.02 191.975 175.617 196.426 174.641L212.942 171.028C217.386 170.06 221.805 172.871 222.773 177.33C223.749 181.786 220.926 186.189 216.475 187.165L199.959 190.778C199.362 190.907 198.773 190.968 198.184 190.968Z" fill="#A06E50"/>
<path d="M313.814 190.968C313.225 190.968 312.637 190.908 312.04 190.778L295.524 187.165C291.072 186.189 288.25 181.786 289.226 177.33C290.194 172.87 294.605 170.052 299.057 171.028L315.573 174.641C320.025 175.617 322.847 180.02 321.871 184.476C321.031 188.335 317.612 190.968 313.814 190.968Z" fill="#A06E50"/>
<path d="M412.877 417.752L365.241 400.939C349.628 446.314 306.673 478.967 255.999 478.967C205.325 478.967 162.37 446.313 146.757 400.939L99.121 417.752C79.311 424.743 66.064 443.468 66.064 464.475V487.225C66.064 500.907 77.156 511.999 90.838 511.999H421.161C434.843 511.999 445.935 500.907 445.935 487.225V464.475C445.934 443.468 432.687 424.743 412.877 417.752Z" fill="#C9C6CA"/>
<path d="M131.196 406.431C149.076 458.223 198.131 495.483 255.999 495.483C313.867 495.483 362.922 458.222 380.802 406.431L365.241 400.939C349.628 446.314 306.673 478.967 255.999 478.967C205.325 478.967 162.37 446.313 146.757 400.939L131.196 406.431Z" fill="#B7B2B8"/>
<path d="M255.999 102.172C333.533 102.172 396.386 135.447 396.386 176.495C396.386 164.619 396.386 156.903 396.386 156.903C396.386 115.856 333.533 82.58 255.999 82.58C178.465 82.58 115.612 115.855 115.612 156.903C115.612 156.903 115.612 164.619 115.612 176.495C115.612 135.448 178.465 102.172 255.999 102.172Z" fill="#A06E50"/>
</g>
<defs>
<clipPath id="clip0">
<rect width="511.999" height="511.999" fill="white"/>
</clipPath>
</defs>
</svg>
