<svg width="512" height="512" viewBox="0 0 512 512" fill="none" xmlns="http://www.w3.org/2000/svg">
<path d="M165.159 313.81C215.329 313.81 255.999 273.14 255.999 222.97C255.999 172.8 215.329 132.13 165.159 132.13C114.989 132.13 74.319 172.8 74.319 222.97C74.319 273.14 114.989 313.81 165.159 313.81Z" fill="#5A4650"/>
<path d="M346.839 313.81C397.009 313.81 437.679 273.14 437.679 222.97C437.679 172.8 397.009 132.13 346.839 132.13C296.669 132.13 255.999 172.8 255.999 222.97C255.999 273.14 296.669 313.81 346.839 313.81Z" fill="#5A4650"/>
<path d="M255.999 0C183.026 0 123.87 59.156 123.87 132.129V196.194H388.128V132.129C388.128 59.156 328.972 0 255.999 0Z" fill="#64505A"/>
<path d="M412.877 400.86L327.586 370.757C314.379 366.096 305.547 353.613 305.547 339.608V272.516H206.449V339.608C206.449 353.613 197.617 366.096 184.411 370.757L99.121 400.86C79.311 407.852 66.064 426.576 66.064 447.583V487.225C66.064 500.907 77.156 511.999 90.838 511.999H421.161C434.843 511.999 445.935 500.907 445.935 487.225V447.583C445.934 426.576 432.687 407.852 412.877 400.86Z" fill="#E3AA75"/>
<path d="M412.877 400.86L338.429 374.584C336.851 418.804 300.603 454.193 255.999 454.193C211.395 454.193 175.146 418.803 173.569 374.584L99.121 400.86C79.311 407.851 66.064 426.576 66.064 447.583V487.226C66.064 500.908 77.156 512 90.838 512H421.161C434.843 512 445.935 500.908 445.935 487.226V447.583C445.934 426.576 432.687 407.851 412.877 400.86Z" fill="#FF8087"/>
<path d="M206.451 320.103C221.649 326.687 238.408 330.322 255.999 330.322C273.59 330.322 290.349 326.686 305.547 320.103V289.032H206.45L206.451 320.103Z" fill="#D29B6E"/>
<path d="M367.483 173.419C367.483 173.419 356.425 172.087 353.042 171.151C334.28 165.956 293.66 149.735 262.89 102.309C259.648 97.312 252.35 97.312 249.108 102.309C218.338 149.734 177.718 165.956 158.956 171.151C155.573 172.087 144.515 173.419 144.515 173.419C132.411 173.419 122.74 183.835 123.977 196.193C125.053 206.938 134.893 214.709 145.692 214.709H149.061C153.291 270.128 199.496 313.806 255.999 313.806C312.502 313.806 358.707 270.128 362.937 214.709H366.306C377.105 214.709 386.946 206.938 388.021 196.193C389.258 183.835 379.587 173.419 367.483 173.419Z" fill="#F5B97D"/>
<path d="M353.042 171.151C334.3 165.96 293.745 149.768 262.987 102.457C259.697 97.396 252.306 97.388 249.016 102.449C227.77 135.133 201.855 152.957 181.677 162.573C172.643 166.877 164.753 169.546 158.957 171.151C155.574 172.087 144.516 173.419 144.516 173.419C132.412 173.419 122.742 183.834 123.978 196.192C125.053 206.938 134.893 214.71 145.693 214.71H149.062C153.292 270.129 199.497 313.807 256 313.807C261.632 313.807 267.118 313.243 272.516 312.407C225.367 305.107 188.319 267.237 182.48 219.637C181.613 212.566 181.809 205.389 182.687 198.318C183.402 192.557 185.111 186.85 188.453 182.103C191.391 177.93 195.212 174.406 199.729 171.844C217.793 161.598 238.014 145.763 256 121.365C277.545 150.591 302.297 167.529 322.709 177.294C337.269 184.26 354.413 182.888 367.484 173.418C367.483 173.419 356.423 172.088 353.042 171.151Z" fill="#E3AA75"/>
<path d="M206.459 198.911C201.894 198.911 198.201 195.213 198.201 190.653V182.395C198.201 177.835 201.895 174.137 206.459 174.137C211.024 174.137 214.717 177.835 214.717 182.395V190.653C214.717 195.214 211.023 198.911 206.459 198.911Z" fill="#5A4650"/>
<path d="M305.555 198.911C300.99 198.911 297.297 195.213 297.297 190.653V182.395C297.297 177.835 300.991 174.137 305.555 174.137C310.119 174.137 313.813 177.835 313.813 182.395V190.653C313.814 195.214 310.12 198.911 305.555 198.911Z" fill="#5A4650"/>
<path d="M305.539 330.323L305.547 330.325V330.057L305.539 330.323Z" fill="#FFD164"/>
<path d="M206.451 330.057V330.325L206.459 330.323L206.451 330.057Z" fill="#FFD164"/>
<path d="M281.91 2.57501C275.934 15.639 272.515 30.115 272.515 45.419C272.515 102.429 318.731 148.645 375.741 148.645C379.941 148.645 384.06 148.32 388.128 147.832V132.128C388.128 68.028 342.47 14.622 281.91 2.57501Z" fill="#6E5A64"/>
<path d="M223.35 231.226C220.75 231.226 218.818 233.602 219.25 236.166C221.932 252.066 237.364 264.258 255.999 264.258C274.634 264.258 290.065 252.066 292.748 236.166C293.18 233.602 291.248 231.226 288.648 231.226H223.35Z" fill="white"/>
<path d="M445.934 487.226H66.064C66.064 500.908 77.156 512 90.838 512H421.161C434.843 512 445.934 500.908 445.934 487.226Z" fill="#A5CDFF"/>
<path d="M66.193 445.935H220.195C208.28 440.171 197.981 431.65 190.104 421.161H73.847C69.228 428.461 66.493 436.94 66.193 445.935Z" fill="#A5CDFF"/>
<path d="M438.15 421.161H321.895C314.017 431.65 303.719 440.171 291.804 445.935H445.806C445.505 436.94 442.769 428.461 438.15 421.161Z" fill="#A5CDFF"/>
</svg>
