<svg width="513" height="513" viewBox="0 0 513 513" fill="none" xmlns="http://www.w3.org/2000/svg">
<g clip-path="url(#clip0)">
<path d="M418.632 361.152L331.596 335.553C321.052 332.452 313.812 322.775 313.812 311.785V272.516H198.2V311.785C198.2 322.775 190.96 332.452 180.416 335.553L93.38 361.152C72.293 367.354 57.812 386.707 57.812 408.687V470.71C57.812 484.392 68.904 512 82.586 512H429.425C443.107 512 454.199 484.392 454.199 470.71V408.687C454.2 386.707 439.719 367.354 418.632 361.152Z" fill="#F7D291"/>
<path d="M418.632 361.152L331.596 335.553C330.124 335.12 339.919 339.256 338.586 338.581L256.001 363.355L173.424 338.581C172.092 339.256 181.886 335.12 180.414 335.553L93.3781 361.152C72.2911 367.354 57.8101 386.707 57.8101 408.687V487.226C57.8101 500.908 68.9021 512 82.5841 512H429.423C443.105 512 454.197 500.908 454.197 487.226V408.687C454.2 386.707 439.719 367.354 418.632 361.152Z" fill="#6E5A64"/>
<path d="M335.753 352.263L325.906 342.416L256.006 363.355L186.106 342.416L176.259 352.263C163.869 364.652 156.909 381.456 156.909 398.978V512H355.103V398.978C355.102 381.456 348.142 364.652 335.753 352.263Z" fill="#EDEBED"/>
<path d="M276.646 363.36H235.356V512.01H276.646V363.36Z" fill="white"/>
<path d="M198.2 290.945C215.549 300.212 235.224 305.549 256.006 305.549C276.788 305.549 296.463 300.212 313.812 290.945V272.517H198.2V290.945Z" fill="#F0C382"/>
<path d="M371.619 149.061V66.065L222.974 41.29L140.393 66.064V149.061C130.97 150.974 123.877 159.302 123.877 169.29C123.877 180.692 133.12 189.935 144.522 189.935H149.068C153.298 245.354 199.503 289.032 256.006 289.032C312.509 289.032 358.714 245.354 362.944 189.935H367.49C378.892 189.935 388.135 180.692 388.135 169.29C388.134 159.302 381.042 150.975 371.619 149.061Z" fill="#FFE1A0"/>
<path d="M227.44 74.743C255.294 88.515 310.545 111.392 371.617 115.054V66.064L222.974 41.29L140.393 66.064V149.355C131.863 151.416 124.879 158.222 123.984 167.16C122.746 179.518 132.417 189.935 144.522 189.935H149.068C153.298 245.354 199.503 289.032 256.006 289.032C261.655 289.032 267.163 288.482 272.574 287.64C221.12 279.699 181.683 235.354 181.683 181.677V116.055C181.683 106.414 187.222 97.612 196.003 93.631C206.121 89.044 216.836 82.922 227.44 74.743Z" fill="#F7D291"/>
<path d="M206.457 174.137C201.892 174.137 198.199 170.439 198.199 165.879V157.621C198.199 153.061 201.893 149.363 206.457 149.363C211.021 149.363 214.715 153.061 214.715 157.621V165.879C214.716 170.44 211.022 174.137 206.457 174.137Z" fill="#6E5A64"/>
<path d="M305.554 174.137C300.989 174.137 297.296 170.439 297.296 165.879V157.621C297.296 153.061 300.99 149.363 305.554 149.363C310.119 149.363 313.812 153.061 313.812 157.621V165.879C313.812 170.44 310.119 174.137 305.554 174.137Z" fill="#6E5A64"/>
<path d="M214.716 140.387H198.2C193.635 140.387 189.942 136.689 189.942 132.129C189.942 127.569 193.636 123.871 198.2 123.871H214.716C219.281 123.871 222.974 127.569 222.974 132.129C222.974 136.69 219.28 140.387 214.716 140.387Z" fill="#A06E50"/>
<path d="M313.812 140.387H297.296C292.731 140.387 289.038 136.689 289.038 132.129C289.038 127.569 292.732 123.871 297.296 123.871H313.812C318.377 123.871 322.07 127.569 322.07 132.129C322.071 136.69 318.377 140.387 313.812 140.387Z" fill="#A06E50"/>
<path d="M115.619 512L101.07 446.528C99.8449 441.016 101.521 435.259 105.514 431.266L132.135 404.645L119.887 386.273C117.004 381.948 116.386 376.518 118.027 371.585C137.718 312.41 198.199 297.29 198.199 297.29V313.219C198.199 324.17 193.849 334.672 186.105 342.416L176.258 352.263C163.868 364.652 156.908 381.456 156.908 398.978V512" fill="#64505A"/>
<path d="M256.006 231.226C243.619 231.226 232.183 227.25 225.433 220.589C222.183 217.387 222.151 212.158 225.352 208.912C228.554 205.662 233.796 205.63 237.029 208.831C239.779 211.545 246.4 214.71 256.005 214.71C265.61 214.71 272.231 211.545 274.981 208.831C278.215 205.629 283.457 205.662 286.658 208.912C289.86 212.158 289.827 217.388 286.577 220.589C279.828 227.25 268.392 231.226 256.006 231.226Z" fill="#E3AA75"/>
<path d="M388.134 82.581C388.134 36.973 351.162 0 305.554 0H206.457C169.971 0 140.392 29.578 140.392 66.065V90.839C140.392 90.839 179.618 90.77 217.354 61.665C222.25 57.889 228.848 57.247 234.405 59.957C262.877 73.844 318.874 96.947 379.695 98.956C384.321 99.109 388.135 95.292 388.135 90.663L388.134 82.581Z" fill="#A06E50"/>
<path d="M388.062 81.143C387.288 36.206 350.676 0 305.554 0H210.726C233.039 25.517 287.171 72.476 388.062 81.143Z" fill="#B67F5F"/>
<path d="M396.392 512L410.941 446.528C412.166 441.016 410.49 435.259 406.497 431.266L379.876 404.645L392.124 386.273C395.007 381.948 395.625 376.518 393.984 371.585C374.293 312.41 313.812 297.29 313.812 297.29V313.219C313.812 324.17 318.162 334.672 325.906 342.416L335.753 352.263C348.142 364.652 355.103 381.456 355.103 398.978V512" fill="#64505A"/>
<path d="M313.713 392.208L256.006 363.355L313.713 334.502C319.568 331.574 326.458 335.832 326.458 342.379V384.332C326.457 390.878 319.568 395.136 313.713 392.208Z" fill="#E6646E"/>
<path d="M198.298 392.208L256.005 363.355L198.298 334.502C192.443 331.574 185.553 335.832 185.553 342.379V384.332C185.554 390.878 192.444 395.136 198.298 392.208Z" fill="#E6646E"/>
<path d="M260.134 375.742H251.876C247.315 375.742 243.618 372.045 243.618 367.484V359.226C243.618 354.665 247.315 350.968 251.876 350.968H260.134C264.695 350.968 268.392 354.665 268.392 359.226V367.484C268.392 372.045 264.696 375.742 260.134 375.742Z" fill="#DC4655"/>
<path d="M256.006 421.158C260.567 421.158 264.264 417.461 264.264 412.9C264.264 408.339 260.567 404.642 256.006 404.642C251.445 404.642 247.748 408.339 247.748 412.9C247.748 417.461 251.445 421.158 256.006 421.158Z" fill="#EDEBED"/>
<path d="M256.006 487.228C260.567 487.228 264.264 483.531 264.264 478.97C264.264 474.409 260.567 470.712 256.006 470.712C251.445 470.712 247.748 474.409 247.748 478.97C247.748 483.531 251.445 487.228 256.006 487.228Z" fill="#EDEBED"/>
</g>
<defs>
<clipPath id="clip0">
<rect width="512.01" height="512.01" fill="white" transform="translate(-0.000976562)"/>
</clipPath>
</defs>
</svg>
