<svg width="513" height="512" viewBox="0 0 513 512" fill="none" xmlns="http://www.w3.org/2000/svg">
<path d="M398.96 284.288C384.927 267.072 362.036 243.609 346.848 231.225H165.17C149.982 243.608 127.091 267.072 113.058 284.288C103.851 295.582 106.739 311.522 119.308 319.699C138.939 332.472 170.494 350.794 206.46 363.267H305.557C341.523 350.794 373.078 332.472 392.709 319.699C405.279 311.522 408.166 295.583 398.96 284.288Z" fill="#5A4650"/>
<path d="M412.887 401.236L327.596 371.133C314.389 366.472 305.557 353.989 305.557 339.984V289.032H206.46V339.984C206.46 353.989 197.628 366.472 184.422 371.133L99.131 401.236C79.321 408.228 66.074 426.952 66.074 447.959V487.226C66.074 500.908 77.166 512 90.848 512H421.171C434.853 512 445.945 500.908 445.945 487.226V447.959C445.944 426.952 432.697 408.228 412.887 401.236Z" fill="#B67F5F"/>
<path d="M412.887 401.236L346.848 377.928V412.903C346.848 426.585 335.756 437.677 322.074 437.677H189.944C176.262 437.677 165.17 426.585 165.17 412.903V377.928L99.131 401.236C79.321 408.227 66.074 426.952 66.074 447.959V487.226C66.074 500.908 77.166 512 90.848 512H421.171C434.853 512 445.945 500.908 445.945 487.226V447.959C445.944 426.952 432.697 408.227 412.887 401.236Z" fill="#FFE17D"/>
<path d="M206.461 319.908C221.65 326.568 238.39 330.323 256.009 330.323C273.628 330.323 290.368 326.568 305.557 319.908V289.032H206.46L206.461 319.908Z" fill="#A06E50"/>
<path d="M256.009 280.78C333.544 280.78 396.399 217.925 396.399 140.39C396.399 62.8547 333.544 0 256.009 0C178.474 0 115.619 62.8547 115.619 140.39C115.619 217.925 178.474 280.78 256.009 280.78Z" fill="#5A4650"/>
<path d="M256.009 313.806C196.718 313.806 148.654 265.742 148.654 206.451V165.16C148.654 105.87 196.718 57.805 256.009 57.805H363.364V206.45C363.364 265.742 315.299 313.806 256.009 313.806Z" fill="#CD916E"/>
<path d="M181.686 206.452V87.806C161.359 107.34 148.654 134.744 148.654 165.161V206.451C148.654 265.741 196.719 313.806 256.009 313.806C261.641 313.806 267.127 313.242 272.525 312.406C221.097 304.444 181.686 260.11 181.686 206.452Z" fill="#B67F5F"/>
<path d="M206.461 181.677C217.213 181.677 226.294 188.601 229.714 198.193C230.639 195.597 231.236 192.845 231.236 189.935C231.236 176.274 220.123 165.161 206.462 165.161C192.801 165.161 181.688 176.274 181.688 189.935C181.688 192.845 182.284 195.597 183.21 198.193C186.628 188.602 195.709 181.677 206.461 181.677Z" fill="#B67F5F"/>
<path d="M305.557 181.677C316.308 181.677 325.39 188.601 328.81 198.193C329.735 195.597 330.332 192.845 330.332 189.935C330.332 176.274 319.219 165.161 305.558 165.161C291.897 165.161 280.784 176.274 280.784 189.935C280.784 192.845 281.38 195.597 282.306 198.193C285.725 188.602 294.806 181.677 305.557 181.677Z" fill="#B67F5F"/>
<path d="M272.519 173.42H239.489V189.936H272.519V173.42Z" fill="#FFC350"/>
<path d="M206.461 198.911C201.896 198.911 198.203 195.213 198.203 190.653V182.395C198.203 177.835 201.897 174.137 206.461 174.137C211.025 174.137 214.719 177.835 214.719 182.395V190.653C214.719 195.214 211.025 198.911 206.461 198.911Z" fill="#5A4650"/>
<path d="M305.557 198.911C300.992 198.911 297.299 195.213 297.299 190.653V182.395C297.299 177.835 300.993 174.137 305.557 174.137C310.122 174.137 313.815 177.835 313.815 182.395V190.653C313.815 195.214 310.122 198.911 305.557 198.911Z" fill="#5A4650"/>
<path d="M256.009 264.258C243.622 264.258 232.186 260.282 225.436 253.621C222.186 250.419 222.154 245.19 225.355 241.944C228.557 238.698 233.799 238.662 237.032 241.863C239.782 244.577 246.403 247.742 256.008 247.742C265.613 247.742 272.234 244.577 274.984 241.863C278.218 238.661 283.46 238.698 286.661 241.944C289.863 245.19 289.83 250.42 286.58 253.621C279.832 260.282 268.396 264.258 256.009 264.258Z" fill="#A06E50"/>
<path d="M256.009 57.806C228.069 57.806 202.706 68.569 183.606 86.061C232.075 131.028 296.229 156.903 363.364 156.903V57.806H256.009Z" fill="#B67F5F"/>
<path d="M396.282 138.144C395.072 61.656 332.785 0 256.009 0C219.685 0 186.692 13.913 161.766 36.551C206.702 99.389 280.222 140.387 363.364 140.387C374.532 140.387 385.505 139.576 396.282 138.144Z" fill="#64505A"/>
<path d="M181.686 173.419H148.654C144.093 173.419 140.396 169.722 140.396 165.161C140.396 160.6 144.093 156.903 148.654 156.903H189.944L181.686 173.419Z" fill="#FFC350"/>
<path d="M330.332 173.419H363.364C367.925 173.419 371.622 169.722 371.622 165.161C371.622 160.6 367.925 156.903 363.364 156.903H322.074L330.332 173.419Z" fill="#FFC350"/>
<path d="M206.461 231.226C183.695 231.226 165.171 212.702 165.171 189.936C165.171 167.17 183.695 148.646 206.461 148.646C229.227 148.646 247.751 167.17 247.751 189.936C247.751 212.702 229.227 231.226 206.461 231.226ZM206.461 165.161C192.8 165.161 181.687 176.274 181.687 189.935C181.687 203.596 192.8 214.709 206.461 214.709C220.122 214.709 231.235 203.596 231.235 189.935C231.235 176.274 220.122 165.161 206.461 165.161Z" fill="#FFE17D"/>
<path d="M305.557 231.226C282.791 231.226 264.267 212.702 264.267 189.936C264.267 167.17 282.791 148.646 305.557 148.646C328.323 148.646 346.847 167.17 346.847 189.936C346.847 212.702 328.324 231.226 305.557 231.226ZM305.557 165.161C291.896 165.161 280.783 176.274 280.783 189.935C280.783 203.596 291.896 214.709 305.557 214.709C319.218 214.709 330.331 203.596 330.331 189.935C330.331 176.274 319.219 165.161 305.557 165.161Z" fill="#FFE17D"/>
<path d="M206.465 437.68H189.949V512H206.465V437.68Z" fill="#FFC350"/>
<path d="M235.359 478.967C242.2 478.967 247.746 473.421 247.746 466.58C247.746 459.739 242.2 454.193 235.359 454.193C228.518 454.193 222.972 459.739 222.972 466.58C222.972 473.421 228.518 478.967 235.359 478.967Z" fill="white"/>
</svg>
