<svg width="513" height="512" viewBox="0 0 513 512" fill="none" xmlns="http://www.w3.org/2000/svg">
<path d="M418.635 377.668L331.599 352.069C321.055 348.968 313.815 339.291 313.815 328.301V289.032H198.204V328.301C198.204 339.291 190.964 348.968 180.42 352.069L93.3839 377.668C72.2969 383.87 57.8159 403.223 57.8159 425.203V487.226C57.8159 500.908 68.9079 512 82.5899 512H429.429C443.111 512 454.203 500.908 454.203 487.226V425.203C454.203 403.223 439.723 383.87 418.635 377.668Z" fill="#E3AA75"/>
<path d="M418.635 377.668L353.116 358.398C343.934 403.631 303.951 437.678 256.009 437.678C208.067 437.678 168.084 403.631 158.902 358.398L93.3829 377.668C72.2959 383.87 57.8149 403.223 57.8149 425.203V487.226C57.8149 500.908 68.9069 512 82.5889 512H429.428C443.11 512 454.202 500.908 454.202 487.226V425.203C454.203 403.223 439.723 383.87 418.635 377.668Z" fill="#9BDC9B"/>
<path d="M198.204 307.461C215.553 316.728 235.228 322.065 256.01 322.065C276.792 322.065 296.467 316.728 313.816 307.461V289.033H198.204V307.461Z" fill="#D29B6E"/>
<path d="M367.493 165.161H363.364V74.323H148.654V165.162H144.525C133.123 165.162 123.88 174.405 123.88 185.807C123.88 197.209 133.123 206.452 144.525 206.452H149.071C153.301 261.871 199.506 305.549 256.009 305.549C312.512 305.549 358.717 261.871 362.947 206.452H367.493C378.895 206.452 388.138 197.209 388.138 185.807C388.138 174.404 378.895 165.161 367.493 165.161Z" fill="#F5B97D"/>
<path d="M148.655 74.323V165.162H145.705C134.906 165.161 125.064 172.932 123.988 183.677C122.75 196.035 132.421 206.452 144.526 206.452H149.072C153.302 261.871 199.507 305.549 256.01 305.549C261.659 305.549 267.167 304.999 272.578 304.157C221.124 296.216 181.687 251.871 181.687 198.194V132.129C181.687 113.886 196.476 99.097 214.719 99.097H264.494C271.371 104.218 279.808 107.355 289.041 107.355C295.822 107.355 302.125 105.564 307.769 102.668C318.706 110.769 332.186 115.613 346.847 115.613C352.561 115.613 358.075 114.812 363.363 113.448V74.323H148.655Z" fill="#E3AA75"/>
<path d="M377.94 75.665L346.848 0H196.881C157.796 0 127.255 33.747 131.145 72.638L140.398 165.161H148.655C157.777 165.161 165.171 157.767 165.171 148.645L165.172 112.171C165.172 93.928 179.961 79.139 198.204 79.139H346.85L346.849 148.644C346.849 157.766 354.244 165.161 363.365 165.161H371.624L378.496 75.828L377.94 75.665Z" fill="#A06E50"/>
<path d="M231.236 0H196.881C157.796 0 127.255 33.747 131.145 72.638L140.398 165.161H148.655C157.776 165.161 165.171 157.767 165.171 148.645L165.172 107.354V66.064C165.17 29.578 194.749 0 231.236 0Z" fill="#8C5F4B"/>
<path d="M206.461 189.935C201.896 189.935 198.203 186.237 198.203 181.677V173.419C198.203 168.859 201.897 165.161 206.461 165.161C211.025 165.161 214.719 168.859 214.719 173.419V181.677C214.72 186.238 211.026 189.935 206.461 189.935Z" fill="#5A4650"/>
<path d="M305.557 189.935C300.992 189.935 297.299 186.237 297.299 181.677V173.419C297.299 168.859 300.993 165.161 305.557 165.161C310.122 165.161 313.815 168.859 313.815 173.419V181.677C313.815 186.238 310.122 189.935 305.557 189.935Z" fill="#5A4650"/>
<path d="M256.009 247.742C243.622 247.742 232.186 243.766 225.436 237.105C222.186 233.903 222.154 228.674 225.355 225.428C228.557 222.178 233.799 222.146 237.032 225.347C239.782 228.061 246.403 231.226 256.008 231.226C265.613 231.226 272.234 228.061 274.984 225.347C278.218 222.145 283.46 222.178 286.661 225.428C289.863 228.674 289.83 233.904 286.58 237.105C279.832 243.766 268.396 247.742 256.009 247.742Z" fill="#B67F5F"/>
<path d="M214.72 156.903H198.204C193.639 156.903 189.946 153.205 189.946 148.645C189.946 144.085 193.64 140.387 198.204 140.387H214.72C219.285 140.387 222.978 144.085 222.978 148.645C222.978 153.205 219.284 156.903 214.72 156.903Z" fill="#A06E50"/>
<path d="M313.815 156.903H297.299C292.734 156.903 289.041 153.205 289.041 148.645C289.041 144.085 292.735 140.387 297.299 140.387H313.815C318.38 140.387 322.073 144.085 322.073 148.645C322.073 153.205 318.38 156.903 313.815 156.903Z" fill="#A06E50"/>
<path d="M346.849 99.096C374.214 99.096 396.397 76.9126 396.397 49.548C396.397 22.1834 374.214 0 346.849 0C319.484 0 297.301 22.1834 297.301 49.548C297.301 76.9126 319.484 99.096 346.849 99.096Z" fill="#A06E50"/>
<path d="M289.039 90.834C302.721 90.834 313.813 79.7423 313.813 66.06C313.813 52.3777 302.721 41.286 289.039 41.286C275.357 41.286 264.265 52.3777 264.265 66.06C264.265 79.7423 275.357 90.834 289.039 90.834Z" fill="#A06E50"/>
<path d="M127.21 367.719C140.493 426.653 193.062 470.71 256.009 470.71C318.956 470.71 371.525 426.653 384.808 367.719L353.116 358.398C343.934 403.631 303.951 437.678 256.009 437.678C208.067 437.678 168.084 403.631 158.902 358.398L127.21 367.719Z" fill="#B67F5F"/>
</svg>
