<svg width="513" height="512" viewBox="0 0 513 512" fill="none" xmlns="http://www.w3.org/2000/svg">
<path d="M397.426 317.42C401.443 315.411 403.028 310.591 401.175 306.5C379.88 259.503 379.88 214.709 379.88 214.709V132.128L256.009 115.617L132.138 132.129V214.71C132.138 214.71 132.138 259.504 110.843 306.501C108.989 310.592 110.575 315.413 114.592 317.421L140.396 330.323L113.113 364.427C110.043 368.264 110.934 374.006 115.113 376.591C201.423 429.963 310.595 429.963 396.905 376.591C401.084 374.007 401.974 368.264 398.905 364.427L371.622 330.323L397.426 317.42Z" fill="#FF8250"/>
<path d="M412.887 401.236L327.596 371.133C314.389 366.472 305.557 353.989 305.557 339.984V297.29H206.459V339.984C206.459 353.989 197.627 366.472 184.421 371.133L99.13 401.236C79.32 408.228 66.073 426.952 66.073 447.959V487.226C66.073 500.908 77.165 512 90.847 512H421.17C434.852 512 445.944 500.908 445.944 487.226V447.959C445.944 426.952 432.697 408.228 412.887 401.236Z" fill="#F7D291"/>
<path d="M412.887 401.236L328.47 371.442C321.015 404.615 291.433 429.42 256.009 429.42C220.585 429.42 191.002 404.616 183.548 371.442L99.131 401.236C79.321 408.227 66.074 426.952 66.074 447.959V487.226C66.074 500.908 77.166 512 90.848 512H421.171C434.853 512 445.945 500.908 445.945 487.226V447.959C445.944 426.952 432.697 408.227 412.887 401.236Z" fill="#EDEBED"/>
<path d="M256.009 462.452C305.823 462.452 347.59 428.475 359.708 382.467L328.47 371.442C321.015 404.615 291.433 429.42 256.009 429.42C220.585 429.42 191.002 404.616 183.548 371.442L152.31 382.467C164.428 428.475 206.195 462.452 256.009 462.452Z" fill="#A5CDFF"/>
<path d="M206.461 319.756C221.708 326.498 238.462 330.323 256.009 330.323C273.628 330.323 290.368 326.568 305.557 319.908V297.29H206.46L206.461 319.756Z" fill="#F0C382"/>
<path d="M264.267 16.516H247.751C243.186 16.516 239.493 12.818 239.493 8.258C239.493 3.698 243.186 0 247.751 0H264.267C268.832 0 272.525 3.698 272.525 8.258C272.525 12.818 268.832 16.516 264.267 16.516Z" fill="#A5CDFF"/>
<path d="M148.654 115.613V173.419H144.525C133.123 173.419 123.88 182.662 123.88 194.064C123.88 205.466 133.123 214.709 144.525 214.709H149.071C153.301 270.128 199.506 313.806 256.009 313.806C315.299 313.806 363.364 265.741 363.364 206.451V115.612L148.654 115.613Z" fill="#FFE1A0"/>
<path d="M148.654 115.613V173.419H145.703C134.904 173.419 125.063 181.189 123.987 191.934C122.749 204.292 132.421 214.709 144.525 214.709H149.071C153.301 270.128 199.506 313.806 256.009 313.806C261.641 313.806 267.127 313.242 272.525 312.406C221.097 304.443 181.686 260.11 181.686 206.451V183.076C181.686 161.409 198.417 143.552 220.018 141.859C227.256 141.292 234.656 140.894 242.185 140.675C294.837 164.901 340.048 201.751 362.198 221.433C362.885 216.525 363.363 211.55 363.363 206.452V115.613H148.654Z" fill="#F7D291"/>
<path d="M206.461 198.911C201.896 198.911 198.203 195.213 198.203 190.653V182.395C198.203 177.835 201.897 174.137 206.461 174.137C211.025 174.137 214.719 177.835 214.719 182.395V190.653C214.719 195.214 211.025 198.911 206.461 198.911Z" fill="#6E5A64"/>
<path d="M305.557 198.911C300.992 198.911 297.299 195.213 297.299 190.653V182.395C297.299 177.835 300.993 174.137 305.557 174.137C310.122 174.137 313.815 177.835 313.815 182.395V190.653C313.815 195.214 310.122 198.911 305.557 198.911Z" fill="#6E5A64"/>
<path d="M214.719 165.161H198.203C193.638 165.161 189.945 161.463 189.945 156.903C189.945 152.343 193.639 148.645 198.203 148.645H214.719C219.284 148.645 222.977 152.343 222.977 156.903C222.977 161.463 219.283 165.161 214.719 165.161Z" fill="#FF8250"/>
<path d="M313.815 165.161H297.299C292.734 165.161 289.041 161.463 289.041 156.903C289.041 152.343 292.735 148.645 297.299 148.645H313.815C318.38 148.645 322.073 152.343 322.073 156.903C322.073 161.463 318.38 165.161 313.815 165.161Z" fill="#FF8250"/>
<path d="M223.36 227.067C220.76 227.067 218.828 229.443 219.26 232.007C221.942 247.907 237.374 260.099 256.009 260.099C274.644 260.099 290.075 247.907 292.758 232.007C293.19 229.443 291.258 227.067 288.658 227.067H223.36Z" fill="white"/>
<path d="M143.457 176.123L132.138 177.532V132.129L165.17 123.871V151.539C165.17 164.037 155.86 174.579 143.457 176.123Z" fill="#FF8250"/>
<path d="M198.203 107.355C279.617 127.708 355.411 192.615 379.884 215.144C379.881 214.901 379.88 214.71 379.88 214.71V132.129L198.203 107.355Z" fill="#FF9664"/>
<path d="M256.009 115.617C333.146 115.617 379.88 132.129 379.88 132.129C379.88 63.717 324.42 8.258 256.009 8.258C187.598 8.258 132.138 63.717 132.138 132.129C132.138 132.129 178.872 115.617 256.009 115.617Z" fill="#A5CDFF"/>
<path d="M379.88 132.129C379.88 123.523 378.995 115.125 377.325 107.014C342.932 96.569 300.838 90.839 256.009 90.839C242.123 90.839 228.539 91.424 215.359 92.525C201.832 93.655 193.101 78.736 200.218 67.178C217.84 38.562 246.735 17.658 280.782 10.746C272.777 9.12 264.493 8.258 256.009 8.258C187.597 8.258 132.138 63.717 132.138 132.129C132.138 132.129 149.962 125.859 181.659 121.045C201.37 118.05 226.424 115.617 256.009 115.617C333.146 115.617 379.88 132.129 379.88 132.129Z" fill="#8CB4EB"/>
<path d="M256.009 107.355C203.969 107.355 155.014 115.391 119.933 129.549C115.643 131.28 113.771 136.343 115.696 140.549L115.71 140.58C117.571 144.648 122.299 146.392 126.45 144.724C159.545 131.422 206.143 123.871 256.009 123.871C305.875 123.871 352.472 131.423 385.568 144.724C389.719 146.392 394.447 144.648 396.308 140.58L396.322 140.549C398.247 136.342 396.374 131.28 392.085 129.549C357.004 115.391 308.049 107.355 256.009 107.355Z" fill="#A5CDFF"/>
</svg>
