<svg width="513" height="512" viewBox="0 0 513 512" fill="none" xmlns="http://www.w3.org/2000/svg">
<path d="M418.635 361.152L331.599 335.553C321.055 332.452 313.815 322.775 313.815 311.785V264.258H198.203V311.785C198.203 322.775 190.963 332.452 180.419 335.553L93.3839 361.152C72.2969 367.354 57.8159 386.707 57.8159 408.687V487.226C57.8159 500.908 68.9079 512 82.5899 512H429.429C443.111 512 454.203 500.908 454.203 487.226V408.687C454.203 386.707 439.722 367.354 418.635 361.152Z" fill="#B67F5F"/>
<path d="M418.635 361.152L345.13 339.533C336.981 381.338 300.199 412.903 256.009 412.903C211.819 412.903 175.037 381.337 166.888 339.533L93.3829 361.152C72.2959 367.354 57.8149 386.707 57.8149 408.687V487.226C57.8149 500.908 68.9069 512 82.5889 512H429.428C443.11 512 454.202 500.908 454.202 487.226V408.687C454.203 386.707 439.723 367.354 418.635 361.152Z" fill="#E6646E"/>
<path d="M198.203 290.94C215.553 300.207 235.226 305.549 256.009 305.549C276.792 305.549 296.466 300.207 313.815 290.94V264.259H198.203V290.94Z" fill="#A06E50"/>
<path d="M367.493 148.645H363.364V99.097H148.654V148.645H144.525C133.123 148.645 123.88 157.888 123.88 169.29C123.88 180.692 133.123 189.935 144.525 189.935H149.071C153.301 245.354 199.506 289.032 256.009 289.032C312.512 289.032 358.717 245.354 362.947 189.935H367.493C378.895 189.935 388.138 180.692 388.138 169.29C388.138 157.888 378.895 148.645 367.493 148.645Z" fill="#CD916E"/>
<path d="M346.848 132.129V115.613H148.654V148.645H145.703C134.904 148.645 125.063 156.415 123.987 167.16C122.749 179.518 132.421 189.935 144.525 189.935H149.071C153.301 245.354 199.506 289.032 256.009 289.032C261.658 289.032 267.166 288.482 272.577 287.64C221.123 279.699 181.686 235.354 181.686 181.677C181.686 163.434 196.475 148.645 214.718 148.645H330.331C339.453 148.645 346.848 141.251 346.848 132.129Z" fill="#B67F5F"/>
<path d="M206.461 173.419C201.896 173.419 198.203 169.721 198.203 165.161V156.903C198.203 152.343 201.897 148.645 206.461 148.645C211.025 148.645 214.719 152.343 214.719 156.903V165.161C214.719 169.722 211.025 173.419 206.461 173.419Z" fill="#5A4650"/>
<path d="M305.557 173.419C300.992 173.419 297.299 169.721 297.299 165.161V156.903C297.299 152.343 300.993 148.645 305.557 148.645C310.122 148.645 313.815 152.343 313.815 156.903V165.161C313.815 169.722 310.122 173.419 305.557 173.419Z" fill="#5A4650"/>
<path d="M267.106 461.935C262.872 461.935 259.267 458.701 258.888 454.407C258.485 449.863 261.84 445.855 266.388 445.451C271.509 444.995 276.654 444.213 281.678 443.124C286.146 442.184 290.533 444.987 291.501 449.447C292.469 453.907 289.638 458.302 285.178 459.27C279.484 460.5 273.654 461.387 267.839 461.903C267.598 461.923 267.348 461.935 267.106 461.935ZM234.211 460.774C233.776 460.774 233.332 460.742 232.888 460.669C227.122 459.742 221.364 458.439 215.783 456.802C211.404 455.52 208.896 450.931 210.178 446.556C211.468 442.185 216.057 439.669 220.428 440.955C225.347 442.395 230.428 443.544 235.517 444.362C240.017 445.088 243.082 449.326 242.356 453.83C241.703 457.887 238.194 460.774 234.211 460.774ZM314.501 448.492C311.469 448.492 308.557 446.823 307.106 443.932C305.066 439.855 306.719 434.892 310.791 432.851C315.372 430.557 319.864 427.94 324.154 425.069C327.928 422.517 333.065 423.537 335.614 427.331C338.146 431.121 337.138 436.25 333.348 438.787C328.485 442.045 323.388 445.017 318.195 447.618C317.001 448.214 315.743 448.492 314.501 448.492ZM187.896 443.984C186.461 443.984 185.009 443.613 183.686 442.823C178.67 439.843 173.791 436.517 169.194 432.944C165.597 430.142 164.952 424.952 167.75 421.355C170.556 417.766 175.734 417.113 179.339 419.903C183.395 423.06 187.694 425.996 192.121 428.629C196.04 430.956 197.331 436.024 195 439.944C193.461 442.544 190.711 443.984 187.896 443.984ZM353.622 418.597C351.654 418.597 349.678 417.899 348.098 416.48C344.711 413.428 344.429 408.206 347.485 404.815C350.929 400.984 354.162 396.904 357.09 392.69C359.695 388.944 364.832 388.017 368.582 390.617C372.332 393.217 373.259 398.363 370.655 402.109C367.332 406.887 363.671 411.516 359.76 415.863C358.13 417.673 355.88 418.597 353.622 418.597ZM150.985 411.391C148.517 411.391 146.09 410.294 144.461 408.201C140.905 403.628 137.582 398.761 134.582 393.741C132.243 389.826 133.526 384.753 137.437 382.414C141.356 380.079 146.429 381.349 148.76 385.273C151.413 389.721 154.357 394.023 157.494 398.063C160.3 401.664 159.647 406.849 156.05 409.652C154.541 410.823 152.751 411.391 150.985 411.391ZM379.162 376.48C378.202 376.48 377.235 376.311 376.291 375.96C372.009 374.371 369.831 369.617 371.42 365.343C373.218 360.492 374.735 355.508 375.904 350.52C376.944 346.08 381.404 343.302 385.839 344.379C390.274 345.423 393.024 349.871 391.984 354.31C390.645 359.959 388.944 365.604 386.903 371.092C385.67 374.419 382.517 376.48 379.162 376.48ZM128.509 367.573C124.936 367.573 121.638 365.234 120.582 361.633C119.872 359.202 119.219 356.742 118.638 354.258C117.614 349.814 120.38 345.375 124.823 344.347C129.267 343.351 133.702 346.085 134.734 350.524C135.234 352.701 135.807 354.855 136.436 356.988C137.718 361.363 135.21 365.952 130.831 367.234C130.057 367.464 129.275 367.573 128.509 367.573Z" fill="#FFE17D"/>
<path d="M74.3317 82.581C69.7667 82.581 66.0737 86.279 66.0737 90.839C66.0737 95.399 69.7677 99.097 74.3317 99.097H156.913V82.581H74.3317Z" fill="#FFC350"/>
<path d="M272.525 222.968H256.009C251.444 222.968 247.751 219.27 247.751 214.71C247.751 210.15 251.445 206.452 256.009 206.452H272.525C277.09 206.452 280.783 210.15 280.783 214.71C280.783 219.27 277.09 222.968 272.525 222.968Z" fill="#A06E50"/>
<path d="M150.968 344.215C161.18 392.873 204.316 429.419 256.009 429.419C307.702 429.419 350.839 392.873 361.05 344.215L345.13 339.533C336.981 381.338 300.199 412.903 256.009 412.903C211.819 412.903 175.037 381.337 166.888 339.533L150.968 344.215Z" fill="#DC4655"/>
<path d="M363.369 99.1H148.659V132.13H363.369V99.1Z" fill="#E6646E"/>
<path d="M330.332 61.935C330.332 55.094 335.878 49.548 342.719 49.548H350.424C353.945 49.548 355.908 45.585 353.901 42.692C336.018 16.915 306.276 0 272.525 0H239.493C187.833 0 145.406 39.529 140.809 89.991C140.365 94.861 144.184 99.097 149.074 99.097H362.943C367.81 99.097 371.65 94.89 371.213 90.043C370.979 87.448 370.624 84.889 370.172 82.364C369.341 77.724 365.326 74.323 360.611 74.323H342.719C335.877 74.323 330.332 68.777 330.332 61.935Z" fill="#FFE17D"/>
<path d="M198.993 89.99C203.21 43.7 239.291 6.704 285.101 0.888C280.973 0.364 276.796 0 272.525 0H239.493C187.833 0 145.406 39.529 140.809 89.99C140.365 94.86 144.185 99.096 149.075 99.096H207.259C202.368 99.097 198.549 94.86 198.993 89.99Z" fill="#FFD164"/>
<path d="M342.719 49.548C335.878 49.548 330.332 55.094 330.332 61.935C330.332 68.776 335.878 74.322 342.719 74.322H360.147C357.88 65.526 354.441 57.22 349.997 49.548H342.719Z" fill="#CD916E"/>
</svg>
