<svg width="513" height="512" viewBox="0 0 513 512" fill="none" xmlns="http://www.w3.org/2000/svg">
<path d="M148.654 396.387C148.654 396.387 90.8467 287.405 90.8467 175.491C90.8467 113.105 123.879 57.807 181.686 24.774H231.234V396.387H148.654Z" fill="#5A4650"/>
<path d="M363.364 388.129C363.364 388.129 429.429 280.774 429.429 173.419C429.428 77.642 351.786 0 256.009 0H239.493C198.203 0 165.17 25.881 165.17 57.806C165.17 76.049 179.959 90.838 198.202 90.838H231.234V388.128H363.364V388.129Z" fill="#64505A"/>
<path d="M156.912 256C156.912 265.122 149.517 272.516 140.396 272.516C131.274 272.516 123.88 265.121 123.88 256C123.88 239.484 140.396 206.452 140.396 206.452C140.396 206.452 156.912 239.484 156.912 256Z" fill="#FFE17D"/>
<path d="M140.396 206.452C140.396 206.452 123.88 239.484 123.88 256C123.88 265.121 131.275 272.516 140.396 272.516V206.452Z" fill="#FFD164"/>
<path d="M388.138 256C388.138 265.122 380.743 272.516 371.622 272.516C362.5 272.516 355.106 265.121 355.106 256C355.106 239.484 371.622 206.452 371.622 206.452C371.622 206.452 388.138 239.484 388.138 256Z" fill="#FFE17D"/>
<path d="M371.622 206.452C371.622 206.452 355.106 239.484 355.106 256C355.106 265.121 362.501 272.516 371.622 272.516V206.452Z" fill="#FFD164"/>
<path d="M412.887 401.236L327.596 371.133C314.389 366.472 305.557 353.989 305.557 339.984V297.29H206.46V339.984C206.46 353.989 197.628 366.472 184.422 371.133L99.1307 401.236C79.3207 408.228 66.0737 426.952 66.0737 447.959V487.226C66.0737 500.908 77.1657 512 90.8477 512H421.171C434.853 512 445.945 500.908 445.945 487.226V447.96C445.944 426.952 432.697 408.228 412.887 401.236Z" fill="#E3AA75"/>
<path d="M256.009 330.323C273.557 330.323 290.31 326.499 305.557 319.756V297.29H206.46V319.756C221.708 326.498 238.461 330.323 256.009 330.323Z" fill="#D29B6E"/>
<path d="M367.493 173.419H363.364V140.387C363.364 113.022 341.181 90.839 313.816 90.839H198.203C170.838 90.839 148.655 113.022 148.655 140.387V173.419H144.526C133.124 173.419 123.881 182.662 123.881 194.064C123.881 205.466 133.124 214.709 144.526 214.709H149.072C153.302 270.128 199.507 313.806 256.01 313.806C312.513 313.806 358.718 270.128 362.948 214.709H367.494C378.896 214.709 388.139 205.466 388.139 194.064C388.138 182.662 378.895 173.419 367.493 173.419Z" fill="#F5B97D"/>
<path d="M206.461 198.911C201.896 198.911 198.203 195.217 198.203 190.653V182.395C198.203 177.83 201.897 174.137 206.461 174.137C211.025 174.137 214.719 177.831 214.719 182.395V190.653C214.719 195.218 211.025 198.911 206.461 198.911Z" fill="#5A4650"/>
<path d="M305.557 198.911C300.992 198.911 297.299 195.217 297.299 190.653V182.395C297.299 177.83 300.993 174.137 305.557 174.137C310.122 174.137 313.815 177.831 313.815 182.395V190.653C313.815 195.218 310.122 198.911 305.557 198.911Z" fill="#5A4650"/>
<path d="M256.009 264.258C243.614 264.258 232.186 260.282 225.436 253.621C222.186 250.411 222.154 245.186 225.355 241.944C228.573 238.686 233.799 238.662 237.032 241.863C239.782 244.573 246.395 247.742 256.008 247.742C265.621 247.742 272.234 244.573 274.984 241.863C278.218 238.661 283.444 238.686 286.661 241.944C289.863 245.186 289.83 250.412 286.58 253.621C279.832 260.282 268.404 264.258 256.009 264.258Z" fill="#B67F5F"/>
<path d="M198.211 165.677C195.114 165.677 192.155 163.935 190.743 160.955C188.783 156.834 190.549 151.907 194.67 149.955L204.476 145.31C208.581 143.354 213.516 145.116 215.468 149.237C217.428 153.358 215.662 158.285 211.541 160.237L201.735 164.882C200.598 165.419 199.396 165.677 198.211 165.677Z" fill="#A06E50"/>
<path d="M313.807 165.677C312.622 165.677 311.42 165.419 310.283 164.883L300.477 160.238C296.356 158.286 294.59 153.359 296.55 149.238C298.502 145.121 303.445 143.363 307.542 145.311L317.348 149.956C321.469 151.908 323.235 156.835 321.275 160.956C319.864 163.935 316.904 165.677 313.807 165.677Z" fill="#A06E50"/>
<path d="M412.887 401.236L393.523 394.402C361.824 435.707 312.1 462.452 256.009 462.452C199.918 462.452 150.193 435.707 118.495 394.402L99.1307 401.237C79.3207 408.228 66.0737 426.953 66.0737 447.96V487.227C66.0737 500.909 77.1657 512.001 90.8477 512.001H421.171C434.853 512.001 445.945 500.909 445.945 487.227V447.96C445.944 426.952 432.697 408.228 412.887 401.236Z" fill="#FF8250"/>
<path d="M256.009 462.452C199.919 462.452 150.193 435.707 118.495 394.402L102.052 400.206C136.556 447.905 192.639 478.969 256.009 478.969C319.379 478.969 375.462 447.905 409.966 400.206L393.522 394.403C361.824 435.707 312.099 462.452 256.009 462.452Z" fill="#DC7346"/>
<path d="M148.654 140.387V173.419H145.703C134.904 173.419 125.063 181.189 123.987 191.934C122.749 204.292 132.421 214.709 144.525 214.709H149.071C153.301 270.128 199.506 313.806 256.009 313.806C261.658 313.806 267.166 313.256 272.577 312.414C221.123 304.473 181.686 260.128 181.686 206.451V140.386C181.686 122.143 196.475 107.354 214.718 107.354H305.557C314.678 107.354 322.073 99.959 322.073 90.838H198.203C170.838 90.839 148.654 113.022 148.654 140.387Z" fill="#E3AA75"/>
</svg>
