<svg width="513" height="512" viewBox="0 0 513 512" fill="none" xmlns="http://www.w3.org/2000/svg">
<path d="M418.638 361.152L331.602 335.553C321.058 332.452 313.818 322.775 313.818 311.785V272.516H198.205V311.785C198.205 322.775 190.965 332.452 180.421 335.553L93.3849 361.152C72.2979 367.354 57.8169 386.707 57.8169 408.687V470.71C57.8169 484.392 68.9089 512 82.5909 512H429.43C443.112 512 454.204 484.392 454.204 470.71V408.687C454.205 386.707 439.725 367.354 418.638 361.152Z" fill="#F7D291"/>
<path d="M418.638 361.152L331.602 335.553C330.13 335.12 339.925 339.256 338.592 338.581L256.007 363.355L173.43 338.581C172.098 339.256 181.892 335.12 180.42 335.553L93.3839 361.152C72.2969 367.354 57.8159 386.707 57.8159 408.687V487.226C57.8159 500.908 68.9079 512 82.5899 512H429.429C443.111 512 454.203 500.908 454.203 487.226V408.687C454.205 386.707 439.725 367.354 418.638 361.152Z" fill="#CD916E"/>
<path d="M335.759 352.263L325.912 342.416L256.012 355.096L186.112 342.416L176.265 352.263C163.875 364.652 156.915 381.456 156.915 398.978V512H355.109V398.978C355.108 381.456 348.148 364.652 335.759 352.263Z" fill="#EDEBED"/>
<path d="M335.759 352.263L325.912 342.416L256.012 355.096L186.112 342.416L176.265 352.263C172.211 356.316 168.804 360.878 165.967 365.748L196.48 400.62C201.184 405.996 207.98 409.08 215.126 409.08C221.742 409.08 227.963 406.503 232.643 401.823L256.012 378.454L279.382 401.824C284.06 406.503 290.281 409.08 296.898 409.08C304.044 409.08 310.841 405.996 315.545 400.619L346.058 365.748C343.22 360.879 339.812 356.317 335.759 352.263Z" fill="#DBD9DC"/>
<path d="M244.084 396.387L231.237 512H280.785L267.94 396.387H244.084Z" fill="#E3AA75"/>
<path d="M266.575 404.645H245.447C241.892 404.645 238.737 402.37 237.613 398.998L222.979 355.096H289.044L274.41 398.998C273.285 402.371 270.13 404.645 266.575 404.645Z" fill="#D29B6E"/>
<path d="M198.205 290.945C215.554 300.212 235.229 305.549 256.011 305.549C276.793 305.549 296.468 300.212 313.817 290.945V272.517H198.205V290.945Z" fill="#F0C382"/>
<path d="M87.0855 171.154L105.397 195.569C106.775 197.407 107.383 199.716 106.946 201.971C106.437 204.602 105.516 207.566 104.48 210.421C101.612 218.324 105.304 227.041 112.848 230.752C125.702 237.075 146.884 245.326 173.43 247.742V41.29C111.708 61.864 89.8525 133.697 84.2165 157.461C83.0845 162.24 84.1405 167.225 87.0855 171.154Z" fill="#B7B2B8"/>
<path d="M424.935 171.154L406.624 195.569C405.246 197.407 404.638 199.716 405.075 201.971C405.584 204.602 406.505 207.566 407.541 210.421C410.409 218.324 406.717 227.041 399.173 230.752C386.319 237.075 365.137 245.326 338.591 247.742V41.29C400.313 61.864 422.168 133.697 427.804 157.461C428.937 162.24 427.881 167.225 424.935 171.154Z" fill="#B7B2B8"/>
<path d="M371.625 149.061V115.612C371.625 51.762 319.863 0 256.011 0C192.159 0 140.398 51.762 140.398 115.613V149.062C130.975 150.975 123.882 159.303 123.882 169.291C123.882 180.693 133.125 189.936 144.527 189.936H149.073C153.303 245.355 199.508 289.033 256.011 289.033C312.514 289.033 358.719 245.355 362.949 189.936H367.495C378.897 189.936 388.14 180.693 388.14 169.291C388.14 159.302 381.048 150.975 371.625 149.061Z" fill="#FFE1A0"/>
<path d="M231.241 140.39H189.951V160.855H231.241V140.39Z" fill="#F7D291"/>
<path d="M322.071 140.39H280.781V160.855H322.071V140.39Z" fill="#F7D291"/>
<path d="M189.946 181.677V107.354C189.946 55.032 227.394 11.508 276.938 1.986C270.143 0.742 263.169 0 256.011 0C192.16 0 140.398 51.762 140.398 115.613V149.062C130.975 150.975 123.882 159.303 123.882 169.291C123.882 180.693 133.125 189.936 144.527 189.936H149.073C153.303 245.355 199.508 289.033 256.011 289.033C263.114 289.033 270.053 288.337 276.768 287.02C227.308 277.432 189.946 233.94 189.946 181.677Z" fill="#F7D291"/>
<path d="M210.592 165.161C206.027 165.161 202.334 161.463 202.334 156.903V148.645C202.334 144.085 206.028 140.387 210.592 140.387C215.156 140.387 218.85 144.085 218.85 148.645V156.903C218.85 161.464 215.156 165.161 210.592 165.161Z" fill="#6E5A64"/>
<path d="M256.011 231.226C243.616 231.226 232.188 227.25 225.438 220.589C222.188 217.379 222.156 212.154 225.357 208.912C228.575 205.67 233.801 205.63 237.034 208.831C239.784 211.541 246.397 214.71 256.01 214.71C265.623 214.71 272.236 211.541 274.986 208.831C278.22 205.629 283.446 205.67 286.663 208.912C289.865 212.154 289.832 217.38 286.582 220.589C279.834 227.25 268.406 231.226 256.011 231.226Z" fill="#E3AA75"/>
<path d="M222.979 123.871H198.205C193.64 123.871 189.947 120.173 189.947 115.613C189.947 111.053 193.641 107.355 198.205 107.355H222.979C227.544 107.355 231.237 111.053 231.237 115.613C231.237 120.173 227.543 123.871 222.979 123.871Z" fill="#9C969E"/>
<path d="M301.431 165.161C296.866 165.161 293.173 161.463 293.173 156.903V148.645C293.173 144.085 296.867 140.387 301.431 140.387C305.995 140.387 309.689 144.085 309.689 148.645V156.903C309.688 161.464 305.996 165.161 301.431 165.161Z" fill="#6E5A64"/>
<path d="M313.817 123.871H289.043C284.478 123.871 280.785 120.173 280.785 115.613C280.785 111.053 284.479 107.355 289.043 107.355H313.817C318.382 107.355 322.075 111.053 322.075 115.613C322.076 120.173 318.382 123.871 313.817 123.871Z" fill="#9C969E"/>
<path d="M181.688 156.903H140.398C135.833 156.903 132.14 153.205 132.14 148.645C132.14 144.085 135.834 140.387 140.398 140.387H181.688C186.253 140.387 189.946 144.085 189.946 148.645C189.946 153.205 186.253 156.903 181.688 156.903Z" fill="#5D5360"/>
<path d="M371.625 156.903H330.335C325.77 156.903 322.077 153.205 322.077 148.645C322.077 144.085 325.771 140.387 330.335 140.387H371.625C376.19 140.387 379.883 144.085 379.883 148.645C379.883 153.205 376.188 156.903 371.625 156.903Z" fill="#5D5360"/>
<path d="M272.527 173.419C267.962 173.419 264.269 169.725 264.269 165.161C264.269 160.609 260.567 156.903 256.011 156.903C251.455 156.903 247.753 160.609 247.753 165.161C247.753 169.726 244.059 173.419 239.495 173.419C234.931 173.419 231.237 169.725 231.237 165.161C231.237 151.5 242.35 140.387 256.011 140.387C269.672 140.387 280.785 151.5 280.785 165.161C280.785 169.726 277.092 173.419 272.527 173.419Z" fill="#5D5360"/>
<path d="M256.011 305.548C242.329 305.548 231.237 294.456 231.237 280.774V264.258C231.237 259.697 234.934 256 239.495 256H272.527C277.088 256 280.785 259.697 280.785 264.258V280.774C280.785 294.457 269.694 305.548 256.011 305.548Z" fill="#9C969E"/>
<path d="M192.688 319.917L170.928 346.338L208.908 389.743C212.054 393.338 217.584 393.522 220.962 390.144L256.011 355.097L192.688 319.917Z" fill="white"/>
<path d="M319.334 319.917L341.094 346.338L303.114 389.743C299.968 393.338 294.438 393.522 291.06 390.144L256.011 355.097L319.334 319.917Z" fill="white"/>
<path d="M115.625 512L101.076 446.528C99.8508 441.016 101.527 435.259 105.52 431.266L132.141 404.645L119.893 386.273C117.01 381.948 116.392 376.518 118.033 371.585C137.724 312.41 198.205 297.29 198.205 297.29V313.219C198.205 324.17 193.855 334.672 186.111 342.416L176.264 352.263C163.874 364.652 156.914 381.456 156.914 398.978V512" fill="#B67F5F"/>
<path d="M396.398 512L410.947 446.528C412.172 441.016 410.496 435.259 406.503 431.266L379.882 404.645L392.13 386.273C395.013 381.948 395.631 376.518 393.99 371.585C374.299 312.41 313.818 297.29 313.818 297.29V313.219C313.818 324.17 318.168 334.672 325.912 342.416L335.759 352.263C348.148 364.652 355.109 381.456 355.109 398.978V512" fill="#B67F5F"/>
<path d="M222.979 189.935H198.205C184.544 189.935 173.431 178.822 173.431 165.161V140.387C173.431 135.827 177.125 132.129 181.689 132.129H239.495C244.06 132.129 247.753 135.827 247.753 140.387V165.161C247.753 178.823 236.64 189.935 222.979 189.935ZM189.946 148.645V165.161C189.946 169.717 193.648 173.419 198.204 173.419H222.978C227.534 173.419 231.236 169.717 231.236 165.161V148.645H189.946Z" fill="#6F6571"/>
<path d="M313.817 189.935H289.043C275.382 189.935 264.269 178.822 264.269 165.161V140.387C264.269 135.827 267.963 132.129 272.527 132.129H330.333C334.898 132.129 338.591 135.827 338.591 140.387V165.161C338.592 178.823 327.479 189.935 313.817 189.935ZM280.785 148.645V165.161C280.785 169.717 284.487 173.419 289.043 173.419H313.817C318.373 173.419 322.075 169.717 322.075 165.161V148.645H280.785Z" fill="#6F6571"/>
</svg>
