<svg width="512" height="512" viewBox="0 0 512 512" fill="none" xmlns="http://www.w3.org/2000/svg">
<path d="M132.13 115.612C164.055 115.612 189.936 89.7314 189.936 57.806C189.936 25.8806 164.055 0 132.13 0C100.205 0 74.324 25.8806 74.324 57.806C74.324 89.7314 100.205 115.612 132.13 115.612Z" fill="#E6646E"/>
<path d="M379.87 115.612C411.795 115.612 437.676 89.7314 437.676 57.806C437.676 25.8806 411.795 0 379.87 0C347.945 0 322.064 25.8806 322.064 57.806C322.064 89.7314 347.945 115.612 379.87 115.612Z" fill="#E6646E"/>
<path d="M383.832 206.452C391.825 188.807 396.387 169.277 396.387 148.646C396.387 71.111 333.534 8.258 256 8.258C178.466 8.258 115.613 71.111 115.613 148.645C115.613 169.277 120.174 188.806 128.168 206.451L383.832 206.452Z" fill="#DC4655"/>
<path d="M412.878 409.494L327.587 379.391C314.38 374.73 305.548 362.247 305.548 348.242V305.548H206.451V348.242C206.451 362.247 197.619 374.73 184.412 379.391L99.121 409.494C79.311 416.486 66.064 435.21 66.064 456.217V487.226C66.064 500.908 77.156 512 90.838 512H421.161C434.843 512 445.935 500.908 445.935 487.226V456.217C445.935 435.21 432.688 416.486 412.878 409.494Z" fill="#E3AA75"/>
<path d="M412.878 409.494L379.995 397.888C349.726 432.338 305.463 454.193 256 454.193C206.537 454.193 162.274 432.338 132.005 397.888L99.122 409.494C79.312 416.485 66.065 435.21 66.065 456.217V487.226C66.065 500.908 77.157 512 90.839 512H421.162C434.844 512 445.936 500.908 445.936 487.226V456.217C445.935 435.21 432.688 416.485 412.878 409.494Z" fill="#E6646E"/>
<path d="M206.452 328.014C221.699 334.756 238.453 338.581 256 338.581C273.547 338.581 290.301 334.757 305.548 328.014V305.548H206.451L206.452 328.014Z" fill="#D29B6E"/>
<path d="M367.484 181.677H363.355V173.419C363.355 114.128 315.29 66.064 256 66.064C196.71 66.064 148.645 114.128 148.645 173.419V181.677H144.516C133.114 181.677 123.871 190.92 123.871 202.322C123.871 213.724 133.114 222.967 144.516 222.967H149.062C153.292 278.386 199.497 322.064 256 322.064C312.503 322.064 358.708 278.386 362.938 222.967H367.484C378.886 222.967 388.129 213.724 388.129 202.322C388.129 190.92 378.886 181.677 367.484 181.677Z" fill="#F5B97D"/>
<path d="M181.677 214.71V173.42C181.677 165.235 182.6 157.271 184.344 149.622C189.302 127.878 214.007 117.835 233.406 128.839C272.438 150.979 316.62 163.516 362.925 164.914C358.447 107.949 309.606 63.457 250.885 66.184C193.069 68.868 148.645 114.226 148.645 175.312V181.678H145.694C133.587 181.678 125.054 189.448 123.978 200.193C122.74 212.551 132.412 222.968 144.516 222.968H149.062C153.292 278.387 199.497 322.065 256 322.065C261.649 322.065 267.157 321.515 272.568 320.673C221.114 312.732 181.677 268.387 181.677 214.71Z" fill="#E3AA75"/>
<path d="M256 272.516C243.605 272.516 232.177 268.54 225.427 261.879C222.177 258.669 222.145 253.444 225.346 250.202C228.564 246.952 233.79 246.92 237.023 250.121C239.773 252.831 246.386 256 255.999 256C265.612 256 272.225 252.831 274.975 250.121C278.209 246.919 283.435 246.952 286.652 250.202C289.854 253.444 289.821 258.67 286.571 261.879C279.823 268.54 268.395 272.516 256 272.516Z" fill="#B67F5F"/>
<path d="M206.452 206.452C201.887 206.452 198.194 202.758 198.194 198.194V189.936C198.194 185.371 201.888 181.678 206.452 181.678C211.016 181.678 214.71 185.372 214.71 189.936V198.194C214.71 202.758 211.016 206.452 206.452 206.452Z" fill="#5A4650"/>
<path d="M305.548 206.452C300.983 206.452 297.29 202.758 297.29 198.194V189.936C297.29 185.371 300.984 181.678 305.548 181.678C310.113 181.678 313.806 185.372 313.806 189.936V198.194C313.806 202.758 310.113 206.452 305.548 206.452Z" fill="#5A4650"/>
<path d="M206.452 173.419C206.387 173.419 206.323 173.419 206.25 173.419L197.992 173.217C193.436 173.104 189.831 169.314 189.936 164.757C190.049 160.265 193.726 156.701 198.194 156.701C198.259 156.701 198.323 156.701 198.396 156.705L206.654 156.907C211.21 157.016 214.815 160.802 214.71 165.363C214.597 169.855 210.919 173.419 206.452 173.419Z" fill="#6E5A64"/>
<path d="M305.548 173.419C301.08 173.419 297.403 169.854 297.29 165.363C297.185 160.803 300.79 157.016 305.346 156.907L313.604 156.705C318.491 156.499 321.951 160.201 322.064 164.757C322.169 169.313 318.564 173.104 314.008 173.217L305.75 173.419C305.685 173.419 305.613 173.419 305.548 173.419Z" fill="#6E5A64"/>
<path d="M256 8.258C219.651 8.258 186.639 22.19 161.707 44.855C210.001 107.932 286.035 148.645 371.613 148.645C379.951 148.645 388.186 148.212 396.327 147.456C395.681 70.476 333.133 8.258 256 8.258Z" fill="#E6646E"/>
<path d="M256 470.71C312.794 470.71 363.486 444.636 396.801 403.82L379.995 397.889C349.726 432.339 305.463 454.194 256 454.194C206.537 454.194 162.274 432.339 132.005 397.889L115.199 403.82C148.514 444.636 199.206 470.71 256 470.71Z" fill="#DC4655"/>
<path d="M182.679 413.905L157.621 388.847L99.122 409.494C79.312 416.485 66.065 435.21 66.065 456.217V487.226C66.065 500.908 77.157 512 90.839 512H189.936V431.423C189.935 424.852 187.325 418.551 182.679 413.905Z" fill="#FFE17D"/>
<path d="M329.321 413.905L354.379 388.847L412.878 409.494C432.688 416.485 445.935 435.21 445.935 456.217V487.226C445.935 500.908 434.843 512 421.161 512H322.064V431.423C322.065 424.852 324.675 418.551 329.321 413.905Z" fill="#FFE17D"/>
</svg>
