<svg width="512" height="512" viewBox="0 0 512 512" fill="none" xmlns="http://www.w3.org/2000/svg">
<path d="M418.626 361.152L331.591 335.553C321.047 332.452 313.807 322.775 313.807 311.785V264.258H198.195V311.785C198.195 322.775 190.955 332.452 180.411 335.553L93.375 361.152C72.288 367.354 57.807 386.707 57.807 408.687V487.226C57.807 500.908 68.899 512 82.581 512H429.42C443.102 512 454.194 500.908 454.194 487.226V408.687C454.194 386.707 439.714 367.354 418.626 361.152Z" fill="#F7D291"/>
<path d="M198.195 290.94C215.545 300.207 235.218 305.549 256.001 305.549C276.784 305.549 296.458 300.207 313.807 290.94V264.259H198.195V290.94Z" fill="#F0C382"/>
<path d="M371.613 149.061V115.612C371.613 51.762 319.852 0 256 0C192.148 0 140.387 51.762 140.387 115.613V149.062C130.964 150.975 123.871 159.303 123.871 169.291C123.871 180.693 133.114 189.936 144.516 189.936H149.062C153.292 245.355 199.497 289.033 256 289.033C312.503 289.033 358.708 245.355 362.938 189.936H367.484C378.886 189.936 388.129 180.693 388.129 169.291C388.129 159.302 381.036 150.975 371.613 149.061Z" fill="#FFE1A0"/>
<path d="M189.936 181.677V61.008C189.936 44.706 168.702 38.176 159.667 51.746C147.49 70.036 140.388 91.986 140.388 115.613V149.062C129.833 151.205 122.203 161.395 124.187 172.951C125.907 182.968 135.212 189.936 145.376 189.936H149.064C153.294 245.355 199.499 289.033 256.002 289.033C263.105 289.033 270.044 288.337 276.759 287.02C227.298 277.432 189.936 233.94 189.936 181.677Z" fill="#F7D291"/>
<path d="M210.581 173.419C206.016 173.419 202.323 169.725 202.323 165.161V156.903C202.323 152.343 206.017 148.645 210.581 148.645C215.145 148.645 218.839 152.343 218.839 156.903V165.161C218.84 169.726 215.146 173.419 210.581 173.419Z" fill="#5A4650"/>
<path d="M189.928 140.387C186.226 140.387 182.863 137.883 181.928 134.133C180.815 129.706 183.509 125.222 187.936 124.117L220.968 115.859C225.387 114.742 229.871 117.444 230.976 121.867C232.089 126.294 229.395 130.778 224.968 131.883L191.936 140.141C191.267 140.31 190.59 140.387 189.928 140.387Z" fill="#8C5F4B"/>
<path d="M301.419 173.419C296.854 173.419 293.161 169.725 293.161 165.161V156.903C293.161 152.343 296.855 148.645 301.419 148.645C305.983 148.645 309.677 152.343 309.677 156.903V165.161C309.677 169.726 305.984 173.419 301.419 173.419Z" fill="#5A4650"/>
<path d="M322.073 140.387C321.412 140.387 320.734 140.31 320.065 140.141L287.033 131.883C282.606 130.778 279.912 126.294 281.025 121.867C282.13 117.444 286.598 114.734 291.033 115.859L324.065 124.117C328.492 125.222 331.186 129.706 330.073 134.133C329.137 137.883 325.774 140.387 322.073 140.387Z" fill="#8C5F4B"/>
<path d="M256 470.71C251.435 470.71 247.742 467.016 247.742 462.452V412.904C247.742 408.339 251.436 404.646 256 404.646C260.564 404.646 264.258 408.34 264.258 412.904V462.452C264.258 467.016 260.565 470.71 256 470.71Z" fill="#CBA274"/>
<path d="M289.033 462.452C284.468 462.452 280.775 458.758 280.775 454.194V421.162C280.775 416.597 284.469 412.904 289.033 412.904C293.597 412.904 297.291 416.598 297.291 421.162V454.194C297.29 458.758 293.597 462.452 289.033 462.452Z" fill="#CBA274"/>
<path d="M222.969 462.452C218.404 462.452 214.711 458.758 214.711 454.194V421.162C214.711 416.597 218.405 412.904 222.969 412.904C227.533 412.904 231.227 416.598 231.227 421.162V454.194C231.227 458.758 227.533 462.452 222.969 462.452Z" fill="#CBA274"/>
<path d="M280.783 44.802C280.033 44.802 279.275 44.697 278.525 44.483C263.557 40.249 248.444 40.249 233.477 44.483C229.13 45.717 224.517 43.189 223.283 38.789C222.041 34.402 224.589 29.837 228.977 28.595C246.88 23.522 265.122 23.522 283.025 28.595C287.412 29.837 289.96 34.401 288.719 38.789C287.694 42.427 284.379 44.802 280.783 44.802Z" fill="#CBA274"/>
<path d="M144.517 148.645C151.358 148.645 156.904 143.099 156.904 136.258V108.238C156.904 100.011 151.282 92.386 143.162 91.065C132.814 89.382 123.872 97.324 123.872 107.355V169.29C123.872 157.888 133.115 148.645 144.517 148.645Z" fill="#A06E50"/>
<path d="M367.484 148.645C360.643 148.645 355.097 143.099 355.097 136.258V108.238C355.097 100.011 360.719 92.386 368.839 91.065C379.187 89.382 388.129 97.324 388.129 107.355V169.29C388.129 157.888 378.886 148.645 367.484 148.645Z" fill="#A06E50"/>
<path d="M272.516 231.226H239.484C230.362 231.226 222.968 223.831 222.968 214.71V206.452L256 198.194L289.032 206.452V214.71C289.033 223.831 281.638 231.226 272.516 231.226Z" fill="#F0C382"/>
<path d="M206.452 222.968H231.226C244.908 222.968 256 211.876 256 198.194H231.226C217.544 198.194 206.452 209.285 206.452 222.968Z" fill="#A06E50"/>
<path d="M280.774 198.194H256C256 211.876 267.092 222.968 280.774 222.968H305.548C305.548 209.285 294.457 198.194 280.774 198.194Z" fill="#A06E50"/>
<path d="M165.161 363.355V340.038L123.871 352.182V512H388.129V352.182L346.839 340.038V363.355C346.839 413.524 306.169 454.194 256 454.194C205.831 454.194 165.161 413.524 165.161 363.355Z" fill="#EDEBED"/>
<path d="M346.839 340.038V363.355C346.839 413.524 306.169 454.194 256 454.194C205.831 454.194 165.161 413.524 165.161 363.355V340.038L148.645 344.896V363.355C148.645 422.645 196.71 470.71 256 470.71C315.29 470.71 363.355 422.645 363.355 363.355V344.896L346.839 340.038Z" fill="white"/>
</svg>
