<svg width="512" height="512" viewBox="0 0 512 512" fill="none" xmlns="http://www.w3.org/2000/svg">
<path d="M418.627 385.926L331.591 360.327C321.047 357.226 313.807 347.549 313.807 336.559V272.516H198.195V336.559C198.195 347.549 190.955 357.226 180.411 360.327L93.375 385.926C72.288 392.128 57.807 411.481 57.807 433.461V487.226C57.807 500.908 68.899 512 82.581 512H429.42C443.102 512 454.194 500.908 454.194 487.226V433.461C454.195 411.481 439.714 392.128 418.627 385.926Z" fill="#F7D291"/>
<path d="M256.001 346.839C277.29 346.839 297.1 340.534 313.807 329.802V272.516H198.195V329.802C214.902 340.533 234.712 346.839 256.001 346.839Z" fill="#F0C382"/>
<path d="M418.627 385.926L331.591 360.327C330.764 360.084 329.997 359.732 329.213 359.411L256.001 371.613L182.789 359.411C182.005 359.733 181.238 360.084 180.411 360.327L93.375 385.926C72.288 392.128 57.807 411.481 57.807 433.461V487.226C57.806 500.908 68.898 512 82.58 512H429.419C443.101 512 454.193 500.908 454.193 487.226V433.461C454.195 411.481 439.714 392.128 418.627 385.926Z" fill="#B67F5F"/>
<path d="M367.485 156.903H363.356V66.065H148.646V156.904H144.517C133.115 156.904 123.872 166.147 123.872 177.549C123.872 188.951 133.115 198.194 144.517 198.194H149.063C153.293 253.613 199.498 297.291 256.001 297.291C312.504 297.291 358.709 253.613 362.939 198.194H367.485C378.887 198.194 388.13 188.951 388.13 177.549C388.13 166.146 378.887 156.903 367.485 156.903Z" fill="#FFE1A0"/>
<path d="M148.646 66.065V156.904H145.695C134.896 156.903 125.055 164.674 123.979 175.419C122.741 187.777 132.412 198.194 144.517 198.194H149.063C151.13 225.272 163.264 249.5 181.678 267.246V132.129C181.678 113.886 196.467 99.097 214.71 99.097H313.807C322.928 99.097 330.323 91.702 330.323 82.581V66.065H148.646Z" fill="#F7D291"/>
<path d="M322.066 206.452H189.936C176.254 206.452 165.162 217.544 165.162 231.226V239.484C165.162 289.653 205.832 330.323 256.001 330.323C306.17 330.323 346.84 289.653 346.84 239.484V231.226C346.84 217.543 335.748 206.452 322.066 206.452Z" fill="#FF8250"/>
<path d="M206.452 181.677C201.887 181.677 198.194 177.979 198.194 173.419V165.161C198.194 160.601 201.888 156.903 206.452 156.903C211.016 156.903 214.71 160.601 214.71 165.161V173.419C214.711 177.98 211.017 181.677 206.452 181.677Z" fill="#6E5A64"/>
<path d="M305.549 181.677C300.984 181.677 297.291 177.979 297.291 173.419V165.161C297.291 160.601 300.985 156.903 305.549 156.903C310.114 156.903 313.807 160.601 313.807 165.161V173.419C313.807 177.98 310.114 181.677 305.549 181.677Z" fill="#6E5A64"/>
<path d="M256.001 256C243.614 256 232.178 252.024 225.428 245.363C222.178 242.161 222.146 236.932 225.347 233.686C228.548 230.44 233.791 230.404 237.024 233.605C239.774 236.319 246.395 239.484 256 239.484C265.605 239.484 272.226 236.319 274.976 233.605C278.21 230.403 283.452 230.44 286.653 233.686C289.855 236.932 289.822 242.162 286.572 245.363C279.824 252.024 268.388 256 256.001 256Z" fill="#F7D291"/>
<path d="M296.4 0H215.6C166.572 0 128.341 42.467 133.473 91.225L140.386 157.34L148.935 157.189C157.942 157.03 165.16 149.683 165.16 140.675V99.097C165.16 89.975 172.555 82.581 181.676 82.581H289.031H322.064H330.321C339.443 82.581 346.837 89.976 346.837 99.097V140.676C346.837 149.684 354.055 157.031 363.062 157.19L371.611 157.341L378.524 91.226C383.66 42.467 345.428 0 296.4 0Z" fill="#FF8250"/>
<path d="M214.711 148.645H198.195C193.63 148.645 189.937 144.947 189.937 140.387C189.937 135.827 193.631 132.129 198.195 132.129H214.711C219.276 132.129 222.969 135.827 222.969 140.387C222.969 144.947 219.275 148.645 214.711 148.645Z" fill="#DC7346"/>
<path d="M313.807 148.645H297.291C292.726 148.645 289.033 144.947 289.033 140.387C289.033 135.827 292.727 132.129 297.291 132.129H313.807C318.372 132.129 322.065 135.827 322.065 140.387C322.065 144.947 318.372 148.645 313.807 148.645Z" fill="#DC7346"/>
<path d="M153.014 375.384L178.898 420.68C183.299 428.381 191.545 433.164 200.42 433.164C206.321 433.164 212.043 431.046 216.531 427.199L256.001 393.366L295.472 427.198C299.96 431.045 305.682 433.164 311.583 433.164C320.458 433.164 328.704 428.381 333.105 420.681L358.988 375.387C360.127 373.395 360.9 371.275 361.444 369.108L331.592 360.328C330.765 360.085 329.998 359.733 329.214 359.412L256.001 371.613L182.789 359.411C182.005 359.733 181.238 360.084 180.411 360.327L150.559 369.107C151.103 371.273 151.874 373.392 153.014 375.384Z" fill="#A06E50"/>
<path d="M205.781 414.658L256.001 371.613L189.218 334.511C185.108 332.228 179.924 333.832 177.821 338.037L167.139 359.402C165.904 361.872 165.985 364.795 167.355 367.192L193.237 412.485C195.809 416.987 201.844 418.032 205.781 414.658Z" fill="#B67F5F"/>
<path d="M306.221 414.658L256.001 371.613L322.784 334.511C326.894 332.228 332.078 333.832 334.181 338.037L344.863 359.402C346.098 361.872 346.017 364.795 344.647 367.192L318.765 412.485C316.193 416.987 310.157 418.032 306.221 414.658Z" fill="#B67F5F"/>
<path d="M126.525 438.165L77.1899 394.31C72.7749 397.715 69.0189 401.82 65.9919 406.453L115.557 450.512C120.839 455.21 123.872 461.956 123.872 469.028V512H140.388V469.028C140.387 457.242 135.34 445.992 126.525 438.165Z" fill="#A06E50"/>
<path d="M385.477 438.165L434.812 394.31C439.227 397.715 442.983 401.82 446.01 406.453L396.445 450.512C391.163 455.21 388.13 461.956 388.13 469.028V512H371.614V469.028C371.614 457.242 376.662 445.992 385.477 438.165Z" fill="#A06E50"/>
<path d="M256.001 445.938C260.562 445.938 264.259 442.241 264.259 437.68C264.259 433.119 260.562 429.422 256.001 429.422C251.44 429.422 247.743 433.119 247.743 437.68C247.743 442.241 251.44 445.938 256.001 445.938Z" fill="#5A4650"/>
<path d="M256.001 495.488C260.562 495.488 264.259 491.791 264.259 487.23C264.259 482.669 260.562 478.972 256.001 478.972C251.44 478.972 247.743 482.669 247.743 487.23C247.743 491.791 251.44 495.488 256.001 495.488Z" fill="#5A4650"/>
<path d="M289.033 313.806C238.864 313.806 198.194 273.136 198.194 222.967V206.451H189.936C176.254 206.451 165.162 217.543 165.162 231.225V239.483C165.162 289.652 205.832 330.322 256.001 330.322C277.288 330.322 296.821 322.946 312.306 310.683C304.866 312.654 297.093 313.806 289.033 313.806Z" fill="#DC7346"/>
<path d="M296.4 0H215.602C209.617 0 203.799 0.653 198.195 1.853V16.516C198.195 43.881 220.378 66.064 247.743 66.064H377.282C369.681 28.741 336.721 0 296.4 0Z" fill="#FF9664"/>
</svg>
