<svg width="512" height="512" viewBox="0 0 512 512" fill="none" xmlns="http://www.w3.org/2000/svg">
<path d="M396.042 135.727C391.597 59.487 330.219 0 256 0C181.781 0 120.403 59.487 115.958 135.727L108.909 251.778C103.606 339.091 170.989 412.903 256 412.903C341.011 412.903 408.395 339.091 403.091 251.778L396.042 135.727Z" fill="#8C5F4B"/>
<path d="M412.878 401.236L327.587 371.133C314.38 366.472 305.548 353.989 305.548 339.984V297.29H206.451V339.984C206.451 353.989 197.619 366.472 184.412 371.133L99.121 401.236C79.311 408.228 66.064 426.952 66.064 447.959V487.226C66.064 500.908 77.156 512 90.838 512H421.161C434.843 512 445.935 500.908 445.935 487.226V447.959C445.935 426.952 432.688 408.228 412.878 401.236Z" fill="#E3AA75"/>
<path d="M206.452 319.756C221.699 326.498 238.453 330.323 256 330.323C273.547 330.323 290.301 326.499 305.548 319.756V297.29H206.451L206.452 319.756Z" fill="#D29B6E"/>
<path d="M322.065 99.097H189.935C167.131 99.097 148.645 117.583 148.645 140.387V203.419C148.645 261.225 193.068 310.964 250.81 313.684C312.46 316.587 363.355 267.463 363.355 206.452V140.387C363.355 117.583 344.868 99.097 322.065 99.097Z" fill="#F5B97D"/>
<path d="M231.228 173.42H181.68V189.936H231.228V173.42Z" fill="#E3AA75"/>
<path d="M330.318 173.42H280.77V189.936H330.318V173.42Z" fill="#E3AA75"/>
<path d="M181.677 203.419V156.903C181.677 134.099 200.163 115.613 222.967 115.613H305.548C314.67 115.613 322.064 108.218 322.064 99.097H189.935C167.131 99.097 148.645 117.583 148.645 140.387V203.185C148.645 251.638 179.45 295.948 225.965 309.515C242.134 314.231 257.805 314.78 272.534 312.501C220.407 304.292 181.677 257.386 181.677 203.419Z" fill="#E3AA75"/>
<path d="M198.194 165.161V182.395C198.194 186.96 201.888 190.653 206.452 190.653C211.016 190.653 214.71 186.959 214.71 182.395V165.161H198.194Z" fill="#5A4650"/>
<path d="M297.29 165.161V182.395C297.29 186.96 300.984 190.653 305.548 190.653C310.113 190.653 313.806 186.959 313.806 182.395V165.161H297.29Z" fill="#5A4650"/>
<path d="M256 264.258C243.605 264.258 232.177 260.282 225.427 253.621C222.177 250.411 222.145 245.186 225.346 241.944C228.564 238.686 233.79 238.662 237.023 241.863C239.773 244.573 246.386 247.742 255.999 247.742C265.612 247.742 272.225 244.573 274.975 241.863C278.209 238.661 283.435 238.686 286.652 241.944C289.854 245.186 289.821 250.412 286.571 253.621C279.823 260.282 268.395 264.258 256 264.258Z" fill="#B67F5F"/>
<path d="M173.419 173.419H148.645C144.08 173.419 140.387 169.725 140.387 165.161C140.387 160.601 144.081 156.903 148.645 156.903H173.419C177.984 156.903 181.677 160.601 181.677 165.161C181.677 169.726 177.984 173.419 173.419 173.419Z" fill="#5A4650"/>
<path d="M363.355 173.419H338.581C334.016 173.419 330.323 169.725 330.323 165.161C330.323 160.601 334.017 156.903 338.581 156.903H363.355C367.92 156.903 371.613 160.601 371.613 165.161C371.613 169.726 367.919 173.419 363.355 173.419Z" fill="#5A4650"/>
<path d="M272.516 181.677H239.484C234.919 181.677 231.226 177.983 231.226 173.419C231.226 168.855 234.92 165.161 239.484 165.161H272.516C277.081 165.161 280.774 168.855 280.774 173.419C280.774 177.983 277.081 181.677 272.516 181.677Z" fill="#5A4650"/>
<path d="M198.185 148.645C194.483 148.645 191.12 146.141 190.185 142.391C189.072 137.964 191.766 133.48 196.193 132.375L212.709 128.246C217.112 127.113 221.612 129.831 222.717 134.254C223.83 138.681 221.136 143.165 216.709 144.27L200.193 148.399C199.524 148.569 198.847 148.645 198.185 148.645Z" fill="#8C5F4B"/>
<path d="M313.815 148.645C313.154 148.645 312.476 148.568 311.807 148.399L295.291 144.27C290.864 143.165 288.17 138.681 289.283 134.254C290.38 129.831 294.872 127.105 299.291 128.246L315.807 132.375C320.234 133.48 322.928 137.964 321.815 142.391C320.879 146.141 317.516 148.645 313.815 148.645Z" fill="#8C5F4B"/>
<path d="M289.032 82.581H382.814C360.24 33.567 311.747 0 256 0C238.771 0 222.288 3.325 206.994 9.202C211.576 50.474 246.539 82.581 289.032 82.581Z" fill="#A06E50"/>
<path d="M90.8389 512H421.162C434.844 512 445.936 500.908 445.936 487.226V447.959C445.936 426.951 432.688 408.227 412.879 401.236L370.481 386.272C357.319 401.672 319.808 441.651 265.817 466.617C262.704 468.057 259.353 468.776 256 468.776C252.649 468.776 249.299 468.056 246.186 466.617C192.194 441.651 154.684 401.672 141.521 386.272L99.1229 401.236C79.3129 408.227 66.0659 426.952 66.0659 447.959V487.226C66.0649 500.908 77.1559 512 90.8389 512Z" fill="#B4F09B"/>
<path d="M128.359 396.251L128.651 396.636L128.965 397.003C143.246 413.712 182.58 455.403 239.252 481.608C244.539 484.053 250.173 485.293 255.998 485.293C261.826 485.293 267.461 484.053 272.747 481.609C329.422 455.402 368.755 413.711 383.035 397.004L383.349 396.637L383.64 396.252L386.831 392.044L370.48 386.273C357.318 401.673 319.807 441.652 265.816 466.618C262.703 468.058 259.352 468.777 255.999 468.777C252.648 468.777 249.298 468.057 246.185 466.618C192.193 441.652 154.683 401.673 141.52 386.273L125.169 392.044L128.359 396.251Z" fill="#9BDC9B"/>
<path d="M305.548 222.968C282.782 222.968 264.258 204.444 264.258 181.678V165.162C264.258 160.602 267.952 156.904 272.516 156.904H338.581C343.146 156.904 346.839 160.602 346.839 165.162V181.678C346.839 204.444 328.315 222.968 305.548 222.968ZM280.774 173.419V181.677C280.774 195.338 291.887 206.451 305.548 206.451C319.209 206.451 330.322 195.338 330.322 181.677V173.419H280.774Z" fill="#64505A"/>
<path d="M206.452 222.968C183.686 222.968 165.162 204.444 165.162 181.678V165.162C165.162 160.602 168.856 156.904 173.42 156.904H239.485C244.05 156.904 247.743 160.602 247.743 165.162V181.678C247.742 204.444 229.218 222.968 206.452 222.968ZM181.677 173.419V181.677C181.677 195.338 192.79 206.451 206.451 206.451C220.112 206.451 231.225 195.338 231.225 181.677V173.419H181.677Z" fill="#64505A"/>
</svg>
