<svg width="512" height="512" viewBox="0 0 512 512" fill="none" xmlns="http://www.w3.org/2000/svg">
<path d="M418.627 377.669L331.591 352.07C321.047 348.969 313.807 339.292 313.807 328.302V289.033H198.193V328.302C198.193 339.292 190.953 348.969 180.409 352.07L93.3729 377.669C72.2859 383.871 57.8059 403.224 57.8059 425.204V487.227C57.8059 500.909 68.8979 512.001 82.5799 512.001H429.42C443.102 512.001 454.194 500.909 454.194 487.227V425.204C454.194 403.224 439.714 383.871 418.627 377.669Z" fill="#F7D291"/>
<path d="M418.627 377.669L337.135 353.701C330.024 392.078 296.436 421.162 256 421.162C215.564 421.162 181.976 392.078 174.865 353.701L93.3729 377.669C72.2859 383.871 57.8059 403.223 57.8059 425.203V487.226C57.8059 500.909 68.8979 512.001 82.5799 512.001H429.42C443.102 512.001 454.194 500.909 454.194 487.227V425.204C454.194 403.224 439.714 383.871 418.627 377.669Z" fill="#E6646E"/>
<path d="M198.193 307.461C215.542 316.728 235.217 322.065 256 322.065C276.783 322.065 296.457 316.728 313.807 307.461V289.033H198.193V307.461Z" fill="#F0C382"/>
<path d="M158.892 358.398C168.074 403.63 208.057 437.678 256 437.678C303.943 437.678 343.926 403.631 353.108 358.398L337.136 353.7C330.025 392.077 296.437 421.161 256.001 421.161C215.565 421.161 181.977 392.077 174.866 353.7L158.892 358.398Z" fill="#DC4655"/>
<path d="M126.524 438.17L72.4471 390.1C68.4941 394.034 65.2851 398.631 62.8491 403.657L115.556 450.516C120.838 455.201 123.871 461.951 123.871 469.024V512.001H140.387V469.025C140.387 457.235 135.33 445.985 126.524 438.17Z" fill="#DC4655"/>
<path d="M385.476 438.17L439.553 390.1C443.506 394.034 446.715 398.631 449.151 403.657L396.444 450.516C391.162 455.201 388.129 461.951 388.129 469.024V512.001H371.613V469.025C371.613 457.235 376.67 445.985 385.476 438.17Z" fill="#DC4655"/>
<path d="M256 462.453C228.635 462.453 206.451 484.637 206.451 512.001H305.548C305.548 484.636 283.365 462.453 256 462.453Z" fill="#6E5A64"/>
<path d="M258.682 0.0250281C180.006 -1.44897 115.613 65.377 115.613 144.066V144.079C115.613 165.519 131.661 183.566 152.954 186.071L396.388 181.677V140.386C396.387 63.749 334.978 1.45403 258.682 0.0250281Z" fill="#5A4650"/>
<path d="M189.935 82.581C182.845 89.434 165.161 110.023 165.161 140.388V148.646C165.161 157.768 157.766 165.162 148.645 165.162H145.24C135.838 165.162 127.057 171.12 124.621 180.201C120.937 193.935 131.336 206.452 144.516 206.452H149.062C153.292 261.871 199.497 305.549 256 305.549C315.29 305.549 363.355 257.485 363.355 198.194V82.581H189.935Z" fill="#FFE1A0"/>
<path d="M189.935 82.581C187.857 84.59 165.161 105.936 165.161 140.388V148.646C165.161 157.768 157.766 165.162 148.645 165.162H145.24C135.838 165.162 127.057 171.12 124.621 180.201C120.937 193.935 131.336 206.452 144.516 206.452H149.062C153.292 261.871 199.497 305.549 256 305.549C261.649 305.549 267.157 304.999 272.568 304.157C221.114 296.216 181.677 251.871 181.677 198.194V182.931C181.677 154.142 214.78 137.761 237.479 155.467C271.092 181.687 312.247 206.303 360.616 221.999C362.354 214.332 363.355 206.387 363.355 198.193V82.581H189.935Z" fill="#F7D291"/>
<path d="M206.451 190.654C201.886 190.654 198.193 186.956 198.193 182.396V174.138C198.193 169.577 201.887 165.88 206.451 165.88C211.015 165.88 214.709 169.578 214.709 174.138V182.396C214.71 186.956 211.016 190.654 206.451 190.654Z" fill="#6E5A64"/>
<path d="M214.71 156.904H198.194C193.629 156.904 189.936 153.206 189.936 148.646C189.936 144.086 193.63 140.388 198.194 140.388H214.71C219.275 140.388 222.968 144.086 222.968 148.646C222.968 153.206 219.274 156.904 214.71 156.904Z" fill="#A06E50"/>
<path d="M256 247.743C243.613 247.743 232.177 243.767 225.427 237.106C222.177 233.904 222.145 228.675 225.346 225.429C228.548 222.179 233.79 222.147 237.023 225.348C239.773 228.062 246.394 231.227 255.999 231.227C265.604 231.227 272.225 228.062 274.975 225.348C278.209 222.146 283.451 222.179 286.652 225.429C289.854 228.675 289.821 233.905 286.571 237.106C279.823 243.767 268.387 247.743 256 247.743Z" fill="#E3AA75"/>
<path d="M396.387 140.387C396.387 63.749 334.978 1.45397 258.682 0.0249705C217.593 -0.745029 180.509 17.217 154.35 45.666C184.477 87.531 263.099 180.542 385.643 212.18C390.812 213.515 395.877 209.516 395.916 204.177L396.387 140.387Z" fill="#64505A"/>
<path d="M396.044 186.82L396.387 140.386C396.387 63.748 334.978 1.45302 258.682 0.0240186C231.761 -0.480981 206.634 7.16902 185.098 20.428C219.473 66.533 296.025 155.17 396.044 186.82Z" fill="#6E5A64"/>
</svg>
