<svg width="512" height="512" viewBox="0 0 512 512" fill="none" xmlns="http://www.w3.org/2000/svg">
<path d="M413.099 401.08L327.688 370.935C314.463 366.267 305.618 353.767 305.618 339.742V288.719H206.382V339.742C206.382 353.767 197.538 366.267 184.313 370.935L98.9031 401.08C79.0651 408.082 65.7991 426.832 65.7991 447.869V487.191C65.7991 500.893 76.9061 512 90.6081 512H421.394C435.096 512 446.203 500.893 446.203 487.191V447.869C446.203 426.832 432.937 408.082 413.099 401.08Z" fill="#B4F09B"/>
<path d="M256.001 346.607C305.619 346.607 384.577 320.974 405.144 312.787C413.647 309.402 417.83 299.693 414.303 291.248C406.971 273.694 396.586 241.276 396.586 198.472V140.584C396.585 62.942 333.643 0 256.001 0C178.359 0 115.417 62.942 115.417 140.584V198.472C115.417 241.276 105.032 273.694 97.7 291.248C94.173 299.693 98.355 309.402 106.859 312.787C127.425 320.974 206.383 346.607 256.001 346.607Z" fill="#739BD7"/>
<path d="M346.967 296.989H165.035C137.632 296.989 115.417 319.204 115.417 346.607C115.417 401.413 159.846 445.843 214.653 445.843H297.35C352.157 445.843 396.586 401.413 396.586 346.607C396.585 319.204 374.371 296.989 346.967 296.989Z" fill="#9C969E"/>
<path d="M344.767 321.798C362.768 321.798 369.836 345.144 354.859 355.129L269.763 411.86C261.43 417.416 250.573 417.416 242.24 411.86L157.144 355.129C142.167 345.144 149.235 321.798 167.236 321.798H344.767Z" fill="#6F6571"/>
<path d="M256.001 0C232.075 0 209.566 6.014 189.844 16.556V24.09C189.844 78.896 234.273 123.326 289.08 123.326H395.42C386.896 53.843 327.789 0 256.001 0Z" fill="#8CB4EB"/>
<path d="M242.239 411.859C250.573 417.415 261.429 417.415 269.762 411.859L329.95 371.734L327.688 370.935C314.462 366.267 305.618 353.767 305.618 339.742V288.719H206.382V339.742C206.382 353.767 197.538 366.267 184.313 370.935L182.05 371.734L242.239 411.859Z" fill="#E3AA75"/>
<path d="M206.383 319.488C219.838 325.48 234.513 329.196 250.026 329.927C252.027 330.021 254.021 330.068 256.001 330.068C273.645 330.068 290.409 326.308 305.619 319.639V288.72H206.383V319.488Z" fill="#D29B6E"/>
<path d="M330.428 139.865H317.314C315.121 139.865 313.017 138.994 311.466 137.443L281.01 106.987C277.884 103.861 272.54 106.075 272.54 110.496V131.596C272.54 136.163 268.838 139.866 264.27 139.866H181.573C163.304 139.866 148.494 154.676 148.494 172.945V202.987C148.494 260.874 192.979 310.683 250.802 313.406C312.538 316.313 363.505 267.12 363.505 206.023V172.944C363.507 154.675 348.697 139.865 330.428 139.865Z" fill="#F5B97D"/>
<path d="M330.428 139.865H317.314C315.121 139.865 313.017 138.994 311.466 137.443L281.01 106.987C277.884 103.861 272.54 106.075 272.54 110.496V131.596C272.54 136.163 268.838 139.866 264.27 139.866H181.573C163.304 139.866 148.494 154.676 148.494 172.945V202.71C148.494 251.259 179.361 295.66 225.972 309.243C242.15 313.957 257.823 314.501 272.557 312.222C220.356 304.001 181.573 257.029 181.573 202.987V189.485C181.573 171.216 196.383 156.406 214.652 156.406H313.888C323.023 156.405 330.428 149 330.428 139.865Z" fill="#E3AA75"/>
<path d="M214.653 172.944H198.114C193.543 172.944 189.844 169.241 189.844 164.674C189.844 160.107 193.543 156.404 198.114 156.404H214.653C219.224 156.404 222.923 160.107 222.923 164.674C222.922 169.241 219.224 172.944 214.653 172.944Z" fill="#6E5A64"/>
<path d="M313.889 172.944H297.35C292.779 172.944 289.08 169.241 289.08 164.674C289.08 160.107 292.779 156.404 297.35 156.404H313.889C318.46 156.404 322.159 160.107 322.159 164.674C322.158 169.241 318.46 172.944 313.889 172.944Z" fill="#6E5A64"/>
<path d="M206.383 206.741C201.812 206.741 198.113 203.038 198.113 198.471V190.201C198.113 185.634 201.812 181.931 206.383 181.931C210.954 181.931 214.653 185.634 214.653 190.201V198.471C214.653 203.039 210.954 206.741 206.383 206.741Z" fill="#5A4650"/>
<path d="M305.619 206.741C301.048 206.741 297.349 203.038 297.349 198.471V190.201C297.349 185.634 301.048 181.931 305.619 181.931C310.19 181.931 313.889 185.634 313.889 190.201V198.471C313.889 203.039 310.19 206.741 305.619 206.741Z" fill="#5A4650"/>
<path d="M140.226 512V486.117C140.226 474.407 135.227 463.198 126.513 455.364L79.7679 413.363C75.8709 417.39 72.7639 422.094 70.4189 427.191L115.457 467.663C120.69 472.363 123.686 479.09 123.686 486.116V512H140.226Z" fill="#9BDC9B"/>
<path d="M371.776 512V486.117C371.776 474.407 376.775 463.198 385.489 455.364L432.234 413.363C436.131 417.39 439.238 422.094 441.583 427.191L396.545 467.663C391.312 472.363 388.316 479.09 388.316 486.116V512H371.776Z" fill="#9BDC9B"/>
<path d="M223.407 235.656C220.751 235.656 218.767 238.085 219.218 240.702C221.951 256.576 237.379 268.735 256.001 268.735C274.623 268.735 290.051 256.576 292.784 240.702C293.235 238.085 291.251 235.656 288.595 235.656H223.407Z" fill="white"/>
<path d="M214.653 421.034C210.086 421.034 206.383 424.736 206.383 429.304V512H222.922V429.303C222.922 424.736 219.22 421.034 214.653 421.034Z" fill="#9BDC9B"/>
<path d="M297.349 421.034C292.782 421.034 289.079 424.736 289.079 429.304V512H305.618V429.303C305.619 424.736 301.916 421.034 297.349 421.034Z" fill="#9BDC9B"/>
</svg>
