<svg width="512" height="512" viewBox="0 0 512 512" fill="none" xmlns="http://www.w3.org/2000/svg">
<path d="M136.578 189.935H375.427L385.62 123.678C395.623 58.648 345.308 0 279.512 0H232.49C166.694 0 116.379 58.648 126.384 123.679L136.578 189.935Z" fill="#5A4650"/>
<path d="M418.627 369.41L331.591 343.811C321.047 340.71 313.807 331.033 313.807 320.043V280.774H198.196V320.043C198.196 331.033 190.956 340.71 180.412 343.811L93.3759 369.41C72.2889 375.612 57.8079 394.965 57.8079 416.945V487.226C57.8079 500.908 68.8999 512 82.5819 512H429.421C443.103 512 454.195 500.908 454.195 487.226V416.945C454.195 394.965 439.715 375.612 418.627 369.41Z" fill="#B67F5F"/>
<path d="M418.627 369.41L331.591 343.811C330.119 343.378 339.914 347.514 338.581 346.839L255.996 371.613L173.419 346.839C172.087 347.514 181.881 343.378 180.409 343.811L93.3759 369.41C72.2889 375.612 57.8079 394.965 57.8079 416.945V487.226C57.8079 500.908 68.8999 512 82.5819 512H429.421C443.103 512 454.195 500.908 454.195 487.226V416.945C454.195 394.965 439.715 375.612 418.627 369.41Z" fill="#5A4650"/>
<path d="M335.748 360.521L325.901 350.674L256.001 363.354L186.101 350.674L176.254 360.521C163.864 372.91 156.904 389.714 156.904 407.236V512H355.098V407.236C355.098 389.714 348.138 372.91 335.748 360.521Z" fill="#A5CDFF"/>
<path d="M335.748 360.521L325.901 350.674L256.001 363.354L186.101 350.674L176.254 360.521C172.2 364.574 168.793 369.136 165.956 374.006L196.469 408.878C201.173 414.255 207.969 417.338 215.115 417.338C221.731 417.338 227.952 414.761 232.632 410.081L256.001 386.712L279.371 410.082C284.049 414.761 290.27 417.338 296.887 417.338C304.033 417.338 310.83 414.254 315.534 408.877L346.047 374.006C343.209 369.137 339.802 364.575 335.748 360.521Z" fill="#8CB4EB"/>
<path d="M244.074 404.645L231.228 512H280.775L267.929 404.645H244.074Z" fill="#5A4650"/>
<path d="M266.565 412.903H245.437C241.882 412.903 238.727 410.628 237.603 407.256L222.969 363.354H289.034L274.4 407.256C273.275 410.629 270.12 412.903 266.565 412.903Z" fill="#64505A"/>
<path d="M198.196 299.203C215.545 308.47 235.22 313.807 256.002 313.807C276.784 313.807 296.459 308.47 313.808 299.203V280.775H198.196V299.203Z" fill="#A06E50"/>
<path d="M192.679 328.175L170.919 354.596L208.899 398.001C212.045 401.596 217.575 401.78 220.953 398.402L256.001 363.355L192.679 328.175Z" fill="#A5CDFF"/>
<path d="M319.324 328.175L341.084 354.596L303.104 398.001C299.958 401.596 294.428 401.78 291.05 398.402L256.001 363.355L319.324 328.175Z" fill="#A5CDFF"/>
<path d="M115.615 512L101.066 454.786C99.841 449.274 101.517 443.517 105.51 439.524L132.131 412.903L119.883 394.531C117 390.206 116.382 384.776 118.023 379.843C137.714 320.668 198.195 305.548 198.195 305.548V321.477C198.195 332.428 193.845 342.93 186.101 350.674L176.254 360.521C163.864 372.91 156.904 389.714 156.904 407.236V512" fill="#64505A"/>
<path d="M396.388 512L410.937 454.786C412.162 449.274 410.486 443.517 406.493 439.524L379.872 412.903L392.12 394.531C395.003 390.206 395.621 384.776 393.98 379.843C374.289 320.668 313.808 305.548 313.808 305.548V321.477C313.808 332.428 318.158 342.93 325.902 350.674L335.749 360.521C348.138 372.91 355.099 389.714 355.099 407.236V512" fill="#64505A"/>
<path d="M366.761 156.903H366.405C356.364 156.903 348.906 147.605 351.084 137.804C357.382 109.464 335.817 82.581 306.785 82.581H205.218C176.187 82.581 154.622 109.464 160.919 137.804C163.097 147.605 155.639 156.903 145.598 156.903H145.242C135.84 156.903 127.059 162.861 124.623 171.942C120.939 185.676 131.338 198.193 144.518 198.193H149.064C153.294 253.612 199.499 297.29 256.002 297.29C312.505 297.29 358.71 253.612 362.94 198.193H367.486C380.666 198.193 391.065 185.676 387.381 171.942C384.944 162.861 376.163 156.903 366.761 156.903Z" fill="#CD916E"/>
<path d="M181.679 189.935V140.387C181.679 117.583 200.165 99.097 222.969 99.097H289.034C298.155 99.097 305.549 91.702 305.547 82.581H205.218C176.164 82.581 154.588 109.506 160.934 137.871C163.121 147.646 155.615 156.904 145.598 156.904H145.243C135.841 156.904 127.06 162.862 124.624 171.943C120.94 185.677 131.338 198.195 144.518 198.195H149.064C153.294 253.614 199.499 297.292 256.002 297.292C261.651 297.292 267.159 296.742 272.57 295.9C221.116 287.958 181.679 243.612 181.679 189.935Z" fill="#B67F5F"/>
<path d="M279.512 0H232.49C223.468 0 214.777 1.196 206.453 3.267V8.258C206.453 40.183 232.334 66.064 264.259 66.064H378.64C362.583 27.668 324.702 0 279.512 0Z" fill="#64505A"/>
<path d="M206.453 181.677C201.888 181.677 198.195 177.983 198.195 173.419V165.161C198.195 160.596 201.889 156.903 206.453 156.903C211.017 156.903 214.711 160.597 214.711 165.161V173.419C214.712 177.984 211.018 181.677 206.453 181.677Z" fill="#5A4650"/>
<path d="M305.549 181.677C300.984 181.677 297.291 177.983 297.291 173.419V165.161C297.291 160.596 300.985 156.903 305.549 156.903C310.114 156.903 313.807 160.597 313.807 165.161V173.419C313.807 177.984 310.114 181.677 305.549 181.677Z" fill="#5A4650"/>
<path d="M256.001 239.484C243.606 239.484 232.178 235.508 225.428 228.847C222.178 225.637 222.146 220.412 225.347 217.17C228.565 213.92 233.791 213.888 237.024 217.089C239.774 219.799 246.387 222.968 256 222.968C265.613 222.968 272.226 219.799 274.976 217.089C278.21 213.887 283.436 213.92 286.653 217.17C289.855 220.412 289.822 225.638 286.572 228.847C279.824 235.508 268.396 239.484 256.001 239.484Z" fill="#A06E50"/>
<path d="M214.712 148.645H198.196C193.631 148.645 189.938 144.951 189.938 140.387C189.938 135.823 193.632 132.129 198.196 132.129H214.712C219.277 132.129 222.97 135.823 222.97 140.387C222.97 144.951 219.276 148.645 214.712 148.645Z" fill="#64505A"/>
<path d="M313.807 148.645H297.291C292.726 148.645 289.033 144.951 289.033 140.387C289.033 135.823 292.727 132.129 297.291 132.129H313.807C318.372 132.129 322.065 135.823 322.065 140.387C322.065 144.951 318.372 148.645 313.807 148.645Z" fill="#64505A"/>
</svg>
