<svg width="512" height="512" viewBox="0 0 512 512" fill="none" xmlns="http://www.w3.org/2000/svg">
<g clip-path="url(#clip0)">
<path d="M403.542 256.343L396.077 131.923C391.631 57.82 330.238 0 256.001 0C181.764 0 120.371 57.82 115.925 131.923L108.46 256.343C105.533 305.118 126.543 349.523 161.074 378.499L351.264 378.217C385.595 349.235 406.459 304.96 403.542 256.343Z" fill="#FFD164"/>
<path d="M115.925 131.923L108.46 256.343C105.533 305.118 126.543 349.523 161.074 378.499L256.001 378.358V0C181.764 0 120.371 57.82 115.925 131.923Z" fill="#FFC350"/>
<path d="M412.917 384.689L327.606 354.579C314.396 349.917 305.562 337.431 305.562 323.422V272.458H206.442V323.422C206.442 337.43 197.608 349.916 184.398 354.578L99.086 384.688C79.271 391.681 66.021 410.41 66.021 431.422V487.218C66.021 500.904 77.115 511.998 90.801 511.998H421.202C434.888 511.998 445.982 500.904 445.982 487.218V431.422C445.982 410.411 432.731 391.683 412.917 384.689Z" fill="#F7D291"/>
<path d="M412.916 384.689L327.605 354.579C322.132 352.648 317.475 349.322 313.821 345.153V359.189C313.821 393.403 286.085 421.139 251.871 421.139C217.657 421.139 189.921 393.403 189.921 359.189V351.97C188.173 352.981 186.351 353.889 184.398 354.579L99.086 384.689C79.271 391.682 66.021 410.411 66.021 431.423V487.219C66.021 500.905 77.115 511.999 90.801 511.999H421.202C434.888 511.999 445.982 500.905 445.982 487.219V431.423C445.982 410.411 432.731 391.682 412.916 384.689Z" fill="#FF8087"/>
<path d="M160.544 432.612C168.292 451.191 186.264 463.195 206.328 463.195C210.374 463.195 214.426 462.695 218.372 461.709L256.001 452.3L293.629 461.707C297.576 462.694 301.628 463.194 305.674 463.194C325.738 463.194 343.71 451.19 351.458 432.611C359.886 412.403 364.333 390.171 364.626 367.646L327.605 354.579C322.132 352.648 317.475 349.322 313.821 345.153V359.189C313.821 393.403 286.085 421.139 251.871 421.139C217.657 421.139 189.921 393.403 189.921 359.189V351.97C188.173 352.981 186.351 353.889 184.398 354.579L147.376 367.646C147.669 390.171 152.115 412.403 160.544 432.612Z" fill="#E6646E"/>
<path d="M206.441 320.057C221.643 326.642 238.405 330.279 256.001 330.279C273.597 330.279 290.36 326.643 305.561 320.057V288.979H206.441V320.057Z" fill="#F0C382"/>
<path d="M256.001 313.759C196.696 313.759 148.62 265.683 148.62 206.379V90.738H363.381V206.379C363.381 265.683 315.306 313.759 256.001 313.759Z" fill="#FFE1A0"/>
<path d="M148.621 90.738V206.379C148.621 265.684 196.697 313.759 256.001 313.759C261.634 313.759 267.122 313.195 272.521 312.359C221.081 304.394 181.661 260.05 181.661 206.379V178.128C181.661 163.379 191.411 150.408 205.602 146.391C228.509 139.907 252.37 131.561 272.522 121.04V122.141C272.522 135.194 282.04 146.978 295.043 148.11C296.311 148.22 297.604 148.237 298.916 148.148C307.991 147.531 340.569 141.541 363.382 136.27V90.738H148.621Z" fill="#F7D291"/>
<path d="M140.369 512V469.909C140.369 457.765 135.061 446.299 125.817 438.446L78.747 398.421C75.01 402.594 72.044 407.378 69.897 412.577L115.121 451.034C120.671 455.745 123.849 462.625 123.849 469.909V512H140.369Z" fill="#E6646E"/>
<path d="M371.642 512V469.909C371.642 457.765 376.95 446.299 386.194 438.446L433.264 398.421C437.001 402.594 439.967 407.378 442.114 412.577L396.89 451.034C391.34 455.745 388.162 462.625 388.162 469.909V512H371.642Z" fill="#E6646E"/>
<path d="M305.553 330.279L336.791 340.901C343.119 343.107 347.501 348.951 347.895 355.641C349.658 385.523 343.138 409.643 336.211 426.251C329.897 441.389 313.548 449.658 297.636 445.68L256.001 435.272L214.366 445.681C198.454 449.659 182.105 441.39 175.791 426.252C168.864 409.644 162.344 385.524 164.107 355.642C164.501 348.952 168.883 343.108 175.211 340.902L206.449 330.28L206.441 330.014V354.794C206.441 382.165 228.63 404.354 256.001 404.354C283.372 404.354 305.561 382.165 305.561 354.794V330.014" fill="white"/>
<path d="M305.553 330.279L305.561 330.282V330.013L305.553 330.279Z" fill="#FFD164"/>
<path d="M206.441 330.013V330.282L206.449 330.279L206.441 330.013Z" fill="#FFD164"/>
<path d="M256.001 421.14C292.496 421.14 322.081 391.555 322.081 355.06V335.9L305.561 330.282V354.794C305.561 382.165 283.372 404.354 256.001 404.354C228.63 404.354 206.441 382.165 206.441 354.794V330.282L189.921 335.9V355.06C189.921 391.554 219.506 421.14 256.001 421.14Z" fill="#EDEBED"/>
<path d="M256.001 264.32C243.603 264.32 232.173 260.343 225.421 253.68C222.17 250.47 222.138 245.242 225.34 242C228.559 238.749 233.786 238.717 237.02 241.919C239.771 244.629 246.385 247.799 256 247.799C265.615 247.799 272.23 244.629 274.98 241.919C278.215 238.717 283.442 238.749 286.66 242C289.862 245.243 289.83 250.47 286.579 253.68C279.829 260.343 268.399 264.32 256.001 264.32Z" fill="#E3AA75"/>
<path d="M206.441 206.379C201.875 206.379 198.181 202.685 198.181 198.119V189.859C198.181 185.293 201.875 181.599 206.441 181.599C211.007 181.599 214.701 185.293 214.701 189.859V198.119C214.701 202.684 211.006 206.379 206.441 206.379Z" fill="#6E5A64"/>
<path d="M305.561 206.379C300.995 206.379 297.301 202.685 297.301 198.119V189.859C297.301 185.293 300.995 181.599 305.561 181.599C310.127 181.599 313.821 185.293 313.821 189.859V198.119C313.821 202.684 310.127 206.379 305.561 206.379Z" fill="#6E5A64"/>
<path d="M214.701 173.338H198.181C193.615 173.338 189.921 169.644 189.921 165.078C189.921 160.512 193.615 156.818 198.181 156.818H214.701C219.267 156.818 222.961 160.512 222.961 165.078C222.961 169.644 219.266 173.338 214.701 173.338Z" fill="#E3AA75"/>
<path d="M313.821 173.338H297.301C292.735 173.338 289.041 169.644 289.041 165.078C289.041 160.512 292.735 156.818 297.301 156.818H313.821C318.387 156.818 322.081 160.512 322.081 165.078C322.081 169.644 318.387 173.338 313.821 173.338Z" fill="#E3AA75"/>
<path d="M247.716 0.238982C176.045 4.37198 119.996 64.083 115.696 135.744L115.12 145.338L115.58 148.559C115.58 148.559 221.362 134.455 276.539 99.73C281.98 96.306 289.041 100.363 289.041 106.792V123.417C289.041 128.191 293.034 131.99 297.797 131.667C307.678 130.995 324.67 129.11 342.189 123.816C352.748 120.625 363.381 128.6 363.381 139.631C383.63 134.858 395.337 113.567 388.466 93.93C368.372 36.496 312.171 -3.47802 247.716 0.238982Z" fill="#FFE17D"/>
</g>
<defs>
<clipPath id="clip0">
<rect width="512" height="512" fill="white" transform="translate(0.000976562)"/>
</clipPath>
</defs>
</svg>
