<svg width="512" height="512" viewBox="0 0 512 512" fill="none" xmlns="http://www.w3.org/2000/svg">
<path d="M256.002 297.29C330.325 297.29 385.5 269.507 401.575 257.31C407.8 252.586 409.907 244.285 406.625 237.193C401.955 227.101 396.388 209.282 396.388 181.677V140.387C396.389 62.853 333.536 0 256.002 0C178.468 0 115.615 62.853 115.615 140.387V181.677C115.615 209.282 110.048 227.101 105.378 237.193C102.096 244.285 104.203 252.586 110.428 257.31C126.504 269.507 181.679 297.29 256.002 297.29Z" fill="#A06E50"/>
<path d="M313.802 264.26H198.192V363.36H313.802V264.26Z" fill="#F7D291"/>
<path d="M198.196 299.198C215.546 308.465 235.219 313.807 256.002 313.807C276.785 313.807 296.459 308.465 313.808 299.198V264.258H198.196V299.198Z" fill="#F0C382"/>
<path d="M367.486 156.903H367.381C360.253 156.903 354.803 150.905 355.041 143.782C356.203 109.058 339.468 78.217 313.373 59.664C305.977 54.405 295.479 56.36 290.497 63.945C283.124 75.167 270.436 82.581 256.002 82.581C241.568 82.581 228.88 75.168 221.507 63.944C216.524 56.359 206.027 54.405 198.63 59.663C172.535 78.217 155.8 109.058 156.962 143.781C157.2 150.904 151.75 156.902 144.623 156.902H144.518C133.116 156.902 123.873 166.145 123.873 177.547C123.873 188.949 133.116 198.192 144.518 198.192H149.064C153.294 253.611 199.499 297.289 256.002 297.289C312.505 297.289 358.71 253.611 362.94 198.192H367.486C378.888 198.192 388.131 188.949 388.131 177.547C388.131 166.146 378.888 156.903 367.486 156.903Z" fill="#FFE1A0"/>
<path d="M181.679 189.935V75C165.598 93.223 156.078 117.358 156.962 143.782C157.2 150.905 151.75 156.903 144.623 156.903H144.518C133.116 156.903 123.873 166.146 123.873 177.548C123.873 188.95 133.116 198.193 144.518 198.193H149.064C153.294 253.612 199.499 297.29 256.002 297.29C261.651 297.29 267.159 296.74 272.57 295.898C221.116 287.958 181.679 243.612 181.679 189.935Z" fill="#F7D291"/>
<path d="M206.454 181.677C201.889 181.677 198.196 177.983 198.196 173.419V165.161C198.196 160.596 201.89 156.903 206.454 156.903C211.018 156.903 214.712 160.597 214.712 165.161V173.419C214.712 177.984 211.018 181.677 206.454 181.677Z" fill="#5A4650"/>
<path d="M305.55 181.677C300.985 181.677 297.292 177.983 297.292 173.419V165.161C297.292 160.596 300.986 156.903 305.55 156.903C310.115 156.903 313.808 160.597 313.808 165.161V173.419C313.808 177.984 310.115 181.677 305.55 181.677Z" fill="#5A4650"/>
<path d="M214.712 148.645H198.196C193.631 148.645 189.938 144.951 189.938 140.387C189.938 135.823 193.632 132.129 198.196 132.129H214.712C219.277 132.129 222.97 135.823 222.97 140.387C222.97 144.951 219.276 148.645 214.712 148.645Z" fill="#8C5F4B"/>
<path d="M313.808 148.645H297.292C292.727 148.645 289.034 144.951 289.034 140.387C289.034 135.823 292.728 132.129 297.292 132.129H313.808C318.373 132.129 322.066 135.823 322.066 140.387C322.066 144.951 318.373 148.645 313.808 148.645Z" fill="#8C5F4B"/>
<path d="M407.559 365.522L346.835 346.839L256.002 355.097L165.16 346.842L104.445 365.522C76.7241 374.051 57.8081 399.662 57.8081 428.665V487.225C57.8081 500.907 68.9001 511.999 82.5821 511.999H429.421C443.103 511.999 454.195 500.907 454.195 487.225V428.665C454.196 399.662 435.279 374.051 407.559 365.522Z" fill="#B67F5F"/>
<path d="M256.002 313.806C251.014 313.806 246.529 310.769 244.677 306.139L234.399 280.444C232.88 276.647 235.677 272.516 239.766 272.516H272.238C276.328 272.516 279.124 276.646 277.605 280.444L267.327 306.139C265.475 310.77 260.99 313.806 256.002 313.806Z" fill="#A06E50"/>
<path d="M272.518 247.742H239.486C230.364 247.742 222.97 240.347 222.97 231.226V222.968H289.035V231.226C289.034 240.347 281.64 247.742 272.518 247.742Z" fill="#F0C382"/>
<path d="M289.034 214.71H222.969C209.287 214.71 198.195 225.802 198.195 239.484V247.742C198.195 252.302 201.892 256 206.453 256C211.048 256 214.766 252.247 214.71 247.64C214.656 243.116 218.444 239.483 222.969 239.483H231.227C236.701 239.483 241.723 237.674 245.804 234.65C248.765 232.457 252.316 231.224 256.001 231.224C259.686 231.224 263.237 232.456 266.198 234.65C270.279 237.673 275.301 239.483 280.775 239.483H289.033C293.558 239.483 297.346 243.115 297.292 247.64C297.237 252.247 300.955 256 305.549 256C310.11 256 313.807 252.302 313.807 247.742V239.484C313.808 225.801 302.717 214.71 289.034 214.71Z" fill="#A06E50"/>
<path d="M125.97 421.524L78.4589 380.801C74.4379 384.619 71.0269 388.971 68.0869 393.654L115.229 434.064C120.721 438.766 123.874 445.629 123.874 452.87V512H140.39V452.871C140.389 440.798 135.131 429.371 125.97 421.524Z" fill="#CD916E"/>
<path d="M386.034 421.524L433.545 380.801C437.566 384.619 440.977 388.971 443.917 393.654L396.775 434.064C391.283 438.766 388.13 445.629 388.13 452.87V512H371.614V452.871C371.615 440.798 376.873 429.371 386.034 421.524Z" fill="#CD916E"/>
<path d="M256.002 421.158C260.563 421.158 264.26 417.461 264.26 412.9C264.26 408.339 260.563 404.642 256.002 404.642C251.441 404.642 247.744 408.339 247.744 412.9C247.744 417.461 251.441 421.158 256.002 421.158Z" fill="#5A4650"/>
<path d="M256.002 478.968C260.563 478.968 264.26 475.271 264.26 470.71C264.26 466.149 260.563 462.452 256.002 462.452C251.441 462.452 247.744 466.149 247.744 470.71C247.744 475.271 251.441 478.968 256.002 478.968Z" fill="#5A4650"/>
<path d="M200.42 416.647C206.321 416.647 212.042 414.529 216.53 410.682L256.002 376.85L295.473 410.682C299.961 414.529 305.683 416.647 311.584 416.647C320.459 416.647 328.705 411.864 333.106 404.164L361.181 355.033L363.019 351.818L346.836 346.839L256.002 355.097L165.16 346.841L148.986 351.817L150.823 355.033L178.898 404.164C183.299 411.864 191.545 416.647 200.42 416.647Z" fill="#A06E50"/>
<path d="M189.219 317.995C185.109 315.712 179.925 317.316 177.822 321.521L165.163 346.839L193.238 395.97C195.811 400.471 201.846 401.517 205.782 398.143L256.002 355.097L189.219 317.995Z" fill="#CD916E"/>
<path d="M322.785 317.995C326.895 315.712 332.079 317.316 334.182 321.521L346.841 346.839L318.766 395.97C316.193 400.471 310.158 401.517 306.222 398.143L256.002 355.097L322.785 317.995Z" fill="#CD916E"/>
</svg>
