<svg width="512" height="512" viewBox="0 0 512 512" fill="none" xmlns="http://www.w3.org/2000/svg">
<g clip-path="url(#clip0)">
<path d="M370.498 29.085L266.67 1.398C259.679 -0.466 252.322 -0.466 245.332 1.398L141.504 29.085C135.267 30.748 129.923 34.773 126.602 40.308L88.7448 103.403C84.8348 109.92 85.8618 118.262 91.2358 123.636L131.78 164.18H380.222L420.766 123.636C426.14 118.262 427.167 109.92 423.257 103.403L385.401 40.308C382.079 34.774 376.734 30.749 370.498 29.085Z" fill="#8CB4EB"/>
<path d="M98.6802 420.905C98.6802 420.905 98.6802 412.624 98.6802 386.537C98.6802 308.278 131.78 290.887 131.78 238.714H214.594V420.905H98.6802Z" fill="#5A4650"/>
<path d="M413.323 417.449L327.791 387.261C314.547 382.587 305.69 370.068 305.69 356.024V329.809H206.313V356.024C206.313 370.069 197.456 382.587 184.212 387.261L98.6798 417.449C78.8138 424.461 65.5288 443.237 65.5288 464.304V487.155C65.5288 500.876 76.6518 511.999 90.3728 511.999H421.629C435.35 511.999 446.473 500.876 446.473 487.155V464.305C446.473 443.238 433.189 424.461 413.323 417.449Z" fill="#E3AA75"/>
<path d="M413.323 417.449L327.791 387.261C326.578 386.833 325.446 386.271 324.31 385.717L256.001 429.186L187.693 385.717C186.557 386.272 185.425 386.833 184.212 387.261L98.6798 417.449C78.8138 424.461 65.5288 443.237 65.5288 464.304V487.155C65.5288 500.876 76.6518 511.999 90.3728 511.999H421.629C435.35 511.999 446.473 500.876 446.473 487.155V464.305C446.473 443.238 433.189 424.461 413.323 417.449Z" fill="#8CB4EB"/>
<path d="M160.362 399.703L186.727 459.024C190.712 467.988 199.629 473.781 209.447 473.781C215.234 473.781 220.876 471.735 225.334 468.02L256.001 442.465L286.668 468.02C291.126 471.735 296.768 473.781 302.556 473.781C312.374 473.781 321.292 467.988 325.276 459.025L351.641 399.704C352.16 398.536 352.581 397.34 352.908 396.127L327.791 387.262C326.578 386.834 325.446 386.272 324.31 385.718L256.001 429.186L187.693 385.717C186.557 386.272 185.425 386.833 184.212 387.261L159.095 396.126C159.422 397.339 159.842 398.535 160.362 399.703Z" fill="#739BD7"/>
<path d="M256.001 362.935C273.598 362.935 290.399 359.1 305.689 352.339V329.81H206.312V352.339C221.603 359.1 238.404 362.935 256.001 362.935Z" fill="#D29B6E"/>
<path d="M367.8 205.588H363.659V172.462C363.659 145.02 341.413 122.774 313.971 122.774H198.031C170.589 122.774 148.343 145.02 148.343 172.462V205.588H144.202C132.768 205.588 123.498 214.857 123.498 226.292C123.498 237.726 132.767 246.996 144.202 246.996H148.761C153.003 302.571 199.339 346.373 256.001 346.373C312.663 346.373 358.999 302.572 363.241 246.996H367.8C379.234 246.996 388.503 237.726 388.503 226.292C388.504 214.857 379.234 205.588 367.8 205.588Z" fill="#F5B97D"/>
<path d="M206.313 231.152C201.736 231.152 198.032 227.448 198.032 222.871V214.59C198.032 210.013 201.736 206.309 206.313 206.309C210.89 206.309 214.594 210.013 214.594 214.59V222.871C214.594 227.448 210.89 231.152 206.313 231.152Z" fill="#5A4650"/>
<path d="M305.689 231.152C301.112 231.152 297.408 227.448 297.408 222.871V214.59C297.408 210.013 301.112 206.309 305.689 206.309C310.266 206.309 313.97 210.013 313.97 214.59V222.871C313.971 227.448 310.267 231.152 305.689 231.152Z" fill="#5A4650"/>
<path d="M256.001 296.684C243.571 296.684 232.111 292.697 225.342 286.017C222.083 282.798 222.05 277.558 225.261 274.307C228.488 271.04 233.728 271.015 236.971 274.226C239.729 276.943 246.36 280.122 256 280.122C265.64 280.122 272.272 276.944 275.029 274.226C278.272 271.015 283.513 271.04 286.739 274.307C289.95 277.558 289.917 282.799 286.658 286.017C279.892 292.696 268.431 296.684 256.001 296.684Z" fill="#B67F5F"/>
<path d="M256.001 205.588C295.231 205.588 336.102 199.47 363.659 186.638V172.462C363.659 155.169 354.816 139.955 341.415 131.055H170.587C157.186 139.955 148.343 155.169 148.343 172.462V205.588H145.383C134.554 205.588 124.685 213.38 123.606 224.155C122.365 236.548 132.063 246.995 144.202 246.995H148.761C153.003 302.57 199.339 346.372 256.001 346.372C261.666 346.372 267.189 345.82 272.616 344.976C221.017 337.013 181.469 292.542 181.469 238.713C181.469 217.875 199.492 201.815 220.229 203.853C232.019 205.012 244.079 205.588 256.001 205.588Z" fill="#E3AA75"/>
<path d="M361.689 207.336L380.222 209.556V147.618H347.096V190.891C347.096 199.276 353.363 206.339 361.689 207.336Z" fill="#5A4650"/>
<path d="M150.313 207.336L131.78 209.556V147.618H164.906V190.891C164.906 199.276 158.639 206.339 150.313 207.336Z" fill="#5A4650"/>
<path d="M256.001 189.025C187.396 189.025 131.78 170.487 131.78 147.618H380.222C380.222 170.487 324.606 189.025 256.001 189.025Z" fill="#6E5A64"/>
<path d="M268.433 462.312L243.438 462.965L235.769 512H276.233L268.433 462.312Z" fill="#64505A"/>
<path d="M260.276 466.797H251.727C244.485 466.797 238.083 462.093 235.92 455.182L225.191 420.905H286.811L276.082 455.182C273.919 462.093 267.517 466.797 260.276 466.797Z" fill="#5A4650"/>
<path d="M203.887 368.791L256.001 420.905L214.731 455.297C210.509 458.815 204.094 457.321 201.862 452.298L175.497 392.977C174.105 389.846 174.786 386.181 177.209 383.758L192.176 368.791C195.409 365.556 200.653 365.556 203.887 368.791Z" fill="#8CB4EB"/>
<path d="M308.116 368.791L256.001 420.905L297.271 455.297C301.493 458.815 307.908 457.321 310.14 452.298L336.505 392.977C337.897 389.846 337.216 386.181 334.793 383.758L319.826 368.791C316.593 365.556 311.349 365.556 308.116 368.791Z" fill="#8CB4EB"/>
<path d="M125.917 471.022L79.1869 430.132C75.3269 434.204 72.2599 438.94 69.9629 444.071L115.015 483.493C120.409 488.208 123.499 495.026 123.499 502.191V512H140.062V502.19C140.061 490.253 134.91 478.891 125.917 471.022Z" fill="#739BD7"/>
<path d="M386.086 471.022L432.816 430.132C436.676 434.204 439.743 438.94 442.04 444.071L396.988 483.493C391.594 488.208 388.504 495.026 388.504 502.191V512H371.941V502.19C371.941 490.253 377.092 478.891 386.086 471.022Z" fill="#739BD7"/>
<path d="M371.941 97.9301H140.061C135.487 97.9301 131.78 101.638 131.78 106.211V147.618H380.222V106.211C380.222 101.638 376.514 97.9301 371.941 97.9301Z" fill="#739BD7"/>
<path d="M256.001 106.211C242.28 106.211 231.157 95.088 231.157 81.367V56.523C231.157 51.949 234.865 48.242 239.438 48.242H272.564C277.138 48.242 280.845 51.95 280.845 56.523V81.367C280.845 95.088 269.722 106.211 256.001 106.211Z" fill="#FFE17D"/>
<path d="M247.72 81.367V56.523C247.72 51.949 251.428 48.242 256.001 48.242H239.438C234.864 48.242 231.157 51.95 231.157 56.523V81.367C231.157 95.088 242.28 106.211 256.001 106.211C258.921 106.211 261.68 105.615 264.282 104.69C254.655 101.267 247.72 92.169 247.72 81.367Z" fill="#FFD164"/>
</g>
<defs>
<clipPath id="clip0">
<rect width="512" height="512" fill="white" transform="translate(0.000976562)"/>
</clipPath>
</defs>
</svg>
