<svg width="512" height="512" viewBox="0 0 512 512" fill="none" xmlns="http://www.w3.org/2000/svg">
<path d="M370.497 29.085L266.669 1.398C259.678 -0.466 252.321 -0.466 245.331 1.398L141.503 29.085C135.266 30.748 129.922 34.773 126.601 40.308L88.744 103.403C84.834 109.92 85.861 118.262 91.235 123.636L131.779 164.18H380.221L420.765 123.636C426.139 118.262 427.166 109.92 423.256 103.403L385.4 40.308C382.078 34.774 376.733 30.749 370.497 29.085Z" fill="#8CB4EB"/>
<path d="M419.086 410.414L331.804 384.743C321.231 381.633 313.97 371.929 313.97 360.908V329.809H198.03V360.908C198.03 371.929 190.769 381.633 180.196 384.743L92.914 410.414C71.768 416.634 57.246 436.041 57.246 458.083V487.156C57.246 500.877 68.369 512 82.09 512H429.909C443.63 512 454.753 500.877 454.753 487.156V458.083C454.754 436.041 440.232 416.633 419.086 410.414Z" fill="#B67F5F"/>
<path d="M419.086 410.414L331.804 384.743C326.281 383.118 321.699 379.669 318.546 375.198L255.917 396.061L193.439 375.221C190.287 379.681 185.71 383.121 180.196 384.743L92.914 410.414C71.768 416.634 57.246 436.041 57.246 458.083V487.156C57.247 500.877 68.37 512 82.091 512H429.91C443.631 512 454.754 500.877 454.754 487.156V458.083C454.754 436.041 440.232 416.633 419.086 410.414Z" fill="#8CB4EB"/>
<path d="M269.366 442.014L242.493 442.935L234.247 512H277.753L269.366 442.014Z" fill="#64505A"/>
<path d="M150.18 393.571C150.726 395.735 151.501 397.852 152.639 399.843L178.596 445.266C183.008 452.987 191.278 457.785 200.179 457.785C206.097 457.785 211.834 455.661 216.335 451.803L255.918 417.875L295.501 451.803C300.002 455.661 305.74 457.785 311.657 457.785C320.558 457.785 328.828 452.988 333.24 445.265L359.195 399.845C360.341 397.839 361.116 395.706 361.662 393.525L331.805 384.743C326.282 383.118 321.7 379.669 318.547 375.198L255.918 396.061L193.44 375.221C190.288 379.681 185.711 383.121 180.197 384.743L150.18 393.571Z" fill="#739BD7"/>
<path d="M260.596 446.837H251.404C243.618 446.837 236.735 441.632 234.409 433.985L222.874 396.06H289.125L277.59 433.985C275.266 441.632 268.382 446.837 260.596 446.837Z" fill="#5A4650"/>
<path d="M198.03 348.29C215.428 357.583 235.159 362.935 256 362.935C276.841 362.935 296.572 357.583 313.97 348.29V329.81H198.03V348.29Z" fill="#A06E50"/>
<path d="M367.799 205.588H363.658V122.774H148.342V205.588H144.201C132.814 205.588 123.497 214.905 123.497 226.292C123.497 237.679 132.814 246.996 144.201 246.996H148.76C153.002 302.571 199.338 346.373 256 346.373C312.662 346.373 358.998 302.572 363.24 246.996H367.799C379.186 246.996 388.502 237.679 388.502 226.292C388.502 214.905 379.186 205.588 367.799 205.588Z" fill="#CD916E"/>
<path d="M206.312 231.152C201.735 231.152 198.031 227.444 198.031 222.871V214.59C198.031 210.017 201.735 206.309 206.312 206.309C210.889 206.309 214.593 210.017 214.593 214.59V222.871C214.593 227.444 210.889 231.152 206.312 231.152Z" fill="#5A4650"/>
<path d="M305.688 231.152C301.111 231.152 297.407 227.444 297.407 222.871V214.59C297.407 210.017 301.111 206.309 305.688 206.309C310.265 206.309 313.969 210.017 313.969 214.59V222.871C313.97 227.444 310.266 231.152 305.688 231.152Z" fill="#5A4650"/>
<path d="M256 205.588C295.23 205.588 336.101 199.47 363.658 186.638V122.774H148.342V205.588H144.927C135.498 205.588 126.692 211.563 124.25 220.67C120.556 234.443 130.984 246.995 144.201 246.995H148.76C153.002 302.57 199.338 346.372 256 346.372C261.665 346.372 267.188 345.82 272.615 344.976C221.016 337.013 181.468 292.542 181.468 238.713V227.231C181.468 212.152 194.753 200.707 209.706 202.653C224.773 204.615 240.503 205.588 256 205.588Z" fill="#B67F5F"/>
<path d="M150.42 207.42L131.779 209.778V147.619H164.905V190.989C164.905 199.332 158.698 206.373 150.42 207.42Z" fill="#5A4650"/>
<path d="M361.58 207.42L380.221 209.778V147.619H347.095V190.989C347.095 199.332 353.302 206.373 361.58 207.42Z" fill="#5A4650"/>
<path d="M177.517 362.389L166.804 383.814C165.566 386.291 165.647 389.222 167.021 391.626L192.976 437.047C195.556 441.561 201.608 442.61 205.556 439.226L255.918 396.059L188.947 358.852C184.824 356.564 179.625 358.172 177.517 362.389Z" fill="#8CB4EB"/>
<path d="M334.318 362.389C332.209 358.172 327.011 356.564 322.889 358.853L255.917 396.06L306.279 439.227C310.227 442.611 316.279 441.562 318.859 437.048L344.814 391.627C346.188 389.223 346.269 386.291 345.031 383.815L334.318 362.389Z" fill="#8CB4EB"/>
<path d="M272.563 288.402H239.437C234.86 288.402 231.156 284.698 231.156 280.121C231.156 275.544 234.86 271.84 239.437 271.84H272.563C277.14 271.84 280.844 275.544 280.844 280.121C280.844 284.698 277.141 288.402 272.563 288.402Z" fill="#A06E50"/>
<path d="M256 189.025C187.395 189.025 131.779 170.487 131.779 147.618H380.221C380.221 170.487 324.605 189.025 256 189.025Z" fill="#6E5A64"/>
<path d="M371.94 97.9301H140.06C135.486 97.9301 131.779 101.638 131.779 106.211V147.618H380.221V106.211C380.221 101.638 376.513 97.9301 371.94 97.9301Z" fill="#739BD7"/>
<path d="M256 106.211C242.279 106.211 231.156 95.0879 231.156 81.3669V56.5229C231.156 51.9489 234.864 48.2419 239.437 48.2419H272.563C277.137 48.2419 280.844 51.9499 280.844 56.5229V81.3669C280.844 95.0879 269.721 106.211 256 106.211Z" fill="#FFE17D"/>
<path d="M247.719 81.3669V56.5229C247.719 51.9489 251.427 48.2419 256 48.2419H239.437C234.863 48.2419 231.156 51.9499 231.156 56.5229V81.3669C231.156 95.0879 242.279 106.211 256 106.211C258.92 106.211 261.679 105.615 264.281 104.69C254.654 101.267 247.719 92.1689 247.719 81.3669Z" fill="#FFD164"/>
<path d="M125.697 462.708L75.87 419.495C71.518 423.002 67.823 427.184 64.885 431.9L114.844 475.227C120.295 479.95 123.417 486.792 123.417 493.998V512H139.98V493.998C139.979 481.988 134.771 470.585 125.697 462.708Z" fill="#739BD7"/>
<path d="M386.222 462.708L436.049 419.495C440.401 423.002 444.096 427.184 447.034 431.9L397.075 475.227C391.624 479.95 388.502 486.792 388.502 493.998V512H371.94V493.998C371.94 481.988 377.148 470.585 386.222 462.708Z" fill="#739BD7"/>
</svg>
