<svg width="512" height="512" viewBox="0 0 512 512" fill="none" xmlns="http://www.w3.org/2000/svg">
<path d="M412.878 401.236L327.587 371.133C314.38 366.472 305.548 353.989 305.548 339.984V297.29H206.451V339.984C206.451 353.989 197.619 366.472 184.412 371.133L99.121 401.236C79.311 408.228 66.064 426.952 66.064 447.959V487.226C66.064 500.908 77.156 512 90.838 512H421.161C434.843 512 445.935 500.908 445.935 487.226V447.959C445.935 426.952 432.688 408.228 412.878 401.236Z" fill="#E3AA75"/>
<path d="M412.878 401.236L330.298 372.09C330.038 412.915 296.886 445.935 256 445.935C215.114 445.935 181.961 412.914 181.702 372.09L99.1219 401.236C79.3119 408.227 66.0649 426.952 66.0649 447.959V487.226C66.0649 500.908 77.1569 512 90.8389 512H421.162C434.844 512 445.936 500.908 445.936 487.226V447.959C445.935 426.952 432.688 408.227 412.878 401.236Z" fill="#9BDC9B"/>
<path d="M165.474 377.818C168.676 425.08 207.926 462.452 256 462.452C304.074 462.452 343.324 425.08 346.526 377.818L330.299 372.091C330.039 412.916 296.887 445.936 256.001 445.936C215.115 445.936 181.962 412.915 181.703 372.091L165.474 377.818Z" fill="#B4E6A0"/>
<path d="M206.452 319.756C221.699 326.498 238.453 330.323 256 330.323C273.547 330.323 290.301 326.499 305.548 319.756V297.29H206.451L206.452 319.756Z" fill="#D29B6E"/>
<path d="M371.613 206.452L350.505 304.956C348.067 316.33 346.839 327.93 346.839 339.562V345.713C346.839 351.965 347.167 358.212 347.821 364.429L363.355 512H305.549V206.452H371.613Z" fill="#64505A"/>
<path d="M346.839 339.561V345.712C346.839 348.843 346.922 351.972 347.086 355.097H305.549V322.065H347.774C347.154 327.872 346.839 333.713 346.839 339.561Z" fill="#9BDC9B"/>
<path d="M140.387 206.452L161.495 304.956C163.933 316.33 165.161 327.93 165.161 339.562V345.713C165.161 351.965 164.833 358.212 164.179 364.429L148.645 512H206.451V206.452H140.387Z" fill="#64505A"/>
<path d="M383.832 198.194C391.825 180.549 396.387 161.019 396.387 140.388C396.387 62.853 333.534 0 256 0C178.466 0 115.613 62.853 115.613 140.387C115.613 161.019 120.174 180.548 128.168 198.193H383.832V198.194Z" fill="#5A4650"/>
<path d="M367.484 173.419H363.355V165.161C363.355 105.87 315.29 57.806 256 57.806C196.71 57.806 148.645 105.87 148.645 165.161V173.419H144.516C133.114 173.419 123.871 182.662 123.871 194.064C123.871 205.466 133.114 214.709 144.516 214.709H149.062C153.292 270.128 199.497 313.806 256 313.806C312.503 313.806 358.708 270.128 362.938 214.709H367.484C378.886 214.709 388.129 205.466 388.129 194.064C388.129 182.662 378.886 173.419 367.484 173.419Z" fill="#F5B97D"/>
<path d="M181.677 206.452V165.162C181.677 156.977 182.6 149.013 184.344 141.364C189.302 119.62 214.007 109.577 233.406 120.581C272.438 142.721 316.62 155.258 362.925 156.656C358.447 99.691 309.606 55.199 250.885 57.926C193.069 60.61 148.645 105.968 148.645 167.054V173.42H145.694C133.587 173.42 125.054 181.19 123.978 191.935C122.74 204.293 132.412 214.71 144.516 214.71H149.062C153.292 270.129 199.497 313.807 256 313.807C261.649 313.807 267.157 313.257 272.568 312.415C221.114 304.474 181.677 260.129 181.677 206.452Z" fill="#E3AA75"/>
<path d="M224.355 227.067C221.235 227.067 218.812 229.938 219.435 232.995C222.577 248.409 237.753 260.099 256 260.099C274.247 260.099 289.422 248.409 292.565 232.995C293.188 229.938 290.765 227.067 287.645 227.067H224.355Z" fill="white"/>
<path d="M206.452 198.194C201.887 198.194 198.194 194.5 198.194 189.936V181.678C198.194 177.113 201.888 173.42 206.452 173.42C211.016 173.42 214.71 177.114 214.71 181.678V189.936C214.71 194.5 211.016 198.194 206.452 198.194Z" fill="#5A4650"/>
<path d="M305.548 198.194C300.983 198.194 297.29 194.5 297.29 189.936V181.678C297.29 177.113 300.984 173.42 305.548 173.42C310.113 173.42 313.806 177.114 313.806 181.678V189.936C313.806 194.5 310.113 198.194 305.548 198.194Z" fill="#5A4650"/>
<path d="M198.185 164.96C194.04 164.96 190.459 161.847 189.983 157.629C189.475 153.097 192.733 149.008 197.265 148.492L213.781 146.629C218.362 146.153 222.402 149.379 222.918 153.911C223.426 158.443 220.168 162.532 215.636 163.048L199.12 164.911C198.806 164.944 198.492 164.96 198.185 164.96Z" fill="#6E5A64"/>
<path d="M313.815 164.96C313.509 164.96 313.194 164.944 312.88 164.912L296.364 163.049C291.832 162.533 288.574 158.444 289.082 153.912C289.59 149.38 293.622 146.146 298.219 146.63L314.735 148.493C319.267 149.009 322.525 153.098 322.017 157.63C321.54 161.847 317.96 164.96 313.815 164.96Z" fill="#6E5A64"/>
<path d="M256 0C219.651 0 186.639 13.932 161.707 36.597C210.001 99.674 286.035 140.387 371.613 140.387C379.951 140.387 388.186 139.954 396.327 139.198C395.681 62.218 333.133 0 256 0Z" fill="#64505A"/>
<path d="M165.161 339.561V345.712C165.161 348.843 165.078 351.972 164.914 355.097H206.451V322.065H164.226C164.846 327.872 165.161 333.713 165.161 339.561Z" fill="#9BDC9B"/>
<path d="M165.135 338.581H206.452V322.065H164.227C164.811 327.547 165.102 333.06 165.135 338.581Z" fill="#B4E6A0"/>
<path d="M305.548 338.581H346.865C346.898 333.06 347.189 327.548 347.773 322.065H305.548V338.581Z" fill="#B4E6A0"/>
</svg>
