<svg width="512" height="512" viewBox="0 0 512 512" fill="none" xmlns="http://www.w3.org/2000/svg">
<g clip-path="url(#clip0)">
<path d="M418.626 361.152L331.59 335.553C321.046 332.452 313.806 322.775 313.806 311.785V272.516H198.194V311.785C198.194 322.775 190.954 332.452 180.41 335.553L93.374 361.152C72.287 367.354 57.807 386.707 57.807 408.687V487.226C57.807 500.908 68.899 512 82.581 512H429.42C443.102 512 454.194 500.908 454.194 487.226V408.687C454.194 386.707 439.713 367.354 418.626 361.152Z" fill="#FF8087"/>
<path d="M418.627 361.152L396.999 354.791L256 425.29L115.001 354.791L93.373 361.152C72.286 367.354 57.806 386.707 57.806 408.687V487.226C57.806 500.908 68.898 512 82.58 512H429.419C443.101 512 454.193 500.908 454.193 487.226V408.687C454.194 386.707 439.713 367.354 418.627 361.152Z" fill="#FFE17D"/>
<path d="M198.194 290.945C215.543 300.212 235.218 305.549 256 305.549C276.782 305.549 296.457 300.212 313.806 290.945V272.517H198.194V290.945Z" fill="#E6646E"/>
<path d="M367.484 148.645H363.355V66.0649H148.645V148.646H144.516C133.161 148.646 123.871 157.936 123.871 169.291C123.871 180.646 133.161 189.936 144.516 189.936H149.062C153.292 245.355 199.497 289.033 256 289.033C312.503 289.033 358.708 245.355 362.938 189.936H367.484C378.839 189.936 388.129 180.646 388.129 169.291C388.129 157.935 378.839 148.645 367.484 148.645Z" fill="#FFE1A0"/>
<path d="M181.677 181.677V66.0649H148.645V148.646H144.516C133.161 148.646 123.871 157.936 123.871 169.291C123.871 180.646 133.161 189.936 144.516 189.936H149.062C153.292 245.355 199.497 289.033 256 289.033C261.649 289.033 267.157 288.483 272.568 287.641C221.114 279.7 181.677 235.354 181.677 181.677Z" fill="#F7D291"/>
<path d="M256 0C187.588 0 132.129 55.459 132.129 123.871V132.129H379.871V123.871C379.871 55.459 324.412 0 256 0Z" fill="#FF8087"/>
<path d="M256 0C231.682 0 209.071 7.109 189.935 19.215V132.129H322.064V19.215C302.928 7.11 280.318 0 256 0Z" fill="#FFE17D"/>
<path d="M280.778 123.87H231.23V173.418H280.778V123.87Z" fill="#6E5A64"/>
<path d="M256 231.226C243.613 231.226 232.177 227.25 225.427 220.589C222.177 217.387 222.145 212.158 225.346 208.912C228.548 205.662 233.79 205.63 237.023 208.831C239.773 211.545 246.394 214.71 255.999 214.71C265.604 214.71 272.225 211.545 274.975 208.831C278.209 205.629 283.451 205.662 286.652 208.912C289.854 212.158 289.821 217.388 286.571 220.589C279.823 227.25 268.387 231.226 256 231.226Z" fill="#E3AA75"/>
<path d="M132.129 123.871H231.226C235.787 123.871 239.484 127.568 239.484 132.129V165.149C239.484 189.586 212.038 203.967 191.946 190.057L139.245 153.571C134.789 150.486 132.13 145.411 132.13 139.992L132.129 123.871Z" fill="#64505A"/>
<path d="M379.871 123.871H280.774C276.213 123.871 272.516 127.568 272.516 132.129V165.149C272.516 189.586 299.962 203.967 320.054 190.057L372.755 153.571C377.211 150.486 379.87 145.411 379.87 139.992V123.871H379.871Z" fill="#64505A"/>
<path d="M210.581 173.419C206.016 173.419 202.323 169.725 202.323 165.161V156.903C202.323 152.338 206.017 148.645 210.581 148.645C215.145 148.645 218.839 152.339 218.839 156.903V165.161C218.839 169.726 215.145 173.419 210.581 173.419Z" fill="white"/>
<path d="M301.419 173.419C296.854 173.419 293.161 169.725 293.161 165.161V156.903C293.161 152.338 296.855 148.645 301.419 148.645C305.983 148.645 309.677 152.339 309.677 156.903V165.161C309.677 169.726 305.984 173.419 301.419 173.419Z" fill="white"/>
<path d="M297.29 429.419C297.29 403.712 273.797 383.492 247.109 389.057C230.941 392.429 218.11 405.862 215.332 422.142C211.995 441.692 222.416 459.281 238.491 466.818C244.191 469.49 247.742 475.304 247.742 481.6V512H264.258V481.599C264.258 475.248 267.909 469.47 273.65 466.752C287.624 460.135 297.29 445.908 297.29 429.419Z" fill="white"/>
<path d="M256 99.097C254.403 99.097 252.806 98.637 251.419 97.71L226.645 81.194C222.847 78.662 221.822 73.541 224.355 69.742C226.871 65.944 231.992 64.927 235.807 67.452L256 80.911L276.194 67.451C279.992 64.927 285.121 65.943 287.646 69.741C290.178 73.539 289.154 78.66 285.356 81.193L260.581 97.71C259.194 98.637 257.597 99.097 256 99.097Z" fill="white"/>
<path d="M256 66.065C251.435 66.065 247.742 62.371 247.742 57.807V49.549C247.742 44.984 251.436 41.291 256 41.291C260.564 41.291 264.258 44.985 264.258 49.549V57.807C264.258 62.371 260.565 66.065 256 66.065Z" fill="#FF8087"/>
<path d="M396.589 425.766L446.352 382.222C443.384 377.547 439.673 373.404 435.303 369.943L385.718 413.331C376.75 421.178 371.613 432.508 371.613 444.412V512H388.129V444.411C388.129 437.266 391.21 430.468 396.589 425.766Z" fill="#FFD164"/>
<path d="M115.411 425.766L65.6479 382.222C68.6159 377.547 72.3269 373.404 76.6969 369.943L126.282 413.331C135.25 421.178 140.387 432.508 140.387 444.412V512H123.871V444.411C123.871 437.266 120.79 430.468 115.411 425.766Z" fill="#FFD164"/>
<path d="M256 454.194C269.682 454.194 280.774 443.102 280.774 429.42C280.774 415.738 269.682 404.646 256 404.646C242.318 404.646 231.226 415.738 231.226 429.42C231.226 443.102 242.318 454.194 256 454.194Z" fill="#FF8087"/>
<path d="M268.387 441.806C254.705 441.806 243.613 430.714 243.613 417.032C243.613 413.401 244.437 409.979 245.84 406.872C237.238 410.757 231.226 419.367 231.226 429.419C231.226 443.101 242.318 454.193 256 454.193C266.052 454.193 274.662 448.181 278.547 439.579C275.44 440.982 272.018 441.806 268.387 441.806Z" fill="#E6646E"/>
</g>
<defs>
<clipPath id="clip0">
<rect width="512" height="512" fill="white"/>
</clipPath>
</defs>
</svg>
