<svg width="512" height="512" viewBox="0 0 512 512" fill="none" xmlns="http://www.w3.org/2000/svg">
<path d="M356.645 270.452C350.451 242.065 355.097 206.452 355.097 206.452H297.29V388.129H396.387H396.731C390.71 343.742 365.37 310.44 356.645 270.452Z" fill="#5A4650"/>
<path d="M412.878 392.978L327.587 362.875C314.38 358.214 305.548 345.731 305.548 331.726V280.774H206.451V331.726C206.451 345.731 197.619 358.214 184.413 362.875L99.1219 392.978C79.3119 399.97 66.0649 418.694 66.0649 439.701V487.226C66.0649 500.908 77.1569 512 90.8389 512H421.162C434.844 512 445.936 500.908 445.936 487.226V439.701C445.935 418.694 432.688 399.97 412.878 392.978Z" fill="#B67F5F"/>
<path d="M327.335 362.763C327.422 362.795 327.499 362.844 327.587 362.875L412.878 392.978C432.688 399.969 445.935 418.694 445.935 439.701V487.226C445.935 500.908 434.843 512 421.161 512H156.903C270.523 460.975 316.029 384.933 327.335 362.763Z" fill="#FF8087"/>
<path d="M367.574 376.988C351.898 424.269 332.925 474.63 308.534 512H288.446C317.741 471.548 340.147 407.518 352.004 371.493L367.574 376.988Z" fill="#E6646E"/>
<path d="M184.665 362.763C184.578 362.795 184.501 362.844 184.413 362.875L99.1219 392.978C79.3119 399.969 66.0649 418.694 66.0649 439.701V487.226C66.0649 500.908 77.1569 512 90.8389 512H355.097C241.477 460.975 195.971 384.933 184.665 362.763Z" fill="#FFD164"/>
<path d="M206.452 311.845C221.65 318.429 238.409 322.064 256 322.064C273.591 322.064 290.35 318.428 305.548 311.845V280.774H206.451L206.452 311.845Z" fill="#A06E50"/>
<path d="M148.65 289.03C166.892 289.03 181.68 274.242 181.68 256C181.68 237.758 166.892 222.97 148.65 222.97C130.408 222.97 115.62 237.758 115.62 256C115.62 274.242 130.408 289.03 148.65 289.03Z" fill="#FFE17D"/>
<path d="M148.65 272.516C157.772 272.516 165.166 265.122 165.166 256C165.166 246.878 157.772 239.484 148.65 239.484C139.528 239.484 132.134 246.878 132.134 256C132.134 265.122 139.528 272.516 148.65 272.516Z" fill="#FFD164"/>
<path d="M363.359 289.03C381.601 289.03 396.389 274.242 396.389 256C396.389 237.758 381.601 222.97 363.359 222.97C345.117 222.97 330.329 237.758 330.329 256C330.329 274.242 345.117 289.03 363.359 289.03Z" fill="#FFE17D"/>
<path d="M363.359 272.516C372.481 272.516 379.875 265.122 379.875 256C379.875 246.878 372.481 239.484 363.359 239.484C354.238 239.484 346.843 246.878 346.843 256C346.843 265.122 354.238 272.516 363.359 272.516Z" fill="#FFD164"/>
<path d="M256 0C183.027 0 123.871 59.156 123.871 132.129V194.065H388.129V132.129C388.129 59.156 328.973 0 256 0Z" fill="#5A4650"/>
<path d="M367.484 173.419C367.484 173.419 356.426 172.087 353.043 171.151C334.281 165.956 293.661 149.735 262.892 102.309C259.65 97.312 252.351 97.312 249.109 102.309C218.339 149.734 177.72 165.956 158.958 171.151C155.575 172.087 144.517 173.419 144.517 173.419C132.413 173.419 122.742 183.835 123.979 196.193C125.054 206.939 134.895 214.709 145.694 214.709H150.046C158.009 266.137 202.342 305.548 256.001 305.548C309.66 305.548 353.993 266.137 361.956 214.709H366.308C377.107 214.709 386.948 206.938 388.023 196.193C389.259 183.836 379.588 173.419 367.484 173.419Z" fill="#CD916E"/>
<path d="M206.452 198.194C201.887 198.194 198.194 194.496 198.194 189.936V181.678C198.194 177.118 201.888 173.42 206.452 173.42C211.016 173.42 214.71 177.118 214.71 181.678V189.936C214.71 194.496 211.016 198.194 206.452 198.194Z" fill="#5A4650"/>
<path d="M305.548 198.194C300.983 198.194 297.29 194.496 297.29 189.936V181.678C297.29 177.118 300.984 173.42 305.548 173.42C310.113 173.42 313.806 177.118 313.806 181.678V189.936C313.806 194.496 310.113 198.194 305.548 198.194Z" fill="#5A4650"/>
<path d="M224.355 227.067C221.235 227.067 218.812 229.938 219.435 232.995C222.577 248.409 237.752 260.099 255.999 260.099C274.246 260.099 289.421 248.409 292.564 232.995C293.187 229.938 290.764 227.067 287.644 227.067H224.355Z" fill="white"/>
<path d="M353.043 171.151C334.296 165.959 293.724 149.76 262.964 102.42C259.687 97.3761 252.319 97.3681 249.042 102.412C227.791 135.12 201.864 152.954 181.678 162.573C172.644 166.877 164.754 169.546 158.958 171.151C155.575 172.087 144.517 173.419 144.517 173.419C132.413 173.419 122.742 183.834 123.979 196.193C125.054 206.939 134.895 214.71 145.694 214.71H150.046C158.009 266.138 202.342 305.549 256.001 305.549C261.673 305.549 267.211 305.017 272.643 304.168C223.086 296.556 184.658 255.174 181.844 204.198C181.625 200.235 182.266 196.255 183.416 192.456C186.05 183.758 191.825 176.329 199.73 171.845C217.794 161.599 238.015 145.764 256.001 121.366C277.546 150.592 302.298 167.53 322.71 177.295C337.27 184.261 354.414 182.889 367.485 173.419C367.484 173.419 356.424 172.088 353.043 171.151Z" fill="#B67F5F"/>
<path d="M279.939 2.27405C275.208 14.38 272.517 27.5091 272.517 41.291C272.517 100.581 320.582 148.646 379.872 148.646C382.66 148.646 385.396 148.437 388.13 148.229V132.13C388.129 67.342 341.466 13.551 279.939 2.27405Z" fill="#64505A"/>
<path d="M144.426 376.988C160.102 424.269 179.075 474.63 203.466 512H223.554C194.259 471.548 171.853 407.518 159.996 371.493L144.426 376.988Z" fill="#FFC350"/>
<path d="M151.764 512H168.861C156.403 469.59 145.035 424.22 134.504 380.49L118.865 386.01C128.97 427.918 139.87 471.084 151.764 512Z" fill="#FFC350"/>
</svg>
