<svg width="512" height="512" viewBox="0 0 512 512" fill="none" xmlns="http://www.w3.org/2000/svg">
<path d="M363.361 173.42H148.651V388.13H363.361V173.42Z" fill="#C9C6CA"/>
<path d="M412.879 392.978L327.588 362.875C314.381 358.214 305.549 345.731 305.549 331.726V289.032H206.452V331.726C206.452 345.731 197.62 358.214 184.413 362.875L99.1219 392.978C79.3119 399.97 66.0649 418.694 66.0649 439.701V487.226C66.0649 500.908 77.1569 512 90.8389 512H421.162C434.844 512 445.936 500.908 445.936 487.226V439.701C445.936 418.694 432.689 399.97 412.879 392.978Z" fill="#A5CDFF"/>
<path d="M256.001 495.484C320.763 495.484 373.38 444.036 375.537 379.799L327.588 362.876C314.381 358.215 305.549 345.732 305.549 331.727V289.033H206.452V331.727C206.452 345.732 197.62 358.215 184.413 362.876L136.463 379.799C138.621 444.036 191.239 495.484 256.001 495.484Z" fill="#8CB4EB"/>
<path d="M256.001 478.968C313.011 478.968 359.227 432.752 359.227 375.742C359.227 375.157 359.149 374.593 359.14 374.011L327.588 362.875C314.381 358.214 305.549 345.731 305.549 331.726V289.032H206.452V331.726C206.452 345.731 197.62 358.214 184.413 362.875L152.862 374.011C152.852 374.593 152.775 375.158 152.775 375.742C152.775 432.752 198.991 478.968 256.001 478.968Z" fill="#E3AA75"/>
<path d="M305.549 319.908V289.032H206.452V319.908C221.641 326.568 238.381 330.322 256 330.322C273.619 330.322 290.36 326.568 305.549 319.908Z" fill="#D29B6E"/>
<path d="M256.001 313.806C196.71 313.806 148.646 265.742 148.646 206.451V99.097H363.356V206.452C363.356 265.742 315.291 313.806 256.001 313.806Z" fill="#F5B97D"/>
<path d="M206.453 198.911C201.888 198.911 198.195 195.217 198.195 190.653V182.395C198.195 177.83 201.889 174.137 206.453 174.137C211.017 174.137 214.711 177.831 214.711 182.395V190.653C214.711 195.218 211.017 198.911 206.453 198.911Z" fill="#5A4650"/>
<path d="M305.549 198.911C300.984 198.911 297.291 195.217 297.291 190.653V182.395C297.291 177.83 300.985 174.137 305.549 174.137C310.114 174.137 313.807 177.831 313.807 182.395V190.653C313.807 195.218 310.114 198.911 305.549 198.911Z" fill="#5A4650"/>
<path d="M256.001 256.718C243.606 256.718 232.178 252.742 225.428 246.081C222.178 242.871 222.146 237.646 225.347 234.404C228.565 231.154 233.791 231.122 237.024 234.323C239.774 237.033 246.387 240.202 256 240.202C265.613 240.202 272.226 237.033 274.976 234.323C278.21 231.121 283.436 231.154 286.653 234.404C289.855 237.646 289.822 242.872 286.572 246.081C279.824 252.742 268.396 256.718 256.001 256.718Z" fill="#B67F5F"/>
<path d="M148.646 99.0969V206.452C148.646 265.742 196.711 313.807 256.001 313.807C261.633 313.807 267.119 313.243 272.517 312.407C221.089 304.444 181.678 260.111 181.678 206.452V200.579C181.678 191.148 187.375 182.872 195.89 178.819C223.205 165.818 243.771 144.04 256.006 128.349C274.532 152.106 312.089 189.931 363.355 189.936V99.0959L148.646 99.0969Z" fill="#E3AA75"/>
<path d="M148.646 375.499V189.107C148.646 180.935 154.378 173.611 162.449 172.333C205.595 165.507 236.348 128.276 249.256 109.678C250.9 107.309 253.453 106.124 256.007 106.12C258.56 106.124 261.113 107.31 262.757 109.678C275.665 128.276 306.419 165.507 349.564 172.333C357.636 173.61 363.367 180.935 363.367 189.107V375.503L396.387 387.157V140.387C396.388 62.853 333.535 0 256.001 0C178.467 0 115.614 62.853 115.614 140.387V387.158L148.646 375.499Z" fill="#DBD9DC"/>
<path d="M359.14 374.011L327.588 362.875C323.345 361.378 319.62 359.006 316.428 356.102L256.001 396.387L195.574 356.102C192.382 359.005 188.657 361.377 184.414 362.875L152.863 374.011C152.853 374.593 152.776 375.158 152.776 375.742C152.776 432.752 198.992 478.968 256.002 478.968C313.012 478.968 359.228 432.752 359.228 375.742C359.227 375.157 359.149 374.593 359.14 374.011Z" fill="#EDEBED"/>
<path d="M352.744 371.753L327.588 362.875C323.345 361.378 319.62 359.006 316.428 356.102L256.001 396.387L195.574 356.102C192.382 359.005 188.657 361.377 184.414 362.875L159.259 371.753C159.481 372.419 159.675 373.093 159.964 373.742L186.923 434.399C190.896 443.338 199.789 449.114 209.579 449.114C215.35 449.114 220.977 447.074 225.422 443.37L256.001 417.887L286.581 443.37C291.026 447.074 296.653 449.114 302.424 449.114C312.214 449.114 321.107 443.338 325.08 434.399L352.038 373.744C352.327 373.094 352.522 372.42 352.744 371.753Z" fill="#DBD9DC"/>
<path d="M204.034 344.42L256.001 396.387L214.847 430.682C210.637 434.19 204.24 432.7 202.014 427.692L175.056 367.037C174.07 364.819 174.552 362.223 176.269 360.506L192.355 344.42C195.58 341.195 200.809 341.195 204.034 344.42Z" fill="white"/>
<path d="M307.968 344.42L256.001 396.387L297.155 430.682C301.365 434.19 307.762 432.7 309.988 427.692L336.946 367.037C337.932 364.819 337.45 362.223 335.733 360.506L319.647 344.42C316.422 341.195 311.193 341.195 307.968 344.42Z" fill="white"/>
<path d="M125.767 446.25L78.8889 406.585C75.1419 410.743 72.1679 415.516 70.0049 420.702L115.105 458.863C120.678 463.573 123.871 470.468 123.871 477.774V512H140.387V477.774C140.388 465.597 135.057 454.105 125.767 446.25Z" fill="#8CB4EB"/>
<path d="M386.235 446.25L433.113 406.585C436.86 410.743 439.834 415.516 441.997 420.702L396.897 458.863C391.324 463.573 388.131 470.468 388.131 477.774V512H371.615V477.774C371.614 465.597 376.945 454.105 386.235 446.25Z" fill="#8CB4EB"/>
</svg>
