<svg width="512" height="512" viewBox="0 0 512 512" fill="none" xmlns="http://www.w3.org/2000/svg">
<path d="M256 388.126C301.608 388.126 338.58 362.245 338.58 330.32C338.58 298.395 301.608 272.514 256 272.514C210.392 272.514 173.42 298.395 173.42 330.32C173.42 362.245 210.392 388.126 256 388.126Z" fill="#64505A"/>
<path d="M264.258 49.548H247.742C234.06 49.548 222.968 38.456 222.968 24.774C222.968 11.092 234.06 0 247.742 0H264.258C277.94 0 289.032 11.092 289.032 24.774C289.032 38.457 277.94 49.548 264.258 49.548Z" fill="#A06E50"/>
<path d="M418.626 402.442L331.59 376.843C321.046 373.742 313.806 364.065 313.806 353.075V305.548H198.194V353.075C198.194 364.065 190.954 373.742 180.41 376.843L93.3739 402.442C72.2869 408.644 57.8069 427.997 57.8069 449.977V487.226C57.8069 500.908 68.8989 512 82.5809 512H429.42C443.102 512 454.194 500.908 454.194 487.226V449.977C454.194 427.997 439.713 408.644 418.626 402.442Z" fill="#F7D291"/>
<path d="M93.3729 402.442C72.2859 408.644 57.8059 427.997 57.8059 449.977V487.226C57.8059 500.908 68.8979 512 82.5799 512H429.419C443.101 512 454.193 500.908 454.193 487.226V449.977C454.193 427.997 439.713 408.644 418.626 402.442L369.962 388.129H142.038L93.3729 402.442Z" fill="#B4E6A0"/>
<path d="M388.129 396.387C388.129 395.429 388.097 394.442 388.056 393.451L369.962 388.129H288.064C276.329 393.325 262.424 396.387 247.741 396.387C232.857 396.387 218.828 393.353 207.024 388.129H142.037L124.019 393.428C123.977 394.417 123.87 395.384 123.87 396.387C123.87 446.101 151.493 489.451 192.173 512H319.824C360.506 489.451 388.129 446.101 388.129 396.387Z" fill="#9BDC9B"/>
<path d="M339.97 351.276L338.267 351.366C335.054 385.731 295.809 412.903 247.742 412.903C204.198 412.903 167.853 390.609 159.002 360.868L156.601 360.995C146.795 369.358 140.387 380.786 140.387 396.387C140.387 460.238 192.149 512 256 512C319.851 512 371.613 460.238 371.613 396.387C371.613 373.596 357.935 359.711 339.97 351.276Z" fill="#84737B"/>
<path d="M198.194 340.493C215.543 349.76 235.218 355.097 256 355.097C276.782 355.097 296.457 349.76 313.806 340.493V305.548H198.194V340.493Z" fill="#F0C382"/>
<path d="M367.484 198.194H363.355V115.613H148.645V198.194H144.516C133.161 198.194 123.871 207.484 123.871 218.839C123.871 230.194 133.161 239.484 144.516 239.484H149.062C153.292 294.903 199.497 338.581 256 338.581C312.503 338.581 358.708 294.903 362.938 239.484H367.484C378.839 239.484 388.129 230.194 388.129 218.839C388.129 207.484 378.839 198.194 367.484 198.194Z" fill="#FFE1A0"/>
<path d="M322.065 123.871V115.613H148.645V198.194H145.24C135.838 198.194 127.057 204.152 124.621 213.233C120.937 226.967 131.336 239.484 144.516 239.484H149.062C153.292 294.903 199.497 338.581 256 338.581C261.649 338.581 267.157 338.031 272.568 337.189C221.114 329.248 181.677 284.903 181.677 231.226V173.42C181.677 155.177 196.466 140.388 214.709 140.388H305.548C314.67 140.387 322.065 132.993 322.065 123.871Z" fill="#F7D291"/>
<path d="M275.118 256H236.885C224.261 256 213.656 265.492 212.262 278.038L208.36 313.153C207.214 323.469 212.62 333.406 221.903 338.048L244.921 349.557C251.896 353.044 260.105 353.044 267.08 349.557L290.098 338.048C299.382 333.406 304.788 323.469 303.641 313.153L299.739 278.038C298.347 265.492 287.742 256 275.118 256Z" fill="#B67F5F"/>
<path d="M253.179 340.612C243.895 334.891 238.489 322.643 239.636 309.928L243.538 266.647C243.882 262.826 244.798 259.241 246.158 256H236.886C224.263 256 213.658 265.492 212.264 278.038L208.362 313.153C207.216 323.469 212.622 333.406 221.905 338.048L244.923 349.557C251.897 353.044 260.107 353.044 267.082 349.557L267.42 349.388L253.179 340.612Z" fill="#A06E50"/>
<path d="M256 297.29C246.403 297.29 237.669 292.846 232.637 285.395C230.089 281.613 231.081 276.484 234.863 273.927C238.653 271.387 243.782 272.371 246.331 276.153C250.17 281.847 261.831 281.847 265.67 276.153C268.226 272.371 273.355 271.387 277.138 273.927C280.92 276.483 281.912 281.612 279.364 285.395C274.331 292.847 265.597 297.29 256 297.29Z" fill="#F7D291"/>
<path d="M210.581 222.968C206.016 222.968 202.323 219.274 202.323 214.71V206.452C202.323 201.887 206.017 198.194 210.581 198.194C215.145 198.194 218.839 201.888 218.839 206.452V214.71C218.839 219.274 215.145 222.968 210.581 222.968Z" fill="#64505A"/>
<path d="M222.968 181.677H198.194C193.629 181.677 189.936 177.983 189.936 173.419C189.936 168.855 193.63 165.161 198.194 165.161H222.968C227.533 165.161 231.226 168.855 231.226 173.419C231.226 177.983 227.532 181.677 222.968 181.677Z" fill="#A06E50"/>
<path d="M301.419 222.968C296.854 222.968 293.161 219.274 293.161 214.71V206.452C293.161 201.887 296.855 198.194 301.419 198.194C305.983 198.194 309.677 201.888 309.677 206.452V214.71C309.677 219.274 305.984 222.968 301.419 222.968Z" fill="#64505A"/>
<path d="M313.806 181.677H289.032C284.467 181.677 280.774 177.983 280.774 173.419C280.774 168.855 284.468 165.161 289.032 165.161H313.806C318.371 165.161 322.064 168.855 322.064 173.419C322.064 177.983 318.371 181.677 313.806 181.677Z" fill="#A06E50"/>
<path d="M279.01 41.29H232.99C167.022 41.29 116.66 100.228 126.949 165.389L132.129 198.193H137.482C152.248 198.193 163.735 185.358 162.105 170.683L161.998 169.721C159.28 145.262 178.426 123.871 203.036 123.871H308.965C333.574 123.871 352.72 145.262 350.003 169.721L349.896 170.683C348.265 185.358 359.753 198.193 374.519 198.193H379.872L385.052 165.389C395.34 100.229 344.978 41.29 279.01 41.29Z" fill="#A06E50"/>
<path d="M371.613 206.452H140.387C135.822 206.452 132.129 202.758 132.129 198.194C132.129 193.629 135.823 189.936 140.387 189.936H371.613C376.178 189.936 379.871 193.63 379.871 198.194C379.871 202.758 376.177 206.452 371.613 206.452Z" fill="#64505A"/>
<path d="M214.71 247.742H198.194C184.533 247.742 173.42 236.629 173.42 222.968V198.194C173.42 193.629 177.114 189.936 181.678 189.936H239.484C244.049 189.936 247.742 193.63 247.742 198.194V214.71C247.742 232.927 232.927 247.742 214.71 247.742ZM189.935 206.452V222.968C189.935 227.524 193.637 231.226 198.193 231.226H214.709C223.814 231.226 231.225 223.815 231.225 214.71V206.452H189.935Z" fill="#6E5A64"/>
<path d="M313.806 247.742H297.29C279.072 247.742 264.258 232.927 264.258 214.71V198.194C264.258 193.629 267.952 189.936 272.516 189.936H330.322C334.887 189.936 338.58 193.63 338.58 198.194V222.968C338.581 236.629 327.468 247.742 313.806 247.742ZM280.774 206.452V214.71C280.774 223.815 288.185 231.226 297.29 231.226H313.806C318.362 231.226 322.064 227.524 322.064 222.968V206.452H280.774Z" fill="#6E5A64"/>
<path d="M279.01 41.29H232.99C223.845 41.29 215.046 42.524 206.621 44.649C208.381 79.564 237.163 107.355 272.516 107.355H378.122C362.066 68.971 324.211 41.29 279.01 41.29Z" fill="#B67F5F"/>
<path d="M256 388.129C210.392 388.129 173.419 362.248 173.419 330.323C173.419 328.551 173.575 326.806 173.798 325.075C163.201 335.881 156.903 349.071 156.903 363.356C156.903 399.842 197.573 429.421 247.742 429.421C297.911 429.421 338.581 399.843 338.581 363.356V330.324C338.581 362.248 301.608 388.129 256 388.129Z" fill="#6E5A64"/>
<path d="M256 491.046C196.43 491.046 147.422 445.981 141.112 388.091C140.681 390.73 140.387 393.462 140.387 396.387C140.387 460.238 192.149 512 256 512C319.851 512 371.613 460.238 371.613 396.387C371.613 393.415 371.357 390.611 370.912 387.934C364.674 445.902 315.624 491.046 256 491.046Z" fill="#6E5A64"/>
</svg>
