<svg width="512" height="512" viewBox="0 0 512 512" fill="none" xmlns="http://www.w3.org/2000/svg">
<g clip-path="url(#clip0)">
<path d="M412.877 384.683L327.586 354.58H184.412L99.121 384.683C79.311 391.675 66.064 410.399 66.064 431.406V487.225C66.064 500.907 77.156 511.999 90.838 511.999H421.161C434.843 511.999 445.935 500.907 445.935 487.225V431.407C445.935 410.4 432.687 391.675 412.877 384.683Z" fill="#5A4650"/>
<path d="M375.1 336.629C362.592 327.222 355.096 312.566 355.096 296.915V264.257C355.096 173.418 305.548 57.8051 255.999 57.8051C206.45 57.8051 156.902 173.418 156.902 264.257V296.915C156.902 312.566 149.406 327.221 136.898 336.629C123.41 346.773 115.612 358.764 115.612 371.613C115.612 408.099 151.1 478.968 255.999 478.968C360.898 478.968 396.386 408.1 396.386 371.613C396.386 358.764 388.588 346.773 375.1 336.629Z" fill="#6E5A64"/>
<path d="M342.426 426.411C363.56 406.267 379.384 381.063 389.815 351.634C386.618 346.888 382.22 342.405 376.949 338.191C367.493 368.668 352.101 394.375 331.031 414.46C293.278 450.448 238.774 466.926 176.806 461.328C191.19 468.9 208.661 474.429 229.222 477.104C273.631 471.883 312.7 454.749 342.426 426.411Z" fill="#5A4650"/>
<path d="M255.999 355.097C196.805 355.097 148.644 314.347 148.644 264.258C148.644 214.169 196.805 173.419 255.999 173.419C315.193 173.419 363.354 214.169 363.354 264.258C363.354 314.347 315.193 355.097 255.999 355.097Z" fill="#5A4650"/>
<path d="M255.999 313.806C196.708 313.806 148.644 265.742 148.644 206.451V107.354H363.354V206.451C363.354 265.742 315.29 313.806 255.999 313.806Z" fill="#F5B97D"/>
<path d="M181.676 206.451V189.935C181.676 153.449 211.254 123.87 247.741 123.87H363.354V107.354H148.644V206.451C148.644 265.741 196.709 313.806 255.999 313.806C261.631 313.806 267.117 313.242 272.515 312.406C221.087 304.444 181.676 260.11 181.676 206.451Z" fill="#E3AA75"/>
<path d="M256.37 264.258C243.975 264.258 232.547 260.282 225.797 253.621C222.547 250.411 222.515 245.186 225.716 241.944C228.926 238.694 234.151 238.662 237.393 241.863C240.143 244.573 246.756 247.742 256.369 247.742C265.982 247.742 272.595 244.573 275.345 241.863C278.587 238.661 283.813 238.694 287.022 241.944C290.224 245.186 290.191 250.412 286.941 253.621C280.193 260.282 268.765 264.258 256.37 264.258Z" fill="#B67F5F"/>
<path d="M206.822 206.33C202.257 206.33 198.564 202.636 198.564 198.072V189.814C198.564 185.249 202.258 181.556 206.822 181.556C211.386 181.556 215.08 185.25 215.08 189.814V198.072C215.08 202.637 211.386 206.33 206.822 206.33Z" fill="#5A4650"/>
<path d="M305.918 206.33C301.353 206.33 297.66 202.636 297.66 198.072V189.814C297.66 185.249 301.354 181.556 305.918 181.556C310.482 181.556 314.176 185.25 314.176 189.814V198.072C314.176 202.637 310.483 206.33 305.918 206.33Z" fill="#5A4650"/>
<path d="M215.08 173.298H198.564C193.999 173.298 190.306 169.604 190.306 165.04C190.306 160.475 194 156.782 198.564 156.782H215.08C219.645 156.782 223.338 160.476 223.338 165.04C223.338 169.605 219.644 173.298 215.08 173.298Z" fill="#6E5A64"/>
<path d="M314.176 173.298H297.66C293.095 173.298 289.402 169.604 289.402 165.04C289.402 160.475 293.096 156.782 297.66 156.782H314.176C318.741 156.782 322.434 160.476 322.434 165.04C322.435 169.605 318.741 173.298 314.176 173.298Z" fill="#6E5A64"/>
<path d="M403.505 256.282L396.271 135.713C391.972 64.069 335.937 4.37198 264.283 0.238977C186.397 -4.25302 120.566 55.066 115.957 131.891L108.493 256.281C103.606 337.734 165.539 406.812 245.667 412.36C195.795 407.192 156.902 365.045 156.902 313.806C156.902 277.32 156.902 272.516 156.902 264.258C156.902 173.419 206.45 57.806 255.999 57.806C305.548 57.806 355.096 173.419 355.096 264.258V344.289C355.096 355.386 369.409 360.256 375.91 351.263C395.08 324.748 405.63 291.706 403.505 256.282Z" fill="#84737B"/>
</g>
<defs>
<clipPath id="clip0">
<rect width="511.999" height="511.999" fill="white"/>
</clipPath>
</defs>
</svg>
