<svg width="512" height="512" viewBox="0 0 512 512" fill="none" xmlns="http://www.w3.org/2000/svg">
<path d="M418.625 366.968L331.589 341.369C321.045 338.268 313.805 328.591 313.805 317.601V256H198.193V317.601C198.193 328.591 190.953 338.268 180.409 341.369L93.3732 366.968C72.2862 373.17 57.8062 392.523 57.8062 414.503V487.226C57.8062 500.908 68.8982 512 82.5802 512H429.419C443.101 512 454.193 500.908 454.193 487.226V414.503C454.193 392.522 439.712 373.17 418.625 366.968Z" fill="#C9C6CA"/>
<path d="M331.589 341.369C321.046 338.268 313.805 328.591 313.805 317.601V256H198.193V317.601C198.193 328.591 190.953 338.267 180.409 341.369L107.418 362.837C124.484 405.421 166.101 435.613 214.709 435.613H297.29C345.898 435.613 387.516 405.42 404.581 362.837L331.589 341.369Z" fill="#B7B2B8"/>
<path d="M214.709 394.323C210.148 394.323 206.451 398.02 206.451 402.581V512H222.967V402.581C222.967 398.02 219.269 394.323 214.709 394.323Z" fill="#6F6571"/>
<path d="M297.289 394.323C292.728 394.323 289.031 398.02 289.031 402.581V512H305.547V402.581C305.547 398.02 301.85 394.323 297.289 394.323Z" fill="#6F6571"/>
<path d="M346.838 270.452H165.16C137.795 270.452 115.612 292.635 115.612 320C115.612 374.729 159.979 419.097 214.709 419.097H297.29C352.02 419.097 396.387 374.73 396.387 320C396.386 292.635 374.203 270.452 346.838 270.452Z" fill="#9C969E"/>
<path d="M344.64 295.226C362.615 295.226 369.674 318.539 354.718 328.51L269.741 385.161C261.419 390.709 250.578 390.709 242.257 385.161L157.28 328.51C142.324 318.539 149.382 295.226 167.358 295.226H344.64Z" fill="#867E88"/>
<path d="M178.137 342.415L242.256 385.161C250.578 390.709 261.419 390.709 269.741 385.161L333.86 342.415L331.588 341.747C321.045 338.646 313.804 328.969 313.804 317.979V264.258H198.193V317.979C198.193 328.969 190.953 338.645 180.409 341.747L178.137 342.415Z" fill="#B67F5F"/>
<path d="M198.193 290.945C215.542 300.212 235.217 305.549 255.999 305.549C276.781 305.549 296.456 300.212 313.805 290.945V264.259H198.193V290.945Z" fill="#A06E50"/>
<path d="M371.612 149.065V115.613C371.612 51.762 319.85 0 255.999 0C192.148 0 140.386 51.762 140.386 115.613V149.065C130.992 150.992 123.87 159.349 123.87 169.291C123.87 180.646 133.16 189.936 144.515 189.936H149.061C153.291 245.355 199.496 289.033 255.999 289.033C312.502 289.033 358.707 245.355 362.937 189.936H367.483C378.838 189.936 388.128 180.646 388.128 169.291C388.128 159.349 381.006 150.991 371.612 149.065Z" fill="#CD916E"/>
<path d="M189.934 173.419V61.008C189.934 44.705 168.7 38.176 159.665 51.746C147.488 70.036 140.386 91.986 140.386 115.612V149.064C129.836 151.228 122.151 161.503 124.203 173.024C125.985 183.031 135.345 189.935 145.51 189.935H149.062C153.292 245.354 199.497 289.032 256 289.032C264.352 289.032 272.439 287.973 280.239 286.167C228.576 274.614 189.934 228.566 189.934 173.419Z" fill="#B67F5F"/>
<path d="M275.117 206.452H236.884C224.26 206.452 213.655 215.944 212.261 228.49L208.359 263.605C207.213 273.921 212.619 283.858 221.902 288.5L244.92 300.009C251.895 303.496 260.104 303.496 267.079 300.009L290.097 288.5C299.381 283.858 304.787 273.921 303.64 263.605L299.738 228.49C298.345 215.943 287.741 206.452 275.117 206.452Z" fill="#DBD9DC"/>
<path d="M253.178 291.064C243.894 285.343 238.488 273.095 239.635 260.38L243.537 217.099C243.881 213.278 244.797 209.693 246.157 206.452H236.885C224.262 206.452 213.657 215.944 212.263 228.49L208.361 263.605C207.215 273.921 212.621 283.858 221.904 288.5L244.922 300.009C251.896 303.496 260.106 303.496 267.081 300.009L267.419 299.84L253.178 291.064Z" fill="#C9C6CA"/>
<path d="M255.999 247.742C246.402 247.742 237.668 243.298 232.636 235.847C230.088 232.065 231.08 226.936 234.862 224.379C238.652 221.839 243.773 222.831 246.33 226.605C250.169 232.299 261.83 232.299 265.669 226.605C268.217 222.831 273.346 221.839 277.137 224.379C280.919 226.935 281.911 232.064 279.363 235.847C274.33 243.298 265.595 247.742 255.999 247.742Z" fill="#B67F5F"/>
<path d="M222.967 123.871H198.193C193.628 123.871 189.935 120.177 189.935 115.613C189.935 111.048 193.629 107.355 198.193 107.355H222.967C227.532 107.355 231.225 111.049 231.225 115.613C231.225 120.177 227.531 123.871 222.967 123.871Z" fill="#C9C6CA"/>
<path d="M313.805 123.871H289.031C284.466 123.871 280.773 120.177 280.773 115.613C280.773 111.048 284.467 107.355 289.031 107.355H313.805C318.37 107.355 322.063 111.049 322.063 115.613C322.064 120.177 318.37 123.871 313.805 123.871Z" fill="#C9C6CA"/>
<path d="M181.676 156.903H140.386C135.821 156.903 132.128 153.209 132.128 148.645C132.128 144.081 135.822 140.387 140.386 140.387H181.676C186.241 140.387 189.934 144.081 189.934 148.645C189.934 153.209 186.241 156.903 181.676 156.903Z" fill="#EDEBED"/>
<path d="M371.612 156.903H330.322C325.757 156.903 322.064 153.209 322.064 148.645C322.064 144.081 325.758 140.387 330.322 140.387H371.612C376.177 140.387 379.87 144.081 379.87 148.645C379.87 153.209 376.176 156.903 371.612 156.903Z" fill="#EDEBED"/>
<path d="M272.515 173.419C267.95 173.419 264.257 169.725 264.257 165.161C264.257 160.605 260.555 156.903 255.999 156.903C251.443 156.903 247.741 160.605 247.741 165.161C247.741 169.726 244.047 173.419 239.483 173.419C234.919 173.419 231.225 169.725 231.225 165.161C231.225 151.5 242.338 140.387 255.999 140.387C269.66 140.387 280.773 151.5 280.773 165.161C280.772 169.726 277.08 173.419 272.515 173.419Z" fill="#EDEBED"/>
<path d="M222.967 189.935H198.193C184.532 189.935 173.419 178.822 173.419 165.161V140.387C173.419 135.822 177.113 132.129 181.677 132.129H239.483C244.048 132.129 247.741 135.823 247.741 140.387V165.161C247.741 178.823 236.628 189.935 222.967 189.935ZM189.934 148.645V165.161C189.934 169.717 193.636 173.419 198.192 173.419H222.966C227.522 173.419 231.224 169.717 231.224 165.161V148.645H189.934Z" fill="white"/>
<path d="M313.805 189.935H289.031C275.37 189.935 264.257 178.822 264.257 165.161V140.387C264.257 135.822 267.951 132.129 272.515 132.129H330.321C334.886 132.129 338.579 135.823 338.579 140.387V165.161C338.58 178.823 327.466 189.935 313.805 189.935ZM280.772 148.645V165.161C280.772 169.717 284.474 173.419 289.03 173.419H313.804C318.36 173.419 322.062 169.717 322.062 165.161V148.645H280.772Z" fill="white"/>
<path d="M202.322 156.903C202.322 161.468 206.016 165.161 210.58 165.161C215.144 165.161 218.838 161.467 218.838 156.903V148.645H202.322V156.903Z" fill="#5A4650"/>
<path d="M293.16 156.903C293.16 161.468 296.854 165.161 301.418 165.161C305.982 165.161 309.676 161.467 309.676 156.903V148.645H293.16V156.903Z" fill="#5A4650"/>
</svg>
