<svg width="512" height="512" viewBox="0 0 512 512" fill="none" xmlns="http://www.w3.org/2000/svg">
<path d="M396.386 220.559V107.355C396.386 64.891 364.336 29.913 323.106 25.293C318.159 24.739 313.384 22.386 310.616 18.248C302.548 6.191 284.306 0 255.996 0C198.192 0 115.611 40.86 115.611 123.871C115.611 156.903 115.611 220.559 115.611 220.559C115.611 237.246 105.784 243.696 98.5082 246.185C94.0422 247.713 91.5092 252.454 93.1712 256.871C97.0232 267.115 106.982 282.146 132.128 280.774C132.128 280.774 148.989 306.066 182.712 301.322C197.707 299.213 212.728 297.29 227.871 297.29H284.128C299.271 297.29 314.292 299.212 329.287 301.322C363.009 306.066 379.871 280.774 379.871 280.774C405.017 282.146 414.975 267.115 418.828 256.871C420.489 252.453 417.956 247.712 413.491 246.185C406.213 243.696 396.386 237.246 396.386 220.559Z" fill="#A06E50"/>
<path d="M396.386 220.559V107.355C396.386 64.891 364.336 29.913 323.107 25.293C318.16 24.739 313.385 22.385 310.616 18.248C302.548 6.191 284.306 0 255.999 0V297.29H284.128C299.271 297.29 314.292 299.212 329.287 301.322C363.009 306.066 379.87 280.774 379.87 280.774C405.016 282.146 414.974 267.115 418.827 256.871C420.488 252.453 417.955 247.712 413.49 246.185C406.213 243.696 396.386 237.246 396.386 220.559Z" fill="#B67F5F"/>
<path d="M412.877 384.72L327.586 354.617C322.115 352.686 317.458 349.361 313.805 345.193V359.226C313.805 393.432 286.076 421.161 251.87 421.161C217.664 421.161 189.935 393.432 189.935 359.226V352.009C188.188 353.02 186.366 353.928 184.413 354.617L99.121 384.72C79.311 391.711 66.064 410.436 66.064 431.443V487.226C66.064 500.908 77.156 512 90.838 512H421.161C434.843 512 445.935 500.908 445.935 487.226V431.443C445.934 410.435 432.687 391.711 412.877 384.72Z" fill="#FF8087"/>
<path d="M160.565 432.631C168.311 451.205 186.279 463.207 206.338 463.207C210.383 463.207 214.434 462.707 218.379 461.721L255.999 452.315L293.618 461.72C297.564 462.706 301.615 463.206 305.66 463.206C325.719 463.206 343.687 451.205 351.433 432.63C359.859 412.427 364.305 390.201 364.598 367.68L327.585 354.616C322.114 352.685 317.457 349.36 313.804 345.192V359.225C313.804 393.431 286.075 421.16 251.869 421.16C217.663 421.16 189.934 393.431 189.934 359.225V352.008C188.187 353.019 186.365 353.927 184.412 354.616L147.399 367.68C147.693 390.2 152.138 412.427 160.565 432.631Z" fill="#E6646E"/>
<path d="M140.394 512V469.919C140.394 457.778 135.088 446.314 125.846 438.463L78.7879 398.447C75.0519 402.619 72.0869 407.402 69.9399 412.599L115.153 451.047C120.701 455.757 123.879 462.636 123.879 469.918V512H140.394Z" fill="#E6646E"/>
<path d="M371.612 512V469.919C371.612 457.778 376.918 446.314 386.16 438.463L433.218 398.447C436.954 402.619 439.919 407.402 442.066 412.599L396.853 451.047C391.305 455.757 388.127 462.636 388.127 469.918V512H371.612Z" fill="#E6646E"/>
<path d="M305.539 330.323L336.77 340.943C343.097 343.149 347.477 348.991 347.871 355.68C349.633 385.555 343.115 409.669 336.19 426.273C329.878 441.407 313.533 449.674 297.624 445.697L255.999 435.29L214.373 445.697C198.465 449.674 182.119 441.407 175.807 426.273C168.882 409.669 162.363 385.555 164.126 355.68C164.52 348.991 168.901 343.149 175.227 340.943L206.458 330.323L206.45 330.057V354.831C206.45 382.196 228.634 404.379 255.998 404.379C283.362 404.379 305.546 382.195 305.546 354.831V330.057" fill="#EDEBED"/>
<path d="M305.539 330.323L305.547 330.325V330.057L305.539 330.323Z" fill="#FFD164"/>
<path d="M206.451 330.057V330.325L206.459 330.323L206.451 330.057Z" fill="#FFD164"/>
<path d="M255.999 421.161C292.485 421.161 322.064 391.583 322.064 355.096V335.941L305.548 330.325V354.831C305.548 382.196 283.365 404.379 256 404.379C228.635 404.379 206.452 382.196 206.452 354.831V330.325L189.936 335.941V355.096C189.934 391.583 219.513 421.161 255.999 421.161Z" fill="white"/>
<path d="M255.999 404.645C228.634 404.645 206.451 382.461 206.451 355.097V289.032H305.548V355.097C305.547 382.462 283.364 404.645 255.999 404.645Z" fill="#F7D291"/>
<path d="M206.451 319.756C221.698 326.498 238.452 330.323 255.999 330.323C273.546 330.323 290.3 326.499 305.547 319.756V289.032H206.45L206.451 319.756Z" fill="#F0C382"/>
<path d="M367.483 173.419H363.354V156.903C363.354 126.298 322.064 107.355 297.289 66.064V57.806H148.644V173.419H144.515C133.113 173.419 123.87 182.662 123.87 194.064C123.87 205.466 133.113 214.709 144.515 214.709H149.061C153.291 270.128 199.496 313.806 255.999 313.806C312.502 313.806 358.707 270.128 362.937 214.709H367.483C378.885 214.709 388.128 205.466 388.128 194.064C388.128 182.662 378.884 173.419 367.483 173.419Z" fill="#FFE1A0"/>
<path d="M247.484 112.539C272.088 104.552 295.295 97.018 311.175 85.539C311.18 85.496 311.183 85.476 311.188 85.433C306.27 79.505 301.53 73.131 297.29 66.065V57.807H148.644V173.42H145.693C134.894 173.42 125.053 181.19 123.977 191.935C122.739 204.293 132.411 214.71 144.515 214.71H149.061C153.291 270.129 199.496 313.807 255.999 313.807C261.648 313.807 267.156 313.257 272.567 312.415C221.113 304.474 181.676 260.129 181.676 206.452V159.715C181.676 146.857 189.138 135.237 200.763 129.744C214.425 123.288 231.433 117.749 247.484 112.539Z" fill="#F7D291"/>
<path d="M255.999 264.258C243.604 264.258 232.176 260.282 225.426 253.621C222.176 250.411 222.144 245.186 225.345 241.944C228.563 238.694 233.789 238.662 237.022 241.863C239.772 244.573 246.385 247.742 255.998 247.742C265.611 247.742 272.224 244.573 274.974 241.863C278.208 238.661 283.434 238.694 286.651 241.944C289.853 245.186 289.82 250.412 286.57 253.621C279.822 260.282 268.394 264.258 255.999 264.258Z" fill="#E3AA75"/>
<path d="M206.451 206.331C201.886 206.331 198.193 202.637 198.193 198.073V189.815C198.193 185.25 201.887 181.557 206.451 181.557C211.015 181.557 214.709 185.251 214.709 189.815V198.073C214.709 202.637 211.015 206.331 206.451 206.331Z" fill="#6E5A64"/>
<path d="M305.547 206.331C300.982 206.331 297.289 202.637 297.289 198.073V189.815C297.289 185.25 300.983 181.557 305.547 181.557C310.112 181.557 313.805 185.251 313.805 189.815V198.073C313.805 202.637 310.112 206.331 305.547 206.331Z" fill="#6E5A64"/>
<path d="M214.709 173.298H198.193C193.628 173.298 189.935 169.604 189.935 165.04C189.935 160.475 193.629 156.782 198.193 156.782H214.709C219.274 156.782 222.967 160.476 222.967 165.04C222.967 169.605 219.273 173.298 214.709 173.298Z" fill="#A06E50"/>
<path d="M313.805 173.298H297.289C292.724 173.298 289.031 169.604 289.031 165.04C289.031 160.475 292.725 156.782 297.289 156.782H313.805C318.37 156.782 322.063 160.476 322.063 165.04C322.064 169.605 318.37 173.298 313.805 173.298Z" fill="#A06E50"/>
<path d="M310.616 18.247C302.548 6.191 284.305 0 255.996 0C198.192 0 115.611 40.86 115.611 123.871C115.611 137.413 115.611 156.08 115.611 173.419H148.643C153.204 173.419 156.901 169.722 156.901 165.161V156.903C156.901 107.063 261.259 100.195 300.608 72.784C309.136 66.844 313.804 56.756 313.804 46.363V21.549C312.599 20.604 311.483 19.545 310.616 18.247Z" fill="#A06E50"/>
<path d="M182.314 138.331C180.088 138.331 177.87 137.436 176.241 135.67L144.531 101.259C141.442 97.904 141.652 92.678 145.007 89.59C148.37 86.509 153.588 86.719 156.676 90.066L188.386 124.477C191.475 127.832 191.265 133.058 187.91 136.146C186.322 137.605 184.314 138.331 182.314 138.331Z" fill="#FF8087"/>
</svg>
