<svg width="512" height="512" viewBox="0 0 512 512" fill="none" xmlns="http://www.w3.org/2000/svg">
<g clip-path="url(#clip0)">
<path d="M420.582 401.221L365.232 384.19C354.75 380.965 347.598 371.281 347.598 360.314V320.473C347.598 315.874 343.87 312.146 339.271 312.146H172.726C168.127 312.146 164.399 315.874 164.399 320.473V360.313C164.399 371.28 157.246 380.965 146.764 384.19L91.415 401.221C70.451 407.672 56.145 427.041 56.145 448.975V487.018C56.145 500.815 67.33 512 81.127 512H430.871C444.668 512 455.853 500.815 455.853 487.018V448.975C455.852 427.041 441.546 407.671 420.582 401.221Z" fill="#F5DCB4"/>
<path d="M147.589 383.861C160.518 419.284 204.088 445.382 255.998 445.382C307.908 445.382 351.478 419.284 364.407 383.861C354.393 380.384 347.598 370.98 347.598 360.314V320.473C347.598 315.874 343.87 312.146 339.271 312.146H172.726C168.127 312.146 164.399 315.874 164.399 320.473V360.313C164.398 370.98 157.604 380.383 147.589 383.861Z" fill="#EBC9A0"/>
<path d="M339.27 312.146H172.726C170.305 312.146 168.171 313.215 166.65 314.864C186.169 343.36 218.926 362.11 255.999 362.11C293.072 362.11 325.829 343.36 345.348 314.864C343.825 313.215 341.691 312.146 339.27 312.146Z" fill="#D2B496"/>
<path d="M368.416 170.583H364.252V87.3101H147.744V170.582H143.58C132.13 170.582 122.762 179.95 122.762 191.4C122.762 202.85 132.13 212.218 143.58 212.218H148.164C152.429 268.101 199.022 312.145 255.997 312.145C312.972 312.145 359.565 268.101 363.83 212.218H368.414C379.864 212.218 389.232 202.85 389.232 191.4C389.232 179.95 379.866 170.583 368.416 170.583Z" fill="#F5B97D"/>
<path d="M206.034 196.288C201.431 196.288 197.707 192.559 197.707 187.961V179.634C197.707 175.035 201.431 171.307 206.034 171.307C210.637 171.307 214.361 175.036 214.361 179.634V187.961C214.362 192.56 210.637 196.288 206.034 196.288Z" fill="#5A4650"/>
<path d="M305.962 196.288C301.359 196.288 297.635 192.559 297.635 187.961V179.634C297.635 175.035 301.359 171.307 305.962 171.307C310.565 171.307 314.289 175.036 314.289 179.634V187.961C314.289 192.56 310.564 196.288 305.962 196.288Z" fill="#5A4650"/>
<path d="M214.362 162.256H197.708C193.105 162.256 189.381 158.527 189.381 153.929C189.381 149.33 193.105 145.602 197.708 145.602H214.362C218.965 145.602 222.689 149.331 222.689 153.929C222.689 158.527 218.965 162.256 214.362 162.256Z" fill="#6E5A64"/>
<path d="M314.289 162.256H297.635C293.032 162.256 289.308 158.527 289.308 153.929C289.308 149.33 293.032 145.602 297.635 145.602H314.289C318.892 145.602 322.616 149.331 322.616 153.929C322.616 158.527 318.891 162.256 314.289 162.256Z" fill="#6E5A64"/>
<path d="M322.616 95.6381V87.3101H147.744V170.582H144.311C134.83 170.582 125.975 176.59 123.519 185.747C119.804 199.596 130.29 212.218 143.581 212.218H148.165C152.43 268.101 199.023 312.145 255.998 312.145C261.694 312.145 267.248 311.59 272.705 310.742C220.82 302.735 181.053 258.018 181.053 203.891V153.927C181.053 130.932 199.694 112.291 222.689 112.291H305.961C315.16 112.292 322.616 104.836 322.616 95.6381Z" fill="#E3AA75"/>
<path d="M197.707 14.141C156.78 22.612 127.322 60.996 131.895 104.355L138.931 171.073L147.521 170.904C156.59 170.726 163.848 163.323 163.848 154.253V120.62C163.848 106.823 175.033 95.638 188.83 95.638H280.98L197.707 14.141Z" fill="#5A4650"/>
<path d="M322.616 220.546H189.38C175.583 220.546 164.398 231.731 164.398 245.528V253.855C164.398 304.444 205.409 345.455 255.998 345.455C306.587 345.455 347.598 304.444 347.598 253.855V245.528C347.598 231.731 336.413 220.546 322.616 220.546Z" fill="#84737B"/>
<path d="M255.998 270.51C243.507 270.51 231.976 266.501 225.169 259.784C221.892 256.556 221.859 251.282 225.088 248.009C228.316 244.732 233.602 244.699 236.863 247.928C239.636 250.664 246.312 253.856 255.998 253.856C265.684 253.856 272.36 250.664 275.133 247.928C278.394 244.7 283.68 244.732 286.908 248.009C290.136 251.282 290.104 256.556 286.827 259.784C280.02 266.501 268.489 270.51 255.998 270.51Z" fill="#E3AA75"/>
<path d="M206.034 253.855V245.528C206.034 231.731 217.219 220.546 231.016 220.546H189.38C175.583 220.546 164.398 231.731 164.398 245.528V253.855C164.398 304.444 205.409 345.455 255.998 345.455C263.171 345.455 270.118 344.547 276.816 342.987C236.274 333.549 206.034 297.271 206.034 253.855Z" fill="#6E5A64"/>
<path d="M372.514 171.073L379.551 104.355C384.736 55.191 346.19 12.365 296.753 12.365H214.362C193.008 12.365 168.613 9.323 154.176 0.638003C151.122 -1.199 147.18 1.163 147.194 4.727C147.289 29.303 158.856 95.637 280.98 95.637H322.616C336.413 95.637 347.598 106.822 347.598 120.619V154.252C347.598 163.322 354.856 170.725 363.925 170.903L372.514 171.073Z" fill="#6E5A64"/>
</g>
<defs>
<clipPath id="clip0">
<rect width="512" height="512" fill="white" transform="translate(-0.000976562)"/>
</clipPath>
</defs>
</svg>
