<svg width="512" height="512" viewBox="0 0 512 512" fill="none" xmlns="http://www.w3.org/2000/svg">
<path d="M415.573 224.445C419.401 210.124 437.678 197.205 437.678 181.677C437.678 166.15 419.401 153.232 415.574 138.911C411.614 124.094 420.866 103.792 413.361 90.82C405.748 77.662 383.468 75.572 372.79 64.893C362.111 54.214 360.02 31.933 346.862 24.319C333.889 16.813 313.585 26.065 298.768 22.104C284.447 18.277 271.528 0 256 0C240.473 0 227.555 18.277 213.234 22.104C198.418 26.064 178.115 16.811 165.143 24.317C151.985 31.93 149.895 54.21 139.216 64.888C128.537 75.567 106.256 77.657 98.642 90.816C91.136 103.789 100.388 124.092 96.427 138.909C92.599 153.23 74.322 166.149 74.322 181.677C74.322 197.204 92.599 210.122 96.426 224.442C100.386 239.259 91.134 259.561 98.639 272.534C106.252 285.692 128.532 287.783 139.21 298.461C149.889 309.141 151.98 331.421 165.138 339.035C176.223 345.449 192.661 339.627 206.455 340.268L305.548 340.269C319.34 339.63 335.774 345.451 346.857 339.038C360.015 331.425 362.106 309.146 372.784 298.467C383.463 287.788 405.744 285.697 413.358 272.539C420.864 259.566 411.612 239.262 415.573 224.445Z" fill="#5A4650"/>
<path d="M437.677 181.677C437.677 166.15 419.4 153.232 415.573 138.911C411.613 124.094 420.865 103.792 413.36 90.82C405.747 77.662 383.467 75.572 372.789 64.893C362.11 54.214 360.019 31.933 346.861 24.319C333.888 16.813 313.584 26.065 298.767 22.104C284.447 18.277 271.528 0 256 0C240.473 0 227.555 18.277 213.234 22.104C204.075 24.552 192.825 21.961 182.5 21.391C182.01 27.968 181.677 34.588 181.677 41.29C181.677 162.929 263.891 265.307 375.762 296.056C387.154 287.441 406.373 284.608 413.357 272.538C420.863 259.565 411.611 239.262 415.572 224.445C419.401 210.124 437.677 197.205 437.677 181.677Z" fill="#6E5A64"/>
<path d="M412.878 417.716L327.587 387.613C314.38 382.952 305.548 370.469 305.548 356.464V330.323H206.451V356.464C206.451 370.469 197.619 382.952 184.413 387.613L99.122 417.716C79.312 424.708 66.065 443.432 66.065 464.439V487.226C66.065 500.908 77.157 512 90.839 512H421.162C434.844 512 445.936 500.908 445.936 487.226V464.44C445.935 443.432 432.688 424.708 412.878 417.716Z" fill="#DBD9DC"/>
<path d="M305.548 356.464V330.323H206.451V356.464C206.451 370.469 197.619 382.952 184.413 387.613L256 421.161L327.587 387.613C314.38 382.952 305.548 370.469 305.548 356.464Z" fill="#B67F5F"/>
<path d="M327.587 387.613L256 421.161L184.413 387.613L132.609 405.897C136.316 454.561 168.085 495.273 211.817 512H300.182C343.914 495.272 375.683 454.56 379.39 405.897L327.587 387.613Z" fill="#C9C6CA"/>
<path d="M327.587 387.613L256 421.161L184.413 387.613L148.836 400.169C150.845 457.693 197.986 503.742 256 503.742C314.013 503.742 361.155 457.693 363.164 400.169L327.587 387.613Z" fill="#FFE17D"/>
<path d="M256 363.355C273.548 363.355 290.301 359.531 305.548 352.788V330.322H206.451V352.788C221.699 359.531 238.452 363.355 256 363.355Z" fill="#A06E50"/>
<path d="M367.484 206.452H363.355V165.162C363.355 142.358 315.291 123.872 256 123.872C196.709 123.872 148.645 142.358 148.645 165.162V206.452H144.516C133.114 206.452 123.871 215.695 123.871 227.097C123.871 238.499 133.114 247.742 144.516 247.742H149.062C153.292 303.161 199.497 346.839 256 346.839C312.503 346.839 358.708 303.161 362.938 247.742H367.484C378.886 247.742 388.129 238.499 388.129 227.097C388.129 215.695 378.885 206.452 367.484 206.452Z" fill="#CD916E"/>
<path d="M323.745 137.062L327.328 134.362C308.354 127.857 283.417 123.871 256 123.871C227.127 123.871 200.972 128.278 181.677 135.409C161.35 142.922 148.645 153.462 148.645 165.161V206.451H145.694C134.895 206.451 125.054 214.221 123.978 224.966C122.74 237.324 132.412 247.741 144.516 247.741H149.062C153.292 303.16 199.497 346.838 256 346.838C261.649 346.838 267.157 346.288 272.568 345.446C221.114 337.505 181.677 293.16 181.677 239.483V206.209C181.677 198.372 187.15 191.662 194.821 190.055C233.127 182.032 284.671 166.502 323.745 137.062Z" fill="#B67F5F"/>
<path d="M206.452 231.944C201.887 231.944 198.194 228.25 198.194 223.686V206.452C198.194 201.887 201.888 198.194 206.452 198.194C211.016 198.194 214.71 201.888 214.71 206.452V223.686C214.71 228.25 211.016 231.944 206.452 231.944Z" fill="#5A4650"/>
<path d="M305.548 231.944C300.983 231.944 297.29 228.25 297.29 223.686V206.452C297.29 201.887 300.984 198.194 305.548 198.194C310.113 198.194 313.806 201.888 313.806 206.452V223.686C313.806 228.25 310.113 231.944 305.548 231.944Z" fill="#5A4650"/>
<path d="M256 305.548C243.605 305.548 232.177 301.572 225.427 294.911C222.177 291.701 222.145 286.476 225.346 283.234C228.564 279.984 233.79 279.952 237.023 283.153C239.773 285.863 246.386 289.032 255.999 289.032C265.612 289.032 272.225 285.863 274.975 283.153C278.209 279.951 283.435 279.984 286.652 283.234C289.854 286.476 289.821 291.702 286.571 294.911C279.823 301.573 268.395 305.548 256 305.548Z" fill="#A06E50"/>
<path d="M173.419 214.71H140.387C135.822 214.71 132.129 211.016 132.129 206.452C132.129 201.888 135.823 198.194 140.387 198.194H173.419C177.984 198.194 181.677 201.888 181.677 206.452C181.677 211.016 177.984 214.71 173.419 214.71Z" fill="#FFD164"/>
<path d="M371.613 214.71H338.581C334.016 214.71 330.323 211.016 330.323 206.452C330.323 201.888 334.017 198.194 338.581 198.194H371.613C376.178 198.194 379.871 201.888 379.871 206.452C379.871 211.016 376.177 214.71 371.613 214.71Z" fill="#FFD164"/>
<path d="M272.516 222.968H239.484C234.919 222.968 231.226 219.274 231.226 214.71C231.226 210.145 234.92 206.452 239.484 206.452H272.516C277.081 206.452 280.774 210.146 280.774 214.71C280.774 219.274 277.081 222.968 272.516 222.968Z" fill="#FFD164"/>
<path d="M313.806 189.935H297.29C292.725 189.935 289.032 186.241 289.032 181.677C289.032 177.113 292.726 173.419 297.29 173.419H313.806C318.371 173.419 322.064 177.113 322.064 181.677C322.064 186.241 318.371 189.935 313.806 189.935Z" fill="#5A4650"/>
<path d="M214.71 189.935H198.194C193.629 189.935 189.936 186.241 189.936 181.677C189.936 177.113 193.63 173.419 198.194 173.419H214.71C219.275 173.419 222.968 177.113 222.968 181.677C222.968 186.241 219.274 189.935 214.71 189.935Z" fill="#5A4650"/>
<path d="M140.387 181.677C140.387 181.677 247.769 173.625 313.806 123.871H140.387V181.677Z" fill="#5A4650"/>
<path d="M148.645 272.516C148.645 282.657 139.505 290.664 129.013 288.747C121.096 287.301 115.361 279.728 115.627 271.685C115.989 260.702 123.414 249.842 128.18 243.965C130.243 241.421 134.088 241.503 136.148 244.05C141.036 250.095 148.645 261.306 148.645 272.516Z" fill="#FFE17D"/>
<path d="M396.387 272.516C396.387 282.657 387.247 290.664 376.755 288.747C368.838 287.301 363.103 279.728 363.369 271.685C363.731 260.702 371.156 249.842 375.922 243.965C377.985 241.421 381.83 241.503 383.89 244.05C388.778 250.095 396.387 261.306 396.387 272.516Z" fill="#FFE17D"/>
<path d="M256 90.8391C196.709 90.8391 148.645 109.325 148.645 132.129V165.161C148.645 142.357 196.709 123.871 256 123.871C315.291 123.871 363.355 142.357 363.355 165.161V132.129C363.355 109.325 315.29 90.8391 256 90.8391Z" fill="#FFD164"/>
<path d="M305.548 264.258C282.782 264.258 264.258 245.734 264.258 222.968V206.452C264.258 201.887 267.952 198.194 272.516 198.194H338.581C343.146 198.194 346.839 201.888 346.839 206.452V222.968C346.839 245.734 328.315 264.258 305.548 264.258ZM280.773 214.71V222.968C280.773 236.629 291.886 247.742 305.547 247.742C319.208 247.742 330.321 236.629 330.321 222.968V214.71H280.773Z" fill="#FFE17D"/>
<path d="M206.452 264.258C183.686 264.258 165.162 245.734 165.162 222.968V206.452C165.162 201.887 168.856 198.194 173.42 198.194H239.485C244.05 198.194 247.743 201.888 247.743 206.452V222.968C247.742 245.734 229.218 264.258 206.452 264.258ZM181.677 214.71V222.968C181.677 236.629 192.79 247.742 206.451 247.742C220.112 247.742 231.225 236.629 231.225 222.968V214.71H181.677Z" fill="#FFE17D"/>
<path d="M327.587 387.613L256 421.161L184.413 387.613L159.199 396.512C159.371 396.99 159.5 397.479 159.708 397.947L186.92 459.173C190.893 468.112 199.786 473.888 209.576 473.888C215.347 473.888 220.973 471.848 225.418 468.144L247.741 449.542V503.333C250.474 503.542 253.212 503.741 255.999 503.741C258.786 503.741 261.524 503.541 264.257 503.333V449.541L286.58 468.143C291.025 471.847 296.651 473.887 302.422 473.887C312.212 473.887 321.105 468.111 325.078 459.173L352.291 397.946C352.499 397.477 352.627 396.989 352.8 396.511L327.587 387.613Z" fill="#FFD164"/>
<path d="M204.033 369.194L256 421.161L214.846 455.456C210.636 458.964 204.239 457.474 202.013 452.466L174.801 391.239C173.968 389.366 174.375 387.173 175.825 385.723L192.354 369.194C195.579 365.969 200.808 365.969 204.033 369.194Z" fill="#FFE17D"/>
<path d="M319.646 369.194C316.421 365.969 311.192 365.969 307.968 369.194L256 421.161L297.154 455.455C301.364 458.963 307.761 457.473 309.987 452.465L337.199 391.238C338.032 389.365 337.625 387.172 336.175 385.722L319.646 369.194Z" fill="#FFE17D"/>
<path d="M126.282 471.137L79.683 430.362C75.834 434.422 72.775 439.145 70.485 444.262L115.41 483.572C120.789 488.274 123.87 495.072 123.87 502.217V512H140.386V502.218C140.387 490.315 135.25 478.984 126.282 471.137Z" fill="#C9C6CA"/>
<path d="M385.717 471.137L432.316 430.362C436.165 434.422 439.224 439.145 441.514 444.262L396.589 483.572C391.21 488.274 388.129 495.072 388.129 502.217V512H371.613V502.218C371.613 490.315 376.75 478.984 385.717 471.137Z" fill="#C9C6CA"/>
</svg>
