<svg width="512" height="512" viewBox="0 0 512 512" fill="none" xmlns="http://www.w3.org/2000/svg">
<path d="M418.628 369.41L338.766 345.921L256 421.161L173.236 345.921L93.374 369.41C72.287 375.612 57.807 394.965 57.807 416.945V487.226C57.807 500.908 68.899 512 82.581 512H429.42C443.102 512 454.194 500.908 454.194 487.226V416.945C454.194 394.965 439.714 375.612 418.628 369.41Z" fill="#6E5A64"/>
<path d="M401.555 229.434L256 206.452L110.445 229.434C104.868 230.315 101.8 236.406 104.411 241.411L198.194 421.162L186.126 445.3C183.39 450.772 183.903 457.308 187.459 462.286L222.969 512H289.034L324.545 462.285C328.101 457.307 328.614 450.771 325.878 445.299L313.809 421.161L407.592 241.41C410.201 236.406 407.132 230.315 401.555 229.434Z" fill="#5A4650"/>
<path d="M103.58 236.652L249.634 413.455C252.937 417.453 259.064 417.453 262.367 413.455L408.42 236.652C408.006 233.147 405.406 230.043 401.555 229.434L256 206.452L110.445 229.434C106.594 230.042 103.993 233.147 103.58 236.652Z" fill="#E6646E"/>
<path d="M262.367 413.454L323.417 339.551C317.512 334.956 313.807 327.856 313.807 320.043V280.774H198.195V320.043C198.195 327.857 194.49 334.956 188.585 339.551L249.635 413.454C252.937 417.452 259.064 417.452 262.367 413.454Z" fill="#DBD9DC"/>
<path d="M117.509 421.476L71.689 382.705C67.829 386.729 64.711 391.38 62.391 396.471L106.848 434.088C112.421 438.798 115.614 445.693 115.614 452.999V511.999H132.13V452.999C132.13 440.823 126.799 429.331 117.509 421.476Z" fill="#5A4650"/>
<path d="M394.492 421.476L440.312 382.705C444.172 386.729 447.29 391.38 449.61 396.471L405.153 434.088C399.58 438.798 396.387 445.693 396.387 452.999V511.999H379.871V452.999C379.871 440.823 385.202 429.331 394.492 421.476Z" fill="#5A4650"/>
<path d="M198.195 299.203C215.544 308.47 235.219 313.807 256.001 313.807C276.783 313.807 296.458 308.47 313.807 299.203V280.775H198.195V299.203Z" fill="#C9C6CA"/>
<path d="M367.484 156.903H363.355V57.806H148.645V156.903H144.516C133.161 156.903 123.871 166.193 123.871 177.548C123.871 188.903 133.161 198.193 144.516 198.193H149.062C153.292 253.612 199.497 297.29 256 297.29C312.503 297.29 358.708 253.612 362.938 198.193H367.484C378.839 198.193 388.129 188.903 388.129 177.548C388.129 166.193 378.839 156.903 367.484 156.903Z" fill="#EDEBED"/>
<path d="M256 239.484C242.318 239.484 231.226 228.392 231.226 214.71H280.774C280.774 228.392 269.682 239.484 256 239.484Z" fill="#DBD9DC"/>
<path d="M181.678 189.935V155.564C181.678 131.712 188.56 108.243 202.175 88.659C202.289 88.495 202.404 88.33 202.519 88.166C205.222 84.311 210.524 83.348 214.283 86.184C223.818 93.378 235.232 100.629 247.153 105.206C249.986 106.294 252.963 106.845 256.001 106.845C259.039 106.845 262.016 106.294 264.848 105.206C279.612 99.538 319.72 66.489 330.323 57.806H148.646V156.903H145.241C135.839 156.903 127.058 162.861 124.622 171.942C120.938 185.676 131.336 198.194 144.517 198.194H149.063C153.293 253.613 199.498 297.291 256.001 297.291C261.65 297.291 267.158 296.741 272.569 295.899C221.115 287.958 181.678 243.612 181.678 189.935Z" fill="#DBD9DC"/>
<path d="M206.452 181.677C201.887 181.677 198.194 177.983 198.194 173.419V165.161C198.194 160.596 201.888 156.903 206.452 156.903C211.016 156.903 214.71 160.597 214.71 165.161V173.419C214.711 177.984 211.017 181.677 206.452 181.677Z" fill="#E6646E"/>
<path d="M305.548 181.677C300.983 181.677 297.29 177.983 297.29 173.419V165.161C297.29 160.596 300.984 156.903 305.548 156.903C310.113 156.903 313.806 160.597 313.806 165.161V173.419C313.806 177.984 310.113 181.677 305.548 181.677Z" fill="#E6646E"/>
<path d="M222.969 156.903C222.106 156.903 221.227 156.766 220.356 156.476L195.582 148.218C191.259 146.783 188.921 142.105 190.364 137.774C191.808 133.451 196.445 131.105 200.808 132.556L225.582 140.814C229.905 142.249 232.243 146.927 230.8 151.258C229.646 154.718 226.428 156.903 222.969 156.903Z" fill="#5A4650"/>
<path d="M289.033 156.903C285.573 156.903 282.356 154.718 281.202 151.258C279.758 146.927 282.097 142.25 286.42 140.814L311.194 132.556C315.557 131.104 320.194 133.451 321.638 137.774C323.082 142.105 320.743 146.782 316.42 148.218L291.646 156.476C290.774 156.766 289.895 156.903 289.033 156.903Z" fill="#5A4650"/>
<path d="M231.227 0C176.497 0 132.13 44.367 132.13 99.097V161.068C135.584 158.467 139.86 156.903 144.517 156.903H150.061C153.972 156.903 157.317 154.182 158.137 150.359C161.422 135.043 172.175 95.744 200.827 63.753C203.795 60.439 208.935 60.251 212.267 63.199C220.556 70.533 236.597 83.463 253.073 89.788C254.954 90.51 257.049 90.51 258.93 89.788C275.405 83.463 291.447 70.533 299.736 63.199C303.068 60.251 308.208 60.439 311.176 63.753C339.829 95.744 350.582 135.044 353.866 150.359C354.686 154.183 358.031 156.903 361.942 156.903H367.486C372.143 156.903 376.419 158.467 379.873 161.068V99.097C379.871 44.367 335.504 0 280.774 0H231.227Z" fill="#5A4650"/>
<path d="M264.258 214.71L277.288 240.77C278.695 243.584 282.73 243.524 284.054 240.671L297.29 212.13L264.258 214.71Z" fill="white"/>
<path d="M234.713 240.77L247.743 214.71L214.711 212.129L227.947 240.67C229.271 243.524 233.305 243.583 234.713 240.77Z" fill="white"/>
<path d="M256 222.968C237.742 222.968 219.952 221.033 204.54 217.371C200.105 216.323 197.363 211.871 198.419 207.427C199.475 202.992 203.959 200.266 208.363 201.306C236.702 208.032 275.299 208.032 303.637 201.306C308.113 200.233 312.524 203 313.581 207.427C314.637 211.871 311.896 216.322 307.46 217.371C292.048 221.032 274.258 222.968 256 222.968Z" fill="#C9C6CA"/>
<path d="M262.366 413.454C259.064 417.452 252.936 417.452 249.633 413.454L247.741 411.164V512H264.257V411.164L262.366 413.454Z" fill="#6E5A64"/>
</svg>
