<svg width="512" height="512" viewBox="0 0 512 512" fill="none" xmlns="http://www.w3.org/2000/svg">
<path d="M379.87 90.8401H132.13V173.42H379.87V90.8401Z" fill="#EDEBED"/>
<path d="M180.4 281.545C177.211 271.548 167.958 264.258 156.904 264.258C143.222 264.258 132.13 275.35 132.13 289.032C132.13 296.62 135.614 303.326 140.986 307.87C140.634 309.802 140.388 311.773 140.388 313.806C140.388 332.049 155.177 346.838 173.42 346.838C191.663 346.838 206.452 332.049 206.452 313.806C206.452 297.962 195.284 284.753 180.4 281.545Z" fill="#A06E50"/>
<path d="M331.6 281.545C334.789 271.548 344.042 264.258 355.096 264.258C368.778 264.258 379.87 275.35 379.87 289.032C379.87 296.62 376.386 303.326 371.014 307.87C371.366 309.802 371.612 311.773 371.612 313.806C371.612 332.049 356.823 346.838 338.58 346.838C320.337 346.838 305.548 332.049 305.548 313.806C305.548 297.962 316.716 284.753 331.6 281.545Z" fill="#A06E50"/>
<path d="M412.878 417.752L327.587 387.649C314.38 382.988 305.548 370.505 305.548 356.5V313.806H206.451V356.5C206.451 370.505 197.619 382.988 184.412 387.649L99.121 417.752C79.311 424.744 66.064 443.468 66.064 464.475V487.225C66.064 500.907 77.156 511.999 90.838 511.999H421.161C434.843 511.999 445.935 500.907 445.935 487.225V464.475C445.935 443.468 432.688 424.744 412.878 417.752Z" fill="#E3AA75"/>
<path d="M412.878 417.752L327.587 387.649C319.012 384.623 312.337 378.273 308.67 370.378C294.374 376.305 276.022 379.871 256 379.871C235.978 379.871 217.626 376.305 203.33 370.378C199.664 378.274 192.988 384.623 184.413 387.649L99.1219 417.752C79.3119 424.743 66.0649 443.468 66.0649 464.475V487.225C66.0649 500.907 77.1569 511.999 90.8389 511.999H421.162C434.844 511.999 445.936 500.907 445.936 487.225V464.475C445.935 443.468 432.688 424.743 412.878 417.752Z" fill="#EDEBED"/>
<path d="M206.452 352.788C221.699 359.53 238.453 363.355 256 363.355C273.547 363.355 290.301 359.531 305.548 352.788V330.322H206.451L206.452 352.788Z" fill="#D29B6E"/>
<path d="M366.306 206.452H363.354V173.42H148.644V206.452H145.692C134.893 206.452 125.052 214.222 123.976 224.967C122.739 237.325 132.409 247.742 144.514 247.742H149.06C153.29 303.161 199.495 346.839 255.998 346.839C312.501 346.839 358.706 303.161 362.936 247.742H367.482C379.587 247.742 389.258 237.325 388.02 224.967C386.946 214.221 377.105 206.452 366.306 206.452Z" fill="#F5B97D"/>
<path d="M256 297.29C243.605 297.29 232.177 293.314 225.427 286.653C222.177 283.443 222.145 278.218 225.346 274.976C228.564 271.726 233.79 271.694 237.023 274.895C239.773 277.605 246.386 280.774 255.999 280.774C265.612 280.774 272.225 277.605 274.975 274.895C278.209 271.693 283.435 271.726 286.652 274.976C289.854 278.218 289.821 283.444 286.571 286.653C279.823 293.315 268.395 297.29 256 297.29Z" fill="#B67F5F"/>
<path d="M206.452 231.226C201.887 231.226 198.194 227.532 198.194 222.968V214.71C198.194 210.145 201.888 206.452 206.452 206.452C211.016 206.452 214.71 210.146 214.71 214.71V222.968C214.71 227.532 211.016 231.226 206.452 231.226Z" fill="#5A4650"/>
<path d="M305.548 231.226C300.983 231.226 297.29 227.532 297.29 222.968V214.71C297.29 210.145 300.984 206.452 305.548 206.452C310.113 206.452 313.806 210.146 313.806 214.71V222.968C313.806 227.532 310.113 231.226 305.548 231.226Z" fill="#5A4650"/>
<path d="M330.323 173.419H148.646V206.451H145.694C133.587 206.451 125.054 214.221 123.978 224.966C122.741 237.324 132.411 247.741 144.516 247.741H149.062C153.292 303.16 199.497 346.838 256 346.838C261.649 346.838 267.157 346.288 272.568 345.446C221.114 337.505 181.677 293.16 181.677 239.483V222.967C181.677 204.724 196.466 189.935 214.709 189.935H313.806C322.928 189.935 330.323 182.541 330.323 173.419Z" fill="#E3AA75"/>
<path d="M143.496 209.192L132.129 210.63V173.42H165.161V184.614C165.161 197.094 155.877 207.626 143.496 209.192Z" fill="#A06E50"/>
<path d="M368.504 209.192L379.871 210.63V173.42H346.839V184.614C346.839 197.094 356.123 207.626 368.504 209.192Z" fill="#A06E50"/>
<path d="M165.16 99.1001H132.13V173.42H165.16V99.1001Z" fill="#DBD9DC"/>
<path d="M363.355 107.355H148.645C125.841 107.355 107.355 88.869 107.355 66.065C107.355 43.261 125.841 24.775 148.645 24.775H363.355C386.159 24.775 404.645 43.261 404.645 66.065C404.645 88.869 386.159 107.355 363.355 107.355Z" fill="#EDEBED"/>
<path d="M379.87 132.13H132.13V148.646H379.87V132.13Z" fill="#DBD9DC"/>
<path d="M165.16 132.13H132.13V148.646H165.16V132.13Z" fill="#C9C6CA"/>
<path d="M330.323 41.29H181.677C172.555 41.29 165.161 33.895 165.161 24.774H346.838C346.839 33.896 339.444 41.29 330.323 41.29Z" fill="#DBD9DC"/>
<path d="M276.645 107.355H235.355C205.71 107.355 181.678 83.323 181.678 53.678C181.677 24.032 205.71 0 235.355 0H276.645C306.29 0 330.322 24.032 330.322 53.677C330.323 83.323 306.29 107.355 276.645 107.355Z" fill="#EDEBED"/>
<path d="M344.12 393.484L327.587 387.649C319.012 384.623 312.337 378.273 308.67 370.378C294.374 376.305 276.022 379.871 256 379.871C235.978 379.871 217.626 376.305 203.33 370.378C199.664 378.274 192.988 384.623 184.413 387.649L167.88 393.484C184.317 414.806 217.567 429.419 256 429.419C267.9 429.419 279.2 427.876 289.761 425.309L298.291 433.839C302.968 438.516 305.549 444.742 305.549 451.363V512H322.065V451.363C322.065 440.331 317.767 429.96 309.968 422.161L307.531 419.724C323.041 413.392 335.767 404.32 344.12 393.484Z" fill="#DBD9DC"/>
<path d="M125.532 470.976L78.523 431.8C74.822 436.004 71.885 440.804 69.781 446.022L114.959 483.669C120.62 488.387 123.87 495.322 123.87 502.693V512H140.386V502.694C140.387 490.403 134.968 478.847 125.532 470.976Z" fill="#DBD9DC"/>
<path d="M386.468 470.976L433.477 431.801C437.178 436.005 440.115 440.805 442.219 446.023L397.041 483.67C391.38 488.388 388.13 495.323 388.13 502.694V512H371.614V502.694C371.613 490.403 377.032 478.847 386.468 470.976Z" fill="#DBD9DC"/>
</svg>
