<svg width="512" height="512" viewBox="0 0 512 512" fill="none" xmlns="http://www.w3.org/2000/svg">
<g clip-path="url(#clip0)">
<path d="M419.732 376.755L332.104 350.982C321.489 347.86 314.199 338.118 314.199 327.053V287.517H197.801V327.053C197.801 338.118 190.511 347.86 179.896 350.982L92.268 376.755C71.038 382.999 56.459 402.483 56.459 424.613V487.058C56.459 500.833 67.626 512.001 81.402 512.001H430.598C444.373 512.001 455.541 500.834 455.541 487.058V424.613C455.541 402.483 440.962 382.999 419.732 376.755Z" fill="#E3AA75"/>
<path d="M419.732 376.755L335.849 352.083C325.865 386.802 293.931 412.229 256 412.229C218.069 412.229 186.136 386.802 176.151 352.083L92.268 376.755C71.038 382.999 56.459 402.484 56.459 424.613V487.058C56.459 500.833 67.626 512.001 81.402 512.001H430.598C444.373 512.001 455.541 500.834 455.541 487.058V424.613C455.541 402.483 440.962 382.999 419.732 376.755Z" fill="#A5CDFF"/>
<path d="M197.801 314.385C215.268 323.715 235.077 329.088 256 329.088C276.923 329.088 296.732 323.715 314.199 314.385V295.831H197.801V314.385Z" fill="#D29B6E"/>
<path d="M368.242 171.118H364.085V129.547H147.915V171.118H143.758C132.278 171.118 122.973 180.424 122.973 191.904C122.973 203.383 132.279 212.689 143.758 212.689H148.335C152.594 268.485 199.113 312.459 255.999 312.459C312.885 312.459 359.405 268.484 363.663 212.689H368.24C379.72 212.689 389.025 203.383 389.025 191.904C389.027 180.424 379.721 171.118 368.242 171.118Z" fill="#F5B97D"/>
<path d="M147.915 129.547V171.118H144.943C134.071 171.118 124.163 178.94 123.08 189.759C121.834 202.201 131.571 212.689 143.758 212.689H148.335C152.594 268.485 199.113 312.459 255.999 312.459V304.027C216.967 287.735 189.485 249.314 189.485 204.374V196.06C189.485 173.101 208.097 154.489 231.056 154.489H314.198C323.382 154.489 330.826 147.044 330.826 137.861V129.547H147.915Z" fill="#E3AA75"/>
<path d="M246.65 2.87799L70.4821 122.672C63.7121 127.276 66.9701 137.861 75.1571 137.861H436.842C445.029 137.861 448.287 127.275 441.517 122.672L265.35 2.87799C259.707 -0.959006 252.293 -0.959006 246.65 2.87799Z" fill="#FFE17D"/>
<path d="M214.429 187.746H197.801C193.205 187.746 189.487 184.027 189.487 179.432C189.487 174.836 193.206 171.118 197.801 171.118H214.429C219.025 171.118 222.743 174.837 222.743 179.432C222.743 184.028 219.025 187.746 214.429 187.746Z" fill="#5A4650"/>
<path d="M314.199 187.746H297.571C292.975 187.746 289.257 184.027 289.257 179.432C289.257 174.836 292.976 171.118 297.571 171.118H314.199C318.795 171.118 322.513 174.837 322.513 179.432C322.514 184.028 318.795 187.746 314.199 187.746Z" fill="#5A4650"/>
<path d="M182.818 122.288L261.23 0.90598C256.394 -0.70202 251.003 -0.0830202 246.649 2.87798L70.4821 122.671C63.7121 127.275 66.9701 137.861 75.1571 137.861H184.923C181.237 137.861 179.769 127.008 182.818 122.288Z" fill="#FFD164"/>
<path d="M142.731 173.877L131.287 175.324V137.861H164.544V149.131C164.544 161.696 155.197 172.3 142.731 173.877Z" fill="#5A4650"/>
<path d="M369.269 173.877L380.713 175.324V137.861H347.456V149.131C347.456 161.696 356.803 172.3 369.269 173.877Z" fill="#5A4650"/>
<path d="M272.628 262.574H239.371C230.187 262.574 222.743 255.129 222.743 245.946V237.632H289.257V245.946C289.257 255.129 281.812 262.574 272.628 262.574Z" fill="#E3AA75"/>
<path d="M289.257 229.317H222.743C208.968 229.317 197.8 240.484 197.8 254.26V270.888C197.8 275.479 201.522 279.202 206.114 279.202C210.74 279.202 214.483 275.424 214.428 270.786C214.405 268.872 214.401 265.65 214.405 262.556C214.41 257.969 218.132 254.259 222.719 254.259H231.057C236.569 254.259 241.624 252.438 245.733 249.394C248.714 247.186 252.289 245.945 255.999 245.945C259.709 245.945 263.284 247.185 266.265 249.394C270.374 252.438 275.43 254.259 280.941 254.259H289.279C293.866 254.259 297.588 257.969 297.593 262.556C297.597 265.65 297.593 268.872 297.57 270.786C297.514 275.424 301.257 279.202 305.884 279.202C310.476 279.202 314.198 275.479 314.198 270.888V254.26C314.199 240.484 303.032 229.317 289.257 229.317Z" fill="#5A4650"/>
<path d="M256 287.517C251.035 287.517 246.627 290.694 245.057 295.405L241.467 306.176C240.094 310.294 239.82 314.699 240.671 318.955L246.056 345.878C247.004 350.618 251.166 354.031 256.001 354.031C260.835 354.031 264.998 350.619 265.946 345.878L271.331 318.955C272.182 314.699 271.908 310.294 270.535 306.176L266.945 295.405C265.373 290.694 260.965 287.517 256 287.517Z" fill="#5A4650"/>
<path d="M367.741 361.464L335.848 352.084C325.864 386.803 293.93 412.23 255.999 412.23C218.068 412.23 186.135 386.803 176.15 352.084L144.257 361.464C156.296 403.075 190.879 435.074 233.941 443.343C241.859 444.863 247.684 451.596 247.684 459.659V512H264.312V459.659C264.312 451.596 270.137 444.863 278.055 443.343C321.119 435.073 355.703 403.074 367.741 361.464Z" fill="#8CB4EB"/>
</g>
<defs>
<clipPath id="clip0">
<rect width="512.001" height="512.001" fill="white"/>
</clipPath>
</defs>
</svg>
