<svg width="512" height="512" viewBox="0 0 512 512" fill="none" xmlns="http://www.w3.org/2000/svg">
<path d="M256.001 0C199.784 0 152.794 35.256 140.388 82.581H371.614C359.208 35.256 312.218 0 256.001 0Z" fill="#DC4655"/>
<path d="M406.402 320.662C394.777 303.006 395.66 291.84 395.206 272.109C394.345 234.59 378.414 232.935 373.678 206.452H138.325C133.589 232.935 117.657 234.591 116.796 272.109C116.343 291.84 117.226 303.007 105.601 320.662C88.073 347.282 100.827 368.516 100.827 368.516H411.178C411.176 368.516 423.93 347.282 406.402 320.662Z" fill="#8C5F4B"/>
<path d="M418.627 369.41L289.033 330.323H222.968L93.3759 369.41C72.2889 375.612 57.8079 394.965 57.8079 416.945V487.226C57.8079 500.908 68.8999 512 82.5819 512H429.421C443.103 512 454.195 500.908 454.195 487.226V416.945C454.195 394.965 439.715 375.612 418.627 369.41Z" fill="#A5CDFF"/>
<path d="M256.001 429.419C304.99 429.419 346.33 396.399 359.16 351.473L289.033 330.322H222.968L152.841 351.473C165.673 396.399 207.013 429.419 256.001 429.419Z" fill="#8CB4EB"/>
<path d="M132.131 512H173.421V345.267L132.131 357.721V512Z" fill="#E6646E"/>
<path d="M379.872 512H338.582V345.267L379.872 357.721V512Z" fill="#E6646E"/>
<path d="M367.485 173.419H363.356V115.613H148.646V173.419H144.517C133.115 173.419 123.872 182.662 123.872 194.064C123.872 205.466 133.115 214.709 144.517 214.709H149.063C153.293 270.128 199.498 313.806 256 313.806C312.502 313.806 358.708 270.128 362.937 214.709H367.483C378.885 214.709 388.128 205.466 388.128 194.064C388.13 182.662 378.887 173.419 367.485 173.419Z" fill="#F5B97D"/>
<path d="M363.356 115.613H148.646V173.419H145.695C134.896 173.419 125.055 181.189 123.979 191.934C122.741 204.292 132.413 214.709 144.517 214.709H149.063C151.13 241.787 163.264 266.015 181.678 283.761V189.934C181.678 167.13 200.164 148.644 222.968 148.644H363.355V115.613H363.356Z" fill="#E3AA75"/>
<path d="M206.453 198.194C201.888 198.194 198.195 194.496 198.195 189.936V181.678C198.195 177.118 201.889 173.42 206.453 173.42C211.017 173.42 214.711 177.118 214.711 181.678V189.936C214.712 194.496 211.018 198.194 206.453 198.194Z" fill="#5A4650"/>
<path d="M305.549 198.194C300.984 198.194 297.291 194.496 297.291 189.936V181.678C297.291 177.118 300.985 173.42 305.549 173.42C310.113 173.42 313.807 177.118 313.807 181.678V189.936C313.807 194.496 310.114 198.194 305.549 198.194Z" fill="#5A4650"/>
<path d="M198.188 169.637C194.551 169.637 191.22 167.214 190.228 163.532C189.034 159.129 191.639 154.597 196.034 153.403L212.55 148.931C216.953 147.762 221.494 150.342 222.679 154.746C223.873 159.149 221.268 163.681 216.873 164.875L200.357 169.347C199.631 169.54 198.905 169.637 198.188 169.637Z" fill="#A06E50"/>
<path d="M313.816 169.637C313.098 169.637 312.372 169.54 311.647 169.347L295.131 164.875C290.736 163.681 288.131 159.149 289.325 154.746C290.51 150.339 295.027 147.742 299.454 148.931L315.97 153.403C320.365 154.597 322.97 159.129 321.776 163.532C320.784 167.214 317.453 169.637 313.816 169.637Z" fill="#A06E50"/>
<path d="M150.672 175.21L132.131 177.5V132.129H165.163V158.818C165.162 167.157 158.948 174.187 150.672 175.21Z" fill="#A06E50"/>
<path d="M361.331 175.21L379.872 177.5V132.129H346.84V158.818C346.84 167.157 353.055 174.187 361.331 175.21Z" fill="#A06E50"/>
<path d="M359.16 351.474L338.581 345.267V390.412C347.919 379.125 355.032 365.93 359.16 351.474Z" fill="#DC4655"/>
<path d="M173.421 390.412V345.267L152.842 351.474C156.97 365.93 164.084 379.125 173.421 390.412Z" fill="#DC4655"/>
<path d="M322.066 222.968H189.938C176.256 222.968 165.164 234.06 165.164 247.742V322.065C165.164 372.234 205.834 412.904 256.003 412.904C306.172 412.904 346.842 372.234 346.842 322.065V247.742C346.84 234.06 335.748 222.968 322.066 222.968Z" fill="#A06E50"/>
<path d="M256.001 272.516C243.614 272.516 232.178 268.54 225.428 261.879C222.178 258.677 222.146 253.448 225.347 250.202C228.549 246.952 233.791 246.92 237.024 250.121C239.774 252.835 246.395 256 256 256C265.605 256 272.226 252.835 274.976 250.121C278.21 246.919 283.452 246.952 286.653 250.202C289.855 253.448 289.822 258.678 286.572 261.879C279.824 268.54 268.388 272.516 256.001 272.516Z" fill="#F5B97D"/>
<path d="M297.291 396.387C247.122 396.387 206.452 355.717 206.452 305.548V222.967H189.936C176.254 222.967 165.162 234.059 165.162 247.741V322.064C165.162 372.233 205.832 412.903 256.001 412.903C275.947 412.903 294.332 406.398 309.316 395.5C305.372 396.024 301.379 396.387 297.291 396.387Z" fill="#8C5F4B"/>
<path d="M379.872 132.129H132.131C127.57 132.129 123.873 128.432 123.873 123.871V90.8391C123.873 86.2781 127.57 82.5811 132.131 82.5811H379.873C384.434 82.5811 388.131 86.2781 388.131 90.8391V123.871C388.13 128.432 384.433 132.129 379.872 132.129Z" fill="#E6646E"/>
<path d="M251.481 0.0760343C251.36 0.115034 251.243 0.152034 251.123 0.191034C240.631 7.21103 231.433 16.185 224 26.632C212.242 43.157 223.745 66.065 244.026 66.065H365.649C347.191 26.113 302.861 -1.64497 251.481 0.0760343Z" fill="#E6646E"/>
<path d="M132.131 437.677V512H107.357V462.452C107.357 448.769 118.449 437.677 132.131 437.677Z" fill="#8CB4EB"/>
<path d="M132.131 512H148.647V454.194C148.647 445.072 141.252 437.678 132.131 437.678V512Z" fill="#DC4655"/>
<path d="M379.872 437.677V512H404.646V462.452C404.646 448.769 393.554 437.677 379.872 437.677Z" fill="#8CB4EB"/>
<path d="M379.872 512H363.356V454.194C363.356 445.072 370.751 437.678 379.872 437.678V512Z" fill="#DC4655"/>
</svg>
