<svg width="513" height="512" viewBox="0 0 513 512" fill="none" xmlns="http://www.w3.org/2000/svg">
<g clip-path="url(#clip0)">
<path d="M361.653 243.809L150.351 243.81C150.351 306.388 117.843 342.146 134.097 422.604H377.907C394.161 342.146 361.653 306.387 361.653 243.809Z" fill="#B67F5F"/>
<path d="M256.002 243.809L150.351 243.81C150.351 306.388 117.843 342.146 134.097 422.604H256.002V243.809Z" fill="#A06E50"/>
<path d="M410.39 427.375L326.453 397.75C313.456 393.163 304.764 380.878 304.764 367.095V316.952H207.24V367.095C207.24 380.878 198.548 393.162 185.552 397.749L101.614 427.374C82.1191 434.255 69.0811 452.682 69.0811 473.356V487.618C69.0811 501.084 79.9971 512 93.4621 512H418.542C432.007 512 442.923 501.084 442.923 487.619V473.357C442.923 452.683 429.885 434.256 410.39 427.375Z" fill="#F7D291"/>
<path d="M410.39 427.375L328.624 398.516C324.442 434.939 293.546 463.238 256.002 463.238C218.458 463.238 187.563 434.939 183.38 398.516L101.614 427.375C82.1181 434.255 69.0811 452.683 69.0811 473.357V487.619C69.0811 501.084 79.9971 512 93.4621 512H418.542C432.007 512 442.923 501.084 442.923 487.619V473.357C442.923 452.683 429.885 434.255 410.39 427.375Z" fill="#EDEBED"/>
<path d="M207.24 355.657C222.197 362.136 238.689 365.714 256.002 365.714C273.315 365.714 289.807 362.136 304.764 355.657V325.079H207.24V355.657Z" fill="#F0C382"/>
<path d="M256.002 349.46C197.653 349.46 150.351 302.159 150.351 243.809V130.032H361.653V243.81C361.653 302.159 314.351 349.46 256.002 349.46Z" fill="#FFE1A0"/>
<path d="M150.351 130.032V243.81C150.351 302.159 197.653 349.461 256.002 349.461C261.544 349.461 266.944 348.906 272.256 348.083C221.644 340.247 182.859 296.617 182.859 243.81V216.014C182.859 201.503 192.452 188.74 206.414 184.788C228.952 178.409 252.429 170.197 272.256 159.846V160.93C272.256 173.772 281.621 185.367 294.414 186.481C295.661 186.59 296.934 186.606 298.225 186.519C307.154 185.912 339.207 180.019 361.653 174.832V130.033L150.351 130.032Z" fill="#F7D291"/>
<path d="M304.756 365.714L304.764 365.717V365.453L304.756 365.714Z" fill="#FFD164"/>
<path d="M207.24 365.453V365.717L207.248 365.714L207.24 365.453Z" fill="#FFD164"/>
<path d="M256.002 300.817C243.804 300.817 232.558 296.904 225.915 290.349C222.717 287.19 222.685 282.047 225.836 278.857C229.003 275.659 234.146 275.627 237.328 278.778C240.034 281.445 246.542 284.564 256.003 284.564C265.463 284.564 271.971 281.445 274.678 278.778C277.861 275.627 283.003 275.659 286.17 278.857C289.321 282.047 289.289 287.19 286.091 290.349C279.446 296.905 268.2 300.817 256.002 300.817Z" fill="#E3AA75"/>
<path d="M207.24 243.81C202.748 243.81 199.113 240.175 199.113 235.683V227.556C199.113 223.064 202.748 219.429 207.24 219.429C211.732 219.429 215.367 223.064 215.367 227.556V235.683C215.367 240.175 211.732 243.81 207.24 243.81Z" fill="#6E5A64"/>
<path d="M304.764 243.81C300.272 243.81 296.637 240.175 296.637 235.683V227.556C296.637 223.064 300.272 219.429 304.764 219.429C309.256 219.429 312.891 223.064 312.891 227.556V235.683C312.891 240.175 309.256 243.81 304.764 243.81Z" fill="#6E5A64"/>
<path d="M312.891 211.302H296.637C292.145 211.302 288.51 207.667 288.51 203.175C288.51 198.683 292.145 195.048 296.637 195.048H312.891C317.383 195.048 321.018 198.683 321.018 203.175C321.018 207.667 317.383 211.302 312.891 211.302Z" fill="#B67F5F"/>
<path d="M215.367 211.302H199.113C194.621 211.302 190.986 207.667 190.986 203.175C190.986 198.683 194.621 195.048 199.113 195.048H215.367C219.859 195.048 223.494 198.683 223.494 203.175C223.494 207.667 219.859 211.302 215.367 211.302Z" fill="#B67F5F"/>
<path d="M199.113 292.571H134.097C116.168 292.571 101.589 277.992 101.589 260.063V154.413C101.589 69.27 170.859 0 256.002 0C341.145 0 410.415 69.27 410.415 154.413V219.429C410.415 223.921 406.78 227.556 402.288 227.556C397.796 227.556 394.161 223.921 394.161 219.429V154.413C394.161 78.23 332.185 16.254 256.002 16.254C179.819 16.254 117.843 78.23 117.843 154.413V260.064C117.843 269.024 125.137 276.318 134.097 276.318H199.113C203.605 276.318 207.24 279.953 207.24 284.445C207.24 288.936 203.605 292.571 199.113 292.571Z" fill="#5A4650"/>
<path d="M250.109 40.774C184.541 43.862 134.097 100.343 134.097 165.983V203.174H150.351V195.795C150.351 188.403 155.301 181.937 162.457 180.082C194.295 171.832 245.574 156.727 276.715 138.185C282.097 134.981 288.873 138.94 288.873 145.203V162.063C288.873 166.761 292.802 170.498 297.488 170.18C307.21 169.519 323.928 167.664 341.165 162.455C350.55 159.619 361.652 170.666 361.652 182.4V203.173H377.906V162.54C377.907 93.259 320.114 37.477 250.109 40.774Z" fill="#A06E50"/>
<path d="M250.109 40.774C231.959 41.629 215.039 46.692 199.956 54.791C202.789 79.002 213.167 118.667 248.58 152.068C258.869 147.718 268.503 143.075 276.716 138.185C282.097 134.981 288.874 138.94 288.874 145.203V162.063C288.874 166.76 292.803 170.498 297.49 170.18C307.212 169.519 323.93 167.664 341.167 162.455C350.552 159.619 361.654 170.666 361.654 182.4V203.173H377.908V162.54C377.907 93.259 320.114 37.477 250.109 40.774Z" fill="#B67F5F"/>
<path d="M142.589 511.881V502.167C142.589 490.516 137.581 479.413 128.851 471.699L87.545 435.233C83.248 438.65 79.637 442.775 76.729 447.376L118.089 483.89C123.327 488.509 126.335 495.176 126.335 502.168V511.882C126.335 511.924 126.358 511.959 126.359 512.001H142.565C142.566 511.958 142.589 511.923 142.589 511.881Z" fill="#DBD9DC"/>
<path d="M369.78 511.881V502.167C369.78 490.516 374.788 479.413 383.518 471.699L424.824 435.233C429.121 438.65 432.732 442.775 435.64 447.376L394.28 483.89C389.042 488.509 386.034 495.176 386.034 502.168V511.882C386.034 511.924 386.011 511.959 386.01 512.001H369.804C369.803 511.958 369.78 511.923 369.78 511.881Z" fill="#DBD9DC"/>
<path d="M167.797 404.016C174.498 446.759 211.378 479.492 256.002 479.492C300.626 479.492 337.506 446.759 344.208 404.016L328.624 398.516C324.442 434.939 293.546 463.238 256.002 463.238C218.458 463.238 187.563 434.939 183.38 398.516L167.797 404.016Z" fill="#DBD9DC"/>
<path d="M125.97 251.937H142.224C146.712 251.937 150.351 248.298 150.351 243.81V195.048C150.351 190.56 146.712 186.921 142.224 186.921H125.97C116.993 186.921 109.716 194.198 109.716 203.175V235.683C109.716 244.659 116.993 251.937 125.97 251.937Z" fill="#6E5A64"/>
<path d="M142.224 251.937H134.097V186.921H142.224C146.712 186.921 150.351 190.56 150.351 195.048V243.81C150.351 248.298 146.713 251.937 142.224 251.937Z" fill="#5A4650"/>
<path d="M386.034 251.937H369.78C365.292 251.937 361.653 248.298 361.653 243.81V195.048C361.653 190.56 365.292 186.921 369.78 186.921H386.034C395.011 186.921 402.288 194.198 402.288 203.175V235.683C402.288 244.659 395.011 251.937 386.034 251.937Z" fill="#6E5A64"/>
<path d="M369.78 251.937H377.907V186.921H369.78C365.292 186.921 361.653 190.56 361.653 195.048V243.81C361.653 248.298 365.291 251.937 369.78 251.937Z" fill="#5A4650"/>
<path d="M199.113 292.571H182.859V276.317H199.113C203.601 276.317 207.24 279.956 207.24 284.444C207.24 288.933 203.602 292.571 199.113 292.571Z" fill="#6E5A64"/>
</g>
<defs>
<clipPath id="clip0">
<rect width="512.001" height="512.001" fill="white" transform="translate(0.000976562)"/>
</clipPath>
</defs>
</svg>
