<svg width="513" height="512" viewBox="0 0 513 512" fill="none" xmlns="http://www.w3.org/2000/svg">
<path d="M418.628 377.668L331.592 352.069C321.048 348.968 313.808 339.291 313.808 328.301V289.032H198.196V328.301C198.196 339.291 190.956 348.968 180.412 352.069L93.3758 377.668C72.2888 383.87 57.8088 403.223 57.8088 425.203V487.226C57.8088 500.908 68.9008 512 82.5828 512H429.422C443.104 512 454.196 500.908 454.196 487.226V425.203C454.196 403.223 439.715 383.87 418.628 377.668Z" fill="#E3AA75"/>
<path d="M418.629 377.668L331.593 352.069C326.09 350.45 321.523 347.016 318.38 342.562L256.002 363.355L193.625 342.563C190.481 347.016 185.915 350.451 180.412 352.07L93.3758 377.669C72.2888 383.871 57.8088 403.224 57.8088 425.204V487.227C57.8088 500.909 68.9008 512.001 82.5828 512.001H429.422C443.104 512.001 454.196 500.909 454.196 487.227V425.204C454.196 403.223 439.715 383.87 418.629 377.668Z" fill="#6E5A64"/>
<path d="M147.534 361.739L199.249 406.066C205.232 411.195 212.863 414.019 220.736 414.019C230.832 414.019 240.238 409.5 246.54 401.621L256.002 389.794L265.464 401.621C271.767 409.5 281.172 414.019 291.268 414.019C299.14 414.019 306.772 411.195 312.754 406.067L364.469 361.739L331.591 352.069C326.088 350.45 321.521 347.016 318.378 342.562L256.002 363.355L193.625 342.563C190.481 347.016 185.915 350.451 180.412 352.07L147.534 361.739Z" fill="#5A4650"/>
<path d="M198.196 307.461C215.545 316.728 235.22 322.065 256.002 322.065C276.784 322.065 296.459 316.728 313.808 307.461V289.033H198.196V307.461Z" fill="#D29B6E"/>
<path d="M367.486 165.161H363.357V123.871H148.647V165.161H144.518C133.163 165.161 123.873 174.451 123.873 185.806C123.873 197.161 133.163 206.451 144.518 206.451H149.064C153.294 261.87 199.499 305.548 256.002 305.548C312.505 305.548 358.71 261.87 362.94 206.451H367.486C378.841 206.451 388.131 197.161 388.131 185.806C388.131 174.452 378.841 165.161 367.486 165.161Z" fill="#F5B97D"/>
<path d="M330.325 132.129V123.871H148.647V165.161H145.242C135.84 165.161 127.059 171.119 124.623 180.2C120.939 193.934 131.338 206.451 144.518 206.451H149.064C153.294 261.87 199.499 305.548 256.002 305.548C261.651 305.548 267.159 304.998 272.57 304.156C221.116 296.215 181.679 251.87 181.679 198.193V181.677C181.679 163.434 196.468 148.645 214.711 148.645H313.808C322.93 148.645 330.325 141.251 330.325 132.129Z" fill="#E3AA75"/>
<path d="M256.002 231.226C212.035 231.226 173.194 221.793 149.175 207.341C153.834 262.331 199.806 305.549 256.002 305.549C312.198 305.549 358.17 262.332 362.829 207.341C338.81 221.792 299.969 231.226 256.002 231.226Z" fill="#B7B2B8"/>
<path d="M165.162 123.87H132.132V165.16H165.162V123.87Z" fill="#B7B2B8"/>
<path d="M379.872 123.87H346.842V165.16H379.872V123.87Z" fill="#B7B2B8"/>
<path d="M256.002 363.355L189.219 326.253C185.109 323.97 179.925 325.574 177.822 329.779L166.893 351.637C165.876 353.671 166.374 356.135 168.1 357.615L209.997 393.527C217.089 399.606 227.807 398.599 233.642 391.305L256.002 363.355Z" fill="#6E5A64"/>
<path d="M256.002 363.355L322.785 326.253C326.895 323.97 332.079 325.574 334.182 329.779L345.111 351.637C346.128 353.671 345.63 356.135 343.904 357.615L302.007 393.527C294.915 399.606 284.197 398.599 278.362 391.305L256.002 363.355Z" fill="#6E5A64"/>
<path d="M210.583 181.677C206.018 181.677 202.325 177.983 202.325 173.419V165.161C202.325 160.596 206.019 156.903 210.583 156.903C215.147 156.903 218.841 160.597 218.841 165.161V173.419C218.841 177.984 215.147 181.677 210.583 181.677Z" fill="#5A4650"/>
<path d="M301.421 181.677C296.856 181.677 293.163 177.983 293.163 173.419V165.161C293.163 160.596 296.857 156.903 301.421 156.903C305.985 156.903 309.679 160.597 309.679 165.161V173.419C309.679 177.984 305.986 181.677 301.421 181.677Z" fill="#5A4650"/>
<path d="M272.518 189.935C267.953 189.935 264.26 186.241 264.26 181.677C264.26 177.121 260.558 173.419 256.002 173.419C251.446 173.419 247.744 177.121 247.744 181.677C247.744 186.242 244.05 189.935 239.486 189.935C234.922 189.935 231.228 186.241 231.228 181.677C231.228 168.016 242.341 156.903 256.002 156.903C269.663 156.903 280.776 168.016 280.776 181.677C280.776 186.242 277.083 189.935 272.518 189.935Z" fill="#5A4650"/>
<path d="M356.649 36.781C350.865 15.092 331.222 0 308.774 0H203.23C180.782 0 161.139 15.092 155.354 36.781L132.13 123.871H379.872L356.649 36.781Z" fill="#B67F5F"/>
<path d="M264.26 280.774H247.744C243.179 280.774 239.486 277.08 239.486 272.516C239.486 267.951 243.18 264.258 247.744 264.258H264.26C268.825 264.258 272.518 267.952 272.518 272.516C272.518 277.081 268.825 280.774 264.26 280.774Z" fill="#9C969E"/>
<path d="M181.679 173.419H140.389C135.824 173.419 132.131 169.725 132.131 165.161C132.131 160.597 135.825 156.903 140.389 156.903H181.679C186.244 156.903 189.937 160.597 189.937 165.161C189.937 169.725 186.244 173.419 181.679 173.419Z" fill="#5A4650"/>
<path d="M371.615 173.419H330.325C325.76 173.419 322.067 169.725 322.067 165.161C322.067 160.597 325.761 156.903 330.325 156.903H371.615C376.18 156.903 379.873 160.597 379.873 165.161C379.873 169.725 376.179 173.419 371.615 173.419Z" fill="#5A4650"/>
<path d="M222.97 206.452H198.196C184.535 206.452 173.422 195.339 173.422 181.678V156.904C173.422 152.339 177.116 148.646 181.68 148.646H239.486C244.051 148.646 247.744 152.34 247.744 156.904V181.678C247.744 195.339 236.631 206.452 222.97 206.452ZM189.937 165.161V181.677C189.937 186.233 193.639 189.935 198.195 189.935H222.969C227.525 189.935 231.227 186.233 231.227 181.677V165.161H189.937Z" fill="#6E5A64"/>
<path d="M313.808 206.452H289.034C275.373 206.452 264.26 195.339 264.26 181.678V156.904C264.26 152.339 267.954 148.646 272.518 148.646H330.324C334.889 148.646 338.582 152.34 338.582 156.904V181.678C338.583 195.339 327.47 206.452 313.808 206.452ZM280.776 165.161V181.677C280.776 186.233 284.478 189.935 289.034 189.935H313.808C318.364 189.935 322.066 186.233 322.066 181.677V165.161H280.776Z" fill="#6E5A64"/>
<path d="M184.542 221.932C170.824 218.041 158.776 213.117 149.175 207.341C153.834 262.331 199.806 305.549 256.002 305.549C261.635 305.549 267.128 305.002 272.524 304.165C228.949 297.415 194.166 264.501 184.542 221.932Z" fill="#AEA8AF"/>
<path d="M272.518 256H239.486C230.364 256 222.97 248.605 222.97 239.484V231.226H289.035V239.484C289.034 248.605 281.64 256 272.518 256Z" fill="#AEA8AF"/>
<path d="M280.776 222.968H231.228C219.6 222.968 209.843 230.979 207.175 241.783C206.423 244.827 208.927 247.742 212.063 247.742H231.228C236.781 247.742 241.867 245.881 245.98 242.779C248.809 240.645 252.241 239.484 255.785 239.484H256.22C259.764 239.484 263.196 240.645 266.025 242.779C270.137 245.881 275.224 247.742 280.777 247.742H299.942C303.077 247.742 305.581 244.827 304.83 241.783C302.161 230.979 292.404 222.968 280.776 222.968Z" fill="#C9C6CA"/>
<path d="M236.263 0H203.231C180.783 0 161.14 15.092 155.355 36.781L132.131 123.871H165.163L188.387 36.781C194.171 15.092 213.815 0 236.263 0Z" fill="#A06E50"/>
<path d="M412.905 132.129H99.0991C94.5341 132.129 90.8411 128.435 90.8411 123.871C90.8411 119.306 94.5351 115.613 99.0991 115.613H412.905C417.47 115.613 421.163 119.307 421.163 123.871C421.163 128.435 417.47 132.129 412.905 132.129Z" fill="#A06E50"/>
<path d="M252.687 12.508L256.252 26.774C257.187 30.532 260.55 33.032 264.252 33.032C264.913 33.032 265.591 32.951 266.26 32.782C270.687 31.677 273.381 27.193 272.268 22.774L268.703 8.508C267.938 5.442 266.677 2.628 265.157 0H236.655C244.252 0 250.841 5.145 252.687 12.508Z" fill="#A06E50"/>
<path d="M134.333 115.613H377.671L371.065 90.8391H140.94L134.333 115.613Z" fill="#6E5A64"/>
<path d="M134.333 115.613H167.365L173.972 90.8391H140.94L134.333 115.613Z" fill="#5A4650"/>
<path d="M132.131 512H165.163V356.554L132.131 366.269V512Z" fill="#B67F5F"/>
<path d="M379.873 512H346.841V356.554L379.873 366.269V512Z" fill="#B67F5F"/>
<path d="M346.841 376.85L364.47 361.739L353.447 358.497L346.841 356.554V376.85Z" fill="#A06E50"/>
<path d="M165.163 356.554L158.557 358.497L147.534 361.739L165.163 376.85V356.554Z" fill="#A06E50"/>
<path d="M132.131 437.677V512H107.357V462.452C107.357 448.769 118.449 437.677 132.131 437.677Z" fill="#5A4650"/>
<path d="M132.131 512H148.647V454.194C148.647 445.072 141.252 437.678 132.131 437.678V512Z" fill="#A06E50"/>
<path d="M379.873 437.677V512H404.647V462.452C404.647 448.769 393.555 437.677 379.873 437.677Z" fill="#5A4650"/>
<path d="M379.873 512H363.357V454.194C363.357 445.072 370.752 437.678 379.873 437.678V512Z" fill="#A06E50"/>
<path d="M256.002 437.678C260.563 437.678 264.26 433.981 264.26 429.42C264.26 424.859 260.563 421.162 256.002 421.162C251.441 421.162 247.744 424.859 247.744 429.42C247.744 433.981 251.441 437.678 256.002 437.678Z" fill="#AEA8AF"/>
<path d="M256.002 487.228C260.563 487.228 264.26 483.531 264.26 478.97C264.26 474.409 260.563 470.712 256.002 470.712C251.441 470.712 247.744 474.409 247.744 478.97C247.744 483.531 251.441 487.228 256.002 487.228Z" fill="#AEA8AF"/>
</svg>
