<svg width="513" height="512" viewBox="0 0 513 512" fill="none" xmlns="http://www.w3.org/2000/svg">
<path d="M418.63 377.668L331.594 352.069C326.091 350.45 321.524 347.016 318.381 342.562H193.626C190.482 347.015 185.916 350.45 180.413 352.069L93.3771 377.668C72.2901 383.87 57.8101 403.223 57.8101 425.203V487.226C57.8101 500.908 68.9021 512 82.5841 512H429.423C443.105 512 454.197 500.908 454.197 487.226V425.203C454.197 403.223 439.716 383.87 418.63 377.668Z" fill="#A06E50"/>
<path d="M256.003 371.613C284.739 371.613 311.949 365.082 336.238 353.435L331.593 352.069C326.09 350.45 321.523 347.016 318.38 342.562H193.626C190.482 347.015 185.916 350.45 180.413 352.069L175.768 353.435C200.057 365.082 227.267 371.613 256.003 371.613Z" fill="#8C5F4B"/>
<path d="M379.873 99.096C407.237 99.096 429.421 76.9126 429.421 49.548C429.421 22.1834 407.237 0 379.873 0C352.508 0 330.325 22.1834 330.325 49.548C330.325 76.9126 352.508 99.096 379.873 99.096Z" fill="#B67F5F"/>
<path d="M379.873 74.322C393.555 74.322 404.647 63.2304 404.647 49.548C404.647 35.8657 393.555 24.774 379.873 24.774C366.191 24.774 355.099 35.8657 355.099 49.548C355.099 63.2304 366.191 74.322 379.873 74.322Z" fill="#6E5A64"/>
<path d="M412.935 86.379C404.161 94.261 392.596 99.097 379.874 99.097C352.509 99.097 330.326 76.914 330.326 49.549C330.326 38.515 333.977 28.359 340.076 20.125C369.911 35.294 395.087 58.268 412.935 86.379Z" fill="#A06E50"/>
<path d="M398.116 66.189C393.585 71.154 387.124 74.323 379.874 74.323C366.192 74.323 355.1 63.231 355.1 49.549C355.1 43.142 357.596 37.36 361.588 32.962C375.194 42.378 387.48 53.565 398.116 66.189Z" fill="#5A4650"/>
<path d="M132.133 99.096C159.498 99.096 181.681 76.9126 181.681 49.548C181.681 22.1834 159.498 0 132.133 0C104.768 0 82.585 22.1834 82.585 49.548C82.585 76.9126 104.768 99.096 132.133 99.096Z" fill="#B67F5F"/>
<path d="M132.133 74.322C145.815 74.322 156.907 63.2304 156.907 49.548C156.907 35.8657 145.815 24.774 132.133 24.774C118.451 24.774 107.359 35.8657 107.359 49.548C107.359 63.2304 118.451 74.322 132.133 74.322Z" fill="#6E5A64"/>
<path d="M99.0708 86.379C107.845 94.261 119.41 99.097 132.132 99.097C159.497 99.097 181.68 76.914 181.68 49.549C181.68 38.515 178.029 28.359 171.931 20.125C142.095 35.294 116.919 58.268 99.0708 86.379Z" fill="#A06E50"/>
<path d="M113.89 66.189C118.421 71.154 124.882 74.323 132.132 74.323C145.814 74.323 156.906 63.231 156.906 49.549C156.906 43.142 154.41 37.36 150.418 32.962C136.811 42.378 124.526 53.565 113.89 66.189Z" fill="#5A4650"/>
<path d="M256.003 355.1C349.499 355.1 425.293 279.306 425.293 185.81C425.293 92.3137 349.499 16.52 256.003 16.52C162.507 16.52 86.7129 92.3137 86.7129 185.81C86.7129 279.306 162.507 355.1 256.003 355.1Z" fill="#B67F5F"/>
<path d="M256.003 305.55C315.296 305.55 363.363 257.483 363.363 198.19C363.363 138.897 315.296 90.8301 256.003 90.8301C196.71 90.8301 148.643 138.897 148.643 198.19C148.643 257.483 196.71 305.55 256.003 305.55Z" fill="#F5B97D"/>
<path d="M181.68 198.194C181.68 144.535 221.091 100.202 272.519 92.2391C267.121 91.4031 261.634 90.8391 256.003 90.8391C196.713 90.8391 148.648 138.904 148.648 198.194C148.648 257.484 196.713 305.548 256.003 305.548C261.635 305.548 267.121 304.984 272.519 304.148C221.091 296.186 181.68 251.852 181.68 198.194Z" fill="#E3AA75"/>
<path d="M206.455 198.194C201.89 198.194 198.197 194.5 198.197 189.936V181.678C198.197 177.113 201.891 173.42 206.455 173.42C211.019 173.42 214.713 177.114 214.713 181.678V189.936C214.713 194.5 211.019 198.194 206.455 198.194Z" fill="#5A4650"/>
<path d="M305.551 198.194C300.986 198.194 297.293 194.5 297.293 189.936V181.678C297.293 177.113 300.987 173.42 305.551 173.42C310.116 173.42 313.809 177.114 313.809 181.678V189.936C313.809 194.5 310.116 198.194 305.551 198.194Z" fill="#5A4650"/>
<path d="M214.712 165.161H198.196C193.631 165.161 189.938 161.467 189.938 156.903C189.938 152.339 193.632 148.645 198.196 148.645H214.712C219.277 148.645 222.97 152.339 222.97 156.903C222.97 161.467 219.276 165.161 214.712 165.161Z" fill="#6E5A64"/>
<path d="M313.809 165.161H297.293C292.728 165.161 289.035 161.467 289.035 156.903C289.035 152.339 292.729 148.645 297.293 148.645H313.809C318.374 148.645 322.067 152.339 322.067 156.903C322.067 161.467 318.374 165.161 313.809 165.161Z" fill="#6E5A64"/>
<path d="M190.019 74.323H189.938C185.373 74.323 181.68 70.629 181.68 66.065C181.68 61.5 185.374 57.807 189.938 57.807C194.502 57.807 198.236 61.501 198.236 66.065C198.237 70.629 194.584 74.323 190.019 74.323Z" fill="#6E5A64"/>
<path d="M322.148 74.323H322.067C317.502 74.323 313.809 70.629 313.809 66.065C313.809 61.5 317.503 57.807 322.067 57.807C326.631 57.807 330.365 61.501 330.365 66.065C330.366 70.629 326.713 74.323 322.148 74.323Z" fill="#6E5A64"/>
<path d="M224.358 227.067C221.238 227.067 218.815 229.938 219.438 232.995C222.58 248.409 237.755 260.099 256.002 260.099C274.249 260.099 289.424 248.409 292.567 232.995C293.19 229.938 290.767 227.067 287.647 227.067H224.358Z" fill="white"/>
<path d="M278.713 332.387C185.217 332.387 109.423 256.593 109.423 163.097C109.423 122.132 123.979 84.57 148.194 55.288C110.644 86.339 86.7129 133.275 86.7129 185.806C86.7129 279.302 162.507 355.096 256.003 355.096C308.534 355.096 355.471 331.165 386.522 293.615C357.24 317.831 319.677 332.387 278.713 332.387Z" fill="#A06E50"/>
<path d="M123.874 454.194C119.313 454.194 115.616 457.891 115.616 462.452V512H132.132V462.452C132.132 457.891 128.435 454.194 123.874 454.194Z" fill="#8C5F4B"/>
<path d="M388.132 454.194C383.571 454.194 379.874 457.891 379.874 462.452V512H396.39V462.452C396.39 457.891 392.693 454.194 388.132 454.194Z" fill="#8C5F4B"/>
<path d="M256.003 429.419C206.913 429.419 166.27 465.149 158.392 512H353.614C345.736 465.15 305.093 429.419 256.003 429.419Z" fill="#E3AA75"/>
<path d="M272.519 115.613H239.487C225.805 115.613 214.713 104.521 214.713 90.8389C214.713 77.1569 225.805 66.0649 239.487 66.0649H272.519C286.201 66.0649 297.293 77.1569 297.293 90.8389C297.293 104.521 286.202 115.613 272.519 115.613Z" fill="#A06E50"/>
<path d="M256.003 82.5759C265.124 82.5759 272.519 75.1815 272.519 66.0599C272.519 56.9384 265.124 49.5439 256.003 49.5439C246.881 49.5439 239.487 56.9384 239.487 66.0599C239.487 75.1815 246.881 82.5759 256.003 82.5759Z" fill="#5A4650"/>
</svg>
