<svg width="513" height="512" viewBox="0 0 513 512" fill="none" xmlns="http://www.w3.org/2000/svg">
<path d="M418.629 391.742L331.593 366.143C321.049 363.042 313.809 353.365 313.809 342.375V280.774H198.197V342.375C198.197 353.365 190.957 363.042 180.413 366.143L93.3771 391.742C72.2901 397.944 57.8101 417.297 57.8101 439.277V487.226C57.8101 500.908 68.9021 512 82.5841 512H429.423C443.105 512 454.197 500.908 454.197 487.226V439.277C454.197 417.297 439.716 397.944 418.629 391.742Z" fill="#6E5A64"/>
<path d="M264.259 437.68H247.743V512H264.259V437.68Z" fill="#84737B"/>
<path d="M346.842 295.226H165.164C137.799 295.226 115.616 317.409 115.616 344.774C115.616 399.503 159.983 443.871 214.713 443.871H297.294C352.024 443.871 396.391 399.504 396.391 344.774C396.39 317.409 374.207 295.226 346.842 295.226Z" fill="#84737B"/>
<path d="M344.644 320C362.619 320 369.678 343.313 354.722 353.284L269.745 409.935C261.423 415.483 250.582 415.483 242.261 409.935L157.284 353.284C142.328 343.313 149.386 320 167.362 320H344.644Z" fill="#6E5A64"/>
<path d="M178.141 367.189L242.26 409.935C250.582 415.483 261.423 415.483 269.745 409.935L333.864 367.189L331.592 366.521C321.049 363.42 313.808 353.743 313.808 342.753V289.032H198.197V342.753C198.197 353.743 190.957 363.419 180.413 366.521L178.141 367.189Z" fill="#F7D291"/>
<path d="M198.197 315.719C215.546 324.986 235.221 330.323 256.003 330.323C276.785 330.323 296.46 324.986 313.809 315.719V289.033H198.197V315.719Z" fill="#F0C382"/>
<path d="M367.487 173.419H363.358V148.645H148.648V173.419H144.519C133.164 173.419 123.874 182.709 123.874 194.064C123.874 205.419 133.164 214.709 144.519 214.709H149.065C153.295 270.128 199.5 313.806 256.003 313.806C312.506 313.806 358.711 270.128 362.941 214.709H367.487C378.842 214.709 388.132 205.419 388.132 194.064C388.132 182.709 378.842 173.419 367.487 173.419Z" fill="#FFE1A0"/>
<path d="M181.68 206.452V148.646H148.648V173.42H144.519C133.164 173.42 123.874 182.71 123.874 194.065C123.874 205.42 133.164 214.71 144.519 214.71H149.065C153.295 270.129 199.5 313.807 256.003 313.807C261.652 313.807 267.16 313.257 272.571 312.415C221.117 304.474 181.68 260.129 181.68 206.452Z" fill="#F7D291"/>
<path d="M272.519 256H239.487C234.922 256 231.229 252.306 231.229 247.742C231.229 243.177 234.923 239.484 239.487 239.484H272.519C277.084 239.484 280.777 243.178 280.777 247.742C280.777 252.306 277.084 256 272.519 256Z" fill="#E3AA75"/>
<path d="M256.003 0C193.205 0 141.452 46.771 133.359 107.355H378.646C370.554 46.771 318.801 0 256.003 0Z" fill="#6E5A64"/>
<path d="M256.003 462.456C265.125 462.456 272.519 455.062 272.519 445.94C272.519 436.819 265.125 429.424 256.003 429.424C246.882 429.424 239.487 436.819 239.487 445.94C239.487 455.062 246.882 462.456 256.003 462.456Z" fill="#5A4650"/>
<path d="M117.785 444.266L71.9302 404.765C68.0392 408.762 64.8932 413.397 62.5352 418.47L107.011 456.782C112.479 461.492 115.616 468.338 115.616 475.556V512H132.132V475.556C132.132 463.524 126.906 452.121 117.785 444.266Z" fill="#5A4650"/>
<path d="M394.22 444.266L440.075 404.765C443.966 408.762 447.112 413.397 449.47 418.47L404.994 456.782C399.526 461.492 396.389 468.338 396.389 475.556V512H379.873V475.556C379.874 463.524 385.099 452.121 394.22 444.266Z" fill="#5A4650"/>
<path d="M379.874 148.645H132.132C127.571 148.645 123.874 144.948 123.874 140.387V115.613C123.874 111.052 127.571 107.355 132.132 107.355H379.874C384.435 107.355 388.132 111.052 388.132 115.613V140.387C388.132 144.948 384.435 148.645 379.874 148.645Z" fill="#84737B"/>
<path d="M165.85 107.355H182.393C186.162 60.584 205.633 22.053 231.673 6.954C220.719 32.789 216.167 74.919 215.026 107.355H231.504C233.693 37.52 249.32 0 256.003 0C235.902 0 216.961 4.837 200.193 13.34C181.569 35.849 168.757 69.255 165.85 107.355Z" fill="#5A4650"/>
<path d="M311.813 13.34C295.045 4.837 276.104 0 256.003 0C262.686 0 278.313 37.52 280.501 107.355H296.979C295.838 74.92 291.286 32.789 280.332 6.954C306.372 22.053 325.844 60.584 329.612 107.355H346.155C343.249 69.255 330.437 35.849 311.813 13.34Z" fill="#5A4650"/>
<path d="M173.422 140.387V115.613C173.422 111.052 177.12 107.355 181.68 107.355H132.132C127.571 107.355 123.874 111.052 123.874 115.613V140.387C123.874 144.947 127.571 148.645 132.132 148.645H181.68C177.12 148.645 173.422 144.948 173.422 140.387Z" fill="#6E5A64"/>
<path d="M379.874 164.766C379.874 170.186 377.215 175.261 372.759 178.345L320.057 214.831C303.56 226.252 282.105 218.609 274.956 201.982C271.75 194.525 264.141 189.933 256.024 189.93H255.992C247.869 189.927 240.256 194.523 237.044 201.984C229.889 218.606 208.441 226.249 191.948 214.831L139.246 178.345C134.79 175.26 132.131 170.185 132.131 164.766V148.646H379.873V164.766H379.874Z" fill="#6E5A64"/>
<path d="M206.455 198.194C201.89 198.194 198.197 194.5 198.197 189.936V181.678C198.197 177.113 201.891 173.42 206.455 173.42C211.019 173.42 214.713 177.114 214.713 181.678V189.936C214.713 194.5 211.019 198.194 206.455 198.194Z" fill="#FFE1A0"/>
<path d="M305.551 198.194C300.986 198.194 297.293 194.5 297.293 189.936V181.678C297.293 177.113 300.987 173.42 305.551 173.42C310.116 173.42 313.809 177.114 313.809 181.678V189.936C313.809 194.5 310.116 198.194 305.551 198.194Z" fill="#FFE1A0"/>
<path d="M132.18 165.161H379.825C379.829 165.026 379.873 164.9 379.873 164.765V148.645H132.132V164.765C132.132 164.901 132.177 165.027 132.18 165.161Z" fill="#5A4650"/>
</svg>
