<svg width="513" height="512" viewBox="0 0 513 512" fill="none" xmlns="http://www.w3.org/2000/svg">
<path d="M413.091 384.548L327.685 354.405C314.46 349.737 305.617 337.238 305.617 323.214V280.463H206.387V323.214C206.387 337.238 197.543 349.737 184.319 354.405L98.913 384.548C79.076 391.549 65.811 410.298 65.811 431.334V487.192C65.811 500.893 76.918 512 90.619 512H421.387C435.088 512 446.195 500.893 446.195 487.192V431.334C446.193 410.299 432.928 391.549 413.091 384.548Z" fill="#E3AA75"/>
<path d="M256.002 445.846C251.278 445.846 247.293 449.364 246.707 454.051L239.464 512H272.541L265.297 454.052C264.711 449.364 260.726 445.846 256.002 445.846Z" fill="#D29B6E"/>
<path d="M206.387 303.688C221.702 310.021 238.455 313.539 256.002 313.539C273.549 313.539 290.302 310.021 305.617 303.688V280.462H206.387V303.688Z" fill="#D29B6E"/>
<path d="M141.798 172.963L142.7 189.658C145.954 249.857 195.715 297.001 256.002 297.001C316.289 297.001 366.05 249.857 369.304 189.658L370.206 172.963H141.798Z" fill="#F5B97D"/>
<path d="M370.207 172.963H141.798L142.7 189.658C145.954 249.857 195.715 297.001 256.002 297.001C262.946 297.001 269.73 296.308 276.34 295.108C242.443 288.959 213.655 267.762 197.406 238.5C185.239 216.591 201.44 189.642 226.501 189.621L369.313 189.501L370.207 172.963Z" fill="#E3AA75"/>
<path d="M365.865 1.67201L313.886 40.656H198.118L146.139 1.67201C140.522 -2.54099 132.542 1.72201 132.921 8.73301L139.116 123.347H372.888L379.083 8.73301C379.463 1.72201 371.483 -2.54099 365.865 1.67201Z" fill="#5A4650"/>
<path d="M256.002 13.436C193.529 13.436 143.378 62.051 139.085 122.314H139.06L141.798 172.963H370.207L372.945 122.315L372.92 122.314C368.626 62.051 318.475 13.436 256.002 13.436Z" fill="#6E5A64"/>
<path d="M181.604 122.314C185.397 69.072 225.006 24.984 277.261 15.419C270.37 14.158 263.28 13.436 256.002 13.436C193.529 13.436 143.378 62.051 139.085 122.314H139.06L141.798 172.963H184.317L181.579 122.314H181.604Z" fill="#5A4650"/>
<path d="M314.904 131.617H296.331C280.783 131.617 267.807 142.75 264.901 157.459C262.164 156.818 259.202 156.425 256.003 156.425C252.804 156.425 249.842 156.818 247.105 157.459C244.199 142.751 231.223 131.617 215.675 131.617H197.102C179.425 131.617 165.043 145.999 165.043 163.676C165.043 182.685 177.923 199.183 196.367 203.786L206.639 206.354C206.639 206.354 206.639 206.354 206.639 206.362C209.32 207.032 212.033 207.355 214.731 207.355C222.007 207.355 229.113 204.94 235.016 200.329C242.986 194.111 247.559 184.774 247.687 174.684C248.962 173.953 251.82 172.961 256.004 172.961C260.188 172.961 263.046 173.953 264.321 174.684C264.449 184.774 269.022 194.111 276.992 200.329C282.895 204.94 290.001 207.355 297.277 207.355C299.974 207.355 302.688 207.032 305.369 206.362C305.369 206.354 305.369 206.354 305.369 206.354L315.641 203.786C334.085 199.183 346.965 182.685 346.965 163.676C346.963 145.999 332.581 131.617 314.904 131.617Z" fill="#5A4650"/>
<path d="M210.643 190.309C215.601 191.569 220.794 190.462 224.84 187.297C228.878 184.148 231.195 179.391 231.195 174.263V163.676C231.195 155.116 224.234 148.155 215.674 148.155H197.101C188.541 148.155 181.58 155.116 181.58 163.676C181.58 175.078 189.308 184.979 200.371 187.749L210.643 190.309Z" fill="#F5B97D"/>
<path d="M215.674 148.155H197.101C188.541 148.155 181.58 155.116 181.58 163.676C181.58 166.677 182.144 169.559 183.134 172.25C185.633 167.022 190.929 163.377 197.101 163.377H215.674C223.396 163.377 229.764 169.058 230.948 176.451C231.044 175.724 231.195 175.01 231.195 174.264V163.677C231.194 155.116 224.233 148.155 215.674 148.155Z" fill="#E3AA75"/>
<path d="M206.387 181.232C201.816 181.232 198.118 177.533 198.118 172.963V164.694C198.118 160.123 201.817 156.425 206.387 156.425C210.958 156.425 214.656 160.124 214.656 164.694V172.963C214.656 177.534 210.958 181.232 206.387 181.232Z" fill="#5A4650"/>
<path d="M311.633 187.749C322.696 184.979 330.424 175.079 330.424 163.676C330.424 155.116 323.463 148.155 314.903 148.155H296.33C287.77 148.155 280.809 155.116 280.809 163.676V174.263C280.809 179.391 283.127 184.147 287.164 187.297C291.21 190.463 296.402 191.569 301.361 190.309L311.633 187.749Z" fill="#F5B97D"/>
<path d="M296.33 148.155H314.903C323.463 148.155 330.424 155.116 330.424 163.676C330.424 166.677 329.86 169.559 328.87 172.25C326.371 167.022 321.075 163.377 314.903 163.377H296.33C288.608 163.377 282.24 169.058 281.056 176.451C280.96 175.724 280.809 175.01 280.809 174.264V163.677C280.81 155.116 287.771 148.155 296.33 148.155Z" fill="#E3AA75"/>
<path d="M305.617 181.232C310.188 181.232 313.886 177.533 313.886 172.963V164.694C313.886 160.123 310.187 156.425 305.617 156.425C301.046 156.425 297.348 160.124 297.348 164.694V172.963C297.348 177.534 301.046 181.232 305.617 181.232Z" fill="#5A4650"/>
<path d="M256.002 247.386C243.59 247.386 232.147 243.405 225.388 236.735C222.134 233.521 222.101 228.288 225.307 225.042C228.529 221.788 233.762 221.755 237 224.961C239.754 227.674 246.376 230.848 256.001 230.848C265.626 230.848 272.249 227.674 275.002 224.961C278.24 221.755 283.473 221.787 286.695 225.042C289.901 228.288 289.869 233.521 286.614 236.735C279.857 243.405 268.414 247.386 256.002 247.386Z" fill="#B67F5F"/>
<path d="M193.988 348.963C201.436 356.621 226.342 363.154 256.002 363.154C285.663 363.154 310.568 356.62 318.016 348.962C310.351 342.802 305.617 333.432 305.617 323.213V320.556C290.102 325.858 273.439 328.906 256.002 328.906C238.565 328.906 221.902 325.858 206.387 320.556V323.213C206.387 333.433 201.653 342.803 193.988 348.963Z" fill="#6E5A64"/>
<path d="M413.091 384.548L407.083 382.428C377.252 435.067 320.826 470.654 256.002 470.654C191.178 470.654 134.752 435.067 104.92 382.428L98.9121 384.548C79.0751 391.549 65.8101 410.298 65.8101 431.334V487.192C65.8101 500.893 76.9171 512 90.6181 512H421.386C435.087 512 446.194 500.893 446.194 487.192V431.334C446.193 410.299 432.928 391.549 413.091 384.548Z" fill="#6E5A64"/>
<path d="M256.002 470.654C252.196 470.654 248.425 470.508 244.68 470.266L239.464 512H272.541L267.324 470.266C263.579 470.508 259.808 470.654 256.002 470.654Z" fill="#5A4650"/>
</svg>
