<svg width="512" height="512" viewBox="0 0 512 512" fill="none" xmlns="http://www.w3.org/2000/svg">
<g clip-path="url(#clip0)">
<path d="M418.626 361.152L331.59 335.553C321.046 332.452 313.806 322.775 313.806 311.785V272.516H198.194V311.785C198.194 322.775 190.954 332.452 180.41 335.553L93.374 361.152C72.287 367.354 57.807 386.707 57.807 408.687V487.226C57.807 500.908 68.899 512 82.581 512H429.42C443.102 512 454.194 500.908 454.194 487.226V408.687C454.194 386.707 439.713 367.354 418.626 361.152Z" fill="#B67F5F"/>
<path d="M437.677 297.29H434.925C425.992 297.29 417.3 300.187 410.153 305.547L399.139 313.807C391.991 319.167 383.297 322.065 374.362 322.065H360.268C357.139 322.065 354.327 323.788 352.911 326.578C345.091 341.979 316.291 385.695 266.512 408.527C259.852 411.582 252.148 411.582 245.488 408.527C195.709 385.695 166.91 341.98 159.09 326.579C157.673 323.789 154.861 322.065 151.732 322.065H137.635C128.701 322.065 120.008 319.167 112.86 313.807L101.849 305.549C94.702 300.189 86.008 297.291 77.074 297.291H74.322C46.957 297.291 24.774 319.475 24.774 346.839V404.645C24.774 422.888 39.563 437.677 57.806 437.677H123.871H388.129H454.194C472.437 437.677 487.226 422.888 487.226 404.645V346.839C487.226 319.474 465.042 297.29 437.677 297.29Z" fill="#EDEBED"/>
<path d="M374.363 322.065H360.268C357.139 322.065 354.327 323.788 352.911 326.578C345.091 341.979 316.292 385.695 266.512 408.527C259.852 411.582 252.149 411.582 245.489 408.527C195.71 385.695 166.911 341.981 159.091 326.579C157.674 323.789 154.862 322.065 151.733 322.065H137.636C132.91 322.065 128.27 321.203 123.872 319.646V512H388.13V319.645C383.73 321.203 379.09 322.065 374.363 322.065Z" fill="#A5CDFF"/>
<path d="M198.194 290.945C215.543 300.212 235.218 305.549 256 305.549C276.782 305.549 296.457 300.212 313.806 290.945V272.517H198.194V290.945Z" fill="#A06E50"/>
<path d="M367.484 148.645H363.355V123.871H148.645V148.645H144.516C133.161 148.645 123.871 157.935 123.871 169.29C123.871 180.645 133.161 189.935 144.516 189.935H149.062C153.292 245.354 199.497 289.032 256 289.032C312.503 289.032 358.708 245.354 362.938 189.935H367.484C378.839 189.935 388.129 180.645 388.129 169.29C388.129 157.935 378.839 148.645 367.484 148.645Z" fill="#CD916E"/>
<path d="M346.839 132.129V123.871H148.645V148.645H145.24C135.838 148.645 127.057 154.603 124.621 163.684C120.937 177.418 131.336 189.935 144.516 189.935H149.062C153.292 245.354 199.497 289.032 256 289.032C261.649 289.032 267.157 288.482 272.568 287.64C221.114 279.699 181.677 235.354 181.677 181.677C181.677 163.434 196.466 148.645 214.709 148.645H330.322C339.444 148.645 346.839 141.251 346.839 132.129Z" fill="#B67F5F"/>
<path d="M210.581 173.419C206.016 173.419 202.323 169.725 202.323 165.161V156.903C202.323 152.338 206.017 148.645 210.581 148.645C215.145 148.645 218.839 152.339 218.839 156.903V165.161C218.839 169.726 215.145 173.419 210.581 173.419Z" fill="#5A4650"/>
<path d="M301.419 173.419C296.854 173.419 293.161 169.725 293.161 165.161V156.903C293.161 152.338 296.855 148.645 301.419 148.645C305.983 148.645 309.677 152.339 309.677 156.903V165.161C309.677 169.726 305.984 173.419 301.419 173.419Z" fill="#5A4650"/>
<path d="M256 0C187.588 0 132.129 55.459 132.129 123.871H379.871C379.871 55.459 324.412 0 256 0Z" fill="#A5CDFF"/>
<path d="M256 0C244.542 0 233.498 1.68 222.968 4.591V123.871H289.033V4.591C278.502 1.679 267.458 0 256 0Z" fill="#EDEBED"/>
<path d="M207.963 79.7359C213.095 47.2049 230.951 18.9359 256.211 0.0109047C256.208 0.00190467 256.211 0.00990467 256.208 0.000904667C187.7 -0.112095 132.129 55.3889 132.129 123.871H379.871C379.871 115.386 379.009 107.103 377.383 99.0969H224.291C214.039 99.0969 206.366 89.8619 207.963 79.7359Z" fill="#8CB4EB"/>
<path d="M272.516 231.226H239.484C234.919 231.226 231.226 227.532 231.226 222.968C231.226 218.404 234.92 214.71 239.484 214.71H272.516C277.081 214.71 280.774 218.404 280.774 222.968C280.774 227.532 277.081 231.226 272.516 231.226Z" fill="#A06E50"/>
<path d="M381.226 190.048C376.718 189.242 372.468 192.338 371.726 196.838L365.766 232.588C365.105 236.58 361.677 239.483 357.621 239.483H314.691L321.928 199.668C322.751 195.184 319.775 190.886 315.283 190.071C310.823 189.216 306.493 192.224 305.686 196.716L297.912 239.482H214.088L206.315 196.716C205.509 192.224 201.218 189.2 196.718 190.071C192.226 190.886 189.25 195.184 190.073 199.668L197.309 239.483H154.38C150.324 239.483 146.896 236.58 146.235 232.588L140.275 196.838C139.525 192.338 135.275 189.241 130.775 190.048C126.275 190.798 123.235 195.056 123.985 199.548L129.945 235.298C131.935 247.29 142.21 256 154.379 256H200.31L202.887 270.177C205.75 285.887 219.419 297.29 235.387 297.29H276.613C292.581 297.29 306.25 285.887 309.113 270.169L311.689 256H357.621C369.79 256 380.065 247.29 382.056 235.298L388.016 199.548C388.766 195.056 385.726 190.798 381.226 190.048ZM292.871 267.21C291.436 275.073 284.597 280.775 276.613 280.775H235.387C227.403 280.775 220.564 275.073 219.129 267.219L217.09 256H294.909L292.871 267.21Z" fill="#5A4650"/>
<path d="M256 445.935C219.514 445.935 189.935 475.513 189.935 512H322.064C322.065 475.514 292.486 445.935 256 445.935Z" fill="#DBD9DC"/>
<path d="M222.968 37.6399C231.426 22.9659 242.713 10.1239 256.211 0.00991548C256.208 0.000915485 256.211 0.00891548 256.207 -8.4516e-05C244.676 -0.0190845 233.561 1.65892 222.967 4.58792V37.6399H222.968Z" fill="#DBD9DC"/>
<path d="M289.033 99.097H224.291C223.834 99.097 223.414 98.984 222.968 98.948V123.871H289.033V99.097Z" fill="#DBD9DC"/>
<path d="M379.871 206.452H132.129C118.468 206.452 107.355 195.339 107.355 181.678V140.388C107.355 126.727 118.468 115.614 132.129 115.614H379.871C393.532 115.614 404.645 126.727 404.645 140.388V181.678C404.645 195.339 393.532 206.452 379.871 206.452ZM132.129 132.129C127.573 132.129 123.871 135.831 123.871 140.387V181.677C123.871 186.233 127.573 189.935 132.129 189.935H379.871C384.427 189.935 388.129 186.233 388.129 181.677V140.387C388.129 135.831 384.427 132.129 379.871 132.129H132.129Z" fill="#64505A"/>
<path d="M140.387 512H123.871V396.387C132.993 396.387 140.387 403.782 140.387 412.903V512Z" fill="#8CB4EB"/>
<path d="M99.097 437.677H123.871V396.387C110.189 396.387 99.097 407.479 99.097 421.161V437.677Z" fill="#DBD9DC"/>
<path d="M57.806 437.677V454.193H82.58C91.702 454.193 99.096 461.588 99.096 470.709V512H123.87V437.677H57.806Z" fill="#A06E50"/>
<path d="M371.613 512H388.129V396.387C379.007 396.387 371.613 403.782 371.613 412.903V512Z" fill="#8CB4EB"/>
<path d="M412.903 437.677H388.129V396.387C401.811 396.387 412.903 407.479 412.903 421.161V437.677Z" fill="#DBD9DC"/>
<path d="M454.194 437.677V454.193H429.42C420.298 454.193 412.904 461.588 412.904 470.709V512H388.13V437.677H454.194Z" fill="#A06E50"/>
<path d="M256 462.452C228.635 462.452 206.452 484.636 206.452 512H305.549C305.548 484.635 283.365 462.452 256 462.452Z" fill="#EDEBED"/>
</g>
<defs>
<clipPath id="clip0">
<rect width="512" height="512" fill="white"/>
</clipPath>
</defs>
</svg>
