<svg width="512" height="512" viewBox="0 0 512 512" fill="none" xmlns="http://www.w3.org/2000/svg">
<path d="M434.068 228.647L346.839 181.677H165.161L77.932 228.647C72.661 231.486 74.677 239.484 80.664 239.484H431.335C437.323 239.484 439.339 231.486 434.068 228.647Z" fill="#8CB4EB"/>
<path d="M406.999 456.968L327.587 428.94C314.38 424.279 305.548 411.796 305.548 397.79V346.839H206.451V397.791C206.451 411.796 197.619 424.279 184.413 428.94L105.001 456.968C94.269 460.756 85.172 467.466 78.477 476.018C67.052 490.61 77.614 512 96.148 512H415.852C434.385 512 444.948 490.61 433.523 476.017C426.828 467.466 417.731 460.755 406.999 456.968Z" fill="#F7D291"/>
<path d="M406.999 456.968L327.587 428.94C318.917 425.88 312.198 419.418 308.56 411.398L256 437.677L203.441 411.397C199.803 419.417 193.084 425.879 184.414 428.939L105.002 456.967C94.27 460.754 85.173 467.465 78.478 476.016C67.052 490.61 77.614 512 96.148 512H415.853C434.386 512 444.949 490.61 433.523 476.017C426.828 467.466 417.731 460.755 406.999 456.968Z" fill="#8CB4EB"/>
<path d="M264.256 445.94H247.74V512H264.256V445.94Z" fill="#739BD7"/>
<path d="M206.452 386.168C221.65 392.752 238.409 396.387 256 396.387C273.591 396.387 290.35 392.751 305.548 386.168V346.839H206.451L206.452 386.168Z" fill="#F0C382"/>
<path d="M132.129 272.516H206.5L203.871 355.613C194.667 374.71 148.645 412.903 148.645 412.903V421.161C148.645 421.161 177.032 461.935 189.935 512H132.129V412.903C123.871 346.839 132.129 272.516 132.129 272.516Z" fill="#6E5A64"/>
<path d="M148.645 437.677H140.387C131.265 437.677 123.871 430.282 123.871 421.161C123.871 412.039 131.266 404.645 140.387 404.645H148.645C157.767 404.645 165.161 412.04 165.161 421.161C165.161 430.283 157.767 437.677 148.645 437.677Z" fill="#5A4650"/>
<path d="M379.871 272.516H305.5L308.129 355.613C317.333 374.71 363.355 412.903 363.355 412.903V421.161C363.355 421.161 334.968 461.935 322.065 512H379.871V412.903C388.129 346.839 379.871 272.516 379.871 272.516Z" fill="#6E5A64"/>
<path d="M256 454.196C265.122 454.196 272.516 446.802 272.516 437.68C272.516 428.559 265.122 421.164 256 421.164C246.878 421.164 239.484 428.559 239.484 437.68C239.484 446.802 246.878 454.196 256 454.196Z" fill="#6E5A64"/>
<path d="M363.355 437.677H371.613C380.735 437.677 388.129 430.282 388.129 421.161C388.129 412.039 380.734 404.645 371.613 404.645H363.355C354.233 404.645 346.839 412.04 346.839 421.161C346.839 430.283 354.233 437.677 363.355 437.677Z" fill="#5A4650"/>
<path d="M318.85 44.421L291.91 12.992C284.842 4.746 274.523 0 263.662 0C248.959 0 235.635 8.659 229.664 22.095L297.29 82.581L316.219 68.383C323.855 62.657 325.061 51.669 318.85 44.421Z" fill="#739BD7"/>
<path d="M263.662 0C248.959 0 235.635 8.659 229.664 22.095L173.419 148.646H338.58L263.662 0Z" fill="#8CB4EB"/>
<path d="M367.484 239.484H144.516C133.114 239.484 123.871 248.727 123.871 260.129C123.871 271.53 133.114 280.774 144.516 280.774H149.062C153.292 336.193 199.497 379.871 256 379.871C312.503 379.871 358.708 336.194 362.938 280.774H367.484C378.886 280.774 388.129 271.53 388.129 260.129C388.129 248.727 378.886 239.484 367.484 239.484Z" fill="#FFE1A0"/>
<path d="M338.581 239.484H145.695C134.896 239.484 125.055 247.253 123.979 257.998C122.741 270.356 132.412 280.774 144.517 280.774H149.063C153.293 336.193 199.498 379.871 256.001 379.871C261.65 379.871 267.158 379.321 272.569 378.48C221.115 370.538 181.678 326.194 181.678 272.516C181.678 263.394 189.073 256 198.194 256H322.065C331.186 256 338.581 248.605 338.581 239.484Z" fill="#F7D291"/>
<path d="M255.952 330.323C243.557 330.323 232.129 326.347 225.379 319.686C222.129 316.476 222.097 311.251 225.298 308.009C228.516 304.759 233.742 304.727 236.975 307.928C239.725 310.638 246.338 313.807 255.951 313.807C265.564 313.807 272.177 310.638 274.927 307.928C278.161 304.726 283.387 304.759 286.604 308.009C289.806 311.251 289.773 316.477 286.523 319.686C279.774 326.347 268.347 330.323 255.952 330.323Z" fill="#E3AA75"/>
<path d="M206.403 272.516C201.838 272.516 198.145 268.822 198.145 264.258V256C198.145 251.435 201.839 247.742 206.403 247.742C210.967 247.742 214.661 251.436 214.661 256V264.258C214.661 268.823 210.968 272.516 206.403 272.516Z" fill="#6E5A64"/>
<path d="M305.5 272.516C300.935 272.516 297.242 268.822 297.242 264.258V256C297.242 251.435 300.936 247.742 305.5 247.742C310.064 247.742 313.758 251.436 313.758 256V264.258C313.758 268.823 310.065 272.516 305.5 272.516Z" fill="#6E5A64"/>
<path d="M338.581 148.645H173.419C168.858 148.645 165.161 152.343 165.161 156.903V181.677H346.838V156.903C346.839 152.343 343.142 148.645 338.581 148.645Z" fill="#6E5A64"/>
<path d="M229.664 22.0951L173.419 148.645H214.709L253.991 1.34009C243.331 4.21609 234.286 11.6961 229.664 22.0951Z" fill="#739BD7"/>
<path d="M214.71 148.645H173.42C168.859 148.645 165.162 152.343 165.162 156.903V181.677H206.452V156.903C206.452 152.343 210.149 148.645 214.71 148.645Z" fill="#5A4650"/>
<path d="M167.677 228.647L206.452 181.677H165.162L77.933 228.647C72.662 231.486 74.678 239.484 80.665 239.484H168.915C166.204 239.484 165.29 231.486 167.677 228.647Z" fill="#739BD7"/>
</svg>
