<svg width="512" height="512" viewBox="0 0 512 512" fill="none" xmlns="http://www.w3.org/2000/svg">
<path d="M418.625 361.152L331.589 335.553C321.045 332.452 313.805 322.775 313.805 311.785V272.516H198.193V311.785C198.193 322.775 190.953 332.452 180.409 335.553L93.373 361.152C72.286 367.354 57.806 386.707 57.806 408.687V487.226C57.806 500.908 68.898 512 82.58 512H429.419C443.101 512 454.193 500.908 454.193 487.226V408.687C454.193 386.707 439.712 367.354 418.625 361.152Z" fill="#E3AA75"/>
<path d="M418.626 361.151L346.919 340.061C331.682 363.477 296.727 379.87 256 379.87C215.273 379.87 180.318 363.477 165.081 340.061L93.374 361.151C72.287 367.354 57.807 386.706 57.807 408.686V487.225C57.807 500.907 68.899 511.999 82.581 511.999H429.42C443.102 511.999 454.194 500.907 454.194 487.225V408.686C454.193 386.707 439.712 367.354 418.626 361.151Z" fill="#E6646E"/>
<path d="M198.193 290.945C215.542 300.212 235.217 305.549 255.999 305.549C276.781 305.549 296.456 300.212 313.805 290.945V272.517H198.193V290.945Z" fill="#D29B6E"/>
<path d="M367.483 148.645H363.354V66.0649H148.644V148.646H144.515C133.16 148.646 123.87 157.936 123.87 169.291C123.87 180.646 133.16 189.936 144.515 189.936H149.061C153.291 245.355 199.496 289.033 255.999 289.033C312.502 289.033 358.707 245.355 362.937 189.936H367.483C378.838 189.936 388.128 180.646 388.128 169.291C388.128 157.935 378.838 148.645 367.483 148.645Z" fill="#F5B97D"/>
<path d="M330.322 99.0969H148.645V148.645H145.24C135.838 148.645 127.057 154.603 124.621 163.684C120.937 177.418 131.336 189.935 144.516 189.935H149.062C153.292 245.354 199.497 289.032 256 289.032C261.649 289.032 267.157 288.482 272.568 287.641C221.114 279.699 181.677 235.355 181.677 181.677V165.161C181.677 137.796 203.861 115.613 231.225 115.613H313.806C322.927 115.613 330.322 108.218 330.322 99.0969Z" fill="#E3AA75"/>
<path d="M206.451 174.137C201.886 174.137 198.193 170.439 198.193 165.879V157.621C198.193 153.061 201.887 149.363 206.451 149.363C211.015 149.363 214.709 153.061 214.709 157.621V165.879C214.709 170.44 211.015 174.137 206.451 174.137Z" fill="#6E5A64"/>
<path d="M305.547 174.137C300.982 174.137 297.289 170.439 297.289 165.879V157.621C297.289 153.061 300.983 149.363 305.547 149.363C310.112 149.363 313.805 153.061 313.805 157.621V165.879C313.805 170.44 310.112 174.137 305.547 174.137Z" fill="#6E5A64"/>
<path d="M214.709 140.387H198.193C193.628 140.387 189.935 136.689 189.935 132.129C189.935 127.569 193.629 123.871 198.193 123.871H214.709C219.274 123.871 222.967 127.569 222.967 132.129C222.967 136.69 219.273 140.387 214.709 140.387Z" fill="#A06E50"/>
<path d="M313.805 140.387H297.289C292.724 140.387 289.031 136.689 289.031 132.129C289.031 127.569 292.725 123.871 297.289 123.871H313.805C318.37 123.871 322.063 127.569 322.063 132.129C322.064 136.69 318.37 140.387 313.805 140.387Z" fill="#A06E50"/>
<path d="M255.999 231.226C243.612 231.226 232.176 227.25 225.426 220.589C222.176 217.387 222.144 212.158 225.345 208.912C228.547 205.662 233.789 205.63 237.022 208.831C239.772 211.545 246.393 214.71 255.998 214.71C265.603 214.71 272.224 211.545 274.974 208.831C278.208 205.629 283.45 205.662 286.651 208.912C289.853 212.158 289.82 217.388 286.57 220.589C279.822 227.25 268.386 231.226 255.999 231.226Z" fill="#B67F5F"/>
<path d="M379.87 99.097H132.128L152.211 18.766C154.968 7.737 164.877 0 176.245 0H335.752C347.12 0 357.029 7.737 359.787 18.766L379.87 99.097Z" fill="#E6646E"/>
<path d="M233.392 327.624C219.021 324.118 206.732 317.451 198.935 309.139C194.316 304.216 186.335 304.843 182.284 310.244L159.861 340.141C177.577 360.923 206.048 375.305 239.482 378.919L239.48 335.58C239.48 331.857 237.008 328.506 233.392 327.624Z" fill="#DC4655"/>
<path d="M352.138 340.141L329.715 310.244C325.664 304.843 317.683 304.216 313.064 309.139C305.267 317.45 292.978 324.118 278.607 327.624C274.991 328.506 272.518 331.857 272.518 335.581L272.517 378.92C305.951 375.305 334.422 360.923 352.138 340.141Z" fill="#DC4655"/>
<path d="M156.983 421.161C152.418 421.161 148.685 417.467 148.685 412.903C148.685 408.339 152.338 404.645 156.903 404.645H156.984C161.549 404.645 165.242 408.339 165.242 412.903C165.242 417.467 161.547 421.161 156.983 421.161Z" fill="#FFE17D"/>
<path d="M355.176 421.161C350.611 421.161 346.878 417.467 346.878 412.903C346.878 408.339 350.531 404.645 355.096 404.645H355.177C359.742 404.645 363.435 408.339 363.435 412.903C363.435 417.467 359.741 421.161 355.176 421.161Z" fill="#FFE17D"/>
<path d="M355.176 462.452C350.611 462.452 346.878 458.758 346.878 454.194C346.878 449.63 350.531 445.936 355.096 445.936H355.177C359.742 445.936 363.435 449.63 363.435 454.194C363.435 458.758 359.741 462.452 355.176 462.452Z" fill="#FFE17D"/>
<path d="M156.983 462.452C152.418 462.452 148.685 458.758 148.685 454.194C148.685 449.63 152.338 445.936 156.903 445.936H156.984C161.549 445.936 165.242 449.63 165.242 454.194C165.242 458.758 161.547 462.452 156.983 462.452Z" fill="#FFE17D"/>
<path d="M355.176 503.742C350.611 503.742 346.878 500.048 346.878 495.484C346.878 490.919 350.531 487.226 355.096 487.226H355.177C359.742 487.226 363.435 490.92 363.435 495.484C363.434 500.048 359.741 503.742 355.176 503.742Z" fill="#FFE17D"/>
<path d="M156.983 503.742C152.418 503.742 148.685 500.048 148.685 495.484C148.685 490.919 152.338 487.226 156.903 487.226H156.984C161.549 487.226 165.242 490.92 165.242 495.484C165.241 500.048 161.547 503.742 156.983 503.742Z" fill="#FFE17D"/>
<path d="M150.669 150.435L132.128 152.725V99.0969H165.16V134.044C165.16 142.382 158.945 149.413 150.669 150.435Z" fill="#6E5A64"/>
<path d="M361.329 150.435L379.87 152.725V99.0969H346.838V134.044C346.838 142.382 353.053 149.413 361.329 150.435Z" fill="#6E5A64"/>
<path d="M234.052 0H176.246C164.878 0 154.968 7.737 152.211 18.766L132.128 99.097H189.934L210.017 18.766C212.774 7.737 222.683 0 234.052 0Z" fill="#DC4655"/>
<path d="M138.322 74.3229H373.676L369.547 57.8059H142.451L138.322 74.3229Z" fill="#FFE17D"/>
<path d="M138.322 74.3229H196.128L200.257 57.8059H142.451L138.322 74.3229Z" fill="#FFD164"/>
<path d="M165.16 379.871H255.999C230.901 379.871 208.038 373.613 190.588 363.355H165.16C137.837 363.355 115.612 385.581 115.612 412.903V512H132.128V412.903C132.128 394.685 146.943 379.871 165.16 379.871Z" fill="#DC4655"/>
</svg>
