<svg width="512" height="512" viewBox="0 0 512 512" fill="none" xmlns="http://www.w3.org/2000/svg">
<path d="M470.022 342.021C470.71 294.537 454.882 286.279 446.968 258.408C439.001 230.349 447.107 211.189 437.678 180.129C428.904 151.226 412.964 146.343 408.087 105.29C399.828 35.784 324.817 0 287.656 0C277.148 0 269.973 2.667 265.149 5.857C259.566 9.551 252.433 9.551 246.851 5.857C242.027 2.667 234.852 0 224.344 0C187.183 0 112.172 35.784 103.914 105.29C99.036 146.342 83.097 151.225 74.323 180.129C64.894 211.189 73 230.349 65.033 258.408C57.119 286.279 41.291 294.537 41.979 342.021C42.777 397.087 11.011 409.462 23.398 445.935C32.643 473.155 82.581 495.483 82.581 495.483H429.42C429.42 495.483 479.358 473.154 488.603 445.935C500.989 409.462 469.223 397.087 470.022 342.021Z" fill="#64505A"/>
<path d="M256 8.627C252.821 8.627 249.642 7.704 246.851 5.857C242.027 2.667 234.852 0 224.344 0C187.183 0 112.172 35.784 103.914 105.29C99.036 146.342 83.097 151.225 74.323 180.129C64.894 211.189 73 230.349 65.033 258.408C57.119 286.279 41.291 294.537 41.979 342.021C42.777 397.087 11.011 409.462 23.398 445.935C32.643 473.155 82.581 495.483 82.581 495.483H256V8.627Z" fill="#5A4650"/>
<path d="M412.878 401.236L327.587 371.133C314.38 366.472 305.548 353.989 305.548 339.984V297.29H206.451V339.984C206.451 353.989 197.619 366.472 184.412 371.133L99.121 401.236C79.311 408.228 66.064 426.952 66.064 447.959V487.226C66.064 500.908 77.156 512 90.838 512H421.161C434.843 512 445.935 500.908 445.935 487.226V447.959C445.935 426.952 432.688 408.228 412.878 401.236Z" fill="#B67F5F"/>
<path d="M412.878 401.236L355.968 381.149C333.571 412.106 303.089 446.245 267.607 465.162C260.369 469.021 251.631 469.021 244.393 465.162C208.911 446.246 178.429 412.106 156.032 381.149L99.1219 401.236C79.3119 408.228 66.0649 426.952 66.0649 447.96V487.226C66.0649 500.908 77.1569 512 90.8389 512H421.162C434.844 512 445.936 500.908 445.936 487.226V447.96C445.935 426.952 432.688 408.228 412.878 401.236Z" fill="#B4E6A0"/>
<path d="M206.452 319.756C221.699 326.498 238.453 330.323 256 330.323C273.547 330.323 290.301 326.499 305.548 319.756V297.29H206.451L206.452 319.756Z" fill="#A06E50"/>
<path d="M256 313.806C196.709 313.806 148.645 265.742 148.645 206.451V66.0649H363.355V206.452C363.355 265.742 315.29 313.806 256 313.806Z" fill="#CD916E"/>
<path d="M148.645 66.0649V206.452C148.645 265.742 196.71 313.807 256 313.807C261.632 313.807 267.118 313.242 272.516 312.408C221.088 304.444 181.677 260.112 181.677 206.452V163.506C181.677 156.716 183.783 150.156 187.379 144.396C187.398 144.366 187.417 144.335 187.436 144.305C200.995 122.546 213.688 119.347 228.383 115.645C236.823 113.518 246.656 111.04 255.999 104.814C265.343 111.04 275.176 113.518 283.615 115.645C298.311 119.348 311.003 122.546 324.562 144.304C337.176 164.544 351.291 175.732 363.353 184.375V66.0649H148.645Z" fill="#B67F5F"/>
<path d="M256 264.258C243.605 264.258 232.177 260.282 225.427 253.621C222.177 250.411 222.145 245.186 225.346 241.944C228.564 238.694 233.79 238.662 237.023 241.863C239.773 244.573 246.386 247.742 255.999 247.742C265.612 247.742 272.225 244.573 274.975 241.863C278.209 238.661 283.435 238.694 286.652 241.944C289.854 245.186 289.821 250.412 286.571 253.621C279.823 260.282 268.395 264.258 256 264.258Z" fill="#A06E50"/>
<path d="M206.452 206.452C201.887 206.452 198.194 202.758 198.194 198.194V189.936C198.194 185.371 201.888 181.678 206.452 181.678C211.016 181.678 214.71 185.372 214.71 189.936V198.194C214.71 202.758 211.016 206.452 206.452 206.452Z" fill="#5A4650"/>
<path d="M305.548 206.452C300.983 206.452 297.29 202.758 297.29 198.194V189.936C297.29 185.371 300.984 181.678 305.548 181.678C310.113 181.678 313.806 185.372 313.806 189.936V198.194C313.806 202.758 310.113 206.452 305.548 206.452Z" fill="#5A4650"/>
<path d="M214.71 173.419H198.194C193.629 173.419 189.936 169.725 189.936 165.161C189.936 160.597 193.63 156.903 198.194 156.903H214.71C219.275 156.903 222.968 160.597 222.968 165.161C222.968 169.725 219.274 173.419 214.71 173.419Z" fill="#5A4650"/>
<path d="M313.806 173.419H297.29C292.725 173.419 289.032 169.725 289.032 165.161C289.032 160.597 292.726 156.903 297.29 156.903H313.806C318.371 156.903 322.064 160.597 322.064 165.161C322.064 169.725 318.371 173.419 313.806 173.419Z" fill="#5A4650"/>
<path d="M126.532 446.218L84.38 409.617C80.061 413.137 76.432 417.355 73.533 422.063L115.709 458.686C121.128 463.396 124.241 470.218 124.241 477.396V512H140.757V477.395C140.758 465.427 135.573 454.065 126.532 446.218Z" fill="#9BDC9B"/>
<path d="M385.839 446.218L427.991 409.617C432.31 413.137 435.939 417.355 438.838 422.063L396.662 458.686C391.243 463.396 388.13 470.218 388.13 477.396V512H371.614V477.395C371.613 465.427 376.798 454.065 385.839 446.218Z" fill="#9BDC9B"/>
<path d="M446.968 258.408C439.001 230.349 447.107 211.189 437.678 180.129C428.904 151.226 412.964 146.343 408.087 105.29C399.828 35.784 324.817 0 287.656 0C277.148 0 269.973 2.667 265.149 5.857C262.358 7.704 259.179 8.627 256 8.627V82.581C277.333 109.42 308.989 88.086 338.581 135.57C363.733 175.93 395.316 174.91 406.426 206.73C409.61 215.85 407.883 225.594 408.645 235.224C412.903 289.032 454.193 313.807 472.754 369.959C470.984 361.94 469.865 352.821 470.022 342.021C470.71 294.537 454.882 286.279 446.968 258.408Z" fill="#6E5A64"/>
<path d="M65.0321 258.408C72.9991 230.349 64.8931 211.189 74.3221 180.129C83.0961 151.226 99.0361 146.343 103.913 105.29C112.172 35.784 187.183 0 224.344 0C234.852 0 242.027 2.667 246.851 5.857C249.642 7.704 252.821 8.627 256 8.627V82.581C234.667 109.42 203.011 88.086 173.419 135.57C148.267 175.93 116.684 174.91 105.574 206.73C102.39 215.85 104.117 225.594 103.355 235.224C99.0971 289.032 57.8071 313.807 39.2461 369.959C41.0161 361.94 42.1351 352.821 41.9781 342.021C41.2901 294.537 57.1181 286.279 65.0321 258.408Z" fill="#64505A"/>
</svg>
