<svg width="512" height="512" viewBox="0 0 512 512" fill="none" xmlns="http://www.w3.org/2000/svg">
<path d="M432.908 366.169L379.25 356.475C374.282 355.578 369.707 353.184 366.137 349.614L337.581 321.059C332.935 316.413 330.324 310.111 330.324 303.541L330.668 256H181.334L181.678 303.541C181.678 310.112 179.068 316.413 174.421 321.059L145.865 349.614C142.295 353.184 137.72 355.578 132.752 356.475L79.0939 366.169C47.6469 371.85 24.7749 399.225 24.7749 431.18V487.225C24.7749 500.907 35.8669 511.999 49.5489 511.999H462.452C476.134 511.999 487.226 500.907 487.226 487.225V431.18C487.227 399.225 464.354 371.85 432.908 366.169Z" fill="#E3AA75"/>
<path d="M181.57 288.546C202.415 304.353 228.232 313.806 256.001 313.806C283.77 313.806 309.587 304.353 330.432 288.546L330.668 256H181.334L181.57 288.546Z" fill="#D29B6E"/>
<path d="M346.839 0H165.162C146.919 0 132.13 14.788 132.13 33.032V173.419H379.871V33.032C379.871 14.788 365.082 0 346.839 0Z" fill="#A06E50"/>
<path d="M366.307 156.903H363.356C354.234 156.903 346.84 149.508 346.84 140.387V115.613C346.84 97.3701 332.051 82.5811 313.808 82.5811H198.195C179.952 82.5811 165.163 97.3701 165.163 115.613V140.387C165.163 149.509 157.768 156.903 148.647 156.903H145.696C134.897 156.903 125.056 164.672 123.98 175.417C122.742 187.775 132.413 198.193 144.518 198.193H149.064C153.294 253.612 199.499 297.29 256.002 297.29C312.505 297.29 358.71 253.613 362.94 198.193H367.486C379.591 198.193 389.262 187.774 388.024 175.417C386.946 164.672 377.105 156.903 366.307 156.903Z" fill="#F5B97D"/>
<path d="M206.453 181.677C201.888 181.677 198.195 177.983 198.195 173.419V165.161C198.195 160.596 201.889 156.903 206.453 156.903C211.017 156.903 214.711 160.597 214.711 165.161V173.419C214.711 177.984 211.017 181.677 206.453 181.677Z" fill="#5A4650"/>
<path d="M305.549 181.677C300.984 181.677 297.291 177.983 297.291 173.419V165.161C297.291 160.596 300.985 156.903 305.549 156.903C310.114 156.903 313.807 160.597 313.807 165.161V173.419C313.807 177.984 310.114 181.677 305.549 181.677Z" fill="#5A4650"/>
<path d="M256.001 239.484C243.606 239.484 232.178 235.508 225.428 228.847C222.178 225.637 222.146 220.412 225.347 217.17C228.565 213.92 233.791 213.888 237.024 217.089C239.774 219.799 246.387 222.968 256 222.968C265.613 222.968 272.226 219.799 274.976 217.089C278.21 213.887 283.436 213.92 286.653 217.17C289.855 220.412 289.822 225.638 286.572 228.847C279.824 235.508 268.396 239.484 256.001 239.484Z" fill="#B67F5F"/>
<path d="M214.719 152.089C214.163 152.089 213.59 152.033 213.025 151.912L196.509 148.468C192.041 147.541 189.178 143.17 190.114 138.702C191.033 134.234 195.412 131.339 199.88 132.307L216.396 135.751C220.864 136.678 223.727 141.049 222.791 145.517C221.985 149.411 218.549 152.089 214.719 152.089Z" fill="#A06E50"/>
<path d="M297.283 152.089C293.452 152.089 290.017 149.412 289.21 145.516C288.275 141.048 291.137 136.677 295.605 135.75L312.121 132.306C316.565 131.338 320.96 134.233 321.887 138.701C322.822 143.169 319.96 147.54 315.492 148.467L298.976 151.911C298.412 152.032 297.84 152.089 297.283 152.089Z" fill="#A06E50"/>
<path d="M256.001 487.226C251.436 487.226 247.743 483.532 247.743 478.968V454.194C247.743 449.629 251.437 445.936 256.001 445.936C260.565 445.936 264.259 449.63 264.259 454.194V478.968C264.259 483.532 260.566 487.226 256.001 487.226Z" fill="#D29B6E"/>
<path d="M181.678 189.935V140.387C181.678 117.583 200.164 99.0971 222.968 99.0971H342.258C336.536 89.2641 326.002 82.5811 313.807 82.5811H198.195C179.952 82.5811 165.163 97.3701 165.163 115.613V140.387C165.163 149.509 157.768 156.903 148.647 156.903H145.696C134.898 156.903 125.057 164.671 123.979 175.416C122.74 187.773 132.412 198.193 144.517 198.193H149.063C153.293 253.612 199.498 297.29 256.001 297.29C261.65 297.29 267.158 296.74 272.569 295.899C221.115 287.958 181.678 243.613 181.678 189.935Z" fill="#E3AA75"/>
<path d="M346.839 0H206.453V24.774C206.453 47.578 224.939 66.064 247.743 66.064H379.871V33.032C379.871 14.789 365.082 0 346.839 0Z" fill="#B67F5F"/>
<path d="M123.872 512H388.13V358.081L379.249 356.476C374.281 355.579 369.706 353.185 366.136 349.615L355.097 338.577V371.613C355.097 426.343 310.73 470.71 256 470.71C201.27 470.71 156.903 426.343 156.903 371.613V338.577L145.864 349.615C142.294 353.185 137.719 355.579 132.751 356.476L123.87 358.081V512H123.872Z" fill="#FFE17D"/>
<path d="M123.872 445.935V512H99.0979V470.71C99.0979 457.027 110.19 445.935 123.872 445.935Z" fill="#D29B6E"/>
<path d="M123.872 512H140.388V462.452C140.388 453.33 132.993 445.936 123.872 445.936C123.872 445.936 123.872 512 123.872 512Z" fill="#FFD164"/>
<path d="M388.13 445.935V512H412.904V470.71C412.904 457.027 401.812 445.935 388.13 445.935Z" fill="#D29B6E"/>
<path d="M388.13 512H371.614V462.452C371.614 453.33 379.009 445.936 388.13 445.936V512Z" fill="#FFD164"/>
</svg>
