<svg width="512" height="512" viewBox="0 0 512 512" fill="none" xmlns="http://www.w3.org/2000/svg">
<path d="M256 346.607C305.618 346.607 384.576 320.974 405.143 312.787C413.646 309.402 417.829 299.693 414.302 291.248C406.97 273.694 396.585 241.276 396.585 198.472V140.584C396.584 62.942 333.642 0 256 0C178.358 0 115.416 62.942 115.416 140.584V198.472C115.416 241.276 105.031 273.694 97.699 291.248C94.172 299.693 98.354 309.402 106.858 312.787C127.424 320.974 206.382 346.607 256 346.607Z" fill="#B4F09B"/>
<path d="M256 0C232.074 0 209.565 6.014 189.843 16.556V24.09C189.843 78.896 234.272 123.326 289.079 123.326H395.419C386.895 53.843 327.788 0 256 0Z" fill="#CDF5A0"/>
<path d="M413.098 401.08L327.687 370.935C314.462 366.267 305.617 353.767 305.617 339.742V288.719H206.381V339.742C206.381 353.767 197.537 366.267 184.312 370.935L98.9021 401.08C79.0641 408.082 65.7981 426.832 65.7981 447.869V487.191C65.7981 500.893 76.9051 512 90.6071 512H421.393C435.095 512 446.202 500.893 446.202 487.191V447.869C446.202 426.832 432.936 408.082 413.098 401.08Z" fill="#E3AA75"/>
<path d="M90.6071 512H421.393C435.095 512 446.202 500.893 446.202 487.191V447.869C446.202 426.832 432.936 408.081 413.098 401.08L339.923 375.253C327.64 394.712 299.567 432.152 258.594 445.063C256.923 445.589 255.077 445.589 253.406 445.063C212.433 432.152 184.36 394.713 172.077 375.253L98.9021 401.08C79.0641 408.081 65.7981 426.832 65.7981 447.869V487.191C65.7981 500.893 76.9051 512 90.6071 512Z" fill="#64DCA0"/>
<path d="M248.449 460.844C250.888 461.607 253.44 461.991 255.992 461.991C258.56 461.991 261.12 461.607 263.567 460.84C312.03 445.568 343.586 401.205 355.906 380.895L327.688 370.935C326.437 370.493 325.266 369.918 324.097 369.342C312.503 387.055 288.856 417.104 256 428.5C223.321 417.147 199.594 387.05 187.941 369.326C186.761 369.909 185.576 370.489 184.312 370.936L156.094 380.896C168.415 401.204 199.973 445.568 248.449 460.844Z" fill="#B4F09B"/>
<path d="M206.382 319.488C219.837 325.48 234.512 329.196 250.025 329.927C252.026 330.021 254.02 330.068 256 330.068C273.644 330.068 290.408 326.308 305.618 319.639V288.72H206.382V319.488Z" fill="#D29B6E"/>
<path d="M330.427 139.865H317.313C315.12 139.865 313.016 138.994 311.465 137.443L281.009 106.987C277.883 103.861 272.539 106.075 272.539 110.496V131.596C272.539 136.163 268.837 139.866 264.269 139.866H181.572C163.303 139.866 148.493 154.676 148.493 172.945V202.987C148.493 260.874 192.978 310.683 250.801 313.406C312.537 316.313 363.504 267.12 363.504 206.023V172.944C363.506 154.675 348.696 139.865 330.427 139.865Z" fill="#F5B97D"/>
<path d="M330.427 139.865H317.313C315.12 139.865 313.016 138.994 311.465 137.443L281.009 106.987C277.883 103.861 272.539 106.075 272.539 110.496V131.596C272.539 136.163 268.837 139.866 264.269 139.866H181.572C163.303 139.866 148.493 154.676 148.493 172.945V202.71C148.493 251.259 179.36 295.66 225.971 309.243C242.149 313.957 257.822 314.501 272.556 312.222C220.355 304.001 181.572 257.029 181.572 202.987V189.485C181.572 171.216 196.382 156.406 214.651 156.406H313.887C323.022 156.405 330.427 149 330.427 139.865Z" fill="#E3AA75"/>
<path d="M256 263.91C243.596 263.91 232.144 259.929 225.385 253.258C222.13 250.052 222.098 244.815 225.304 241.564C228.51 238.313 233.759 238.277 236.998 241.483C239.752 244.201 246.382 247.37 256 247.37C265.618 247.37 272.249 244.2 275.002 241.483C278.24 238.277 283.49 238.313 286.696 241.564C289.902 244.815 289.87 250.052 286.615 253.258C279.856 259.929 268.404 263.91 256 263.91Z" fill="#B67F5F"/>
<path d="M214.652 172.944H198.113C193.542 172.944 189.843 169.241 189.843 164.674C189.843 160.107 193.542 156.404 198.113 156.404H214.652C219.223 156.404 222.922 160.107 222.922 164.674C222.921 169.241 219.223 172.944 214.652 172.944Z" fill="#6E5A64"/>
<path d="M313.888 172.944H297.349C292.778 172.944 289.079 169.241 289.079 164.674C289.079 160.107 292.778 156.404 297.349 156.404H313.888C318.459 156.404 322.158 160.107 322.158 164.674C322.157 169.241 318.459 172.944 313.888 172.944Z" fill="#6E5A64"/>
<path d="M206.382 206.741C201.811 206.741 198.112 203.038 198.112 198.471V190.201C198.112 185.634 201.811 181.931 206.382 181.931C210.953 181.931 214.652 185.634 214.652 190.201V198.471C214.652 203.039 210.953 206.741 206.382 206.741Z" fill="#5A4650"/>
<path d="M305.618 206.741C301.047 206.741 297.348 203.038 297.348 198.471V190.201C297.348 185.634 301.047 181.931 305.618 181.931C310.189 181.931 313.888 185.634 313.888 190.201V198.471C313.888 203.039 310.189 206.741 305.618 206.741Z" fill="#5A4650"/>
<path d="M140.225 512V486.117C140.225 474.407 135.226 463.198 126.512 455.364L79.767 413.363C75.87 417.39 72.763 422.094 70.418 427.191L115.456 467.663C120.689 472.363 123.685 479.09 123.685 486.116V512H140.225Z" fill="#B4F09B"/>
<path d="M371.775 512V486.117C371.775 474.407 376.774 463.198 385.488 455.364L432.233 413.363C436.13 417.39 439.237 422.094 441.582 427.191L396.544 467.663C391.311 472.363 388.315 479.09 388.315 486.116V512H371.775Z" fill="#B4F09B"/>
</svg>
