<svg width="512" height="512" viewBox="0 0 512 512" fill="none" xmlns="http://www.w3.org/2000/svg">
<path d="M412.878 401.236L327.587 371.133H184.412L99.121 401.236C79.311 408.228 66.064 426.952 66.064 447.96V487.226C66.064 500.908 77.156 512 90.838 512H421.161C434.843 512 445.935 500.908 445.935 487.226V447.96C445.935 426.952 432.688 408.228 412.878 401.236Z" fill="#FF8087"/>
<path d="M218.378 479.084L251.993 470.68C253.302 470.352 254.65 470.186 255.999 470.186C257.348 470.186 258.696 470.352 260.004 470.68L293.618 479.084C297.564 480.07 301.614 480.57 305.659 480.57C325.719 480.57 343.687 468.568 351.433 449.992C359.964 429.538 364.428 407.012 364.619 384.204L327.585 371.133H184.412L147.378 384.204C147.57 407.012 152.033 429.539 160.564 449.993C168.31 468.568 186.278 480.57 206.338 480.57C210.383 480.57 214.434 480.07 218.378 479.084Z" fill="#E6646E"/>
<path d="M347.872 373.042C347.478 366.353 343.097 360.511 336.771 358.305L305.54 347.685H206.46L175.229 358.305C168.902 360.511 164.522 366.353 164.128 373.042C162.366 402.917 168.884 427.031 175.809 443.635C182.121 458.77 198.466 467.036 214.375 463.06L247.988 454.656C253.248 453.341 258.752 453.341 264.012 454.656L297.625 463.06C313.533 467.036 329.879 458.77 336.191 443.635C343.116 427.031 349.635 402.917 347.872 373.042Z" fill="#FFE17D"/>
<path d="M255.999 437.677C292.485 437.677 322.064 408.098 322.064 371.612V353.304L305.54 347.685H206.46L189.936 353.304V371.612C189.934 408.099 219.514 437.677 255.999 437.677Z" fill="#FFD164"/>
<path d="M255.999 421.161C228.634 421.161 206.451 398.977 206.451 371.613V305.548H305.548V371.613C305.548 398.978 283.365 421.161 255.999 421.161Z" fill="#B67F5F"/>
<path d="M206.451 336.272C221.698 343.014 238.452 346.839 255.999 346.839C273.546 346.839 290.3 343.014 305.547 336.272V305.548H206.45L206.451 336.272Z" fill="#A06E50"/>
<path d="M272.516 66.065H239.484C221.241 66.065 206.452 51.276 206.452 33.033C206.451 14.789 221.24 0 239.483 0H272.515C290.758 0 305.547 14.789 305.547 33.032C305.548 51.275 290.759 66.065 272.516 66.065Z" fill="#6E5A64"/>
<path d="M305.548 247.742H206.451C151.721 247.742 107.354 203.375 107.354 148.645C107.354 93.9151 151.721 49.5481 206.451 49.5481H305.548C360.278 49.5481 404.645 93.9151 404.645 148.645C404.645 203.375 360.278 247.742 305.548 247.742Z" fill="#84737B"/>
<path d="M305.548 231.226H206.451C169.965 231.226 140.387 201.648 140.387 165.162C140.387 128.676 169.965 99.0979 206.451 99.0979H305.548C342.034 99.0979 371.612 128.676 371.612 165.162C371.613 201.648 342.035 231.226 305.548 231.226Z" fill="#6E5A64"/>
<path d="M366.306 189.935C360.116 189.935 355.097 184.917 355.097 178.726V165.161C355.097 137.796 332.913 115.613 305.549 115.613H206.452C179.087 115.613 156.904 137.797 156.904 165.161V178.726C156.904 184.916 151.886 189.935 145.695 189.935C134.896 189.935 125.055 197.704 123.979 208.449C122.741 220.807 132.412 231.225 144.517 231.225H149.063C153.293 286.644 199.498 330.322 256.001 330.322C312.504 330.322 358.709 286.645 362.939 231.225H367.485C379.59 231.225 389.261 220.806 388.023 208.449C386.945 197.705 377.104 189.935 366.306 189.935Z" fill="#CD916E"/>
<path d="M305.548 115.613H206.451C179.086 115.613 156.903 137.797 156.903 165.161V178.725C156.903 185.001 151.763 189.878 145.487 189.936C134.77 190.034 125.047 197.773 123.977 208.449C122.739 220.806 132.41 231.225 144.515 231.225H149.061C153.291 286.644 199.496 330.322 255.999 330.322C261.648 330.322 267.156 329.772 272.567 328.931C221.113 320.989 181.676 276.645 181.676 222.967V173.419C181.676 150.615 200.162 132.129 222.966 132.129H297.289C306.16 132.129 313.34 125.119 313.732 116.345C311.065 115.9 308.342 115.613 305.548 115.613Z" fill="#B67F5F"/>
<path d="M206.451 198.194C217.182 198.194 226.25 205.091 229.686 214.654C230.624 212.043 231.225 209.27 231.225 206.339C231.225 192.678 220.112 181.565 206.451 181.565C192.79 181.565 181.677 192.678 181.677 206.339C181.677 209.269 182.278 212.043 183.216 214.654C186.651 205.091 195.72 198.194 206.451 198.194Z" fill="#B67F5F"/>
<path d="M305.548 198.194C316.279 198.194 325.347 205.091 328.783 214.654C329.721 212.043 330.322 209.27 330.322 206.339C330.322 192.678 319.209 181.565 305.548 181.565C291.887 181.565 280.774 192.678 280.774 206.339C280.774 209.269 281.375 212.043 282.313 214.654C285.749 205.091 294.818 198.194 305.548 198.194Z" fill="#B67F5F"/>
<path d="M255.999 281.508C243.612 281.508 232.184 277.532 225.426 270.871C222.176 267.669 222.144 262.444 225.345 259.194C228.539 255.944 233.764 255.904 237.022 259.113C239.772 261.823 246.393 264.992 255.998 264.992C265.603 264.992 272.224 261.823 274.974 259.113C278.232 255.911 283.458 255.952 286.651 259.194C289.853 262.444 289.82 267.67 286.57 270.871C279.815 277.532 268.387 281.508 255.999 281.508Z" fill="#A06E50"/>
<path d="M206.451 215.315C201.886 215.315 198.193 211.621 198.193 207.057V198.799C198.193 194.234 201.887 190.541 206.451 190.541C211.015 190.541 214.709 194.235 214.709 198.799V207.057C214.71 211.621 211.016 215.315 206.451 215.315Z" fill="#5A4650"/>
<path d="M305.548 215.315C300.983 215.315 297.29 211.621 297.29 207.057V198.799C297.29 194.234 300.984 190.541 305.548 190.541C310.113 190.541 313.806 194.235 313.806 198.799V207.057C313.806 211.621 310.113 215.315 305.548 215.315Z" fill="#5A4650"/>
<path d="M272.516 206.339H239.484C234.919 206.339 231.226 202.645 231.226 198.081C231.226 193.517 234.92 189.823 239.484 189.823H272.516C277.081 189.823 280.774 193.517 280.774 198.081C280.774 202.645 277.081 206.339 272.516 206.339Z" fill="#5A4650"/>
<path d="M255.999 495.484C251.434 495.484 247.701 491.79 247.701 487.226C247.701 482.662 251.354 478.968 255.919 478.968H255.999C260.564 478.968 264.257 482.662 264.257 487.226C264.257 491.79 260.565 495.484 255.999 495.484Z" fill="#FFD164"/>
<path d="M206.451 247.629C183.685 247.629 165.161 229.105 165.161 206.339C165.161 183.573 183.685 165.049 206.451 165.049C229.217 165.049 247.741 183.573 247.741 206.339C247.741 229.105 229.217 247.629 206.451 247.629ZM206.451 181.565C192.79 181.565 181.677 192.678 181.677 206.339C181.677 220 192.79 231.113 206.451 231.113C220.112 231.113 231.225 220 231.225 206.339C231.225 192.677 220.113 181.565 206.451 181.565Z" fill="#6E5A64"/>
<path d="M305.548 247.629C282.782 247.629 264.258 229.105 264.258 206.339C264.258 183.573 282.782 165.049 305.548 165.049C328.314 165.049 346.838 183.573 346.838 206.339C346.838 229.105 328.315 247.629 305.548 247.629ZM305.548 181.565C291.887 181.565 280.774 192.678 280.774 206.339C280.774 220 291.887 231.113 305.548 231.113C319.209 231.113 330.322 220 330.322 206.339C330.323 192.677 319.21 181.565 305.548 181.565Z" fill="#6E5A64"/>
<path d="M140.386 511.879V487.371C140.386 474.613 134.636 462.782 124.612 454.911L76.8179 417.342C73.3469 421.741 70.5779 426.663 68.7549 432.014L114.402 467.894C120.418 472.62 123.87 479.717 123.87 487.37V511.878C123.87 511.92 123.894 511.957 123.894 511.999H140.362C140.363 511.958 140.386 511.921 140.386 511.879Z" fill="#E6646E"/>
<path d="M371.613 511.879V487.371C371.613 474.613 377.363 462.782 387.387 454.911L435.181 417.342C438.652 421.741 441.421 426.663 443.244 432.014L397.597 467.894C391.581 472.62 388.129 479.717 388.129 487.37V511.878C388.129 511.92 388.105 511.957 388.105 511.999H371.637C371.637 511.958 371.613 511.921 371.613 511.879Z" fill="#E6646E"/>
</svg>
