<svg width="512" height="512" viewBox="0 0 512 512" fill="none" xmlns="http://www.w3.org/2000/svg">
<g clip-path="url(#clip0)">
<path d="M418.627 358.71L355.302 340.085C330.701 332.849 313.807 310.27 313.807 284.627H198.194C198.194 310.27 181.3 332.849 156.699 340.085L93.3732 358.71C72.2862 364.912 57.8062 384.264 57.8062 406.244V487.226C57.8062 500.908 68.8982 512 82.5802 512H429.419C443.101 512 454.193 500.908 454.193 487.226V406.244C454.194 384.264 439.713 364.911 418.627 358.71Z" fill="#E6646E"/>
<path d="M371.613 189.935C371.613 256.455 329.442 296.642 292.235 332.097C278.449 345.234 265.577 357.501 256 370.155C246.423 357.501 233.551 345.234 219.765 332.097C182.558 296.641 140.387 256.455 140.387 189.935V132.129C140.387 68.3801 192.251 16.5161 256 16.5161C319.749 16.5161 371.613 68.3801 371.613 132.129V189.935Z" fill="#DC4655"/>
<path d="M280.774 355.097L256 379.871L231.226 355.097V280.774H280.774V355.097Z" fill="#C9C6CA"/>
<path d="M280.778 305.55H231.23V322.066H280.778V305.55Z" fill="#DBD9DC"/>
<path d="M280.778 338.58H231.23V355.096H280.778V338.58Z" fill="#DBD9DC"/>
<path d="M173.419 198.194V241.895C173.419 255.402 181.642 267.548 194.184 272.564L234.531 288.703C248.313 294.216 263.687 294.216 277.469 288.703L317.816 272.564C330.357 267.548 338.581 255.402 338.581 241.895V198.194H173.419Z" fill="#DBD9DC"/>
<path d="M173.419 221.109L192.499 227.469C197.5 239.366 209.274 247.742 222.968 247.742H289.033C302.727 247.742 314.501 239.366 319.502 227.469L338.582 221.109V198.194H173.419V221.109Z" fill="#C9C6CA"/>
<path d="M254.144 33.0489C199.59 34.0469 156.903 80.8519 156.903 135.415V180.338C156.903 191.002 163.727 200.469 173.843 203.841L197.78 211.82C202.283 213.321 205.893 216.704 207.726 221.083C210.22 227.041 216.105 231.227 222.968 231.227C222.968 235.787 226.665 239.485 231.226 239.485C235.787 239.485 239.484 235.787 239.484 231.227H247.742C247.742 235.787 251.439 239.485 256 239.485C260.561 239.485 264.258 235.787 264.258 231.227H272.516C272.516 235.787 276.213 239.485 280.774 239.485C285.335 239.485 289.032 235.787 289.032 231.227C295.895 231.227 301.78 227.041 304.274 221.083C306.107 216.704 309.717 213.321 314.22 211.82L338.155 203.842C348.272 200.47 355.096 191.002 355.096 180.338V132.13C355.097 76.782 309.723 32.0329 254.144 33.0489Z" fill="#EDEBED"/>
<path d="M256 206.452C251.435 206.452 247.742 202.758 247.742 198.194V189.936C247.742 185.371 251.436 181.678 256 181.678C260.564 181.678 264.258 185.372 264.258 189.936V198.194C264.258 202.758 260.565 206.452 256 206.452Z" fill="#DC4655"/>
<path d="M206.452 132.129C206.452 85.964 238.066 47.286 280.793 36.276C272.285 34.08 263.377 32.881 254.145 33.049C199.591 34.047 156.904 80.852 156.904 135.415V180.337C156.904 191.001 163.728 200.468 173.844 203.84L197.78 211.818C201.437 213.038 204.446 215.536 206.452 218.762V132.129Z" fill="#DBD9DC"/>
<path d="M214.71 181.674C228.392 181.674 239.484 170.582 239.484 156.9C239.484 143.218 228.392 132.126 214.71 132.126C201.028 132.126 189.936 143.218 189.936 156.9C189.936 170.582 201.028 181.674 214.71 181.674Z" fill="#E6646E"/>
<path d="M214.71 148.645C225.481 148.645 234.554 155.56 237.967 165.161C238.889 162.566 239.484 159.814 239.484 156.903C239.484 143.221 228.392 132.129 214.71 132.129C201.028 132.129 189.936 143.221 189.936 156.903C189.936 159.814 190.531 162.566 191.453 165.161C194.865 155.56 203.939 148.645 214.71 148.645Z" fill="#DC4655"/>
<path d="M297.29 181.674C310.972 181.674 322.064 170.582 322.064 156.9C322.064 143.218 310.972 132.126 297.29 132.126C283.608 132.126 272.516 143.218 272.516 156.9C272.516 170.582 283.608 181.674 297.29 181.674Z" fill="#E6646E"/>
<path d="M297.29 148.645C308.061 148.645 317.134 155.56 320.547 165.161C321.469 162.566 322.064 159.814 322.064 156.903C322.064 143.221 310.972 132.129 297.29 132.129C283.608 132.129 272.516 143.221 272.516 156.903C272.516 159.814 273.111 162.566 274.033 165.161C277.446 155.56 286.519 148.645 297.29 148.645Z" fill="#DC4655"/>
<path d="M249.613 0.151107C178.546 3.49711 123.871 64.7151 123.871 135.861V189.936C123.871 287.901 206.485 334.216 241.048 377.897C245.521 383.551 247.742 390.651 247.742 397.86V512H264.258V397.86C264.258 390.651 266.479 383.55 270.952 377.897C305.515 334.216 388.129 287.901 388.129 189.936V132.13C388.129 57.0381 325.489 -3.42189 249.613 0.151107ZM371.613 189.935C371.613 256.455 329.442 296.642 292.235 332.097C278.449 345.234 265.577 357.501 256 370.155C246.423 357.501 233.551 345.234 219.765 332.097C182.558 296.641 140.387 256.455 140.387 189.935V132.129C140.387 68.3801 192.251 16.5161 256 16.5161C319.749 16.5161 371.613 68.3801 371.613 132.129V189.935Z" fill="#FF8087"/>
<path d="M126.524 421.653L71.2418 372.512C67.4198 376.607 64.3458 381.312 62.0908 386.467L115.556 434C120.838 438.685 123.871 445.435 123.871 452.508V512H140.387V452.508C140.387 440.718 135.331 429.468 126.524 421.653Z" fill="#DC4655"/>
<path d="M385.476 421.653L440.758 372.512C444.58 376.607 447.654 381.312 449.909 386.467L396.444 434C391.162 438.685 388.129 445.435 388.129 452.508V512H371.613V452.508C371.613 440.718 376.669 429.468 385.476 421.653Z" fill="#DC4655"/>
</g>
<defs>
<clipPath id="clip0">
<rect width="512" height="512" fill="white"/>
</clipPath>
</defs>
</svg>
