<svg width="512" height="512" viewBox="0 0 512 512" fill="none" xmlns="http://www.w3.org/2000/svg">
<path d="M412.878 384.72L327.587 354.617H184.413L99.1219 384.72C79.3119 391.712 66.0649 410.436 66.0649 431.444V487.226C66.0649 500.908 77.1569 512 90.8389 512H421.162C434.844 512 445.936 500.908 445.936 487.226V431.444C445.935 410.435 432.688 391.712 412.878 384.72Z" fill="#EDEBED"/>
<path d="M297.29 355.1H214.71V512H297.29V355.1Z" fill="#A5CDFF"/>
<path d="M214.71 390.107C226.024 399.186 240.366 404.645 256 404.645C271.634 404.645 285.976 399.185 297.29 390.107V355.097H214.71V390.107Z" fill="#8CB4EB"/>
<path d="M404.528 257.771C400.438 247.429 396.386 230.992 396.386 206.451V140.386C396.387 62.853 333.533 0 256 0C178.466 0 115.613 62.853 115.613 140.387V206.452C115.613 230.992 111.562 247.43 107.471 257.772C104.047 266.431 108.737 276.202 117.558 279.186C137.217 285.835 170.412 295.837 206.451 301.416H305.548C341.587 295.837 374.782 285.835 394.44 279.186C403.263 276.202 407.953 266.43 404.528 257.771Z" fill="#64505A"/>
<path d="M256 388.129C228.635 388.129 206.452 365.945 206.452 338.581V280.775H305.549V338.581C305.548 365.945 283.365 388.129 256 388.129Z" fill="#E3AA75"/>
<path d="M206.452 311.649C221.641 318.309 238.381 322.064 256 322.064C273.619 322.064 290.359 318.309 305.548 311.649V280.774H206.451L206.452 311.649Z" fill="#D29B6E"/>
<path d="M256 305.548C196.709 305.548 148.645 257.484 148.645 198.193V74.323H363.355V198.194C363.355 257.484 315.29 305.548 256 305.548Z" fill="#F5B97D"/>
<path d="M218.6 108.497C220.341 107.113 222.192 106.822 223.437 106.822C224.657 106.822 226.487 107.101 228.271 108.433C250.521 125.039 295.639 152.861 363.355 167.71V74.323H148.645V198.194C148.645 257.484 196.71 305.549 256 305.549C261.632 305.549 267.118 304.984 272.516 304.15C221.088 296.186 181.677 251.854 181.677 198.194V151.645C181.677 140.315 187.525 129.867 197.074 123.769C204.463 119.05 211.735 113.956 218.6 108.497Z" fill="#E3AA75"/>
<path d="M214.71 165.161H198.194C193.629 165.161 189.936 161.467 189.936 156.903C189.936 152.339 193.63 148.645 198.194 148.645H214.71C219.275 148.645 222.968 152.339 222.968 156.903C222.968 161.467 219.274 165.161 214.71 165.161Z" fill="#6E5A64"/>
<path d="M313.806 165.161H297.29C292.725 165.161 289.032 161.467 289.032 156.903C289.032 152.339 292.726 148.645 297.29 148.645H313.806C318.371 148.645 322.064 152.339 322.064 156.903C322.064 161.467 318.371 165.161 313.806 165.161Z" fill="#6E5A64"/>
<path d="M404.645 458.323H392.258V445.936C392.258 441.371 388.564 437.678 384 437.678C379.436 437.678 375.742 441.372 375.742 445.936V458.323H363.355C358.79 458.323 355.097 462.017 355.097 466.581C355.097 471.145 358.791 474.839 363.355 474.839H375.742V487.226C375.742 491.791 379.436 495.484 384 495.484C388.564 495.484 392.258 491.79 392.258 487.226V474.839H404.645C409.21 474.839 412.903 471.145 412.903 466.581C412.903 462.017 409.21 458.323 404.645 458.323Z" fill="#A5CDFF"/>
<path d="M181.677 512H115.612C111.051 512 107.354 508.303 107.354 503.742V470.71C107.354 466.149 111.051 462.452 115.612 462.452H181.677C186.238 462.452 189.935 466.149 189.935 470.71V503.742C189.935 508.303 186.238 512 181.677 512Z" fill="#A5CDFF"/>
<path d="M148.645 478.968C144.08 478.968 140.387 475.274 140.387 470.71V445.936C140.387 441.371 144.081 437.678 148.645 437.678C153.209 437.678 156.903 441.372 156.903 445.936V470.71C156.903 475.274 153.21 478.968 148.645 478.968Z" fill="white"/>
<path d="M206.452 198.194C201.887 198.194 198.194 194.5 198.194 189.936V181.678C198.194 177.113 201.888 173.42 206.452 173.42C211.016 173.42 214.71 177.114 214.71 181.678V189.936C214.71 194.5 211.016 198.194 206.452 198.194Z" fill="#64505A"/>
<path d="M305.548 198.194C300.983 198.194 297.29 194.5 297.29 189.936V181.678C297.29 177.113 300.984 173.42 305.548 173.42C310.113 173.42 313.806 177.114 313.806 181.678V189.936C313.806 194.5 310.113 198.194 305.548 198.194Z" fill="#64505A"/>
<path d="M227.562 227.067C222.513 227.067 218.83 232.053 220.486 236.822C225.167 250.304 239.297 260.099 256 260.099C272.703 260.099 286.833 250.304 291.514 236.822C293.17 232.052 289.487 227.067 284.438 227.067H227.562Z" fill="white"/>
<path d="M238.15 95.1959C262.236 113.174 314.982 145.274 396.386 156.903V144.065C396.386 65.3759 331.993 -1.45007 253.317 0.0239295C177.021 1.45293 115.612 63.7479 115.612 140.386V145.655C133.226 139.016 175.787 121.441 208.319 95.5689C217 88.6679 229.262 88.5619 238.15 95.1959Z" fill="#6E5A64"/>
<path d="M342.121 340.718L305.548 323.468L256 512H297.29L342.965 413.037C345.372 407.822 344.897 401.733 341.711 396.954L330.322 379.87L346.488 358.316C350.933 352.39 348.82 343.878 342.121 340.718Z" fill="#DBD9DC"/>
<path d="M169.879 340.718L206.452 323.468L256 512H214.71L169.035 413.037C166.628 407.822 167.103 401.733 170.289 396.954L181.678 379.87L165.512 358.316C161.067 352.39 163.18 343.878 169.879 340.718Z" fill="#DBD9DC"/>
<path d="M396.217 133.975C392.863 57.094 328.574 -1.38503 253.318 0.0249654C237.832 0.314965 223.014 3.22397 209.143 8.13997C241.706 50.333 303.852 112.678 396.217 133.975Z" fill="#84737B"/>
<path d="M181.677 495.484H115.612C111.051 495.484 107.354 491.786 107.354 487.226V503.742C107.354 508.302 111.051 512 115.612 512H181.677C186.238 512 189.935 508.302 189.935 503.742V487.226C189.935 491.786 186.238 495.484 181.677 495.484Z" fill="#8CB4EB"/>
</svg>
