<svg width="512" height="512" viewBox="0 0 512 512" fill="none" xmlns="http://www.w3.org/2000/svg">
<path d="M418.627 367.345L331.591 341.746H180.41L93.3741 367.345C72.2871 373.548 57.8071 392.9 57.8071 414.88V487.226C57.8071 500.908 68.8991 512 82.5811 512H429.42C443.102 512 454.194 500.908 454.194 487.226V414.88C454.194 392.9 439.713 373.547 418.627 367.345Z" fill="#EDEBED"/>
<path d="M297.29 512H214.71L198.194 346.839H313.806L297.29 512Z" fill="#A5CDFF"/>
<path d="M198.194 346.839L200.666 371.559C214.275 386.763 233.99 396.388 256.001 396.388C278.012 396.388 297.727 386.763 311.336 371.559L313.808 346.839H198.194Z" fill="#8CB4EB"/>
<path d="M256 379.871C224.074 379.871 198.193 353.99 198.193 322.065V264.258H313.806V322.065C313.806 353.99 287.926 379.871 256 379.871Z" fill="#F7D291"/>
<path d="M198.194 299.198C215.544 308.465 235.217 313.807 256 313.807C276.783 313.807 296.457 308.465 313.806 299.198V264.258H198.194V299.198Z" fill="#F0C382"/>
<path d="M367.484 156.903H363.355V74.323H148.645V156.904H144.516C133.161 156.904 123.871 166.194 123.871 177.549C123.871 188.904 133.161 198.194 144.516 198.194H149.062C153.292 253.613 199.497 297.291 256 297.291C312.503 297.291 358.708 253.613 362.938 198.194H367.484C378.839 198.194 388.129 188.904 388.129 177.549C388.129 166.194 378.839 156.903 367.484 156.903Z" fill="#FFE1A0"/>
<path d="M206.452 182.395C201.887 182.395 198.194 178.697 198.194 174.137V165.879C198.194 161.319 201.888 157.621 206.452 157.621C211.016 157.621 214.71 161.319 214.71 165.879V174.137C214.71 178.698 211.016 182.395 206.452 182.395Z" fill="#6E5A64"/>
<path d="M305.548 182.395C300.983 182.395 297.29 178.697 297.29 174.137V165.879C297.29 161.319 300.984 157.621 305.548 157.621C310.113 157.621 313.806 161.319 313.806 165.879V174.137C313.806 178.698 310.113 182.395 305.548 182.395Z" fill="#6E5A64"/>
<path d="M214.71 148.645H198.194C193.629 148.645 189.936 144.947 189.936 140.387C189.936 135.827 193.63 132.129 198.194 132.129H214.71C219.275 132.129 222.968 135.827 222.968 140.387C222.968 144.947 219.274 148.645 214.71 148.645Z" fill="#A06E50"/>
<path d="M313.806 148.645H297.29C292.725 148.645 289.032 144.947 289.032 140.387C289.032 135.827 292.726 132.129 297.29 132.129H313.806C318.371 132.129 322.064 135.827 322.064 140.387C322.064 144.947 318.371 148.645 313.806 148.645Z" fill="#A06E50"/>
<path d="M148.645 74.323V156.904H145.241C135.839 156.904 127.057 162.862 124.621 171.944C120.938 185.677 131.336 198.195 144.516 198.195H149.062C153.292 253.614 199.497 297.292 256 297.292C261.649 297.292 267.157 296.742 272.568 295.901C221.114 287.959 181.677 243.615 181.677 189.937V139.753C181.677 120.366 198.051 104.584 217.373 106.176C222.781 106.622 228.46 106.86 234.427 106.86C258.373 106.86 285.11 103.038 313.898 95.501C326.476 92.208 337.295 84.542 344.686 74.323H148.645Z" fill="#F7D291"/>
<path d="M188.903 41.2901L189.935 74.3221C189.935 74.3221 165.161 99.0961 165.161 132.128V142.322C165.161 150.651 158.959 157.677 150.693 158.711L132.128 161.032V90.8391C132.129 63.4741 157.935 39.9141 188.903 41.2901Z" fill="#A06E50"/>
<path d="M354.938 387.97L338.581 371.613L356.086 348.273C359.871 343.226 358.162 335.984 352.519 333.162L313.807 313.806L256 512H305.548L358.031 407.034C361.21 400.675 359.964 392.996 354.938 387.97Z" fill="#DBD9DC"/>
<path d="M412.903 458.323H400.516V445.936C400.516 441.371 396.822 437.678 392.258 437.678C387.694 437.678 384 441.371 384 445.935V458.322H371.613C367.048 458.322 363.355 462.016 363.355 466.58C363.355 471.144 367.049 474.838 371.613 474.838H384V487.225C384 491.79 387.694 495.483 392.258 495.483C396.822 495.483 400.516 491.789 400.516 487.225V474.838H412.903C417.468 474.838 421.161 471.144 421.161 466.58C421.161 462.016 417.467 458.323 412.903 458.323Z" fill="#A5CDFF"/>
<path d="M323.096 16.5159L322.064 74.3219C322.064 74.3219 346.838 99.0959 346.838 132.128V142.322C346.838 150.651 353.04 157.677 361.306 158.711L379.871 161.032V66.0649C379.871 38.6999 354.065 15.1399 323.096 16.5159Z" fill="#CD916E"/>
<path d="M256 239.484C243.605 239.484 232.177 235.508 225.427 228.847C222.177 225.637 222.145 220.412 225.346 217.17C228.564 213.92 233.79 213.888 237.023 217.089C239.773 219.799 246.386 222.968 255.999 222.968C265.612 222.968 272.225 219.799 274.975 217.089C278.209 213.887 283.435 213.92 286.652 217.17C289.854 220.412 289.821 225.638 286.571 228.847C279.823 235.508 268.395 239.484 256 239.484Z" fill="#E3AA75"/>
<path d="M157.063 387.97L173.42 371.613L155.915 348.273C152.13 343.226 153.839 335.984 159.482 333.162L198.194 313.806L256 512H206.452L153.969 407.034C150.79 400.675 152.036 392.996 157.063 387.97Z" fill="#DBD9DC"/>
<path d="M272 0C203.102 0 189.898 20.945 136.845 37.843C133.199 39.004 131.558 43.227 133.619 46.45C145.131 64.458 187.98 111.396 309.715 79.523C323.97 75.791 334.932 64.297 337.822 49.847C341.17 33.106 330.996 16.526 315.699 8.946C303.549 2.926 287.615 0 272 0Z" fill="#B67F5F"/>
<path d="M173.419 512H107.354C102.793 512 99.0962 508.303 99.0962 503.742V470.71C99.0962 466.149 102.793 462.452 107.354 462.452H173.419C177.98 462.452 181.677 466.149 181.677 470.71V503.742C181.677 508.303 177.98 512 173.419 512Z" fill="#A5CDFF"/>
<path d="M140.387 478.968C135.822 478.968 132.129 475.274 132.129 470.71V445.936C132.129 441.371 135.823 437.678 140.387 437.678C144.951 437.678 148.645 441.372 148.645 445.936V470.71C148.645 475.274 144.952 478.968 140.387 478.968Z" fill="white"/>
<path d="M173.419 495.484H107.354C102.793 495.484 99.0962 491.786 99.0962 487.226V503.742C99.0962 508.302 102.793 512 107.354 512H173.419C177.98 512 181.677 508.302 181.677 503.742V487.226C181.677 491.786 177.98 495.484 173.419 495.484Z" fill="#8CB4EB"/>
</svg>
