<svg width="512" height="512" viewBox="0 0 512 512" fill="none" xmlns="http://www.w3.org/2000/svg">
<g clip-path="url(#clip0)">
<path d="M435.686 360.412L391.848 113.822C380.141 47.97 322.885 -0.00199994 256 6.25341e-08C189.113 6.25341e-08 131.858 47.974 120.151 113.829L76.314 360.412C75.115 367.157 78.204 373.941 84.078 377.465L132.129 404.644H379.871L427.922 377.465C433.796 373.942 436.885 367.157 435.686 360.412Z" fill="#6E5A64"/>
<path d="M412.878 401.236L327.587 371.133C314.38 366.472 305.548 353.989 305.548 339.984V297.29H206.451V339.984C206.451 353.989 197.619 366.472 184.413 371.133L99.122 401.236C79.312 408.228 66.065 426.952 66.065 447.959V487.226C66.065 500.908 77.157 512 90.839 512H421.162C434.844 512 445.936 500.908 445.936 487.226V447.959C445.935 426.952 432.688 408.228 412.878 401.236Z" fill="#EDEBED"/>
<path d="M417.535 403.302C384.049 433.841 324.241 454.193 256 454.193C187.759 454.193 127.951 433.841 94.465 403.302C77.306 411.427 66.065 428.672 66.065 447.959V487.225C66.065 500.907 77.157 511.999 90.839 511.999H421.162C434.844 511.999 445.936 500.907 445.936 487.225V447.96C445.935 428.672 434.695 411.427 417.535 403.302Z" fill="#6E5A64"/>
<path d="M256 470.71C332.546 470.71 397.66 447.477 430.784 412.591C426.928 408.865 422.52 405.664 417.535 403.303C384.049 433.842 324.241 454.194 256 454.194C187.759 454.194 127.951 433.842 94.465 403.303C89.48 405.664 85.072 408.866 81.217 412.591C114.34 447.477 179.454 470.71 256 470.71Z" fill="#64505A"/>
<path d="M206.452 319.907C221.641 326.567 238.381 330.322 256 330.322C273.619 330.322 290.359 326.567 305.548 319.907V297.29H206.451L206.452 319.907Z" fill="#DBD9DC"/>
<path d="M148.645 206.452C148.645 265.742 196.709 313.807 256 313.807C315.29 313.807 363.355 265.743 363.355 206.452V141.754C363.355 135.348 362.826 128.954 361.773 122.635C353.155 70.929 308.419 33.032 256 33.032C203.581 33.032 158.845 70.929 150.228 122.635C149.175 128.954 148.646 135.348 148.646 141.754L148.645 206.452Z" fill="#F5B97D"/>
<path d="M361.773 122.635C352.898 69.3879 305.72 30.7849 251.293 33.1339C202.807 35.2259 160.769 70.8429 151.018 118.384C149.44 126.077 148.646 133.908 148.646 141.754V148.214L148.649 148.212L148.646 148.216V206.452C148.646 265.742 196.711 313.807 256.001 313.807C261.633 313.807 267.119 313.242 272.517 312.408C221.089 304.444 181.678 260.112 181.678 206.452V160.66C181.678 144.507 193.383 130.913 209.281 128.056C224.245 125.368 240.117 123.871 256 123.871C293.109 123.871 328.401 131.131 355.372 144.313L363.355 148.214V141.754C363.355 135.349 362.826 128.954 361.773 122.635Z" fill="#E3AA75"/>
<path d="M256 264.258C243.605 264.258 232.177 260.282 225.427 253.621C222.177 250.411 222.145 245.186 225.346 241.944C228.564 238.702 233.79 238.662 237.023 241.863C239.773 244.573 246.386 247.742 255.999 247.742C265.612 247.742 272.225 244.573 274.975 241.863C278.209 238.661 283.435 238.702 286.652 241.944C289.854 245.186 289.821 250.412 286.571 253.621C279.823 260.282 268.395 264.258 256 264.258Z" fill="#B67F5F"/>
<path d="M206.452 206.452C201.887 206.452 198.194 202.758 198.194 198.194V189.936C198.194 185.371 201.888 181.678 206.452 181.678C211.016 181.678 214.71 185.372 214.71 189.936V198.194C214.71 202.758 211.016 206.452 206.452 206.452Z" fill="#64505A"/>
<path d="M305.548 206.452C300.983 206.452 297.29 202.758 297.29 198.194V189.936C297.29 185.371 300.984 181.678 305.548 181.678C310.113 181.678 313.806 185.372 313.806 189.936V198.194C313.806 202.758 310.113 206.452 305.548 206.452Z" fill="#64505A"/>
<path d="M214.71 173.419H198.194C193.629 173.419 189.936 169.725 189.936 165.161C189.936 160.597 193.63 156.903 198.194 156.903H214.71C219.275 156.903 222.968 160.597 222.968 165.161C222.968 169.725 219.274 173.419 214.71 173.419Z" fill="#A06E50"/>
<path d="M313.806 173.419H297.29C292.725 173.419 289.032 169.725 289.032 165.161C289.032 160.597 292.726 156.903 297.29 156.903H313.806C318.371 156.903 322.064 160.597 322.064 165.161C322.064 169.725 318.371 173.419 313.806 173.419Z" fill="#A06E50"/>
<path d="M213.597 451.45L230.897 512H248.079L231.304 453.286C225.299 452.845 219.413 452.201 213.597 451.45Z" fill="#C9C6CA"/>
<path d="M281.038 453.266L264.258 512H281.44L298.753 451.403C292.934 452.161 287.048 452.819 281.038 453.266Z" fill="#C9C6CA"/>
<path d="M256 107.355C297.226 107.355 334.622 115.788 362.624 129.474C362.381 127.19 362.151 124.903 361.773 122.635C353.155 70.929 308.419 33.032 256 33.032C203.581 33.032 158.845 70.929 150.227 122.635C149.849 124.903 149.619 127.189 149.376 129.474C177.378 115.788 214.774 107.355 256 107.355Z" fill="#EDEBED"/>
<path d="M272.515 34.391C267.113 33.551 261.613 33.032 256 33.032C203.581 33.032 158.845 70.929 150.227 122.635C149.849 124.903 149.619 127.189 149.376 129.474C159.876 124.343 171.698 119.95 184.546 116.462C194.344 73.375 229.51 41.077 272.515 34.391Z" fill="#DBD9DC"/>
</g>
<defs>
<clipPath id="clip0">
<rect width="512" height="512" fill="white"/>
</clipPath>
</defs>
</svg>
