<svg width="512" height="512" viewBox="0 0 512 512" fill="none" xmlns="http://www.w3.org/2000/svg">
<path d="M418.626 377.943L331.59 352.344C321.046 349.243 313.806 339.566 313.806 328.576V272.516H198.194V328.576C198.194 339.566 190.954 349.243 180.41 352.344L93.374 377.943C72.287 384.145 57.807 403.498 57.807 425.478V487.226C57.807 500.908 68.899 512 82.581 512H429.42C443.102 512 454.194 500.908 454.194 487.226V425.478C454.194 403.498 439.713 384.145 418.626 377.943Z" fill="#F7D291"/>
<path d="M418.627 377.944L333.423 352.884C317.455 378.943 288.801 396.388 256 396.388C223.199 396.388 194.544 378.943 178.577 352.884L93.374 377.944C72.287 384.146 57.807 403.498 57.807 425.478V487.226C57.807 500.908 68.899 512 82.581 512H429.42C443.102 512 454.194 500.908 454.194 487.226V425.478C454.194 403.498 439.714 384.145 418.627 377.944Z" fill="#A5CDFF"/>
<path d="M162.198 357.701C180.537 390.613 215.648 412.904 256 412.904C296.352 412.904 331.463 390.614 349.802 357.701L333.423 352.883C317.455 378.942 288.801 396.387 256 396.387C223.199 396.387 194.544 378.942 178.577 352.883L162.198 357.701Z" fill="#8CB4EB"/>
<path d="M165.161 356.829L123.871 368.974V470.71H165.161V356.829Z" fill="#FF8250"/>
<path d="M346.839 356.829L388.129 368.974V470.71H346.839V356.829Z" fill="#FF8250"/>
<path d="M363.355 437.677H148.645C134.963 437.677 123.871 448.769 123.871 462.451V512H388.129V462.452C388.129 448.769 377.036 437.677 363.355 437.677Z" fill="#FF9664"/>
<path d="M198.194 307.461C215.543 316.728 235.218 322.065 256 322.065C276.782 322.065 296.457 316.728 313.806 307.461V280.775H198.194V307.461Z" fill="#F0C382"/>
<path d="M371.613 165.581V132.129C371.613 68.2781 319.851 16.5161 256 16.5161C192.149 16.5161 140.387 68.2781 140.387 132.129V165.581C130.993 167.508 123.871 175.865 123.871 185.807C123.871 197.162 133.161 206.452 144.516 206.452H149.062C153.292 261.871 199.497 305.549 256 305.549C312.503 305.549 358.708 261.871 362.938 206.452H367.484C378.839 206.452 388.129 197.162 388.129 185.807C388.129 175.865 381.007 167.508 371.613 165.581Z" fill="#FFE1A0"/>
<path d="M256 8.25806C183.027 8.25806 123.871 67.4141 123.871 140.387H388.129C388.129 67.4141 328.973 8.25806 256 8.25806Z" fill="#FFE17D"/>
<path d="M256 8.25806C183.027 8.25806 123.871 67.4131 123.871 140.387H198.194C198.194 94.994 221.123 55.0251 256 31.2621V8.25806Z" fill="#FFD164"/>
<path d="M355.096 148.645V140.387H140.386V165.161V165.58C129.836 167.743 122.15 178.021 124.203 189.542C125.986 199.549 135.347 206.452 145.511 206.451H149.061C153.291 261.87 199.496 305.548 255.999 305.548C264.351 305.548 272.438 304.489 280.238 302.683C228.576 291.13 189.935 245.081 189.935 189.935C189.935 176.253 201.027 165.161 214.709 165.161H338.58C347.702 165.161 355.096 157.767 355.096 148.645Z" fill="#F7D291"/>
<path d="M275.118 222.968H236.885C224.261 222.968 213.656 232.46 212.262 245.006L208.36 280.121C207.214 290.437 212.62 300.374 221.903 305.016L244.921 316.525C251.896 320.012 260.105 320.012 267.08 316.525L290.098 305.016C299.382 300.374 304.788 290.437 303.641 280.121L299.739 245.006C298.346 232.46 287.742 222.968 275.118 222.968Z" fill="#CD916E"/>
<path d="M253.179 307.58C243.895 301.859 238.489 289.611 239.636 276.896L243.538 233.615C243.882 229.794 244.798 226.209 246.158 222.968H236.886C224.263 222.968 213.658 232.46 212.264 245.006L208.362 280.121C207.216 290.437 212.622 300.374 221.905 305.016L244.923 316.525C251.897 320.012 260.107 320.012 267.082 316.525L267.42 316.356L253.179 307.58Z" fill="#B67F5F"/>
<path d="M256 264.258C246.403 264.258 237.669 259.814 232.637 252.363C230.089 248.581 231.081 243.452 234.863 240.895C238.653 238.355 243.774 239.347 246.331 243.121C250.17 248.815 261.831 248.815 265.67 243.121C268.218 239.347 273.347 238.355 277.138 240.895C280.92 243.451 281.912 248.58 279.364 252.363C274.331 259.815 265.596 264.258 256 264.258Z" fill="#F7D291"/>
<path d="M210.581 189.935C206.016 189.935 202.323 186.241 202.323 181.677V173.419C202.323 168.854 206.017 165.161 210.581 165.161C215.145 165.161 218.839 168.855 218.839 173.419V181.677C218.839 186.242 215.145 189.935 210.581 189.935Z" fill="#6E5A64"/>
<path d="M301.419 189.935C296.854 189.935 293.161 186.241 293.161 181.677V173.419C293.161 168.854 296.855 165.161 301.419 165.161C305.983 165.161 309.677 168.855 309.677 173.419V181.677C309.677 186.242 305.984 189.935 301.419 189.935Z" fill="#6E5A64"/>
<path d="M272.516 107.355H239.484C234.923 107.355 231.226 103.658 231.226 99.097V8.258C231.226 3.697 234.923 0 239.484 0H272.516C277.077 0 280.774 3.697 280.774 8.258V99.097C280.773 103.658 277.077 107.355 272.516 107.355Z" fill="#FFEDB1"/>
<path d="M346.839 107.355H330.323C325.762 107.355 322.065 103.658 322.065 99.0971V27.1481C322.065 22.7681 327.066 20.2671 330.57 22.8951L348.491 36.3351C352.65 39.4541 355.097 44.3491 355.097 49.5481V99.0961C355.096 103.658 351.4 107.355 346.839 107.355Z" fill="#FFEDB1"/>
<path d="M165.161 107.355H181.677C186.238 107.355 189.935 103.658 189.935 99.0971V27.1481C189.935 22.7681 184.934 20.2671 181.43 22.8951L163.509 36.3351C159.35 39.4541 156.903 44.3491 156.903 49.5481V99.0961C156.903 103.658 160.6 107.355 165.161 107.355Z" fill="#FFE17D"/>
<path d="M396.387 148.645H115.613C111.052 148.645 107.355 144.948 107.355 140.387C107.355 135.826 111.052 132.129 115.613 132.129H396.387C400.948 132.129 404.645 135.826 404.645 140.387C404.645 144.948 400.948 148.645 396.387 148.645Z" fill="#FFD164"/>
<path d="M156.9 478.968C161.461 478.968 165.158 475.271 165.158 470.71C165.158 466.149 161.461 462.452 156.9 462.452C152.339 462.452 148.642 466.149 148.642 470.71C148.642 475.271 152.339 478.968 156.9 478.968Z" fill="#DBD9DC"/>
<path d="M355.1 478.968C359.661 478.968 363.358 475.271 363.358 470.71C363.358 466.149 359.661 462.452 355.1 462.452C350.539 462.452 346.842 466.149 346.842 470.71C346.842 475.271 350.539 478.968 355.1 478.968Z" fill="#DBD9DC"/>
<path d="M123.871 437.677V512H99.097V462.452C99.097 448.769 110.189 437.677 123.871 437.677Z" fill="#8CB4EB"/>
<path d="M388.129 437.677V512H412.903V462.452C412.903 448.769 401.811 437.677 388.129 437.677Z" fill="#8CB4EB"/>
</svg>
