<svg width="512" height="512" viewBox="0 0 512 512" fill="none" xmlns="http://www.w3.org/2000/svg">
<path d="M363.355 346.839H148.645C130.402 346.839 115.613 361.628 115.613 379.871V421.161H396.387V379.871C396.387 361.628 381.598 346.839 363.355 346.839Z" fill="#FF8087"/>
<path d="M280.774 66.065H231.226C212.983 66.065 198.194 51.276 198.194 33.033C198.194 14.789 212.983 0 231.226 0H280.774C299.017 0 313.806 14.789 313.806 33.032C313.806 51.275 299.017 66.065 280.774 66.065Z" fill="#FFE17D"/>
<path d="M412.878 409.494L327.587 379.391C314.38 374.73 305.548 362.247 305.548 348.242V305.548H206.451V348.242C206.451 362.247 197.619 374.73 184.412 379.391L99.121 409.494C79.311 416.486 66.064 435.21 66.064 456.217V487.226C66.064 500.908 77.156 512 90.838 512H421.161C434.843 512 445.935 500.908 445.935 487.226V456.217C445.935 435.21 432.688 416.486 412.878 409.494Z" fill="#E3AA75"/>
<path d="M412.878 409.494L336.271 382.456C327.64 418.839 295.022 445.936 256 445.936C216.978 445.936 184.36 418.839 175.729 382.456L99.1219 409.494C79.3119 416.486 66.0649 435.21 66.0649 456.218V487.226C66.0649 500.908 77.1569 512 90.8389 512H421.162C434.844 512 445.936 500.908 445.936 487.226V456.218C445.935 435.21 432.688 416.486 412.878 409.494Z" fill="#9C969E"/>
<path d="M160.11 387.968C171.071 430.768 209.783 462.452 256 462.452C302.217 462.452 340.929 430.769 351.89 387.968L336.271 382.456C327.64 418.839 295.022 445.936 256 445.936C216.978 445.936 184.36 418.839 175.729 382.456L160.11 387.968Z" fill="#867E88"/>
<path d="M206.452 344.53C221.699 351.272 238.453 355.097 256 355.097C273.547 355.097 290.301 351.272 305.548 344.53V305.548H206.451L206.452 344.53Z" fill="#D29B6E"/>
<path d="M370.028 198.524L363.355 165.161H148.645L141.972 198.524C132.724 200.067 124.928 207.216 123.978 216.708C122.741 229.066 132.411 239.483 144.516 239.483H149.062C153.292 294.902 199.497 338.58 256 338.58C312.503 338.58 358.708 294.903 362.938 239.483H367.484C379.589 239.483 389.26 229.066 388.022 216.708C387.072 207.216 379.276 200.068 370.028 198.524Z" fill="#F5B97D"/>
<path d="M148.645 148.645L141.518 198.532C131.66 200.109 124.925 207.248 123.978 216.708C122.741 229.066 132.411 239.483 144.516 239.483H149.062C153.292 294.902 199.497 338.58 256 338.58C261.649 338.58 267.157 338.03 272.568 337.189C221.114 329.247 181.677 284.903 181.677 231.225C181.677 212.981 196.466 198.193 214.709 198.193H313.806C322.927 198.193 330.322 190.798 330.322 181.677V148.645H148.645Z" fill="#E3AA75"/>
<path d="M172.485 375.29L148.604 384.842C143.641 386.826 140.387 391.633 140.387 396.979V512H181.677V381.512C181.677 376.771 176.888 373.528 172.485 375.29Z" fill="#FF8087"/>
<path d="M256 289.032C243.605 289.032 232.177 285.056 225.427 278.395C222.177 275.185 222.145 269.96 225.346 266.718C228.564 263.468 233.79 263.436 237.023 266.637C239.773 269.347 246.386 272.516 255.999 272.516C265.612 272.516 272.225 269.347 274.975 266.637C278.209 263.435 283.435 263.468 286.652 266.718C289.854 269.96 289.821 275.186 286.571 278.395C279.823 285.056 268.395 289.032 256 289.032Z" fill="#B67F5F"/>
<path d="M206.452 231.105C201.887 231.105 198.194 227.411 198.194 222.847V214.589C198.194 210.024 201.888 206.331 206.452 206.331C211.016 206.331 214.71 210.025 214.71 214.589V222.847C214.71 227.411 211.016 231.105 206.452 231.105Z" fill="#5A4650"/>
<path d="M305.548 231.105C300.983 231.105 297.29 227.411 297.29 222.847V214.589C297.29 210.024 300.984 206.331 305.548 206.331C310.113 206.331 313.806 210.025 313.806 214.589V222.847C313.806 227.411 310.113 231.105 305.548 231.105Z" fill="#5A4650"/>
<path d="M280.774 57.8059H231.226C171.936 57.8059 123.871 105.87 123.871 165.161V218.838C123.871 207.407 133.16 198.147 144.602 198.193C146.853 198.202 148.646 196.314 148.646 194.064V189.935C148.646 185.374 152.343 181.677 156.904 181.677H265.676C270.056 181.677 274.257 179.937 277.355 176.84L295.236 158.959C299.775 154.42 307.53 156.568 309.087 162.795L312.244 175.422C313.163 179.098 316.466 181.677 320.256 181.677H355.099C359.66 181.677 363.357 185.374 363.357 189.935V194.078C363.357 196.321 365.144 198.204 367.386 198.193C378.833 198.139 388.131 207.402 388.131 218.838V165.161C388.129 105.871 340.065 57.8059 280.774 57.8059Z" fill="#FFD164"/>
<path d="M297.29 59.2061C262.418 64.6051 233.072 86.7271 217.791 117.139C206.726 139.161 222.654 165.161 247.3 165.161H289.032L295.235 158.958C299.774 154.419 307.529 156.567 309.086 162.794L309.678 165.161H388.13C388.129 111.502 348.718 67.1691 297.29 59.2061Z" fill="#FFE17D"/>
<path d="M156.903 381.523L148.604 384.843C143.641 386.827 140.387 391.634 140.387 396.98V512H156.903V381.523Z" fill="#E6646E"/>
<path d="M339.515 375.29L363.396 384.842C368.359 386.826 371.613 391.633 371.613 396.979V512H330.323V381.512C330.323 376.771 335.112 373.528 339.515 375.29Z" fill="#FF8087"/>
<path d="M355.097 381.523L363.396 384.843C368.359 386.827 371.613 391.634 371.613 396.98V512H355.097V381.523Z" fill="#E6646E"/>
<path d="M181.68 429.42H140.39V454.194H181.68V429.42Z" fill="#5D5360"/>
<path d="M156.906 429.42H140.39V454.194H156.906V429.42Z" fill="#4B3F4E"/>
<path d="M371.61 429.42H330.32V454.194H371.61V429.42Z" fill="#5D5360"/>
<path d="M371.616 429.42H355.1V454.194H371.616V429.42Z" fill="#4B3F4E"/>
</svg>
