<svg width="512" height="512" viewBox="0 0 512 512" fill="none" xmlns="http://www.w3.org/2000/svg">
<g clip-path="url(#clip0)">
<path d="M418.611 424.783L331.583 399.187C321.04 396.086 313.801 386.411 313.801 375.422V313.826H198.199V375.422C198.199 386.411 190.959 396.087 180.417 399.187L93.389 424.783C72.304 430.984 57.825 450.335 57.825 472.313V487.229C57.825 500.91 68.916 512 82.597 512H429.404C443.085 512 454.176 500.909 454.176 487.228V472.312C454.175 450.335 439.696 430.984 418.611 424.783Z" fill="#DBD9DC"/>
<path d="M214.714 493.421H297.287C345.89 493.421 387.504 463.231 404.568 420.652L331.583 399.186C321.041 396.085 313.801 386.409 313.801 375.42V313.825H198.199V375.42C198.199 386.409 190.959 396.085 180.417 399.186L107.432 420.652C124.496 463.231 166.11 493.421 214.714 493.421Z" fill="#C9C6CA"/>
<path d="M346.83 328.275H165.17C137.808 328.275 115.626 350.456 115.626 377.819C115.626 432.543 159.989 476.907 214.714 476.907H297.287C352.012 476.907 396.375 432.544 396.375 377.819C396.374 350.456 374.193 328.275 346.83 328.275Z" fill="#FF9664"/>
<path d="M344.633 353.047C362.607 353.047 369.665 376.358 354.71 386.328L269.741 442.974C261.42 448.521 250.58 448.521 242.259 442.974L157.29 386.328C142.335 376.358 149.393 353.047 167.367 353.047H344.633Z" fill="#FF8250"/>
<path d="M178.145 400.232L242.259 442.974C250.58 448.521 261.42 448.521 269.741 442.974L333.855 400.232L331.583 399.564C321.041 396.463 313.801 386.787 313.801 375.799V322.083H198.199V375.799C198.199 386.788 190.959 396.463 180.417 399.564L178.145 400.232Z" fill="#F7D291"/>
<path d="M198.199 348.766C215.547 358.032 235.22 363.368 256 363.368C276.78 363.368 296.453 358.032 313.801 348.766V322.082H198.199V348.766Z" fill="#F0C382"/>
<path d="M371.602 206.9V173.451C371.602 109.606 319.845 57.8491 256 57.8491C192.155 57.8491 140.398 109.606 140.398 173.451V206.9C131.005 208.827 123.883 217.183 123.883 227.124C123.883 238.478 133.172 247.767 144.526 247.767H149.072C153.301 303.181 199.502 346.855 256 346.855C312.498 346.855 358.698 303.181 362.928 247.767H367.474C378.828 247.767 388.117 238.478 388.117 227.124C388.117 217.184 380.995 208.827 371.602 206.9Z" fill="#FFE1A0"/>
<path d="M189.942 231.253V118.853C189.942 102.552 168.71 96.0229 159.676 109.592C147.5 127.88 140.398 149.828 140.398 173.452V206.9C129.849 209.064 122.164 219.338 124.216 230.858C125.998 240.864 135.357 247.767 145.521 247.767H149.073C153.302 303.181 199.503 346.855 256.001 346.855C264.353 346.855 272.438 345.796 280.238 343.99C228.579 332.438 189.942 286.393 189.942 231.253Z" fill="#F7D291"/>
<path d="M206.456 234.003C201.892 234.003 198.199 230.31 198.199 225.746V217.489C198.199 212.925 201.892 209.232 206.456 209.232C211.02 209.232 214.713 212.925 214.713 217.489V225.746C214.714 230.309 211.02 234.003 206.456 234.003Z" fill="#6E5A64"/>
<path d="M305.544 234.003C300.98 234.003 297.287 230.31 297.287 225.746V217.489C297.287 212.925 300.98 209.232 305.544 209.232C310.108 209.232 313.801 212.925 313.801 217.489V225.746C313.801 230.309 310.108 234.003 305.544 234.003Z" fill="#6E5A64"/>
<path d="M256 291.803C243.606 291.803 232.18 287.828 225.43 281.167C222.18 277.958 222.148 272.732 225.349 269.491C228.566 266.241 233.792 266.209 237.025 269.41C239.775 272.119 246.387 275.288 255.999 275.288C265.611 275.288 272.223 272.119 274.973 269.41C278.207 266.209 283.432 266.241 286.649 269.491C289.85 272.733 289.818 277.958 286.568 281.167C279.82 287.827 268.394 291.803 256 291.803Z" fill="#E3AA75"/>
<path d="M222.971 209.23C222.108 209.23 221.229 209.093 220.358 208.803L195.586 200.546C191.264 199.111 188.925 194.434 190.369 190.103C191.812 185.781 196.449 183.434 200.812 184.886L225.584 193.143C229.906 194.578 232.245 199.255 230.801 203.586C229.648 207.045 226.43 209.23 222.971 209.23Z" fill="#A06E50"/>
<path d="M289.029 209.23C285.57 209.23 282.352 207.045 281.199 203.585C279.756 199.255 282.094 194.578 286.416 193.142L311.188 184.885C315.55 183.434 320.187 185.78 321.631 190.102C323.074 194.432 320.736 199.109 316.414 200.545L291.642 208.802C290.771 209.094 289.892 209.23 289.029 209.23Z" fill="#A06E50"/>
<path d="M248.631 94.067L235.328 72.693C232.731 68.52 232.127 63.407 233.682 58.744L252.398 2.59601C253.552 -0.865988 258.449 -0.865988 259.602 2.59601L278.318 58.744C279.872 63.407 279.269 68.519 276.672 72.692L263.371 94.066C259.975 99.526 252.029 99.526 248.631 94.067Z" fill="#FF9664"/>
<path d="M256 0C254.487 0 252.975 0.866 252.398 2.597L233.682 58.745C232.128 63.408 232.731 68.521 235.328 72.694L248.631 94.067C250.329 96.797 253.164 98.161 256 98.161V0Z" fill="#FF8250"/>
<path d="M189.942 454.199C185.382 454.199 181.685 457.896 181.685 462.456V512H198.2V462.456C198.199 457.896 194.502 454.199 189.942 454.199Z" fill="#867E88"/>
<path d="M322.058 454.199C317.498 454.199 313.801 457.896 313.801 462.456V512H330.316V462.456C330.316 457.896 326.619 454.199 322.058 454.199Z" fill="#867E88"/>
</g>
<defs>
<clipPath id="clip0">
<rect width="512" height="512" fill="white"/>
</clipPath>
</defs>
</svg>
