<svg width="512" height="512" viewBox="0 0 512 512" fill="none" xmlns="http://www.w3.org/2000/svg">
<path d="M256 0C172.58 0 103.669 65.122 98.954 148.407L91.47 280.632C86.644 365.892 154.481 437.678 239.878 437.678H272.123C357.519 437.678 425.357 365.892 420.531 280.632L413.047 148.408C408.331 65.122 339.419 0 256 0Z" fill="#A06E50"/>
<path d="M420.53 280.631L413.292 152.755C409.37 83.4819 362.516 22.6269 295.38 5.10991C263.803 -3.12909 233.609 -0.888092 206.451 8.13291V24.7739C206.451 52.1389 228.635 74.3219 255.999 74.3219H280.773C289.895 74.3219 297.289 81.7169 297.289 90.8379V435.364C370.392 422.885 424.869 357.297 420.53 280.631Z" fill="#B67F5F"/>
<path d="M412.878 392.978L327.587 362.875C314.38 358.214 305.548 345.731 305.548 331.726V289.032H206.451V331.726C206.451 345.731 197.619 358.214 184.412 362.875L99.121 392.978C79.311 399.97 66.064 418.694 66.064 439.701V487.226C66.064 500.908 77.156 512 90.838 512H421.161C434.843 512 445.935 500.908 445.935 487.226V439.701C445.935 418.694 432.688 399.97 412.878 392.978Z" fill="#F7D291"/>
<path d="M412.878 392.978L359.176 374.024C340.138 411.748 301.141 437.677 256 437.677C210.859 437.677 171.862 411.748 152.824 374.024L99.1219 392.978C79.3119 399.97 66.0649 418.694 66.0649 439.702V487.226C66.0649 500.908 77.1569 512 90.8389 512H421.162C434.844 512 445.936 500.908 445.936 487.226V439.702C445.935 418.694 432.688 399.97 412.878 392.978Z" fill="#FF8087"/>
<path d="M137.171 379.548C158.565 423.683 203.661 454.193 256 454.193C308.339 454.193 353.435 423.683 374.829 379.548L359.176 374.024C340.138 411.748 301.141 437.677 256 437.677C210.859 437.677 171.862 411.748 152.824 374.024L137.171 379.548Z" fill="#E6646E"/>
<path d="M206.452 311.498C221.699 318.24 238.453 322.065 256 322.065C273.547 322.065 290.301 318.241 305.548 311.498V289.032H206.451L206.452 311.498Z" fill="#F0C382"/>
<path d="M366.306 165.161C360.116 165.161 355.097 160.143 355.097 153.952V148.645C355.097 116.719 329.216 90.8391 297.291 90.8391H214.71C182.784 90.8391 156.904 116.72 156.904 148.645V153.952C156.904 160.142 151.886 165.161 145.695 165.161C134.896 165.161 125.055 172.93 123.979 183.675C122.741 196.033 132.412 206.451 144.517 206.451H149.063C153.293 261.87 199.498 305.548 256.001 305.548C312.504 305.548 358.709 261.871 362.939 206.451H367.485C379.59 206.451 389.261 196.032 388.023 183.675C386.945 172.931 377.104 165.161 366.306 165.161Z" fill="#FFE1A0"/>
<path d="M206.452 190.653C201.887 190.653 198.194 186.959 198.194 182.395V174.137C198.194 169.572 201.888 165.879 206.452 165.879C211.016 165.879 214.71 169.573 214.71 174.137V182.395C214.71 186.96 211.016 190.653 206.452 190.653Z" fill="#6E5A64"/>
<path d="M305.548 190.653C300.983 190.653 297.29 186.959 297.29 182.395V174.137C297.29 169.572 300.984 165.879 305.548 165.879C310.113 165.879 313.806 169.573 313.806 174.137V182.395C313.806 186.96 310.113 190.653 305.548 190.653Z" fill="#6E5A64"/>
<path d="M225.359 222.965C221.719 222.965 218.805 226.331 219.652 229.871C223.224 244.799 238.141 255.997 256 255.997C273.859 255.997 288.775 244.799 292.348 229.871C293.195 226.331 290.281 222.965 286.641 222.965H225.359Z" fill="white"/>
<path d="M201.271 22.3501C218.76 27.7951 232.656 37.5451 240.317 48.3101C242.286 51.0761 241.074 54.9691 237.883 56.1291C225.465 60.6421 208.49 60.7821 191.001 55.3381C173.512 49.8941 159.616 40.1431 151.955 29.3781C149.986 26.6121 151.198 22.7191 154.389 21.5591C166.807 17.0451 183.783 16.9061 201.271 22.3501Z" fill="#FF8087"/>
<path d="M310.729 22.3501C293.24 27.7951 279.344 37.5451 271.683 48.3101C269.714 51.0761 270.926 54.9691 274.117 56.1291C286.535 60.6421 303.51 60.7821 320.999 55.3381C338.488 49.8941 352.384 40.1431 360.046 29.3781C362.015 26.6121 360.803 22.7191 357.612 21.5591C345.193 17.0451 328.217 16.9061 310.729 22.3501Z" fill="#FF8087"/>
<path d="M181.677 198.194V140.388C181.677 122.145 196.466 107.356 214.709 107.356H280.774C289.896 107.356 297.29 99.9611 297.29 90.8401H214.71C182.784 90.8401 156.904 116.721 156.904 148.646V153.952C156.904 160.228 151.764 165.105 145.488 165.163C134.771 165.261 125.048 173 123.979 183.676C122.741 196.033 132.412 206.452 144.517 206.452H149.063C153.293 261.871 199.498 305.549 256.001 305.549C261.65 305.549 267.158 304.999 272.569 304.158C221.114 296.216 181.677 251.871 181.677 198.194Z" fill="#F7D291"/>
<path d="M198.185 156.903C194.483 156.903 191.12 154.403 190.185 150.645C189.072 146.226 191.766 141.742 196.193 140.637L212.709 136.508C217.12 135.387 221.612 138.089 222.717 142.516C223.83 146.935 221.136 151.419 216.709 152.524L200.193 156.653C199.524 156.823 198.847 156.903 198.185 156.903Z" fill="#B67F5F"/>
<path d="M313.815 156.903C313.154 156.903 312.476 156.822 311.807 156.653L295.291 152.524C290.864 151.419 288.17 146.935 289.283 142.516C290.38 138.089 294.872 135.379 299.291 136.508L315.807 140.637C320.234 141.742 322.928 146.226 321.815 150.645C320.879 154.403 317.516 156.903 313.815 156.903Z" fill="#B67F5F"/>
<path d="M256 66.062C265.121 66.062 272.516 58.6676 272.516 49.546C272.516 40.4245 265.121 33.03 256 33.03C246.878 33.03 239.484 40.4245 239.484 49.546C239.484 58.6676 246.878 66.062 256 66.062Z" fill="#E6646E"/>
</svg>
