<svg width="512" height="512" viewBox="0 0 512 512" fill="none" xmlns="http://www.w3.org/2000/svg">
<g clip-path="url(#clip0)">
<path d="M418.787 377.812L331.666 352.188C321.112 349.084 313.865 339.398 313.865 328.397V280.548H198.138V328.397C198.138 339.398 190.891 349.084 180.337 352.188L93.216 377.812C72.109 384.02 57.614 403.392 57.614 425.393V487.202C57.614 500.898 68.717 512 82.412 512H429.59C443.286 512 454.388 500.897 454.388 487.202V425.393C454.389 403.391 439.894 384.02 418.787 377.812Z" fill="#F7D291"/>
<path d="M140.273 462.4H123.741V511.997H140.273V462.4Z" fill="#F0C382"/>
<path d="M388.263 462.4H371.731V511.997H388.263V462.4Z" fill="#F0C382"/>
<path d="M418.787 377.812L331.665 352.187L256.001 363.209L180.337 352.187L93.215 377.812C72.108 384.02 57.613 403.391 57.613 425.393V462.403L140.275 478.935V512H371.727V478.935L454.388 462.403V425.393C454.389 403.392 439.894 384.02 418.787 377.812Z" fill="#A5CDFF"/>
<path d="M198.138 315.527C215.504 324.803 235.198 330.145 256.001 330.145C276.804 330.145 296.498 324.803 313.864 315.527V280.548H198.138V315.527Z" fill="#F0C382"/>
<path d="M393.323 65.6279H363.461L375.459 35.6329C377.631 30.2029 373.632 24.2969 367.784 24.2969H330.396L308.52 2.42095C306.68 0.580947 304.082 -0.285053 301.506 0.0829467L247.734 7.76495L218.486 0.452947C216.071 -0.151053 213.513 0.365947 211.521 1.85895L181.604 24.2969H148.541C143.976 24.2969 140.275 27.9979 140.275 32.5629V65.6279H118.679C113.037 65.6279 109.053 71.156 110.837 76.5079L123.743 115.225L110.974 127.994C108.682 130.286 107.941 133.706 109.079 136.741L132.009 197.886H379.994L402.924 136.741C404.062 133.706 403.321 130.286 401.029 127.994L388.26 115.225L401.166 76.5079C402.949 71.155 398.965 65.6279 393.323 65.6279Z" fill="#FF9664"/>
<path d="M363.461 189.62C268.263 189.62 191.051 112.964 189.972 18.022L181.605 24.297H148.541C143.976 24.297 140.275 27.998 140.275 32.563V65.628H118.679C113.037 65.628 109.053 71.156 110.837 76.508L123.743 115.225L110.974 127.994C108.682 130.287 107.941 133.706 109.079 136.741L132.009 197.887H379.994L383.565 188.366C376.958 189.128 370.272 189.62 363.461 189.62Z" fill="#FF8250"/>
<path d="M366.414 173.088H363.461C354.33 173.088 346.929 165.686 346.929 156.556V140.024L297.332 106.959V125.779C297.332 132.126 290.475 136.105 284.965 132.956L239.469 106.959L226.751 126.037C224.541 129.353 220.28 130.619 216.617 129.05L176.597 111.898C171.142 109.56 165.075 113.561 165.075 119.496V156.557C165.075 165.688 157.673 173.089 148.543 173.089H145.59C134.781 173.089 124.93 180.865 123.852 191.62C122.612 203.99 132.293 214.42 144.41 214.42H148.961C153.195 269.894 199.445 313.614 256.003 313.614C312.561 313.614 358.811 269.894 363.045 214.42H367.596C379.713 214.42 389.394 203.99 388.154 191.62C387.074 180.864 377.223 173.088 366.414 173.088Z" fill="#FFE1A0"/>
<path d="M206.485 197.886C201.916 197.886 198.219 194.189 198.219 189.62V181.354C198.219 176.785 201.916 173.088 206.485 173.088C211.054 173.088 214.751 176.785 214.751 181.354V189.62C214.751 194.189 211.054 197.886 206.485 197.886Z" fill="#6E5A64"/>
<path d="M305.679 197.886C301.11 197.886 297.413 194.189 297.413 189.62V181.354C297.413 176.785 301.11 173.088 305.679 173.088C310.248 173.088 313.945 176.785 313.945 181.354V189.62C313.945 194.189 310.248 197.886 305.679 197.886Z" fill="#6E5A64"/>
<path d="M256.082 255.749C243.675 255.749 232.236 251.769 225.479 245.101C222.226 241.888 222.194 236.657 225.398 233.412C228.619 230.159 233.85 230.127 237.087 233.331C239.84 236.043 246.459 239.216 256.081 239.216C265.703 239.216 272.323 236.044 275.075 233.331C278.312 230.126 283.543 230.159 286.764 233.412C289.969 236.657 289.936 241.888 286.683 245.101C279.928 251.77 268.489 255.749 256.082 255.749Z" fill="#E3AA75"/>
<path d="M346.929 156.556V140.024L297.332 106.959V125.779C297.332 132.126 290.475 136.105 284.964 132.956L239.469 106.959L226.75 126.036C224.539 129.352 220.278 130.618 216.615 129.049L176.595 111.898C171.14 109.56 165.073 113.561 165.073 119.496V156.557C165.073 165.688 157.671 173.089 148.541 173.089H145.588C134.779 173.089 124.928 180.865 123.851 191.62C122.611 203.989 132.292 214.419 144.409 214.419H148.96C153.194 269.893 199.444 313.613 256.002 313.613C261.656 313.613 267.17 313.062 272.586 312.22C221.082 304.271 181.606 259.883 181.606 206.153V162.996C181.606 148.338 196.594 138.455 210.067 144.23L210.102 144.245C213.769 145.816 217.686 146.473 221.705 146.185C229.74 145.608 236.851 140.691 241.319 133.988L244.665 128.97L276.762 147.311C280.517 149.457 284.767 150.591 289.054 150.591C298.98 150.591 307.562 144.732 311.526 136.292L337.759 153.78L338.615 154.351L339.536 154.811L347.137 158.611C347.051 157.93 346.929 157.26 346.929 156.556Z" fill="#F7D291"/>
<path d="M264.267 454.137H247.735C243.17 454.137 239.469 450.436 239.469 445.871V363.21H272.534V445.871C272.533 450.436 268.832 454.137 264.267 454.137Z" fill="#DBD9DC"/>
<path d="M205.732 406.297L256.001 363.209L189.153 326.071C185.039 323.785 179.85 325.391 177.745 329.6L167.052 350.986C165.816 353.458 165.897 356.384 167.268 358.784L193.175 404.122C195.75 408.628 201.792 409.674 205.732 406.297Z" fill="#EDEBED"/>
<path d="M306.27 406.297L256.001 363.209L322.849 326.071C326.963 323.785 332.152 325.391 334.257 329.6L344.95 350.986C346.186 353.458 346.105 356.384 344.734 358.784L318.827 404.122C316.252 408.628 310.21 409.674 306.27 406.297Z" fill="#EDEBED"/>
<path d="M140.275 478.935V460.716C140.275 448.914 135.214 437.653 126.399 429.831L77.1739 386.074C72.7409 389.463 68.9669 393.557 65.9199 398.181L115.421 442.19C120.708 446.88 123.744 453.637 123.744 460.716V475.629L140.275 478.935Z" fill="#8CB4EB"/>
<path d="M371.727 478.935V460.716C371.727 448.914 376.788 437.653 385.603 429.831L434.828 386.074C439.261 389.463 443.035 393.557 446.082 398.181L396.581 442.19C391.294 446.88 388.258 453.637 388.258 460.716V475.629L371.727 478.935Z" fill="#8CB4EB"/>
</g>
<defs>
<clipPath id="clip0">
<rect width="512" height="512" fill="white"/>
</clipPath>
</defs>
</svg>
