<svg width="512" height="512" viewBox="0 0 512 512" fill="none" xmlns="http://www.w3.org/2000/svg">
<path d="M418.626 377.668L331.59 352.069C321.046 348.968 313.806 339.291 313.806 328.301V289.032H198.195V328.301C198.195 339.291 190.955 348.968 180.411 352.069L93.3749 377.668C72.2879 383.87 57.8069 403.223 57.8069 425.203V487.226C57.8069 500.908 68.8989 512 82.5809 512H429.42C443.102 512 454.194 500.908 454.194 487.226V425.203C454.194 403.223 439.714 383.87 418.626 377.668Z" fill="#F7D291"/>
<path d="M198.195 307.461C215.544 316.728 235.219 322.065 256.001 322.065C276.783 322.065 296.458 316.728 313.807 307.461V289.033H198.195V307.461Z" fill="#F0C382"/>
<path d="M367.484 165.161H363.355V74.323H148.645V165.162H144.516C133.114 165.162 123.871 174.405 123.871 185.807C123.871 197.209 133.114 206.452 144.516 206.452H149.062C153.292 261.871 199.497 305.549 256 305.549C312.503 305.549 358.708 261.871 362.938 206.452H367.484C378.886 206.452 388.129 197.209 388.129 185.807C388.129 174.404 378.886 165.161 367.484 165.161Z" fill="#FFE1A0"/>
<path d="M330.323 107.355V74.323H148.646V165.162H145.695C134.896 165.162 125.055 172.932 123.979 183.677C122.741 196.035 132.412 206.452 144.517 206.452H149.063C153.293 261.871 199.498 305.549 256.001 305.549C261.65 305.549 267.158 304.999 272.569 304.157C221.115 296.216 181.678 251.871 181.678 198.194V156.904C181.678 138.661 196.467 123.872 214.71 123.872H313.807C322.928 123.871 330.323 116.476 330.323 107.355Z" fill="#F7D291"/>
<path d="M396.303 38.618C394.912 16.578 375.421 0 353.336 0H196.872C157.787 0 127.246 33.747 131.136 72.638L140.389 165.161H148.646C157.767 165.161 165.162 157.767 165.162 148.645L165.163 107.354H346.84L346.839 148.644C346.839 157.766 354.233 165.16 363.355 165.16H371.614L378.486 75.827L377.933 75.664C389.732 67.81 397.277 54.069 396.303 38.618Z" fill="#B67F5F"/>
<path d="M231.227 0H196.872C157.787 0 127.246 33.747 131.136 72.638L140.389 165.161H148.646C157.767 165.161 165.162 157.767 165.162 148.645L165.163 107.354V66.064C165.161 29.578 194.74 0 231.227 0Z" fill="#A06E50"/>
<path d="M206.452 189.935C201.887 189.935 198.194 186.237 198.194 181.677V173.419C198.194 168.859 201.888 165.161 206.452 165.161C211.016 165.161 214.71 168.859 214.71 173.419V181.677C214.711 186.238 211.017 189.935 206.452 189.935Z" fill="#6E5A64"/>
<path d="M305.548 189.935C300.983 189.935 297.29 186.237 297.29 181.677V173.419C297.29 168.859 300.984 165.161 305.548 165.161C310.113 165.161 313.806 168.859 313.806 173.419V181.677C313.806 186.238 310.113 189.935 305.548 189.935Z" fill="#6E5A64"/>
<path d="M256 247.742C243.613 247.742 232.177 243.766 225.427 237.105C222.177 233.903 222.145 228.674 225.346 225.428C228.548 222.178 233.79 222.146 237.023 225.347C239.773 228.061 246.394 231.226 255.999 231.226C265.604 231.226 272.225 228.061 274.975 225.347C278.209 222.145 283.451 222.178 286.652 225.428C289.854 228.674 289.821 233.904 286.571 237.105C279.823 243.766 268.387 247.742 256 247.742Z" fill="#E3AA75"/>
<path d="M214.711 156.903H198.195C193.63 156.903 189.937 153.205 189.937 148.645C189.937 144.085 193.631 140.387 198.195 140.387H214.711C219.276 140.387 222.969 144.085 222.969 148.645C222.969 153.205 219.275 156.903 214.711 156.903Z" fill="#A06E50"/>
<path d="M313.806 156.903H297.29C292.725 156.903 289.032 153.205 289.032 148.645C289.032 144.085 292.726 140.387 297.29 140.387H313.806C318.371 140.387 322.064 144.085 322.064 148.645C322.064 153.205 318.371 156.903 313.806 156.903Z" fill="#A06E50"/>
<path d="M173.42 371.613V354.125L132.13 366.269V512H379.872V366.269L338.582 354.125V371.613C338.582 417.221 301.609 454.194 256.001 454.194C210.393 454.194 173.42 417.221 173.42 371.613Z" fill="#A5CDFF"/>
<path d="M376.059 107.355L378.484 75.8279L377.931 75.6649C381.826 73.0719 385.197 69.7889 388.011 66.0649H130.833C130.836 68.2379 130.914 70.4269 131.135 72.6389L134.607 107.356H165.162H346.839L376.059 107.355Z" fill="#A5CDFF"/>
<path d="M297.29 99.0969C307.235 99.0969 316.235 95.4369 323.363 89.5809C332.475 95.5819 343.37 99.0969 355.097 99.0969C362.864 99.0969 370.262 97.5409 377.028 94.7629L378.485 75.8289L377.932 75.6659C381.827 73.0729 385.198 69.7899 388.012 66.0659H256.832C260.659 84.9109 277.315 99.0969 297.29 99.0969Z" fill="#8CB4EB"/>
<path d="M256.806 66.0641H281.58V49.5481H273.322C264.201 49.5481 256.806 56.9431 256.806 66.0641Z" fill="#A06E50"/>
<path d="M355.1 82.58C377.904 82.58 396.39 64.0938 396.39 41.29C396.39 18.4862 377.904 0 355.1 0C332.296 0 313.81 18.4862 313.81 41.29C313.81 64.0938 332.296 82.58 355.1 82.58Z" fill="#B67F5F"/>
<path d="M297.29 82.58C310.972 82.58 322.064 71.4883 322.064 57.806C322.064 44.1237 310.972 33.032 297.29 33.032C283.608 33.032 272.516 44.1237 272.516 57.806C272.516 71.4883 283.608 82.58 297.29 82.58Z" fill="#B67F5F"/>
<path d="M130.833 66.0649C130.836 68.2379 130.914 70.4269 131.135 72.6389L134.607 107.356H165.162V66.0659L130.833 66.0649Z" fill="#8CB4EB"/>
<path d="M338.581 354.125V371.613C338.581 417.221 301.608 454.194 256 454.194C210.392 454.194 173.419 417.221 173.419 371.613V354.125L156.903 358.983V371.613C156.903 426.342 201.27 470.71 256 470.71C310.73 470.71 355.097 426.343 355.097 371.613V358.983L338.581 354.125Z" fill="#8CB4EB"/>
<path d="M132.13 454.194V512H107.356V478.968C107.356 465.285 118.448 454.194 132.13 454.194Z" fill="#F0C382"/>
<path d="M132.13 512H148.646V470.71C148.646 461.588 141.251 454.194 132.13 454.194V512Z" fill="#8CB4EB"/>
<path d="M379.871 454.194V512H404.645V478.968C404.645 465.285 393.553 454.194 379.871 454.194Z" fill="#F0C382"/>
<path d="M379.871 512H363.355V470.71C363.355 461.588 370.75 454.194 379.871 454.194V512Z" fill="#8CB4EB"/>
</svg>
