<svg width="512" height="512" viewBox="0 0 512 512" fill="none" xmlns="http://www.w3.org/2000/svg">
<path d="M412.878 384.684L327.587 354.581C314.38 349.92 305.548 337.437 305.548 323.432V280.775H206.45V323.432C206.45 337.437 197.618 349.92 184.412 354.581L99.121 384.684C79.311 391.676 66.064 410.4 66.064 431.407V487.226C66.064 500.908 77.156 512 90.838 512H421.161C434.843 512 445.935 500.908 445.935 487.226V431.408C445.935 410.4 432.688 391.676 412.878 384.684Z" fill="#E3AA75"/>
<path d="M412.877 384.683L344.638 360.598L337.281 378.99C323.006 414.678 291.155 437.676 256.007 437.676H255.993C220.845 437.676 188.994 414.677 174.719 378.99L167.362 360.598L99.1219 384.683C79.3119 391.675 66.0649 410.399 66.0649 431.407V487.226C66.0649 500.908 77.1569 512 90.8389 512H421.162C434.844 512 445.936 500.908 445.936 487.226V431.407C445.935 410.399 432.688 391.675 412.877 384.683Z" fill="#FFD164"/>
<path d="M256 313.806C273.548 313.806 290.301 309.982 305.548 303.239V280.773H206.451V303.239C221.699 309.982 238.452 313.806 256 313.806Z" fill="#D29B6E"/>
<path d="M367.484 165.161H363.355V74.323H148.645V165.162H144.516C133.114 165.162 123.871 174.405 123.871 185.807C123.871 197.208 133.114 206.452 144.516 206.452H150.045C158.008 257.879 202.341 297.291 256 297.291C309.659 297.291 353.992 257.88 361.956 206.452H367.484C378.886 206.452 388.129 197.208 388.129 185.807C388.129 174.404 378.885 165.161 367.484 165.161Z" fill="#F5B97D"/>
<path d="M346.84 156.9H272.52V173.416H346.84V156.9Z" fill="#E3AA75"/>
<path d="M277.702 190.968C273.807 190.968 270.339 188.202 269.597 184.234C268.387 177.815 262.67 173.161 256 173.161C249.331 173.161 243.613 177.814 242.403 184.234C241.564 188.718 237.242 191.686 232.766 190.823C228.282 189.984 225.331 185.67 226.177 181.186C228.846 166.968 241.387 156.646 256 156.646C270.613 156.646 283.153 166.969 285.823 181.186C286.67 185.67 283.718 189.984 279.234 190.823C278.717 190.919 278.21 190.968 277.702 190.968Z" fill="#FFE1A0"/>
<path d="M327.945 74.323H148.645V165.162H145.694C134.895 165.162 125.054 172.931 123.978 183.676C122.74 196.034 132.411 206.452 144.516 206.452H150.045C158.008 257.879 202.341 297.291 256 297.291C261.672 297.291 267.21 296.759 272.642 295.91C228.727 289.165 193.585 255.892 184.192 212.932C182.68 206.019 185.923 198.884 192.056 195.354C225.392 176.165 266.058 148.323 303.273 110.477C313.594 99.978 321.807 87.786 327.945 74.323Z" fill="#E3AA75"/>
<path d="M256 247.742C243.605 247.742 232.177 243.766 225.427 237.105C222.177 233.895 222.145 228.67 225.346 225.428C228.564 222.178 233.79 222.146 237.023 225.347C239.773 228.057 246.386 231.226 255.999 231.226C265.612 231.226 272.225 228.057 274.975 225.347C278.209 222.145 283.435 222.178 286.652 225.428C289.854 228.67 289.821 233.896 286.571 237.105C279.823 243.766 268.395 247.742 256 247.742Z" fill="#B67F5F"/>
<path d="M206.452 189.935C201.887 189.935 198.194 186.241 198.194 181.677V173.419C198.194 168.854 201.888 165.161 206.452 165.161C211.016 165.161 214.71 168.855 214.71 173.419V181.677C214.71 186.242 211.016 189.935 206.452 189.935Z" fill="#5A4650"/>
<path d="M305.548 189.935C300.983 189.935 297.29 186.241 297.29 181.677V173.419C297.29 168.854 300.984 165.161 305.548 165.161C310.113 165.161 313.806 168.855 313.806 173.419V181.677C313.806 186.242 310.113 189.935 305.548 189.935Z" fill="#5A4650"/>
<path d="M162.199 186.347L156.981 149.815C156.642 147.444 157.352 145.041 158.916 143.234C160.489 141.428 162.763 140.387 165.158 140.387H239.481C241.876 140.387 244.15 141.427 245.723 143.234C247.288 145.04 247.997 147.444 247.658 149.815L243.448 179.259C240.561 199.469 222.988 214.711 202.577 214.711H194.9C178.57 214.71 164.506 202.516 162.199 186.347ZM174.683 156.903L178.554 184.008C179.707 192.097 186.731 198.193 194.901 198.193H202.578C214.828 198.193 225.368 189.048 227.094 176.919L229.957 156.903H174.683Z" fill="white"/>
<path d="M313.806 16.5161H289.032V82.5811C328.602 169.635 379.871 169.307 379.871 169.307V82.5811C379.871 46.0951 350.293 16.5161 313.806 16.5161Z" fill="#A06E50"/>
<path d="M309.477 17.752C303.98 10.635 296.438 5.085 287.251 2.228C282.596 0.78 277.647 0 272.516 0H256C188.005 0 122.151 57.806 122.151 132.129C122.151 165.581 119.961 187.74 118.117 200.474C117.245 206.493 123.24 211.117 128.836 208.736C157.91 196.365 229.729 161.713 291.496 98.896C301.304 88.921 309.1 77.103 314.488 64.193C320.881 48.876 319.622 30.887 309.477 17.752Z" fill="#8C5F4B"/>
<path d="M396.54 443.597L438.933 406.289C436.114 401.519 432.537 397.253 428.28 393.652L385.629 431.194C376.718 439.025 371.613 450.323 371.613 462.194V512H388.129V462.194C388.129 455.073 391.194 448.29 396.54 443.597Z" fill="#FFE17D"/>
<path d="M115.46 443.597L73.0669 406.289C75.8859 401.519 79.4629 397.253 83.7199 393.652L126.371 431.194C135.282 439.025 140.387 450.323 140.387 462.194V512H123.871V462.194C123.871 455.073 120.806 448.29 115.46 443.597Z" fill="#FFE17D"/>
<path d="M317.096 214.71H309.419C289.008 214.71 271.435 199.468 268.548 179.258L264.338 149.814C263.999 147.443 264.709 145.04 266.273 143.233C267.846 141.427 270.12 140.386 272.515 140.386H346.838C349.233 140.386 351.507 141.426 353.08 143.233C354.645 145.039 355.354 147.443 355.015 149.814L349.797 186.346C347.492 202.516 333.427 214.71 317.096 214.71ZM282.04 156.903L284.903 176.919C286.629 189.048 297.169 198.193 309.419 198.193H317.096C325.265 198.193 332.29 192.096 333.443 184.008L337.314 156.903H282.04Z" fill="white"/>
</svg>
