<svg width="512" height="512" viewBox="0 0 512 512" fill="none" xmlns="http://www.w3.org/2000/svg">
<path d="M165.16 165.161C164.88 165.161 164.611 165.199 164.332 165.203C160.066 144.083 139.696 128.801 116.581 132.753C100.292 135.538 86.861 148.391 83.5 164.571C79.81 182.336 87.551 198.609 100.702 207.532C105.33 210.671 107.481 216.201 107.366 221.792C107.248 227.509 107.988 233.438 109.807 239.499C116.176 260.721 134.56 276.954 156.486 280.142C192.262 285.343 222.967 257.741 222.967 222.968C222.967 191.042 197.086 165.161 165.16 165.161Z" fill="#8C5F4B"/>
<path d="M346.838 165.161C347.118 165.161 347.387 165.199 347.666 165.203C351.932 144.083 372.302 128.801 395.417 132.753C411.706 135.538 425.137 148.391 428.498 164.571C432.188 182.336 424.447 198.609 411.296 207.532C406.668 210.671 404.517 216.201 404.632 221.792C404.75 227.509 404.01 233.438 402.191 239.499C395.822 260.721 377.438 276.954 355.512 280.142C319.736 285.343 289.031 257.741 289.031 222.968C289.031 191.042 314.912 165.161 346.838 165.161Z" fill="#8C5F4B"/>
<path d="M255.999 0C183.026 0 123.87 59.156 123.87 132.129V177.549H388.128V132.129C388.128 59.156 328.972 0 255.999 0Z" fill="#8C5F4B"/>
<path d="M412.877 368.204L327.586 338.101C314.379 333.44 305.547 320.957 305.547 306.952V256H206.45V306.952C206.45 320.957 197.618 333.44 184.412 338.101L99.121 368.204C79.311 375.196 66.064 393.92 66.064 414.927V487.226C66.064 500.908 77.156 512 90.838 512H421.161C434.843 512 445.935 500.908 445.935 487.226V414.927C445.934 393.919 432.687 375.195 412.877 368.204Z" fill="#E3AA75"/>
<path d="M412.877 368.204L327.586 338.101C322.115 336.17 317.458 332.845 313.805 328.677V342.71C313.805 376.916 286.076 404.645 251.87 404.645C217.664 404.645 189.935 376.916 189.935 342.71V335.493C188.188 336.504 186.366 337.412 184.413 338.101L99.1219 368.204C79.3119 375.195 66.0649 393.92 66.0649 414.927V487.226C66.0649 500.908 77.1569 512 90.8389 512H421.162C434.844 512 445.936 500.908 445.936 487.226V414.927C445.934 393.919 432.687 375.195 412.877 368.204Z" fill="#B4F09B"/>
<path d="M160.565 416.114C168.311 434.688 186.279 446.69 206.338 446.69C210.383 446.69 214.434 446.19 218.379 445.204L255.999 435.798L293.618 445.203C297.564 446.189 301.615 446.689 305.66 446.689C325.719 446.689 343.687 434.687 351.433 416.113C359.859 395.91 364.305 373.684 364.598 351.163L327.585 338.099C322.114 336.168 317.457 332.843 313.804 328.675V342.708C313.804 376.914 286.075 404.643 251.869 404.643C217.663 404.643 189.934 376.914 189.934 342.708V335.491C188.187 336.502 186.365 337.41 184.412 338.099L147.399 351.164C147.693 373.684 152.138 395.911 160.565 416.114Z" fill="#9BDC9B"/>
<path d="M206.451 303.587C221.649 310.171 238.408 313.806 255.999 313.806C273.59 313.806 290.349 310.17 305.547 303.587V272.516H206.45L206.451 303.587Z" fill="#D29B6E"/>
<path d="M367.483 156.903C367.483 156.903 356.425 155.571 353.042 154.635C334.28 149.44 293.66 133.219 262.89 85.7929C259.648 80.7959 252.35 80.7959 249.108 85.7929C218.338 133.218 177.718 149.44 158.956 154.635C155.573 155.571 144.515 156.903 144.515 156.903C132.411 156.903 122.74 167.319 123.977 179.677C125.053 190.422 134.893 198.193 145.692 198.193H149.061C153.291 253.612 199.496 297.29 255.999 297.29C312.502 297.29 358.707 253.612 362.937 198.193H366.306C377.105 198.193 386.946 190.422 388.021 179.677C389.258 167.319 379.587 156.903 367.483 156.903Z" fill="#F5B97D"/>
<path d="M353.042 154.635C334.3 149.444 293.745 133.252 262.987 85.9411C259.697 80.8801 252.306 80.8721 249.016 85.9331C227.77 118.617 201.855 136.441 181.677 146.057C172.643 150.361 164.753 153.03 158.957 154.635C155.574 155.571 144.516 156.903 144.516 156.903C132.412 156.903 122.742 167.318 123.978 179.676C125.053 190.422 134.893 198.194 145.693 198.194H149.062C153.292 253.613 199.497 297.291 256 297.291C261.632 297.291 267.118 296.727 272.516 295.891C225.367 288.591 188.319 250.721 182.48 203.121C181.613 196.05 181.809 188.873 182.687 181.802C183.402 176.041 185.111 170.334 188.453 165.587C191.391 161.414 195.212 157.89 199.729 155.328C217.793 145.082 238.014 129.247 256 104.849C277.545 134.075 302.297 151.013 322.709 160.778C337.269 167.744 354.413 166.372 367.484 156.902C367.483 156.903 356.424 155.572 353.042 154.635Z" fill="#E3AA75"/>
<path d="M206.459 182.395C201.894 182.395 198.201 178.697 198.201 174.137V165.879C198.201 161.319 201.895 157.621 206.459 157.621C211.024 157.621 214.717 161.319 214.717 165.879V174.137C214.717 178.698 211.023 182.395 206.459 182.395Z" fill="#5A4650"/>
<path d="M305.555 182.395C300.99 182.395 297.297 178.697 297.297 174.137V165.879C297.297 161.319 300.991 157.621 305.555 157.621C310.119 157.621 313.813 161.319 313.813 165.879V174.137C313.814 178.698 310.12 182.395 305.555 182.395Z" fill="#5A4650"/>
<path d="M256.007 240.202C243.62 240.202 232.184 236.226 225.434 229.565C222.184 226.363 222.152 221.134 225.353 217.888C228.554 214.642 233.797 214.606 237.03 217.807C239.78 220.521 246.401 223.686 256.006 223.686C265.611 223.686 272.232 220.521 274.982 217.807C278.216 214.605 283.458 214.642 286.659 217.888C289.861 221.134 289.828 226.364 286.578 229.565C279.83 236.226 268.394 240.202 256.007 240.202Z" fill="#B67F5F"/>
<path d="M275.2 1.55103C273.515 9.03603 272.515 16.777 272.515 24.774C272.515 84.064 320.58 132.129 379.87 132.129C382.651 132.129 385.38 131.921 388.107 131.713C387.9 65.468 338.913 10.852 275.2 1.55103Z" fill="#A06E50"/>
<path d="M260.128 495.484H251.87C247.309 495.484 243.612 491.787 243.612 487.226V412.903H268.386V487.226C268.386 491.787 264.689 495.484 260.128 495.484Z" fill="#FFD164"/>
<path d="M140.394 512V453.403C140.394 441.262 135.088 429.798 125.846 421.947L78.7879 381.931C75.0519 386.103 72.0869 390.886 69.9399 396.083L115.153 434.531C120.701 439.241 123.879 446.12 123.879 453.402V512H140.394Z" fill="#9BDC9B"/>
<path d="M371.612 512V453.403C371.612 441.262 376.918 429.798 386.16 421.947L433.218 381.931C436.954 386.103 439.919 390.886 442.066 396.083L396.853 434.531C391.305 439.241 388.127 446.12 388.127 453.402V512H371.612Z" fill="#9BDC9B"/>
<path d="M243.612 438.895L255.999 435.798L268.386 438.895V412.903H243.612V438.895Z" fill="#FFC350"/>
<path d="M305.539 313.806L336.77 324.426C343.097 326.632 347.477 332.474 347.871 339.163C349.633 369.038 343.115 393.152 336.19 409.756C329.878 424.89 313.533 433.157 297.624 429.18L255.999 418.774L214.373 429.181C198.465 433.158 182.119 424.891 175.807 409.757C168.882 393.153 162.363 369.039 164.126 339.164C164.52 332.475 168.901 326.633 175.227 324.427L206.458 313.807L206.45 313.541V338.315C206.45 365.68 228.634 387.863 255.998 387.863C283.362 387.863 305.546 365.679 305.546 338.315V313.541" fill="#FFE17D"/>
<path d="M305.539 313.806L305.547 313.809V313.541L305.539 313.806Z" fill="#FFD164"/>
<path d="M206.451 313.541V313.809L206.459 313.806L206.451 313.541Z" fill="#FFD164"/>
<path d="M255.999 404.645C292.485 404.645 322.064 375.067 322.064 338.58V319.425L305.548 313.809V338.315C305.548 365.68 283.365 387.863 256 387.863C228.635 387.863 206.452 365.68 206.452 338.315V313.809L189.936 319.425V338.58C189.934 375.067 219.513 404.645 255.999 404.645Z" fill="#FFD164"/>
</svg>
