<svg width="512" height="512" viewBox="0 0 512 512" fill="none" xmlns="http://www.w3.org/2000/svg">
<path d="M410.211 378.084L330.391 354.607C320.015 351.555 312.889 342.032 312.889 331.217V292.571H199.111V331.217C199.111 342.033 191.986 351.556 181.609 354.607L101.789 378.084C77.5781 385.205 60.9521 407.425 60.9521 432.661V487.619C60.9521 501.084 71.8681 512 85.3331 512H426.666C440.131 512 451.047 501.084 451.047 487.619V432.661C451.048 407.425 434.422 385.205 410.211 378.084Z" fill="#B67F5F"/>
<path d="M199.111 310.707C216.185 319.827 235.548 325.079 256 325.079C276.452 325.079 295.815 319.827 312.889 310.707V292.571H199.111V310.707Z" fill="#A06E50"/>
<path d="M199.111 310.707C216.185 319.827 235.548 325.079 256 325.079C276.452 325.079 295.815 319.827 312.889 310.707V292.571H199.111V310.707Z" fill="#A06E50"/>
<path d="M312.889 512H426.667C440.132 512 451.048 501.084 451.048 487.619V432.661C451.048 407.425 434.422 385.205 410.211 378.084L330.391 354.607C320.662 351.745 313.872 343.176 313.052 333.206H312.889V512Z" fill="#6E5A64"/>
<path d="M361.651 512L375.63 449.094C377.015 442.862 374.623 436.396 369.515 432.565L353.096 420.251C348.348 416.69 345.918 410.824 346.758 404.949L352.536 364.505C353.204 359.826 351.854 355.074 348.716 351.539C342.183 344.18 329.4 332.564 312.889 331.218V512H361.651Z" fill="#5A4650"/>
<path d="M199.111 512H85.3331C71.8681 512 60.9521 501.084 60.9521 487.619V432.661C60.9521 407.425 77.5781 385.205 101.789 378.084L181.609 354.607C191.338 351.745 198.128 343.176 198.948 333.206H199.111V512Z" fill="#6E5A64"/>
<path d="M150.349 512L136.37 449.094C134.985 442.862 137.377 436.396 142.485 432.565L158.904 420.251C163.652 416.69 166.082 410.824 165.242 404.949L159.464 364.505C158.796 359.826 160.146 355.074 163.284 351.539C169.817 344.18 182.6 332.564 199.111 331.218V512H150.349Z" fill="#5A4650"/>
<path d="M256 414.476C234.388 414.476 214.568 406.806 199.111 394.04V512H312.889V394.04C297.432 406.806 277.612 414.476 256 414.476Z" fill="#DC4655"/>
<path d="M312.889 413.964V370.952C299.47 387.561 278.968 398.223 256 398.223C233.032 398.223 212.53 387.561 199.111 370.952V413.964C215.553 424.525 235.049 430.73 256 430.73C276.951 430.73 296.446 424.525 312.889 413.964Z" fill="#FF8087"/>
<path d="M292.572 284.444H219.429C140.882 284.444 77.207 220.769 77.207 142.222C77.206 63.675 140.881 0 219.428 0H292.571C371.118 0 434.793 63.675 434.793 142.222C434.794 220.769 371.119 284.444 292.572 284.444Z" fill="#5A4650"/>
<path d="M364.555 170.667H361.65C352.673 170.667 345.396 163.39 345.396 154.413V113.778C345.396 104.801 338.119 97.5239 329.142 97.5239H182.857C173.88 97.5239 166.603 104.801 166.603 113.778V154.413C166.603 163.39 159.326 170.667 150.349 170.667H147.444C136.816 170.667 127.132 178.314 126.073 188.888C124.855 201.05 134.373 211.302 146.285 211.302H150.759C154.922 265.841 200.393 308.826 255.999 308.826C311.605 308.826 357.076 265.841 361.239 211.302H365.713C377.625 211.302 387.143 201.05 385.925 188.888C384.868 178.313 375.183 170.667 364.555 170.667Z" fill="#CD916E"/>
<path d="M329.143 97.5239H182.857C173.88 97.5239 166.603 104.801 166.603 113.778V154.413C166.603 163.39 159.326 170.667 150.349 170.667H147.446C136.818 170.667 127.133 178.314 126.074 188.888C124.856 201.05 134.373 211.302 146.286 211.302H150.76C154.923 265.841 200.394 308.826 256 308.826C261.559 308.826 266.98 308.284 272.305 307.456C221.668 299.642 182.857 256 182.857 203.175V146.286C182.857 128.332 197.411 113.778 215.365 113.778H312.889C321.866 113.778 329.143 106.501 329.143 97.5239Z" fill="#B67F5F"/>
<path d="M256 260.064C243.81 260.064 232.556 256.151 225.913 249.596C222.715 246.445 222.683 241.298 225.834 238.104C228.985 234.906 234.144 234.874 237.326 238.025C240.032 240.696 246.548 243.811 256.001 243.811C265.453 243.811 271.969 240.696 274.676 238.025C277.859 234.874 283.017 234.906 286.168 238.104C289.319 241.298 289.287 246.445 286.089 249.596C279.444 256.151 268.19 260.064 256 260.064Z" fill="#A06E50"/>
<path d="M312.537 162.54H199.463C185.055 162.54 171.58 171.583 167.756 185.475C164.108 198.731 169.36 212.312 180.119 219.77C185.452 223.464 191.706 225.365 198.024 225.365C201.738 225.365 205.468 224.706 209.04 223.369H209.048L227.492 216.452C239.751 211.855 247.873 200.135 247.873 187.042V186.92C247.873 182.432 251.512 178.793 256 178.793C260.488 178.793 264.127 182.432 264.127 186.92V187.042C264.127 200.135 272.249 211.854 284.508 216.452L302.952 223.369H302.96C306.531 224.706 310.262 225.365 313.976 225.365C320.286 225.365 326.547 223.464 331.881 219.77C342.64 212.311 347.893 198.731 344.244 185.475C340.421 171.583 326.946 162.54 312.537 162.54Z" fill="white"/>
<path d="M231.619 187.036C231.619 193.322 227.667 199.024 221.778 201.23L203.334 208.147C198.612 209.933 193.532 209.29 189.382 206.413C185.239 203.54 182.858 198.996 182.858 193.953C182.858 185.596 189.66 178.794 198.017 178.794H231.62L231.619 187.036Z" fill="#E6646E"/>
<path d="M322.619 206.413C318.468 209.282 313.381 209.925 308.667 208.147L290.223 201.23C284.334 199.024 280.382 193.321 280.382 187.036V178.794H313.985C322.342 178.794 329.144 185.596 329.144 193.953C329.143 198.996 326.762 203.54 322.619 206.413Z" fill="#E6646E"/>
<path d="M207.238 195.048C202.75 195.048 199.111 191.409 199.111 186.921V178.794H215.365V186.921C215.365 191.409 211.727 195.048 207.238 195.048Z" fill="#DC4655"/>
<path d="M304.762 195.048C300.274 195.048 296.635 191.409 296.635 186.921V178.794H312.889V186.921C312.889 191.409 309.25 195.048 304.762 195.048Z" fill="#DC4655"/>
</svg>
